<?xml version="1.0" standalone="no"?>
<!DOCTYPE svg PUBLIC "-//W3C//DTD SVG 1.1//EN" "http://www.w3.org/Graphics/SVG/1.1/DTD/svg11.dtd" >
<svg xmlns="http://www.w3.org/2000/svg" xmlns:xlink="http://www.w3.org/1999/xlink" version="1.1">
<metadata></metadata>
<defs>
<font id="jzdjoslflpmlycvfltfregular" horiz-adv-x="525" >
<font-face units-per-em="1000" ascent="789" descent="-211" />
<missing-glyph horiz-adv-x="225" />
<glyph unicode="fi" horiz-adv-x="596" d="M41 50q11 2 33.5 5t45.5 3v364h-80v58h80v68q0 83 49 133.5t144 50.5q62 0 98.5 -16t59.5 -31l-34 -50q-17 12 -50 24t-77 12q-60 0 -88.5 -32t-28.5 -95v-64h177l127 6l-4 -79v-349q23 0 45.5 -3t33.5 -5v-50h-232v50q11 2 33.5 5t45.5 3v364h-226v-364q23 0 50.5 -3 t38.5 -5v-50h-241v50z" />
<glyph unicode="fl" horiz-adv-x="597" d="M41 50q11 2 33.5 5t45.5 3v364h-80v58h80v71q0 88 53 134.5t141 46.5q30 0 54.5 -3t44.5 -7l86 4l-5 -79v-589q23 0 45.5 -3t33.5 -5v-50h-231v50q11 2 33.5 5t45.5 3v600q-11 4 -43.5 8.5t-67.5 4.5q-62 0 -89.5 -33.5t-27.5 -93.5v-64h122v-58h-122v-364 q23 -1 50.5 -3.5t38.5 -4.5v-50h-241v50z" />
<glyph unicode="fb" horiz-adv-x="849" d="M41 50q11 2 33.5 5t45.5 3v364h-80v58h80v71q0 88 49.5 134.5t135.5 46.5q30 0 53.5 -2.5t43.5 -7.5l85 4l-5 -79v-206h2q19 21 50 36t68 15q49 0 87.5 -17.5t65 -49.5t40.5 -77t14 -101t-18.5 -103t-51 -82t-77.5 -54.5t-97 -19.5q-48 0 -90 11t-66 26v633 q-11 4 -42 8.5t-66 4.5q-60 0 -84 -33.5t-24 -93.5v-64h122v-58h-122v-364q23 -1 50.5 -3.5t38.5 -4.5v-50h-241v50zM565 47q41 0 72 15.5t52 42.5t31.5 62t10.5 74q0 38 -7.5 72t-25 60t-44.5 41.5t-66 15.5q-30 0 -59.5 -14.5t-46.5 -32.5v-321q14 -7 34.5 -11t48.5 -4z " />
<glyph unicode="fh" horiz-adv-x="892" d="M41 50q11 2 33.5 5t45.5 3v364h-80v58h80v71q0 88 53 134.5t141 46.5q30 0 54.5 -3t44.5 -7l86 4l-5 -79v-239h2q28 38 66 61t87 23q38 0 65 -12t44 -32t25 -47.5t8 -58.5v-284q23 0 45.5 -3t33.5 -5v-50h-231v50q11 2 33.5 5t45.5 3v274q0 45 -19.5 71.5t-66.5 26.5 q-44 0 -78 -26.5t-60 -61.5v-284q23 0 45.5 -3t33.5 -5v-50h-231v50q11 2 33.5 5t45.5 3v600q-11 4 -43.5 8.5t-67.5 4.5q-62 0 -89.5 -33.5t-27.5 -93.5v-64h122v-58h-122v-364q23 -1 50.5 -3.5t38.5 -4.5v-50h-241v50z" />
<glyph unicode="fj" horiz-adv-x="560" d="M41 50q11 2 33.5 5t45.5 3v364h-80v58h80v68q0 83 49 133.5t144 50.5q62 0 98.5 -16t59.5 -31l-34 -50q-17 12 -50 24t-77 12q-60 0 -88.5 -32t-28.5 -95v-64h162l127 6l-4 -79v-471q0 -37 -7.5 -67.5t-24 -52.5t-42.5 -34t-63 -12q-25 0 -37 2.5t-15 4.5l11 58 q4 -2 12 -3.5t23 -1.5q40 0 55 30t15 85v477h-212v-364q23 0 50.5 -3t38.5 -5v-50h-241v50z" />
<glyph unicode="fk" horiz-adv-x="858" d="M41 50q11 2 33.5 5t45.5 3v364h-80v58h80v71q0 88 53 134.5t141 46.5q30 0 54.5 -3t44.5 -7l86 4l-5 -79v-589q23 0 45.5 -3t33.5 -5v-50h-231v50q11 2 33.5 5t45.5 3v600q-11 4 -43.5 8.5t-67.5 4.5q-62 0 -89.5 -33.5t-27.5 -93.5v-64h122v-58h-122v-364 q23 -1 50.5 -3.5t38.5 -4.5v-50h-241v50zM644 50q8 2 23 3.5t32 3.5l-195 199l167 166q-20 2 -37.5 4t-25.5 4v50h221v-50q-10 -2 -31 -4.5t-43 -2.5l-166 -160l202 -205q20 -1 39 -3.5t28 -4.5v-50h-214v50z" />
<glyph unicode="ffb" horiz-adv-x="1160" d="M41 50q11 2 33.5 5t45.5 3v364h-80v58h80v71q0 83 45.5 132t129.5 49q35 0 54.5 -5t25.5 -8l-18 -60q-5 2 -22 7t-42 5q-48 0 -74 -31t-26 -91v-69h226v71q0 88 53 134.5t141 46.5q30 0 54.5 -3t44.5 -7l86 4l-5 -79v-206h2q19 21 50 36t68 15q49 0 87.5 -17.5t65 -49.5 t40.5 -77t14 -101t-18.5 -103t-51 -82t-77.5 -54.5t-97 -19.5q-48 0 -90 11t-66 26v633q-11 4 -43.5 8.5t-67.5 4.5q-62 0 -89.5 -33.5t-27.5 -93.5v-64h122v-58h-122v-364q23 -1 50.5 -3.5t38.5 -4.5v-50h-241v50q11 2 33.5 5t45.5 3v364h-226v-364q23 0 50.5 -3t38.5 -5 v-50h-241v50zM876 47q41 0 72 15.5t52 42.5t31.5 62t10.5 74q0 38 -7.5 72t-25 60t-44.5 41.5t-66 15.5q-30 0 -59.5 -14.5t-46.5 -32.5v-321q14 -7 34.5 -11t48.5 -4z" />
<glyph unicode="ffh" horiz-adv-x="1191" d="M41 50q11 2 33.5 5t45.5 3v364h-80v58h80v71q0 83 45.5 132t129.5 49q35 0 54.5 -5t25.5 -8l-18 -60q-5 2 -22 7t-42 5q-48 0 -74 -31t-26 -91v-69h226v71q0 88 53 134.5t141 46.5q30 0 54.5 -3t44.5 -7l86 4l-5 -79v-239h2q28 38 66 61t87 23q38 0 65 -12t44 -32 t25 -47.5t8 -58.5v-284q23 0 45.5 -3t33.5 -5v-50h-231v50q11 2 33.5 5t45.5 3v274q0 45 -19.5 71.5t-66.5 26.5q-44 0 -78 -26.5t-60 -61.5v-284q23 0 45.5 -3t33.5 -5v-50h-231v50q11 2 33.5 5t45.5 3v600q-11 4 -43.5 8.5t-67.5 4.5q-62 0 -89.5 -33.5t-27.5 -93.5v-64 h122v-58h-122v-364q23 -1 50.5 -3.5t38.5 -4.5v-50h-241v50q11 2 33.5 5t45.5 3v364h-226v-364q23 0 50.5 -3t38.5 -5v-50h-241v50z" />
<glyph unicode="ffj" horiz-adv-x="859" d="M41 50q11 2 33.5 5t45.5 3v364h-80v58h80v71q0 83 45.5 132t129.5 49q35 0 54.5 -5t25.5 -8l-18 -60q-5 2 -22 7t-42 5q-48 0 -74 -31t-26 -91v-69h226v68q0 83 49 133.5t144 50.5q62 0 98.5 -16t59.5 -31l-34 -50q-17 12 -50 24t-77 12q-60 0 -88.5 -32t-28.5 -95v-64 h162l127 6l-4 -79v-471q0 -37 -7.5 -67.5t-24 -52.5t-42.5 -34t-63 -12q-25 0 -37 2.5t-15 4.5l11 58q4 -2 12 -3.5t23 -1.5q40 0 55 30t15 85v477h-212v-364q23 0 50.5 -3t38.5 -5v-50h-241v50q11 2 33.5 5t45.5 3v364h-226v-364q23 0 50.5 -3t38.5 -5v-50h-241v50z" />
<glyph unicode="ffk" horiz-adv-x="1159" d="M41 50q11 2 33.5 5t45.5 3v364h-80v58h80v71q0 83 45.5 132t129.5 49q35 0 54.5 -5t25.5 -8l-18 -60q-5 2 -22 7t-42 5q-48 0 -74 -31t-26 -91v-69h226v71q0 88 53 134.5t141 46.5q30 0 54.5 -3t44.5 -7l86 4l-5 -79v-589q23 0 45.5 -3t33.5 -5v-50h-231v50q11 2 33.5 5 t45.5 3v600q-11 4 -43.5 8.5t-67.5 4.5q-62 0 -89.5 -33.5t-27.5 -93.5v-64h122v-58h-122v-364q23 -1 50.5 -3.5t38.5 -4.5v-50h-241v50q11 2 33.5 5t45.5 3v364h-226v-364q23 0 50.5 -3t38.5 -5v-50h-241v50zM943 50q8 2 23 3.5t32 3.5l-195 199l167 166q-20 2 -37.5 4 t-25.5 4v50h221v-50q-10 -2 -31 -4.5t-43 -2.5l-166 -160l202 -205q20 -1 39 -3.5t28 -4.5v-50h-214v50z" />
<glyph unicode=" "  horiz-adv-x="225" />
<glyph unicode="&#x09;" horiz-adv-x="225" />
<glyph unicode="&#xa0;" horiz-adv-x="225" />
<glyph unicode="!" horiz-adv-x="274" d="M137 -8q-23 0 -40 16.5t-17 40.5q0 23 17 39.5t40 16.5t40 -16.5t17 -39.5q0 -24 -17 -40.5t-40 -16.5zM92 666h90l-16 -467h-58z" />
<glyph unicode="&#x22;" horiz-adv-x="336" d="M46 666h95l-18 -222h-59zM195 666h95l-18 -222h-59z" />
<glyph unicode="#" horiz-adv-x="494" d="M121 250h-98l10 59h97l17 111h-97l9 59h96l20 131h59l-20 -131h101l20 131h59l-20 -131h97l-10 -59h-96l-16 -111h96l-10 -59h-95l-21 -144h-59l21 144h-101l-22 -144h-59zM189 309h101l17 111h-102z" />
<glyph unicode="$" horiz-adv-x="476" d="M205 -11q-45 2 -81 12t-56 24v123h57q2 -11 4.5 -37.5t3.5 -49.5q18 -6 41.5 -10.5t50.5 -4.5q45 0 77 20t32 53q0 20 -10 34.5t-26 25t-37.5 19t-43.5 17.5q-25 9 -50 20.5t-44.5 28t-31.5 39.5t-12 57q0 54 34.5 87t91.5 42v104h71v-102q47 -5 77.5 -17.5t40.5 -20.5 v-123h-57q-1 5 -2.5 15t-2.5 22.5t-2 26t-1 24.5q-17 6 -38.5 11t-46.5 5q-46 0 -70 -20t-24 -51q0 -17 8.5 -30t23 -22.5t33 -17.5t39.5 -16q27 -10 54.5 -21.5t49.5 -28t36 -40.5t14 -58q0 -55 -36.5 -90t-95.5 -46v-116h-71v112z" />
<glyph unicode="%" horiz-adv-x="758" d="M181 213q-38 0 -64.5 12.5t-43.5 33t-25 45t-8 48.5t8.5 49t25.5 45t44 33t65 13q37 0 64 -12.5t43.5 -32.5t24.5 -44.5t8 -48.5t-8 -49t-25.5 -45.5t-44.5 -33.5t-64 -13zM183 258q42 0 60.5 28t18.5 66t-19.5 66.5t-61.5 28.5t-61 -27.5t-19 -65.5t20.5 -67t61.5 -29z M576 -12q-38 0 -64.5 12.5t-43.5 33t-25 45t-8 48.5t8.5 49t25.5 45t44 33t65 13q37 0 64 -12.5t43.5 -32.5t24.5 -44.5t8 -48.5t-8 -49t-25.5 -45.5t-44.5 -33.5t-64 -13zM578 33q42 0 60.5 28t18.5 66t-19.5 66.5t-61.5 28.5t-61 -27.5t-19 -65.5t20.5 -67t61.5 -29z M494 480h63l-287 -480h-63z" />
<glyph unicode="&#x26;" horiz-adv-x="719" d="M262 -12q-54 0 -95 14t-69.5 38t-43 57t-14.5 72q0 64 43.5 110.5t118.5 81.5q-44 43 -67 78t-23 82q0 35 13.5 64t38 49.5t58.5 32t74 11.5q73 0 115.5 -36.5t42.5 -100.5q0 -56 -34.5 -98t-111.5 -85l191 -185q25 33 41.5 70.5t24.5 75.5q-23 0 -44.5 3t-31.5 5v50h215 v-50q-11 -2 -32 -5t-43 -3q-7 -45 -29.5 -93t-58.5 -93l78 -75q25 0 51 -3t37 -5v-50h-124l-89 84q-47 -43 -105 -69.5t-127 -26.5zM288 622q-22 0 -40.5 -8t-31.5 -21t-20 -31t-7 -37q0 -15 3 -28t11.5 -27t23 -30.5t37.5 -39.5l6 -6q61 34 85.5 69.5t24.5 75.5 q0 34 -25 58.5t-67 24.5zM276 49q51 0 95.5 20t81.5 53l-212 202q-23 -11 -45 -25t-39 -32t-27.5 -41t-10.5 -51q0 -55 40 -90.5t117 -35.5z" />
<glyph unicode="'" horiz-adv-x="187" d="M46 666h95l-18 -222h-59z" />
<glyph unicode="(" horiz-adv-x="309" d="M236 -177q-87 94 -134 211t-47 246q0 63 13 124t36.5 117.5t57 107t74.5 91.5h70q-32 -32 -63 -76.5t-56 -100t-40.5 -121.5t-15.5 -141q0 -140 46 -252t129 -206h-70v0z" />
<glyph unicode=")" horiz-adv-x="311" d="M5 -177q31 32 62.5 76.5t56.5 100t40.5 121.5t15.5 141q0 140 -46 252t-129 206h70q87 -94 134 -211t47 -246q0 -64 -13 -125t-36.5 -117.5t-57 -106.5t-74.5 -91h-70v0z" />
<glyph unicode="*" horiz-adv-x="453" d="M97 361l85 114l-136 42l18 54l134 -47l-4 142h64l-4 -142l134 47l19 -54l-137 -42l85 -114l-46 -34l-83 119l-83 -119z" />
<glyph unicode="+" horiz-adv-x="574" d="M255 235h-213v61h213v204h69v-204h208v-61h-208v-215h-69v215z" />
<glyph unicode="," horiz-adv-x="226" d="M28 -117q20 19 37.5 41.5t17.5 48.5q0 13 -4.5 22t-9.5 17.5t-9.5 18.5t-4.5 24q0 25 16 41t39 16q25 0 44 -17.5t19 -49.5q0 -31 -11.5 -60t-29 -53.5t-37.5 -44.5t-36 -32z" />
<glyph unicode="-" horiz-adv-x="309" d="M54 319h201v-64h-201v64z" />
<glyph unicode="." horiz-adv-x="226" d="M113 -9q-26 0 -43.5 17.5t-17.5 43.5t17.5 43t43.5 17t43.5 -17t17.5 -43t-17.5 -43.5t-43.5 -17.5z" />
<glyph unicode="/" horiz-adv-x="402" d="M274 720h67l-236 -881h-66z" />
<glyph unicode="0" d="M262 -12q-61 0 -103.5 31t-68.5 80t-38 110.5t-12 123.5t11 124t37 111t68.5 79.5t104.5 30.5q61 0 103.5 -31t69.5 -80t39 -111t12 -123q0 -62 -12 -123.5t-38.5 -110.5t-69 -80t-103.5 -31zM261 51q38 0 65.5 23t45 62t25.5 90t8 107t-8 107t-25.5 90t-44.5 62t-65 23 t-65.5 -23t-44.5 -62t-25 -90t-8 -107t8 -107t25 -90t44 -62t65 -23z" />
<glyph unicode="1" d="M80 56q13 2 33.5 4t43 3t46 1.5t43.5 0.5v532l-162 -54l-16 62l191 61h62v-601q20 0 43 -0.5t45.5 -1.5t42 -3t33.5 -4v-56h-405v56z" />
<glyph unicode="2" d="M43 43l62.5 62.5t69 72t67 77.5t57.5 80.5t40 80t15 76.5q0 62 -34 91.5t-82 29.5q-53 0 -88 -20t-61 -46l-39 48q32 33 79 58t112 25q42 0 77.5 -12t62 -34.5t41 -55t14.5 -73.5q0 -38 -12.5 -77t-34 -77.5t-50 -76t-60.5 -73.5t-65 -70t-64 -65v-2q14 2 35 3t41 1h166 q1 13 2 27t2 26.5t2 22t2 13.5h62v-155h-419v43z" />
<glyph unicode="3" d="M184 -12q-43 0 -75.5 5t-50.5 11l13 63q14 -5 46 -9.5t69 -4.5q38 0 70.5 10t56.5 28t37.5 44t13.5 59q0 39 -17.5 65.5t-48.5 42.5t-72 23t-87 7v54q38 0 74.5 9t65.5 26.5t47 43.5t18 59q0 45 -33 66t-85 21q-48 0 -83 -16.5t-60 -38.5l-35 49q13 12 31.5 25t41.5 23.5 t51 17.5t59 7q91 0 141.5 -41t50.5 -107q0 -32 -12.5 -58t-33.5 -46.5t-48 -35t-55 -22.5v-1q33 -4 64 -18t54.5 -36t37.5 -51.5t14 -63.5q0 -51 -22 -90.5t-58.5 -66t-83.5 -40t-96 -13.5z" />
<glyph unicode="4" d="M330 141h-313v61l309 464h77v-458h87v-67h-87v-141h-73v141zM106 206q13 1 32 1.5t36 0.5h156v352h-1z" />
<glyph unicode="5" d="M165 -12q-32 0 -61 3.5t-45 7.5l13 64q12 -3 40 -6.5t55 -3.5q40 0 76.5 10t64.5 29.5t45 49t17 69.5q0 41 -16 69t-44.5 45t-66.5 24t-81 7q-23 0 -45.5 -1t-29.5 -2l19 313h325v-66h-256l-11 -179q63 0 115.5 -12t90.5 -37t59 -64t21 -92q0 -55 -21.5 -97.5 t-59.5 -71.5t-90.5 -44t-113.5 -15z" />
<glyph unicode="6" d="M268 -12q-57 0 -98.5 25.5t-68 66t-39 90.5t-12.5 100q0 93 25 168t73 128.5t118.5 82.5t162.5 29l14 -59q-134 0 -213.5 -65t-97.5 -208q26 28 63.5 43t77.5 15q45 0 82 -15t63.5 -42t41 -64.5t14.5 -81.5t-14.5 -83t-41.5 -68t-65 -45.5t-85 -16.5zM274 51q31 0 54 13 t38 33.5t22.5 46.5t7.5 52q0 72 -33.5 109t-96.5 37q-45 0 -77.5 -14.5t-61.5 -42.5v-15q0 -101 37.5 -160t109.5 -59z" />
<glyph unicode="7" d="M109 0l265 600h-269q0 -11 -1 -28t-2 -33.5t-2.5 -30.5t-2.5 -19h-53v177h411v-54l-276 -636z" />
<glyph unicode="8" d="M260 -12q-52 0 -91 14.5t-64.5 38.5t-38 55t-12.5 65q0 35 14.5 64.5t36.5 53t47.5 41.5t47.5 30q-23 14 -45.5 30t-40.5 36t-29.5 45t-11.5 57q0 35 15.5 64.5t42 50.5t61.5 33t74 12q42 0 76.5 -11t59.5 -31.5t38.5 -49.5t13.5 -64q0 -33 -13.5 -58.5t-34 -45.5 t-45 -35t-46.5 -27q23 -12 50 -29.5t50.5 -41t39 -53.5t15.5 -66q0 -39 -15.5 -71.5t-43.5 -56.5t-66.5 -37t-84.5 -13zM262 53q58 0 93 32t35 82q0 28 -14 51t-35 41.5t-45.5 33.5t-45.5 27q-17 -12 -37.5 -26.5t-38 -33t-29.5 -42t-12 -53.5q0 -51 34 -81.5t95 -30.5z M264 387q19 11 39 24t36.5 29t27.5 35t11 42q0 42 -30 69.5t-81 27.5t-84 -27t-33 -69q0 -25 11 -44.5t28 -35.5t37 -28.5t38 -22.5z" />
<glyph unicode="9" d="M88 41q129 0 208 68t97 211q-26 -28 -63.5 -43t-77.5 -15q-45 0 -82.5 15t-63.5 42t-40.5 64.5t-14.5 81.5t14.5 83t41 68t64.5 45.5t86 16.5q58 0 99 -24.5t67.5 -64.5t39 -90.5t12.5 -102.5q0 -92 -23 -168.5t-69 -131t-116.5 -84.5t-164.5 -30zM259 324q48 0 79 14.5 t60 42.5v15q0 101 -36.5 160t-108.5 59q-33 0 -56.5 -13t-38.5 -33.5t-22 -46.5t-7 -52q0 -72 32.5 -109t97.5 -37z" />
<glyph unicode=":" horiz-adv-x="226" d="M113 -9q-26 0 -43.5 18t-17.5 44t17.5 43t43.5 17t43.5 -17t17.5 -43t-17.5 -44t-43.5 -18zM113 366q-26 0 -43.5 17.5t-17.5 43.5t17.5 43.5t43.5 17.5t43.5 -17.5t17.5 -43.5t-17.5 -43.5t-43.5 -17.5z" />
<glyph unicode=";" horiz-adv-x="226" d="M113 366q-26 0 -43.5 17.5t-17.5 43.5t17.5 43.5t43.5 17.5t43.5 -17.5t17.5 -43.5t-17.5 -43.5t-43.5 -17.5zM28 -117q20 19 37.5 41.5t17.5 48.5q0 13 -4.5 22t-9.5 17.5t-9.5 18.5t-4.5 24q0 25 16 41t39 16q25 0 44 -17.5t19 -49.5q0 -31 -11.5 -60t-29 -53.5 t-37.5 -44.5t-36 -32z" />
<glyph unicode="&#x3c;" horiz-adv-x="361" d="M35 246l250 222l41 -42l-200 -177l200 -176l-41 -46z" />
<glyph unicode="=" horiz-adv-x="459" d="M35 216h389v-63h-389v63zM35 379h389v-63h-389v63z" />
<glyph unicode="&#x3e;" horiz-adv-x="361" d="M35 69l200 177l-200 176l41 46l250 -219l-250 -222z" />
<glyph unicode="?" horiz-adv-x="405" d="M163 678q95 0 146 -43.5t51 -126.5q0 -32 -10 -57.5t-25.5 -46t-35.5 -37t-41 -29.5q-38 -25 -57.5 -45.5t-19.5 -51.5q0 -11 2 -24t5 -24h-51q-5 12 -9 30.5t-4 38.5q0 39 18.5 68t63.5 56q40 24 67 52.5t27 70.5q0 52 -32.5 78.5t-92.5 26.5q-19 0 -44 -5.5t-44 -15.5 l-27 58q27 14 56 20.5t57 6.5zM150 -8q-23 0 -40 16.5t-17 40.5q0 23 17 39.5t40 16.5t40 -16.5t17 -39.5q0 -24 -17 -40.5t-40 -16.5z" />
<glyph unicode="@" horiz-adv-x="787" d="M379 -91q-77 0 -138 26t-103.5 71t-65 105.5t-22.5 128.5q0 74 27 142.5t75.5 121t115 84t145.5 31.5t140 -28.5t102.5 -72t62.5 -97t21 -102.5q0 -47 -13 -90t-36 -75.5t-55 -51.5t-70 -19q-51 0 -78 31.5t-27 80.5h-2q-20 -49 -56.5 -80.5t-82.5 -31.5q-23 0 -40.5 10 t-29.5 26t-18 37t-6 42q0 48 13 95.5t39.5 85.5t66.5 61.5t93 23.5q32 0 63.5 -8t53.5 -13l-25 -139q-5 -30 -9.5 -54t-4.5 -41q0 -29 15 -49.5t38 -20.5q25 0 46 14t36 37.5t23.5 55t8.5 66.5q0 55 -21 101t-57.5 79.5t-85.5 52.5t-105 19q-57 0 -110.5 -25.5t-95 -69 t-66.5 -102t-25 -124.5q0 -60 18.5 -110.5t53.5 -88t86 -58.5t116 -21q44 0 84.5 9t64.5 20l23 -51q-28 -11 -77 -22.5t-106 -11.5zM337 145q30 0 53.5 24t41.5 60t30.5 77.5t19.5 76.5l4 20q-4 1 -11 3t-15 3.5t-16 2.5t-13 1q-30 0 -55 -17.5t-42 -46t-26.5 -65 t-9.5 -75.5q0 -22 9 -43t30 -21z" />
<glyph unicode="A" horiz-adv-x="681" d="M10 50q8 2 25.5 4t36.5 3l232 609h75l228 -608q20 -1 37.5 -3.5t26.5 -4.5v-50h-215v50q9 2 28.5 4.5t39.5 3.5l-49 139h-277l-51 -139q20 -1 39 -3.5t29 -4.5v-50h-205v50zM453 259l-73 205q-15 42 -24 67.5t-17 48.5h-2q-8 -25 -17.5 -51.5t-23.5 -64.5l-75 -205h232z " />
<glyph unicode="B" horiz-adv-x="595" d="M41 50q11 2 33.5 5t45.5 3v550q-23 0 -45.5 3t-33.5 5v50h255q46 0 86 -9t69.5 -28.5t46 -50.5t16.5 -76q0 -59 -32 -97.5t-87 -52.5v-2q31 -5 58 -18t47 -33.5t31.5 -48t11.5 -61.5q0 -50 -18 -86t-51 -59t-79 -33.5t-102 -10.5h-252v50zM197 61h94q89 0 130 30.5 t41 95.5q0 62 -38.5 97t-127.5 35h-99v-258zM197 377h91q77 0 111.5 30t34.5 88q0 57 -36.5 84t-107.5 27h-93v-229z" />
<glyph unicode="C" horiz-adv-x="656" d="M381 -12q-80 0 -142 27t-105 73.5t-65.5 108.5t-22.5 132q0 72 24.5 135.5t69 111t107 75t139.5 27.5q64 0 114.5 -12.5t87.5 -35.5v-148h-63q-1 5 -2.5 17t-2.5 27.5t-2 32t-1 29.5q-29 13 -63.5 20t-69.5 7q-59 0 -106.5 -21t-80.5 -58t-51 -88.5t-18 -112.5t17.5 -113 t51 -90t82 -59.5t110.5 -21.5q40 0 77.5 9.5t66.5 25.5q0 13 1 30.5t2 34.5t2.5 31t2.5 19h63v-146q-13 -12 -36.5 -24t-53.5 -21.5t-64 -15.5t-69 -6z" />
<glyph unicode="D" horiz-adv-x="699" d="M41 50q11 2 33.5 5t45.5 3v550q-23 0 -45.5 3t-33.5 5v50h235q98 0 169.5 -22.5t117.5 -64t68 -101t22 -132.5q0 -74 -22.5 -137t-69 -109.5t-118.5 -73t-172 -26.5h-230v50zM198 60h80q145 0 219 71.5t74 209.5t-73 201.5t-225 63.5h-75v-546z" />
<glyph unicode="E" horiz-adv-x="574" d="M41 50q11 2 33.5 5t45.5 3v550q-23 0 -45.5 3t-33.5 5v50h482v-161h-63q-1 5 -2.5 17t-2.5 26t-2 29.5t-1 28.5h-254v-236h164q2 20 4 41t4 29h55v-198h-55q-2 8 -4 28.5t-4 41.5h-164v-252h261q0 13 1 28.5t2 29.5t2.5 26t2.5 17h63v-161h-489v50z" />
<glyph unicode="F" horiz-adv-x="544" d="M41 50q11 2 33.5 5t45.5 3v550q-23 0 -45.5 3t-33.5 5v50h471v-161h-63q-1 4 -2.5 15.5t-2.5 26t-2 30.5t-1 29h-243v-252h171q2 21 4 41.5t4 28.5h55v-198h-55q-2 8 -4 28t-4 42h-171v-238q23 0 50.5 -3t38.5 -5v-50h-246v50z" />
<glyph unicode="G" horiz-adv-x="727" d="M379 -12q-80 0 -142 28t-104.5 74.5t-64.5 108t-22 129.5q0 74 25 138t70 111t108.5 74t140.5 27q73 0 129 -17t97 -46v-148h-63q-1 5 -2.5 17.5t-2.5 28t-2 32t-1 29.5q-35 20 -75 30.5t-82 10.5q-62 0 -110 -21.5t-81.5 -59t-51 -88.5t-17.5 -111q0 -62 17.5 -114 t51 -89.5t81.5 -59t110 -21.5q54 0 96 11.5t66 30.5v142q-23 0 -45.5 3t-33.5 5v50h228v-48q-11 -2 -30.5 -6t-40.5 -4v-180q-38 -29 -99.5 -48t-149.5 -19z" />
<glyph unicode="H" horiz-adv-x="758" d="M41 50q11 2 33.5 5t45.5 3v550q-23 0 -45.5 3t-33.5 5v50h236v-50q-11 -2 -33.5 -5t-45.5 -3v-228h362v228q-23 0 -45.5 3t-33.5 5v50h236v-50q-11 -2 -33.5 -5t-45.5 -3v-550q23 0 45.5 -3t33.5 -5v-50h-236v50q11 2 33.5 5t45.5 3v261h-362v-261q23 0 45.5 -3t33.5 -5 v-50h-236v50z" />
<glyph unicode="I" horiz-adv-x="318" d="M41 50q11 2 33.5 5t45.5 3v550q-23 0 -45.5 3t-33.5 5v50h236v-50q-11 -2 -33.5 -5t-45.5 -3v-550q23 0 45.5 -3t33.5 -5v-50h-236v50z" />
<glyph unicode="J" horiz-adv-x="294" d="M35 -190q-21 0 -36 3.5t-21 6.5l12 64q5 -2 15 -4.5t24 -2.5q41 0 60 28.5t19 89.5v613q-23 0 -45.5 3t-33.5 5v50h236v-50q-11 -2 -33.5 -5t-45.5 -3v-622q0 -85 -38 -130.5t-113 -45.5z" />
<glyph unicode="K" horiz-adv-x="625" d="M41 50q11 2 33.5 5t45.5 3v550q-23 0 -45.5 3t-33.5 5v50h235v-50q-11 -2 -33.5 -5t-45.5 -3v-550q23 0 45.5 -3t33.5 -5v-50h-235v50zM393 50q9 2 27.5 4.5t38.5 3.5l-254 284l232 266q-18 2 -35 4t-25 4v50h219v-50q-9 -2 -29.5 -4.5t-41.5 -3.5l-234 -258l266 -293 q20 -1 39.5 -3t28.5 -4v-50h-232v50z" />
<glyph unicode="L" horiz-adv-x="516" d="M41 50q11 2 33.5 5t45.5 3v550q-23 0 -45.5 3t-33.5 5v50h236v-50q-11 -2 -33.5 -5t-45.5 -3v-548h218q0 15 1 32.5t2 33t2.5 28t2.5 17.5h60v-171h-443v50z" />
<glyph unicode="M" horiz-adv-x="907" d="M19 50q10 2 30 4.5t42 3.5l75 552q-22 0 -45 3t-33 5v48h159l165 -453q15 -42 24 -68.5t18 -54.5h2q8 27 17.5 54.5t24.5 68.5l165 453h157v-48q-11 -2 -33.5 -5t-45.5 -3l75 -552q21 -1 42 -3.5t31 -4.5v-50h-233v50q10 2 34.5 4.5t46.5 3.5l-49 378q-3 26 -6 50t-5 43 h-2q-5 -18 -12 -39t-18 -53l-158 -437h-75l-162 437q-12 32 -19 53.5t-13 38.5h-2q-2 -18 -4 -39.5t-6 -55.5l-46 -376q22 -1 47 -3.5t35 -4.5v-50h-223v50z" />
<glyph unicode="N" horiz-adv-x="766" d="M41 50q11 2 33.5 5t45.5 3v550q-23 0 -45.5 3t-33.5 5v50h153l335 -460q23 -30 39.5 -57t21.5 -37h2q-1 10 -2 29.5t-1 56.5v410q-23 0 -45.5 3t-33.5 5v50h227v-50q-11 -2 -33.5 -5t-45.5 -3v-608h-69l-350 482q-19 26 -33.5 51t-18.5 33h-2q2 -8 3 -30.5t1 -40.5v-437 q23 0 45.5 -3t33.5 -5v-50h-227v50z" />
<glyph unicode="O" horiz-adv-x="746" d="M374 -12q-77 0 -138 28t-103 75.5t-64.5 109.5t-22.5 131t22 131.5t64 110t102.5 76t137.5 28.5t138 -28t103 -75.5t64.5 -109.5t22.5 -131t-22 -131.5t-64 -110t-102.5 -76t-137.5 -28.5zM372 51q58 0 104 22.5t77.5 60.5t48 89.5t16.5 108.5t-16 108.5t-47.5 90.5 t-77 61.5t-103.5 22.5q-59 0 -104.5 -22.5t-77 -60.5t-48 -89.5t-16.5 -108.5t16 -108.5t47.5 -90.5t76.5 -61.5t104 -22.5z" />
<glyph unicode="P" horiz-adv-x="557" d="M41 50q11 2 33.5 5t45.5 3v550q-23 0 -45.5 3t-33.5 5v50h246q51 0 94 -11.5t74 -35.5t48.5 -59.5t17.5 -83.5q0 -99 -64 -152t-181 -53h-78v-213q23 0 50.5 -3t38.5 -5v-50h-246v50zM198 333h78q88 0 126.5 34.5t38.5 103.5q0 30 -8.5 54.5t-28 42t-50.5 27.5t-75 10 h-81v-272z" />
<glyph unicode="Q" horiz-adv-x="746" d="M617 -162q-34 0 -65 7.5t-62 25t-62 46.5t-65 71q-74 2 -133 31t-100 76t-62.5 108t-21.5 129q0 69 22 131.5t64 110t102.5 76t137.5 28.5t138 -28t103 -75.5t64.5 -109.5t22.5 -131q0 -60 -17 -115.5t-49 -100.5t-78.5 -77t-106.5 -45q37 -47 74.5 -70.5t94.5 -23.5 q29 0 50.5 10t30.5 18l29 -58q-16 -14 -44.5 -24t-66.5 -10zM372 51q58 0 104 22.5t77.5 60.5t48 89.5t16.5 108.5t-16 108.5t-47.5 90.5t-77 61.5t-103.5 22.5q-59 0 -104.5 -22.5t-77 -60.5t-48 -89.5t-16.5 -108.5t16 -108.5t47.5 -90.5t76.5 -61.5t104 -22.5z" />
<glyph unicode="R" horiz-adv-x="606" d="M41 50q11 2 33.5 5t45.5 3v550q-23 0 -45.5 3t-33.5 5v50h260q105 0 163 -44.5t58 -129.5q0 -40 -13.5 -71.5t-37.5 -53.5t-57.5 -34.5t-73.5 -14.5v-2q10 -7 28 -26.5t44 -59.5l84 -126q19 -28 38 -41.5t52 -13.5h8t8 1v-50q-21 -8 -53 -8q-37 0 -62 12t-49 50l-87 135 q-27 42 -45.5 66t-33 36t-27.5 15t-30 3h-17v-251q23 0 45.5 -3t33.5 -5v-50h-236v50zM298 366q75 0 109.5 31.5t34.5 89.5t-36.5 88.5t-113.5 30.5h-94v-240h100z" />
<glyph unicode="S" horiz-adv-x="502" d="M238 -12q-77 0 -124.5 17t-65.5 34v151h63q1 -5 2.5 -19.5t2.5 -32t2 -35.5t1 -31q20 -9 49.5 -16t72.5 -7q31 0 56 10t43 26.5t27.5 37.5t9.5 43q0 31 -14 53.5t-36 39.5t-50.5 31t-56.5 28q-29 14 -57.5 30.5t-51 38t-36.5 51t-14 70.5t16 72.5t43 53.5t62.5 33 t75.5 11q75 0 119 -16t61 -29v-151h-63q-1 5 -2.5 19t-2.5 31t-2 34.5t-1 30.5q-20 8 -47.5 14t-62.5 6q-53 0 -86 -29.5t-33 -75.5q0 -25 10 -44t27.5 -34t40 -27t46.5 -24q33 -16 67 -33t62.5 -41t46.5 -57.5t18 -82.5q0 -39 -16 -72.5t-44.5 -57.5t-69 -37.5t-88.5 -13.5 z" />
<glyph unicode="T" horiz-adv-x="619" d="M192 50q11 2 33.5 5t45.5 3v548h-168q0 -13 -1 -30.5t-2 -34t-2.5 -29.5t-2.5 -18h-63v172h555v-172h-63q-1 5 -2.5 18t-2.5 29.5t-2 34t-1 30.5h-167v-548q23 0 45.5 -3t33.5 -5v-50h-236v50z" />
<glyph unicode="U" horiz-adv-x="725" d="M368 -12q-68 0 -117 18.5t-80.5 52.5t-46 81.5t-14.5 106.5v361q-23 0 -45.5 3t-33.5 5v50h236v-50q-11 -2 -33.5 -5t-45.5 -3v-354q0 -104 44 -153t138 -49q90 0 133.5 52t43.5 136v368q-23 0 -45.5 3t-33.5 5v50h226v-50q-11 -2 -33.5 -5t-45.5 -3v-357 q0 -61 -14.5 -110t-44.5 -83t-76.5 -52t-111.5 -18z" />
<glyph unicode="V" horiz-adv-x="659" d="M79 608q-21 0 -41 3t-30 5v50h234v-50q-11 -2 -34.5 -4.5t-45.5 -3.5l131 -401q11 -34 22.5 -68.5t16.5 -50.5h2q5 17 16 50.5t22 68.5l132 401q-22 1 -45.5 3.5t-34.5 4.5v50h227v-50q-10 -2 -29.5 -4.5t-40.5 -3.5l-213 -608h-78z" />
<glyph unicode="W" horiz-adv-x="998" d="M88 608q-22 0 -43 3t-31 5v50h237v-50q-11 -3 -35.5 -5t-47.5 -3l110 -387q5 -18 9 -35.5t7.5 -33.5t6 -28t3.5 -19h2q2 14 9 46.5t18 69.5l125 445h86l126 -442q6 -20 10.5 -39t8 -35t5.5 -28t3 -17h2q1 5 3 17t6 28t8.5 35t10.5 39l108 384q-22 1 -46.5 3t-35.5 5v50 h231v-50q-11 -2 -32 -5t-43 -3l-181 -608h-68l-131 453q-6 21 -11.5 42.5t-9.5 39.5t-6.5 30.5t-2.5 15.5h-2q0 -2 -3 -14.5t-7.5 -31t-10.5 -40t-12 -42.5l-128 -453h-71z" />
<glyph unicode="X" horiz-adv-x="643" d="M12 50q10 2 32 5t45 3l192 284l-179 266q-21 1 -41 3.5t-29 4.5v50h225v-50q-9 -2 -29.5 -4t-41.5 -3l142 -210l136 210q-22 1 -42.5 3t-29.5 4v50h227v-50q-11 -2 -33 -5t-45 -3l-177 -262l194 -288q21 -1 42 -3.5t31 -4.5v-50h-227v50q9 2 29 3.5t41 3.5l-156 232 l-151 -232q21 -2 42 -3.5t30 -3.5v-50h-227v50z" />
<glyph unicode="Y" horiz-adv-x="611" d="M188 51q11 2 33.5 5t45.5 3v193l-187 356q-22 0 -44 3t-32 5v50h232v-50q-10 -2 -30.5 -4t-40.5 -4l78 -156q17 -34 35.5 -70t30.5 -60h1l30 60l35 70l78 156l-40 4t-30 4v50h224v-50q-11 -2 -33 -5t-44 -3l-185 -352v-197q23 0 45.5 -3t33.5 -5v-51h-236v51z" />
<glyph unicode="Z" horiz-adv-x="570" d="M50 55l365 551h-277q0 -14 -1 -31t-2 -33.5t-2.5 -29.5t-2.5 -18h-63v172h439v-51l-370 -555h312q0 13 1 30.5t2 34t2.5 30t2.5 18.5h62v-173h-468v55z" />
<glyph unicode="[" horiz-adv-x="306" d="M80 720h201v-54h-130v-773h130v-54h-201v881z" />
<glyph unicode="\" horiz-adv-x="402" d="M61 720h67l235 -881h-66z" />
<glyph unicode="]" horiz-adv-x="306" d="M25 -107h130v773h-130v54h201v-881h-201v54z" />
<glyph unicode="^" horiz-adv-x="557" d="M253 666h51l205 -378h-66l-164 307l-164 -307h-67z" />
<glyph unicode="_" horiz-adv-x="395" d="M-1 -98h397v-61h-397v61z" />
<glyph unicode="`" horiz-adv-x="500" d="M149 666h109l92 -126h-66z" />
<glyph unicode="a" horiz-adv-x="490" d="M179 -12q-60 0 -98.5 35t-38.5 94q0 48 23.5 79.5t61 50t82.5 26.5t89 8h21v50q0 54 -23 77t-73 23q-33 0 -64 -12.5t-63 -41.5l-37 49q70 66 169 66q79 0 121.5 -38.5t42.5 -120.5v-230q0 -14 0.5 -25.5t1.5 -22.5q23 -2 43 -3.5t34 -1.5v-50q-20 -2 -59.5 -4t-81.5 -2 q-2 10 -4 27t-2 40h-2q-21 -30 -58.5 -51.5t-84.5 -21.5zM191 50q42 0 74 18t54 49v111h-21q-39 0 -71.5 -5.5t-56 -18.5t-37 -34t-13.5 -51q0 -19 7 -32t17.5 -21.5t23 -12t23.5 -3.5z" />
<glyph unicode="b" horiz-adv-x="520" d="M236 -12q-48 0 -90 11t-66 26v636q-24 2 -46 3t-33 1v50q20 2 63.5 5t92.5 3l-4 -79v-203h2q19 21 50 36t68 15q49 0 87.5 -17.5t65 -49.5t40.5 -77t14 -101t-18.5 -103t-51 -82t-77.5 -54.5t-97 -19.5zM236 47q41 0 72 15.5t52 42.5t31.5 62t10.5 74q0 38 -7.5 72 t-25 60t-44.5 41.5t-66 15.5q-30 0 -59.5 -14.5t-46.5 -32.5v-321q14 -7 34.5 -11t48.5 -4z" />
<glyph unicode="c" horiz-adv-x="454" d="M257 -12q-53 0 -93 19.5t-68 53t-42 77.5t-14 94q0 62 17.5 110.5t48 81.5t72 50.5t88.5 17.5q48 0 85 -12t54 -26v-129h-57q-1 5 -2.5 16t-2.5 24.5t-2 28t-1 26.5q-34 14 -78 14q-37 0 -64 -15.5t-45 -42t-26.5 -62t-8.5 -74.5q0 -38 9 -73t28 -61t46.5 -41.5 t65.5 -15.5q22 0 42.5 5t36.5 11.5t27.5 13.5t16.5 11l29 -53q-7 -6 -21.5 -14.5t-35 -16t-47.5 -13t-58 -5.5z" />
<glyph unicode="d" horiz-adv-x="550" d="M236 -12q-43 0 -79 16t-62 47.5t-40.5 78t-14.5 106.5q0 57 16.5 104t45.5 81t68.5 52.5t84.5 18.5q42 0 68.5 -11t48.5 -31h2v211q-24 2 -46 3t-33 1v50q20 2 63.5 5t92.5 3l-4 -79v-552v-18.5t2 -18.5q23 -2 43 -3.5t34 -1.5v-50q-20 -2 -59.5 -4t-81.5 -2 q-2 8 -4.5 28.5t-2.5 34.5h-2q-25 -30 -61 -49.5t-79 -19.5zM255 50q33 0 64.5 17t54.5 49v272q-23 21 -50 31.5t-64 10.5q-34 0 -60.5 -14.5t-44.5 -40t-27.5 -61t-9.5 -76.5t8 -75.5t24.5 -59.5t42.5 -39t62 -14z" />
<glyph unicode="e" horiz-adv-x="487" d="M267 -12q-56 0 -98 18.5t-71 51.5t-43.5 77.5t-14.5 97.5q0 59 16.5 107t46 81.5t70.5 52t90 18.5q85 0 133.5 -55.5t48.5 -149.5q0 -8 -0.5 -22t-1.5 -22h-325q0 -91 41.5 -142.5t120.5 -51.5q40 0 73.5 15.5t49.5 27.5l29 -55q-9 -6 -23.5 -14.5t-35 -16t-47 -13 t-59.5 -5.5zM368 299q0 27 -6 51.5t-19.5 43t-35 29.5t-52.5 11q-56 0 -91 -37t-42 -98h246z" />
<glyph unicode="f" horiz-adv-x="333" d="M41 50q11 2 33.5 5t45.5 3v364h-80v58h80v71q0 83 45.5 132t129.5 49q35 0 54.5 -5t25.5 -8l-18 -60q-5 2 -22 7t-42 5q-48 0 -74 -31t-26 -91v-69h122v-58h-122v-364q23 0 50.5 -3t38.5 -5v-50h-241v50z" />
<glyph unicode="g" horiz-adv-x="502" d="M232 -237q-42 0 -77.5 8.5t-61 25t-39.5 42t-14 60.5q0 45 28.5 76.5t64.5 48.5v2q-21 11 -35 29.5t-14 46.5t15.5 48.5t38.5 33.5v2q-38 21 -59 55.5t-21 84.5q0 36 12.5 66t36.5 52.5t57.5 35t75.5 12.5q39 0 74 -12h156v-58h-81q18 -22 27 -44.5t9 -51.5 q0 -36 -13.5 -66.5t-38 -52.5t-58.5 -34.5t-75 -12.5q-25 0 -50 6q-16 -8 -25.5 -20.5t-9.5 -26.5q0 -23 19 -33.5t50 -12.5q39 -2 83 -3.5t81 -13t61.5 -38.5t24.5 -80q0 -39 -19 -71t-52 -55t-77 -36t-94 -13zM239 -183q35 0 64.5 8.5t50.5 23t33 35t12 44.5 q0 28 -11.5 43.5t-29.5 22t-40 8t-43 2.5q-23 2 -45.5 3t-44.5 4q-33 -19 -52 -46t-19 -58q0 -39 30 -64.5t95 -25.5zM240 216q50 0 80 30.5t30 79.5t-30 79.5t-80 30.5t-78.5 -30.5t-28.5 -79.5t28.5 -79.5t78.5 -30.5z" />
<glyph unicode="h" horiz-adv-x="574" d="M24 50q11 2 33.5 5t45.5 3v603q-24 2 -46 3t-33 1v50q20 2 63.5 5t92.5 3l-4 -79v-236h2q28 38 66 61t87 23q38 0 65 -12t44 -32t25 -47.5t8 -58.5v-284q23 0 45.5 -3t33.5 -5v-50h-231v50q11 2 33.5 5t45.5 3v274q0 45 -19.5 71.5t-66.5 26.5q-44 0 -78 -26.5t-60 -61.5 v-284q23 0 45.5 -3t33.5 -5v-50h-231v50z" />
<glyph unicode="i" horiz-adv-x="292" d="M36 50q11 2 33.5 5t45.5 3v366q-24 2 -46 3t-33 1v50q20 2 64 5t93 3l-4 -79v-349q23 0 45.5 -3t33.5 -5v-50h-232v50zM152 570q-23 0 -38.5 15.5t-15.5 38.5t15.5 38.5t38.5 15.5t38.5 -15.5t15.5 -38.5t-15.5 -38.5t-38.5 -15.5z" />
<glyph unicode="j" horiz-adv-x="258" d="M39 -230q-25 0 -37 2.5t-15 4.5l11 58q4 -2 12 -3.5t23 -1.5q40 0 55 30t15 85v479q-24 2 -46 3t-33 1v50q20 2 63.5 5t92.5 3l-4 -79v-471q0 -37 -7.5 -67.5t-24 -52.5t-42.5 -34t-63 -12zM138 570q-23 0 -38.5 15.5t-15.5 38.5t15.5 38.5t38.5 15.5t38.5 -15.5 t15.5 -38.5t-15.5 -38.5t-38.5 -15.5z" />
<glyph unicode="k" horiz-adv-x="542" d="M24 50q11 2 33.5 5t45.5 3v603q-24 2 -46 3t-33 1v50q20 2 63.5 5t92.5 3l-4 -79v-586q23 0 42 -3t30 -5v-50h-224v50zM326 50q8 2 23 3.5t32 3.5l-195 199l167 166q-20 2 -37.5 4t-25.5 4v50h221v-50q-10 -2 -31 -4.5t-43 -2.5l-166 -160l202 -205q20 -1 39 -3.5 t28 -4.5v-50h-214v50z" />
<glyph unicode="l" horiz-adv-x="279" d="M24 50q11 2 33.5 5t45.5 3v603q-24 2 -46 3t-33 1v50q20 2 63.5 5t92.5 3l-4 -79v-586q23 0 45.5 -3t33.5 -5v-50h-231v50z" />
<glyph unicode="m" horiz-adv-x="849" d="M36 50q11 2 33.5 5t45.5 3v366q-24 2 -46 3t-33 1v50q20 2 63 5t92 3l-4 -79h2q8 11 20.5 26t30.5 28t41.5 22t53.5 9q52 0 82.5 -24t41.5 -60h2q13 16 28 31t33.5 27t41 19t49.5 7q36 0 62 -11.5t42 -31.5t23.5 -47.5t7.5 -59.5v-284q23 0 45.5 -3t33.5 -5v-50h-227v50 q11 2 31.5 5t43.5 3v274q0 44 -16.5 71t-62.5 27q-22 0 -41.5 -7.5t-36 -19t-29 -24.5t-21.5 -24v-297q23 0 43.5 -3t31.5 -5v-50h-223v50q11 2 31.5 5t43.5 3v274q0 45 -17.5 71.5t-59.5 26.5q-23 0 -43.5 -9.5t-37 -23t-29.5 -29t-20 -26.5v-284q23 0 43.5 -3t31.5 -5v-50 h-227v50z" />
<glyph unicode="n" horiz-adv-x="586" d="M36 50q11 2 33.5 5t45.5 3v366q-24 2 -46 3t-33 1v50q20 2 63 5t92 3l-4 -79h2q30 40 67.5 62.5t86.5 22.5q38 0 65 -12t44 -32t25 -47.5t8 -58.5v-284q23 0 45.5 -3t33.5 -5v-50h-231v50q11 2 33.5 5t45.5 3v274q0 45 -19.5 71.5t-66.5 26.5q-44 0 -78 -26.5t-60 -61.5 v-284q23 0 45.5 -3t33.5 -5v-50h-231v50z" />
<glyph unicode="o" horiz-adv-x="528" d="M261 -12q-61 0 -103 21.5t-68.5 56.5t-38 79.5t-11.5 90.5q0 42 12.5 87t39 82.5t68.5 62t101 24.5q61 0 104 -21.5t70.5 -56.5t40 -79.5t12.5 -90.5q0 -42 -13 -87.5t-41 -83t-70.5 -61.5t-102.5 -24zM261 46q37 0 65 15.5t47 42t28 61.5t9 74t-9 74t-28 62t-47 43 t-65 16q-38 0 -65 -15.5t-44 -42t-25.5 -61.5t-8.5 -74t8.5 -74t25.5 -62t44 -43t65 -16z" />
<glyph unicode="p" horiz-adv-x="550" d="M24 -175q11 2 33.5 5t45.5 3v591q-25 2 -47 3t-33 1v50q20 2 63.5 5t92.5 3l-4 -60h2q23 27 57.5 46.5t79.5 19.5q43 0 79 -16.5t62 -48t40.5 -77.5t14.5 -106q0 -57 -16.5 -104t-45.5 -81t-68.5 -52.5t-84.5 -18.5q-42 0 -68 11.5t-49 31.5h-2v-198q23 0 45.5 -3 t33.5 -5v-50h-231v50zM290 50q34 0 60.5 14.5t44.5 40t27.5 61t9.5 76.5t-8 75.5t-24.5 59.5t-42.5 39t-62 14q-33 0 -64.5 -17t-54.5 -49v-272q23 -21 50 -31.5t64 -10.5z" />
<glyph unicode="q" horiz-adv-x="520" d="M288 -173q11 2 33.5 5t45.5 3v204h-2q-20 -22 -50.5 -36.5t-67.5 -14.5q-49 0 -87.5 17.5t-65 49.5t-40.5 77t-14 101q0 55 18.5 102.5t51 82.5t77 54.5t97.5 19.5q48 0 90 -11t66 -26v-620q23 0 45.5 -3t33.5 -5v-52h-231v52zM261 50q30 0 59.5 14.5t46.5 32.5v321 q-14 7 -34.5 11t-48.5 4q-41 0 -72 -15.5t-52 -42.5t-31.5 -62t-10.5 -74q0 -38 7.5 -72t25 -60t44.5 -41.5t66 -15.5z" />
<glyph unicode="r" horiz-adv-x="378" d="M36 50q11 2 33.5 5t45.5 3v366q-24 2 -46 3t-33 1v50q20 2 63 5t92 3l-4 -89h2q7 16 18.5 32.5t27 30.5t36 23t45.5 9q22 0 33.5 -4t16.5 -6l-18 -70q-4 2 -13.5 5t-28.5 3q-25 0 -46 -12t-36 -28t-24.5 -30.5t-11.5 -20.5v-271q23 0 50.5 -3t38.5 -5v-50h-241v50z" />
<glyph unicode="s" horiz-adv-x="436" d="M206 -12q-52 0 -93.5 10.5t-64.5 26.5v123h57q2 -11 4.5 -37.5t3.5 -49.5q18 -6 41.5 -10.5t50.5 -4.5q45 0 77 20t32 53q0 20 -10 34.5t-26 25t-37.5 19t-43.5 17.5q-25 9 -50 20.5t-44.5 28t-31.5 39.5t-12 57q0 63 46 97.5t120 34.5q30 0 54.5 -4.5t44 -10.5t32 -13 t18.5 -11v-123h-57q-1 5 -2.5 15t-2.5 22.5t-2 26t-1 24.5q-17 6 -38.5 11t-46.5 5q-46 0 -70 -20t-24 -51q0 -17 8.5 -30t23 -22.5t33 -17.5t39.5 -16q27 -10 54.5 -21.5t49.5 -28t36 -40.5t14 -58q0 -33 -13.5 -59t-38 -44t-58 -28t-72.5 -10z" />
<glyph unicode="t" horiz-adv-x="348" d="M227 -12q-60 0 -91.5 33.5t-31.5 93.5v307h-79v58h79v137h73v-137h121v-58h-121v-302q0 -71 61 -71q23 0 40.5 8.5t23.5 13.5l26 -53q-11 -9 -36.5 -19.5t-64.5 -10.5z" />
<glyph unicode="u" horiz-adv-x="571" d="M240 -12q-38 0 -65 12t-44 32t-25 47.5t-8 58.5v286q-21 2 -39.5 3t-28.5 1v50q20 2 60 5t85 3l-4 -79v-259q0 -45 19.5 -71.5t66.5 -26.5q44 0 78 26.5t60 61.5v286q-21 2 -39 3t-29 1v50q20 2 61 5t84 3l-4 -79v-315q0 -11 0.5 -20t1.5 -17q23 -2 43 -3.5t34 -1.5v-50 q-20 -2 -57.5 -4t-85.5 -2q-3 14 -5 37.5t-2 42.5h-2q-29 -39 -67 -62.5t-88 -23.5z" />
<glyph unicode="v" horiz-adv-x="512" d="M65 422q-18 2 -34.5 4t-24.5 4v50h205v-50q-8 -2 -28.5 -4t-40.5 -4l102 -285l8 -24t7 -25h2q2 10 6.5 24.5t7.5 23.5l100 286q-20 2 -39.5 4t-27.5 4v50h198v-50q-9 -2 -26 -4t-37 -4l-155 -422h-63z" />
<glyph unicode="w" horiz-adv-x="771" d="M72 422q-19 2 -36.5 4t-25.5 4v50h200v-50q-8 -2 -26 -4t-37 -4l78 -256q5 -15 9.5 -35t6.5 -30h2q2 8 6 29t9 35l97 315h67l96 -315q5 -14 9.5 -35t6.5 -29h2q2 10 6 29.5t9 34.5l79 257q-20 2 -38 4t-26 4v50h195v-50q-9 -2 -28 -4.5t-39 -3.5l-133 -422h-57l-105 331 q-5 15 -8.5 29.5t-5.5 24.5h-2q-2 -8 -5.5 -23.5t-8.5 -29.5l-107 -332h-58z" />
<glyph unicode="x" horiz-adv-x="509" d="M10 50q9 2 25.5 4.5t35.5 3.5l147 191l-126 173q-19 2 -36 4t-25 4v50h197v-50q-8 -2 -21.5 -4t-33.5 -3l93 -130l93 130q-20 1 -34 3t-21 4v50h189v-50q-9 -2 -25.5 -4.5t-36.5 -3.5l-133 -173l139 -192q19 -1 36 -3t26 -4v-50h-197v50q7 2 20.5 3.5t33.5 3.5l-106 147 l-106 -147q20 -2 33.5 -3.5t21.5 -3.5v-50h-189v50z" />
<glyph unicode="y" horiz-adv-x="512" d="M79 -232q-16 0 -27 1.5t-19 3.5l10 59q5 -2 14.5 -3t22.5 -1q25 0 43.5 6.5t32.5 20t24.5 33.5t20.5 47l24 66l-160 421q-18 2 -34.5 4t-24.5 4v50h205v-50q-8 -2 -28.5 -4t-40.5 -4l101 -283q4 -11 9 -27t7 -26h2q2 10 6.5 25.5t8.5 25.5l99 285q-20 2 -39.5 4t-27.5 4 v50h198v-50q-9 -2 -26 -4t-37 -4l-178 -485q-12 -32 -25.5 -62.5t-34.5 -54t-51.5 -38t-74.5 -14.5z" />
<glyph unicode="z" horiz-adv-x="459" d="M42 46l282 377h-203q0 -23 -3 -51.5t-5 -39.5h-57v148h356v-49l-283 -374h223q0 23 3 51.5t5 39.5h57v-148h-375v46z" />
<glyph unicode="{" horiz-adv-x="358" d="M247 -161q-20 0 -39.5 6.5t-34.5 19.5t-24.5 33.5t-9.5 48.5v201q0 49 -29.5 78.5t-81.5 30.5v56q51 1 81 29.5t30 79.5v191q0 28 9.5 48.5t24.5 33.5t34 19t39 6h87v-57h-66q-35 0 -46 -21.5t-11 -57.5v-175q0 -55 -28 -82.5t-72 -38.5v-2q44 -13 72 -42.5t28 -85.5 v-187q0 -37 10.5 -56t45.5 -19h67v-57h-86v0z" />
<glyph unicode="|" horiz-adv-x="284" d="M112 750h60v-1000h-60v1000z" />
<glyph unicode="}" horiz-adv-x="358" d="M25 -104h66q35 0 46 21.5t11 57.5v186q0 55 28 82.5t72 38.5v2q-44 13 -72 42.5t-28 85.5v176q0 37 -10.5 56t-45.5 19h-67v57h86q20 0 39.5 -6.5t34.5 -19.5t24.5 -33.5t9.5 -48.5v-190q0 -49 29.5 -78.5t81.5 -30.5v-56q-51 -1 -81 -29.5t-30 -79.5v-202 q0 -28 -9.5 -48.5t-24.5 -33.5t-34 -19t-39 -6h-87v57z" />
<glyph unicode="~" horiz-adv-x="588" d="M398 178q-41 0 -69.5 11t-52.5 24t-46 24t-50 11q-30 0 -51 -12.5t-38 -27.5l-36 45q23 20 57 39.5t74 19.5q34 0 59.5 -11t49 -23.5t49 -23.5t60.5 -11q24 0 48.5 11.5t46.5 29.5l34 -45q-27 -26 -63 -43.5t-72 -17.5z" />
<glyph unicode="&#xa1;" horiz-adv-x="274" d="M137 379q-23 0 -40 16.5t-17 39.5q0 24 17 40.5t40 16.5t40 -16.5t17 -40.5q0 -23 -17 -39.5t-40 -16.5zM108 285h58l16 -467h-90z" />
<glyph unicode="&#xa2;" horiz-adv-x="483" d="M219 -8q-42 7 -75 29t-55 54t-33.5 72.5t-11.5 84.5q0 53 13 96.5t36.5 75.5t55.5 53t70 29v107h67v-102q42 -2 74.5 -13.5t48.5 -23.5v-129h-57q-1 5 -2.5 16t-2.5 24.5t-2 28t-1 26.5q-34 14 -78 14q-37 0 -64 -15.5t-45 -42t-26.5 -62t-8.5 -74.5q0 -38 9 -73t28 -61 t46.5 -41.5t65.5 -15.5q22 0 42.5 5t36.5 11.5t27.5 13.5t16.5 11l29 -53q-13 -11 -48.5 -27t-88.5 -21v-112h-67v115z" />
<glyph unicode="&#xa3;" horiz-adv-x="527" d="M54 49q29 16 48 39.5t30 50t15.5 54.5t4.5 52q0 12 -2 25.5t-4 27.5h-85v57h74q-6 32 -11.5 67.5t-5.5 74.5q0 40 12.5 73t37 57t60.5 37.5t83 13.5q45 0 83 -12t57 -26v-139h-63q-1 4 -2.5 15.5t-2.5 26t-2 30t-1 29.5q-17 5 -36 8.5t-41 3.5q-53 0 -81 -32.5t-28 -86.5 q0 -30 5.5 -67t11.5 -73h164v-57h-155q2 -14 3 -26.5t1 -23.5q0 -38 -6 -68.5t-16 -53.5t-21.5 -39t-22.5 -25h243q0 15 1 32t2 32.5t2.5 27.5t2.5 17h60v-171h-415v49z" />
<glyph unicode="&#xa4;" horiz-adv-x="541" d="M54 26l78 99q-24 27 -35.5 61t-11.5 66q0 33 12.5 67.5t38.5 62.5l-80 101l51 38l77 -104q20 9 42.5 14.5t49.5 5.5q47 0 84 -16l77 100l50 -38l-76 -95q29 -28 43 -64.5t14 -71.5t-12.5 -70t-40.5 -63l72 -93l-51 -38l-71 96q-19 -8 -41 -13t-48 -5q-55 0 -96 22 l-75 -100zM276 123q28 0 51 10t39.5 27.5t25 41t8.5 50.5t-8.5 50.5t-25 41t-39.5 27.5t-51 10t-50.5 -10t-39 -27.5t-25.5 -41t-9 -50.5t9 -50.5t25.5 -41t39 -27.5t50.5 -10z" />
<glyph unicode="&#xa5;" horiz-adv-x="635" d="M126 308h124l-158 300q-22 0 -44 3t-32 5v50h232v-50q-10 -2 -30.5 -4t-40.5 -4l78 -157l66 -130h1l65 130l78 157l-40 4t-30 4v50h224v-50q-11 -2 -33 -5t-44 -3l-158 -300h140v-56h-168v-71h168v-56h-168v-66q23 0 45.5 -3t33.5 -5v-51h-234v51q11 2 33.5 5t45.5 3v66 h-154v56h154v71h-154v56z" />
<glyph unicode="&#xa6;" horiz-adv-x="284" d="M112 128h60v-378h-60v378zM112 750h60v-368h-60v368z" />
<glyph unicode="&#xa7;" horiz-adv-x="468" d="M206 -152q-40 0 -69 11t-46 22l32 55q14 -8 34 -17.5t49 -9.5q44 0 64.5 25.5t20.5 60.5q0 27 -16.5 54.5t-41 56t-53.5 58.5t-53.5 62t-41 66.5t-16.5 71.5q0 23 6.5 42.5t16.5 35t22 27t23 19.5q-12 17 -22 40.5t-10 52.5q0 37 14 65.5t36 47.5t49.5 28.5t54.5 9.5 q45 0 72.5 -11t44.5 -24l-35 -53q-14 11 -32.5 19.5t-49.5 8.5q-22 0 -37.5 -8t-25.5 -20.5t-15 -27.5t-5 -30q0 -27 16.5 -54.5t41.5 -56.5t53.5 -59t53.5 -62t41.5 -66.5t16.5 -71.5q0 -23 -7 -42.5t-17.5 -35.5t-22 -28t-20.5 -20q12 -20 21 -43.5t9 -46.5 q0 -40 -13.5 -69t-35.5 -47.5t-50 -27t-57 -8.5zM294 141q15 14 24.5 31.5t9.5 43.5t-18 57t-43 61.5t-51.5 58t-42.5 46.5q-15 -11 -23.5 -28t-8.5 -47q0 -25 18 -55.5t42.5 -61.5t50.5 -59t42 -47z" />
<glyph unicode="&#xa8;" horiz-adv-x="500" d="M156 538q-22 0 -37.5 15.5t-15.5 38.5q0 22 15.5 37.5t37.5 15.5q23 0 38.5 -15.5t15.5 -37.5q0 -23 -15.5 -38.5t-38.5 -15.5zM343 538q-22 0 -37.5 15.5t-15.5 38.5q0 22 15.5 37.5t37.5 15.5q23 0 38.5 -15.5t15.5 -37.5q0 -23 -15.5 -38.5t-38.5 -15.5z" />
<glyph unicode="&#xa9;" horiz-adv-x="865" d="M432 -14q-77 0 -144.5 29.5t-118 80t-80 118.5t-29.5 145t29.5 145t80 118.5t118 80t144.5 29.5t145 -29.5t118.5 -80t80 -118.5t29.5 -145t-29.5 -145t-80 -118.5t-118.5 -80t-145 -29.5zM432 36q68 0 126 24t100.5 67t66.5 102.5t24 129.5t-24 129t-66.5 102 t-100.5 67.5t-126 24.5t-126 -24.5t-100 -67.5t-66 -102t-24 -129t24 -129.5t66 -102.5t100 -67t126 -24zM440 127q-50 0 -92 18.5t-72.5 50t-47.5 74t-17 89.5q0 49 17.5 91t48.5 73.5t73 49.5t90 18q53 0 84.5 -15t56.5 -35v-123h-48q-2 11 -5 39t-3 51q-15 11 -36 17.5 t-50 6.5q-40 0 -69 -15.5t-48.5 -40t-29 -55t-9.5 -60.5q0 -36 12.5 -68t34 -56t51 -37.5t63.5 -13.5q44 0 71.5 15t44.5 29l31 -51q-25 -20 -60.5 -36t-90.5 -16z" />
<glyph unicode="&#xaa;" horiz-adv-x="367" d="M135 315q-44 0 -72.5 28t-28.5 69q0 33 14.5 55t38.5 35.5t56.5 19.5t68.5 6h19v31q0 32 -14 50t-51 18q-32 0 -54 -12.5t-35 -22.5l-31 40q14 12 44.5 29t78.5 17q122 0 122 -116v-160v-18t1 -16q31 -3 53 -3v-41q-20 -2 -46.5 -3t-58.5 -1q-2 8 -3 20.5t-2 20.5h-2 q-12 -15 -37 -30.5t-61 -15.5zM150 365q34 0 53.5 15.5t27.5 27.5v76h-17q-55 0 -86 -16t-31 -54q0 -23 15 -36t38 -13z" />
<glyph unicode="&#xab;" horiz-adv-x="476" d="M44 245l133 190h77l-132 -190l132 -189h-77zM222 245l133 190h77l-132 -190l132 -189h-77z" />
<glyph unicode="&#xac;" horiz-adv-x="588" d="M470 237h-430v64h498v-268h-68v204z" />
<glyph unicode="&#xad;" horiz-adv-x="309" d="M54 319h201v-64h-201v64z" />
<glyph unicode="&#xae;" horiz-adv-x="865" d="M432 -14q-77 0 -144.5 29.5t-118 80t-80 118.5t-29.5 145t29.5 145t80 118.5t118 80t144.5 29.5t145 -29.5t118.5 -80t80 -118.5t29.5 -145t-29.5 -145t-80 -118.5t-118.5 -80t-145 -29.5zM432 36q68 0 126 24t100.5 67t66.5 102.5t24 129.5t-24 129t-66.5 102 t-100.5 67.5t-126 24.5t-126 -24.5t-100 -67.5t-66 -102t-24 -129t24 -129.5t66 -102.5t100 -67t126 -24zM233 178q9 2 27.5 4t36.5 2v356q-18 0 -36.5 2t-27.5 4v42h211q34 0 60.5 -10.5t43.5 -28t26 -40.5t9 -48q0 -50 -31.5 -79.5t-88.5 -37.5q15 -11 26.5 -25t25.5 -34 l36 -55q16 -23 29 -35t42 -12q9 0 14 1v-44q-8 -2 -20 -4t-25 -2q-32 0 -49.5 11t-38.5 43l-70 107q-17 25 -31 34.5t-40 9.5v-155q18 0 36.5 -2t26.5 -4v-42h-192v42zM408 388q19 0 38 2.5t34 10t24 22t9 38.5q0 32 -18.5 52.5t-65.5 20.5h-67v-146h46z" />
<glyph unicode="&#xaf;" horiz-adv-x="500" d="M114 635h271v-61h-271v61z" />
<glyph unicode="&#xb0;" horiz-adv-x="342" d="M171 418q-27 0 -51 10.5t-41.5 28t-28 41t-10.5 50.5t10.5 50.5t28 41t41.5 28t51 10.5t51 -10.5t41.5 -28t28 -41t10.5 -50.5t-10 -50.5t-28 -41t-42 -28t-51 -10.5zM171 469q33 0 54.5 23t21.5 56q0 32 -21.5 55.5t-54.5 23.5t-54.5 -23.5t-21.5 -55.5q0 -33 21.5 -56 t54.5 -23z" />
<glyph unicode="&#xb1;" horiz-adv-x="574" d="M255 235h-213v61h213v204h69v-204h208v-61h-208v-215h-69v215zM72 -51h435v-64h-435v64z" />
<glyph unicode="&#xb2;" horiz-adv-x="335" d="M37 371q27 21 56 45.5t54 50.5t41 52.5t16 52.5t-16 39.5t-40 13.5q-26 0 -45.5 -10t-34.5 -24l-32 38q21 18 49 30.5t73 12.5q60 0 86.5 -25.5t26.5 -67.5q0 -26 -13 -51.5t-34 -50t-48 -47.5t-55 -44q11 1 20 1h21h127v-50h-252v34z" />
<glyph unicode="&#xb3;" horiz-adv-x="306" d="M99 331q-21 0 -41.5 3.5t-27.5 6.5l12 46q8 -3 24 -6t30 -3q44 0 70 15.5t26 41.5q0 30 -30 42t-81 13v40q43 1 71.5 16t28.5 40q0 17 -14.5 28t-40.5 11q-20 0 -41 -9.5t-31 -17.5l-26 36q14 13 45.5 25.5t66.5 12.5q54 0 80 -20t26 -55q0 -32 -20.5 -51t-50.5 -27v-2 q34 -3 58.5 -23.5t24.5 -57.5q0 -52 -42 -78.5t-117 -26.5z" />
<glyph unicode="&#xb4;" horiz-adv-x="500" d="M241 666h109l-135 -126h-66z" />
<glyph unicode="&#xb5;" horiz-adv-x="571" d="M98 424q-21 2 -39.5 3t-28.5 1v50q20 2 60 5t85 3l-4 -79v-263q0 -17 2.5 -33.5t10.5 -29t22 -20t38 -7.5q25 0 48 8t42.5 20.5t35 27.5t25.5 28v286q-21 2 -39 3t-29 1v50q20 2 61 5t84 3l-4 -79v-315q0 -11 0.5 -20t1.5 -17q23 -2 43 -3.5t34 -1.5v-50q-20 -2 -57.5 -4 t-85.5 -2q-3 14 -5 37.5t-2 42.5h-2q-9 -11 -23 -26t-34 -28.5t-45 -22.5t-56 -9q-19 0 -36.5 4.5t-30.5 12.5h-2q1 -9 1.5 -22.5t1 -28.5t0.5 -31v-29v-111h-73v641z" />
<glyph unicode="&#xb6;" horiz-adv-x="644" d="M260 274q-40 0 -75.5 13.5t-62 39t-42 61.5t-15.5 81t15.5 81t41.5 62t61.5 40t76.5 14h319v-63h-80v-780h-67v780h-104v-780h-68v451z" />
<glyph unicode="&#xb7;" horiz-adv-x="226" d="M113 230q-26 0 -43.5 17.5t-17.5 43.5t17.5 43t43.5 17t43.5 -17t17.5 -43t-17.5 -43.5t-43.5 -17.5z" />
<glyph unicode="&#xb8;" horiz-adv-x="500" d="M226 -219q-27 0 -42.5 4t-23.5 8l12 42q7 -4 20 -7.5t33 -3.5q23 0 36.5 9.5t13.5 29.5q0 26 -19.5 33.5t-43.5 7.5h-8l36 96h51l-25 -66q31 -5 50.5 -23t19.5 -47q0 -41 -32.5 -62t-77.5 -21z" />
<glyph unicode="&#xb9;" horiz-adv-x="282" d="M34 377q19 4 41 5.5t42 1.5v228l-72 -20l-15 49l102 25h47v-282q20 0 40.5 -1.5t40.5 -5.5v-40h-226v40z" />
<glyph unicode="&#xba;" horiz-adv-x="393" d="M195 315q-43 0 -73 16t-49.5 41.5t-28.5 58t-9 65.5t8.5 66t27.5 58.5t49 41.5t73 16t74 -16t51 -41.5t30 -57.5t10 -65t-9.5 -66t-29.5 -59t-50.5 -42t-73.5 -16zM196 365q50 0 72 37t22 94t-23.5 94.5t-74.5 37.5q-50 0 -70 -36.5t-20 -93.5t22 -95t72 -38z" />
<glyph unicode="&#xbb;" horiz-adv-x="476" d="M176 245l-132 190h76l134 -190l-134 -189h-76zM354 245l-132 190h76l134 -190l-134 -189h-76z" />
<glyph unicode="&#xbc;" horiz-adv-x="699" d="M34 377q19 4 41 5.5t42 1.5v228l-72 -20l-15 49l102 25h47v-282q20 0 40.5 -1.5t40.5 -5.5v-40h-226v40zM535 666h61l-417 -666h-61zM569 69h-174v36l180 224h55v-211h55v-49h-55v-69h-61v69zM460 116q7 1 18.5 1.5t26.5 0.5h65v134h-1z" />
<glyph unicode="&#xbd;" horiz-adv-x="738" d="M34 377q19 4 41 5.5t42 1.5v228l-72 -20l-15 49l102 25h47v-282q20 0 40.5 -1.5t40.5 -5.5v-40h-226v40zM535 666h61l-417 -666h-61zM440 34q27 21 56 45.5t54 50.5t41 52.5t16 52.5t-16 39.5t-40 13.5q-26 0 -45.5 -10t-34.5 -24l-32 38q21 18 49 30.5t73 12.5 q60 0 86.5 -25.5t26.5 -67.5q0 -26 -13 -51.5t-34 -50t-48 -47.5t-55 -44q11 1 19.5 1h21.5h127v-50h-252v34z" />
<glyph unicode="&#xbe;" horiz-adv-x="701" d="M99 331q-21 0 -41.5 3.5t-27.5 6.5l12 46q8 -3 24 -6t30 -3q44 0 70 15.5t26 41.5q0 30 -30 42t-81 13v40q43 1 71.5 16t28.5 40q0 17 -14.5 28t-40.5 11q-20 0 -41 -9.5t-31 -17.5l-26 36q14 13 45.5 25.5t66.5 12.5q54 0 80 -20t26 -55q0 -32 -20.5 -51t-50.5 -27v-2 q34 -3 58.5 -23.5t24.5 -57.5q0 -52 -42 -78.5t-117 -26.5zM537 666h61l-417 -666h-61zM571 69h-174v36l180 224h55v-211h55v-49h-55v-69h-61v69zM462 116q7 1 18.5 1.5t26.5 0.5h65v134h-1z" />
<glyph unicode="&#xbf;" horiz-adv-x="405" d="M255 379q-23 0 -40 16.5t-17 39.5q0 24 17 40.5t40 16.5t40 -16.5t17 -40.5q0 -23 -17 -39.5t-40 -16.5zM242 -194q-95 0 -146 43.5t-51 126.5q0 32 10 57.5t25.5 46t35.5 36.5t41 30q38 25 57.5 45.5t19.5 51.5q0 11 -2 24t-5 24h51q5 -12 9 -30.5t4 -38.5 q0 -39 -18.5 -68t-63.5 -56q-40 -24 -67 -52.5t-27 -70.5q0 -52 32.5 -78.5t92.5 -26.5q19 0 44 5.5t44 15.5l27 -58q-27 -14 -56 -20.5t-57 -6.5z" />
<glyph unicode="&#xc0;" horiz-adv-x="681" d="M10 50q8 2 25.5 4t36.5 3l232 609h75l228 -608q20 -1 37.5 -3.5t26.5 -4.5v-50h-215v50q9 2 28.5 4.5t39.5 3.5l-49 139h-277l-51 -139q20 -1 39 -3.5t29 -4.5v-50h-205v50zM453 259l-73 205q-15 42 -24 67.5t-17 48.5h-2q-8 -25 -17.5 -51.5t-23.5 -64.5l-75 -205h232z M174 846h109l92 -126h-66z" />
<glyph unicode="&#xc1;" horiz-adv-x="681" d="M10 50q8 2 25.5 4t36.5 3l232 609h75l228 -608q20 -1 37.5 -3.5t26.5 -4.5v-50h-215v50q9 2 28.5 4.5t39.5 3.5l-49 139h-277l-51 -139q20 -1 39 -3.5t29 -4.5v-50h-205v50zM453 259l-73 205q-15 42 -24 67.5t-17 48.5h-2q-8 -25 -17.5 -51.5t-23.5 -64.5l-75 -205h232z M396 846h109l-135 -126h-66z" />
<glyph unicode="&#xc2;" horiz-adv-x="681" d="M10 50q8 2 25.5 4t36.5 3l232 609h75l228 -608q20 -1 37.5 -3.5t26.5 -4.5v-50h-215v50q9 2 28.5 4.5t39.5 3.5l-49 139h-277l-51 -139q20 -1 39 -3.5t29 -4.5v-50h-205v50zM453 259l-73 205q-15 42 -24 67.5t-17 48.5h-2q-8 -25 -17.5 -51.5t-23.5 -64.5l-75 -205h232z M312 874h54l121 -153h-69l-81 85l-79 -85h-69z" />
<glyph unicode="&#xc3;" horiz-adv-x="681" d="M10 50q8 2 25.5 4t36.5 3l232 609h75l228 -608q20 -1 37.5 -3.5t26.5 -4.5v-50h-215v50q9 2 28.5 4.5t39.5 3.5l-49 139h-277l-51 -139q20 -1 39 -3.5t29 -4.5v-50h-205v50zM453 259l-73 205q-15 42 -24 67.5t-17 48.5h-2q-8 -25 -17.5 -51.5t-23.5 -64.5l-75 -205h232z M387 723q-18 0 -31.5 6t-25 13.5t-23 13.5t-26.5 6q-17 0 -29.5 -12.5l-19.5 -19.5l-39 37q7 9 16 19.5t20.5 19.5t26 15t31.5 6q19 0 32.5 -6t25 -13.5t23 -13.5t25.5 -6q20 0 32.5 11.5t18.5 19.5l39 -38q-8 -10 -17.5 -20.5t-21 -18.5t-25.5 -13.5t-32 -5.5z" />
<glyph unicode="&#xc4;" horiz-adv-x="681" d="M10 50q8 2 25.5 4t36.5 3l232 609h75l228 -608q20 -1 37.5 -3.5t26.5 -4.5v-50h-215v50q9 2 28.5 4.5t39.5 3.5l-49 139h-277l-51 -139q20 -1 39 -3.5t29 -4.5v-50h-205v50zM453 259l-73 205q-15 42 -24 67.5t-17 48.5h-2q-8 -25 -17.5 -51.5t-23.5 -64.5l-75 -205h232z M244 718q-22 0 -37.5 15.5t-15.5 38.5q0 22 15.5 37.5t37.5 15.5q23 0 38.5 -15.5t15.5 -37.5q0 -23 -15.5 -38.5t-38.5 -15.5zM431 718q-22 0 -37.5 15.5t-15.5 38.5q0 22 15.5 37.5t37.5 15.5q23 0 38.5 -15.5t15.5 -37.5q0 -23 -15.5 -38.5t-38.5 -15.5z" />
<glyph unicode="&#xc5;" horiz-adv-x="681" d="M10 50q8 2 25.5 4t36.5 3l232 609h75l228 -608q20 -1 37.5 -3.5t26.5 -4.5v-50h-215v50q9 2 28.5 4.5t39.5 3.5l-49 139h-277l-51 -139q20 -1 39 -3.5t29 -4.5v-50h-205v50zM453 259l-73 205q-15 42 -24 67.5t-17 48.5h-2q-8 -25 -17.5 -51.5t-23.5 -64.5l-75 -205h232z M338 716q-19 0 -36 7.5t-30 20t-21 30t-8 37.5t8 37.5t21 30t30 20t36 7.5t36 -7.5t30 -20t21 -30t8 -37.5t-8 -37.5t-21 -30t-30 -20t-36 -7.5zM338 756q23 0 36.5 16.5t13.5 38.5q0 23 -13.5 39t-36.5 16t-36.5 -16t-13.5 -39q0 -22 13.5 -38.5t36.5 -16.5z" />
<glyph unicode="&#xc6;" horiz-adv-x="901" d="M2 50q9 2 29 4.5t40 3.5l319 550q-21 0 -42 3t-31 5v50h533v-161h-63q-1 5 -2.5 17t-2.5 26t-2 29.5t-1 28.5h-240v-236h150q2 22 4 41.5t4 28.5h55v-198h-55q-2 9 -4.5 28t-3.5 42h-150v-252h247q0 13 1 28.5t2 29.5t2.5 26t2.5 17h63v-161h-475v50q11 2 33.5 5t45.5 3 v134h-230l-76 -135q20 -1 39.5 -3t27.5 -4v-50h-220v50zM461 257v346h-2q-15 -28 -32.5 -60t-34.5 -63.5t-32 -58.5t-25 -44l-67 -120h193z" />
<glyph unicode="&#xc7;" horiz-adv-x="656" d="M381 -12q-80 0 -142 27t-105 73.5t-65.5 108.5t-22.5 132q0 72 24.5 135.5t69 111t107 75t139.5 27.5q64 0 114.5 -12.5t87.5 -35.5v-148h-63q-1 5 -2.5 17t-2.5 27.5t-2 32t-1 29.5q-29 13 -63.5 20t-69.5 7q-59 0 -106.5 -21t-80.5 -58t-51 -88.5t-18 -112.5t17.5 -113 t51 -90t82 -59.5t110.5 -21.5q40 0 77.5 9.5t66.5 25.5q0 13 1 30.5t2 34.5t2.5 31t2.5 19h63v-146q-13 -12 -36.5 -24t-53.5 -21.5t-64 -15.5t-69 -6zM347 -219q-27 0 -42.5 4t-23.5 8l12 42q7 -4 20 -7.5t33 -3.5q23 0 36.5 9.5t13.5 29.5q0 26 -19.5 33.5t-43.5 7.5h-8 l36 96h51l-25 -66q31 -5 50.5 -23t19.5 -47q0 -41 -32.5 -62t-77.5 -21z" />
<glyph unicode="&#xc8;" horiz-adv-x="574" d="M41 50q11 2 33.5 5t45.5 3v550q-23 0 -45.5 3t-33.5 5v50h482v-161h-63q-1 5 -2.5 17t-2.5 26t-2 29.5t-1 28.5h-254v-236h164q2 20 4 41t4 29h55v-198h-55q-2 8 -4 28.5t-4 41.5h-164v-252h261q0 13 1 28.5t2 29.5t2.5 26t2.5 17h63v-161h-489v50zM134 846h109l92 -126 h-66z" />
<glyph unicode="&#xc9;" horiz-adv-x="574" d="M41 50q11 2 33.5 5t45.5 3v550q-23 0 -45.5 3t-33.5 5v50h482v-161h-63q-1 5 -2.5 17t-2.5 26t-2 29.5t-1 28.5h-254v-236h164q2 20 4 41t4 29h55v-198h-55q-2 8 -4 28.5t-4 41.5h-164v-252h261q0 13 1 28.5t2 29.5t2.5 26t2.5 17h63v-161h-489v50zM355 846h109 l-135 -126h-66z" />
<glyph unicode="&#xca;" horiz-adv-x="574" d="M41 50q11 2 33.5 5t45.5 3v550q-23 0 -45.5 3t-33.5 5v50h482v-161h-63q-1 5 -2.5 17t-2.5 26t-2 29.5t-1 28.5h-254v-236h164q2 20 4 41t4 29h55v-198h-55q-2 8 -4 28.5t-4 41.5h-164v-252h261q0 13 1 28.5t2 29.5t2.5 26t2.5 17h63v-161h-489v50zM271 874h54l121 -153 h-69l-81 85l-79 -85h-69z" />
<glyph unicode="&#xcb;" horiz-adv-x="574" d="M41 50q11 2 33.5 5t45.5 3v550q-23 0 -45.5 3t-33.5 5v50h482v-161h-63q-1 5 -2.5 17t-2.5 26t-2 29.5t-1 28.5h-254v-236h164q2 20 4 41t4 29h55v-198h-55q-2 8 -4 28.5t-4 41.5h-164v-252h261q0 13 1 28.5t2 29.5t2.5 26t2.5 17h63v-161h-489v50zM203 718 q-22 0 -37.5 15.5t-15.5 38.5q0 22 15.5 37.5t37.5 15.5q23 0 38.5 -15.5t15.5 -37.5q0 -23 -15.5 -38.5t-38.5 -15.5zM390 718q-22 0 -37.5 15.5t-15.5 38.5q0 22 15.5 37.5t37.5 15.5q23 0 38.5 -15.5t15.5 -37.5q0 -23 -15.5 -38.5t-38.5 -15.5z" />
<glyph unicode="&#xcc;" horiz-adv-x="318" d="M41 50q11 2 33.5 5t45.5 3v550q-23 0 -45.5 3t-33.5 5v50h236v-50q-11 -2 -33.5 -5t-45.5 -3v-550q23 0 45.5 -3t33.5 -5v-50h-236v50zM-4 846h109l92 -126h-66z" />
<glyph unicode="&#xcd;" horiz-adv-x="318" d="M41 50q11 2 33.5 5t45.5 3v550q-23 0 -45.5 3t-33.5 5v50h236v-50q-11 -2 -33.5 -5t-45.5 -3v-550q23 0 45.5 -3t33.5 -5v-50h-236v50zM218 846h109l-135 -126h-66z" />
<glyph unicode="&#xce;" horiz-adv-x="318" d="M41 50q11 2 33.5 5t45.5 3v550q-23 0 -45.5 3t-33.5 5v50h236v-50q-11 -2 -33.5 -5t-45.5 -3v-550q23 0 45.5 -3t33.5 -5v-50h-236v50zM134 874h54l121 -153h-69l-81 85l-79 -85h-69z" />
<glyph unicode="&#xcf;" horiz-adv-x="318" d="M41 50q11 2 33.5 5t45.5 3v550q-23 0 -45.5 3t-33.5 5v50h236v-50q-11 -2 -33.5 -5t-45.5 -3v-550q23 0 45.5 -3t33.5 -5v-50h-236v50zM66 718q-22 0 -37.5 15.5t-15.5 38.5q0 22 15.5 37.5t37.5 15.5q23 0 38.5 -15.5t15.5 -37.5q0 -23 -15.5 -38.5t-38.5 -15.5z M253 718q-22 0 -37.5 15.5t-15.5 38.5q0 22 15.5 37.5t37.5 15.5q23 0 38.5 -15.5t15.5 -37.5q0 -23 -15.5 -38.5t-38.5 -15.5z" />
<glyph unicode="&#xd0;" horiz-adv-x="709" d="M60 372h70v236q-23 0 -45.5 3t-33.5 5v50h235q98 0 169.5 -22.5t117.5 -64t68 -101t22 -132.5q0 -74 -22.5 -137t-69 -109.5t-118.5 -73t-172 -26.5h-230v50q11 2 33.5 5t45.5 3v256h-70v58zM208 372h111v-58h-111v-254h80q145 0 219 71.5t74 209.5t-73 201.5t-225 63.5 h-75v-234z" />
<glyph unicode="&#xd1;" horiz-adv-x="766" d="M41 50q11 2 33.5 5t45.5 3v550q-23 0 -45.5 3t-33.5 5v50h153l335 -460q23 -30 39.5 -57t21.5 -37h2q-1 10 -2 29.5t-1 56.5v410q-23 0 -45.5 3t-33.5 5v50h227v-50q-11 -2 -33.5 -5t-45.5 -3v-608h-69l-350 482q-19 26 -33.5 51t-18.5 33h-2q2 -8 3 -30.5t1 -40.5v-437 q23 0 45.5 -3t33.5 -5v-50h-227v50zM430 723q-18 0 -31.5 6t-25 13.5t-23 13.5t-26.5 6q-17 0 -29.5 -12.5l-19.5 -19.5l-39 37q7 9 16 19.5t20.5 19.5t26 15t31.5 6q19 0 32.5 -6t25 -13.5t23 -13.5t25.5 -6q20 0 32.5 11.5t18.5 19.5l39 -38q-8 -10 -17.5 -20.5t-21 -18.5 t-25.5 -13.5t-32 -5.5z" />
<glyph unicode="&#xd2;" horiz-adv-x="746" d="M374 -12q-77 0 -138 28t-103 75.5t-64.5 109.5t-22.5 131t22 131.5t64 110t102.5 76t137.5 28.5t138 -28t103 -75.5t64.5 -109.5t22.5 -131t-22 -131.5t-64 -110t-102.5 -76t-137.5 -28.5zM372 51q58 0 104 22.5t77.5 60.5t48 89.5t16.5 108.5t-16 108.5t-47.5 90.5 t-77 61.5t-103.5 22.5q-59 0 -104.5 -22.5t-77 -60.5t-48 -89.5t-16.5 -108.5t16 -108.5t47.5 -90.5t76.5 -61.5t104 -22.5zM209 846h109l92 -126h-66z" />
<glyph unicode="&#xd3;" horiz-adv-x="746" d="M374 -12q-77 0 -138 28t-103 75.5t-64.5 109.5t-22.5 131t22 131.5t64 110t102.5 76t137.5 28.5t138 -28t103 -75.5t64.5 -109.5t22.5 -131t-22 -131.5t-64 -110t-102.5 -76t-137.5 -28.5zM372 51q58 0 104 22.5t77.5 60.5t48 89.5t16.5 108.5t-16 108.5t-47.5 90.5 t-77 61.5t-103.5 22.5q-59 0 -104.5 -22.5t-77 -60.5t-48 -89.5t-16.5 -108.5t16 -108.5t47.5 -90.5t76.5 -61.5t104 -22.5zM431 846h109l-135 -126h-66z" />
<glyph unicode="&#xd4;" horiz-adv-x="746" d="M374 -12q-77 0 -138 28t-103 75.5t-64.5 109.5t-22.5 131t22 131.5t64 110t102.5 76t137.5 28.5t138 -28t103 -75.5t64.5 -109.5t22.5 -131t-22 -131.5t-64 -110t-102.5 -76t-137.5 -28.5zM372 51q58 0 104 22.5t77.5 60.5t48 89.5t16.5 108.5t-16 108.5t-47.5 90.5 t-77 61.5t-103.5 22.5q-59 0 -104.5 -22.5t-77 -60.5t-48 -89.5t-16.5 -108.5t16 -108.5t47.5 -90.5t76.5 -61.5t104 -22.5zM347 874h54l121 -153h-69l-81 85l-79 -85h-69z" />
<glyph unicode="&#xd5;" horiz-adv-x="746" d="M374 -12q-77 0 -138 28t-103 75.5t-64.5 109.5t-22.5 131t22 131.5t64 110t102.5 76t137.5 28.5t138 -28t103 -75.5t64.5 -109.5t22.5 -131t-22 -131.5t-64 -110t-102.5 -76t-137.5 -28.5zM372 51q58 0 104 22.5t77.5 60.5t48 89.5t16.5 108.5t-16 108.5t-47.5 90.5 t-77 61.5t-103.5 22.5q-59 0 -104.5 -22.5t-77 -60.5t-48 -89.5t-16.5 -108.5t16 -108.5t47.5 -90.5t76.5 -61.5t104 -22.5zM422 723q-18 0 -31.5 6t-25 13.5t-23 13.5t-26.5 6q-17 0 -29.5 -12.5l-19.5 -19.5l-39 37q7 9 16 19.5t20.5 19.5t26 15t31.5 6q19 0 32.5 -6 t25 -13.5t23 -13.5t25.5 -6q20 0 32.5 11.5t18.5 19.5l39 -38q-8 -10 -17.5 -20.5t-21 -18.5t-25.5 -13.5t-32 -5.5z" />
<glyph unicode="&#xd6;" horiz-adv-x="746" d="M374 -12q-77 0 -138 28t-103 75.5t-64.5 109.5t-22.5 131t22 131.5t64 110t102.5 76t137.5 28.5t138 -28t103 -75.5t64.5 -109.5t22.5 -131t-22 -131.5t-64 -110t-102.5 -76t-137.5 -28.5zM372 51q58 0 104 22.5t77.5 60.5t48 89.5t16.5 108.5t-16 108.5t-47.5 90.5 t-77 61.5t-103.5 22.5q-59 0 -104.5 -22.5t-77 -60.5t-48 -89.5t-16.5 -108.5t16 -108.5t47.5 -90.5t76.5 -61.5t104 -22.5zM279 718q-22 0 -37.5 15.5t-15.5 38.5q0 22 15.5 37.5t37.5 15.5q23 0 38.5 -15.5t15.5 -37.5q0 -23 -15.5 -38.5t-38.5 -15.5zM466 718 q-22 0 -37.5 15.5t-15.5 38.5q0 22 15.5 37.5t37.5 15.5q23 0 38.5 -15.5t15.5 -37.5q0 -23 -15.5 -38.5t-38.5 -15.5z" />
<glyph unicode="&#xd7;" horiz-adv-x="512" d="M250 220l-129 -129l-45 45l129 129l-129 130l48 48l130 -129l129 129l45 -45l-129 -129l137 -137l-49 -48z" />
<glyph unicode="&#xd8;" horiz-adv-x="746" d="M110 -34l60 90q-60 48 -92 120.5t-32 155.5q0 69 22 131.5t64 110t102.5 76t137.5 28.5q54 0 99 -13.5t82 -38.5l64 95l44 -33l-65 -96q51 -48 77.5 -115.5t26.5 -142.5q0 -69 -22 -131.5t-64 -110t-102.5 -76t-137.5 -28.5q-46 0 -86 10t-74 28l-61 -91zM128 334 q0 -66 20.5 -123t61.5 -97l305 455q-28 22 -63.5 34t-77.5 12q-59 0 -104.5 -22.5t-77 -60.5t-48 -89.5t-16.5 -108.5zM372 51q58 0 104 22.5t77.5 60.5t48 89.5t16.5 108.5t-16 108.5t-47 89.5l-303 -448q51 -31 120 -31z" />
<glyph unicode="&#xd9;" horiz-adv-x="725" d="M368 -12q-68 0 -117 18.5t-80.5 52.5t-46 81.5t-14.5 106.5v361q-23 0 -45.5 3t-33.5 5v50h236v-50q-11 -2 -33.5 -5t-45.5 -3v-354q0 -104 44 -153t138 -49q90 0 133.5 52t43.5 136v368q-23 0 -45.5 3t-33.5 5v50h226v-50q-11 -2 -33.5 -5t-45.5 -3v-357 q0 -61 -14.5 -110t-44.5 -83t-76.5 -52t-111.5 -18zM204 846h109l92 -126h-66z" />
<glyph unicode="&#xda;" horiz-adv-x="725" d="M368 -12q-68 0 -117 18.5t-80.5 52.5t-46 81.5t-14.5 106.5v361q-23 0 -45.5 3t-33.5 5v50h236v-50q-11 -2 -33.5 -5t-45.5 -3v-354q0 -104 44 -153t138 -49q90 0 133.5 52t43.5 136v368q-23 0 -45.5 3t-33.5 5v50h226v-50q-11 -2 -33.5 -5t-45.5 -3v-357 q0 -61 -14.5 -110t-44.5 -83t-76.5 -52t-111.5 -18zM426 846h109l-135 -126h-66z" />
<glyph unicode="&#xdb;" horiz-adv-x="725" d="M368 -12q-68 0 -117 18.5t-80.5 52.5t-46 81.5t-14.5 106.5v361q-23 0 -45.5 3t-33.5 5v50h236v-50q-11 -2 -33.5 -5t-45.5 -3v-354q0 -104 44 -153t138 -49q90 0 133.5 52t43.5 136v368q-23 0 -45.5 3t-33.5 5v50h226v-50q-11 -2 -33.5 -5t-45.5 -3v-357 q0 -61 -14.5 -110t-44.5 -83t-76.5 -52t-111.5 -18zM342 874h54l121 -153h-69l-81 85l-79 -85h-69z" />
<glyph unicode="&#xdc;" horiz-adv-x="725" d="M368 -12q-68 0 -117 18.5t-80.5 52.5t-46 81.5t-14.5 106.5v361q-23 0 -45.5 3t-33.5 5v50h236v-50q-11 -2 -33.5 -5t-45.5 -3v-354q0 -104 44 -153t138 -49q90 0 133.5 52t43.5 136v368q-23 0 -45.5 3t-33.5 5v50h226v-50q-11 -2 -33.5 -5t-45.5 -3v-357 q0 -61 -14.5 -110t-44.5 -83t-76.5 -52t-111.5 -18zM274 718q-22 0 -37.5 15.5t-15.5 38.5q0 22 15.5 37.5t37.5 15.5q23 0 38.5 -15.5t15.5 -37.5q0 -23 -15.5 -38.5t-38.5 -15.5zM461 718q-22 0 -37.5 15.5t-15.5 38.5q0 22 15.5 37.5t37.5 15.5q23 0 38.5 -15.5 t15.5 -37.5q0 -23 -15.5 -38.5t-38.5 -15.5z" />
<glyph unicode="&#xdd;" horiz-adv-x="611" d="M188 51q11 2 33.5 5t45.5 3v193l-187 356q-22 0 -44 3t-32 5v50h232v-50q-10 -2 -30.5 -4t-40.5 -4l78 -156q17 -34 35.5 -70t30.5 -60h1l30 60l35 70l78 156l-40 4t-30 4v50h224v-50q-11 -2 -33 -5t-44 -3l-185 -352v-197q23 0 45.5 -3t33.5 -5v-51h-236v51zM364 846 h109l-135 -126h-66z" />
<glyph unicode="&#xde;" horiz-adv-x="561" d="M41 50q11 2 33.5 5t45.5 3v550q-23 0 -45.5 3t-33.5 5v50h157v-116h89q51 0 94 -11.5t74 -35.5t48.5 -59.5t17.5 -83.5q0 -99 -64 -152t-181 -53h-78v-97q23 0 50.5 -3t38.5 -5v-50h-246v50zM198 217h78q88 0 126.5 34.5t38.5 103.5q0 30 -8.5 54.5t-28 42t-50.5 27.5 t-75 10h-81v-272z" />
<glyph unicode="&#xdf;" horiz-adv-x="573" d="M375 -12q-49 0 -79.5 11.5t-45.5 22.5l30 58q14 -8 38.5 -19.5t59.5 -11.5q41 0 67 18.5t26 54.5q0 38 -29 59.5t-75 45.5q-18 10 -36 21t-32 24.5t-22.5 31.5t-8.5 41q0 41 24.5 67.5t62.5 51.5q29 19 50 44.5t21 67.5q0 45 -27 71.5t-82 26.5q-53 0 -88.5 -41.5 t-35.5 -131.5v-501h-152v50q11 2 33.5 5t45.5 3v364h-80v58h80v16q0 60 15.5 104t42 73.5t63 44t78.5 14.5q44 0 78 -11.5t57 -32t34.5 -48t11.5 -58.5q0 -33 -10 -57.5t-25 -43t-33.5 -32.5t-35.5 -25q-31 -20 -46.5 -34t-15.5 -33q0 -24 20.5 -39.5t66.5 -39.5 q22 -12 44 -25.5t40 -30.5t29 -39t11 -51q0 -65 -43.5 -104.5t-126.5 -39.5z" />
<glyph unicode="&#xe0;" horiz-adv-x="490" d="M179 -12q-60 0 -98.5 35t-38.5 94q0 48 23.5 79.5t61 50t82.5 26.5t89 8h21v50q0 54 -23 77t-73 23q-33 0 -64 -12.5t-63 -41.5l-37 49q70 66 169 66q79 0 121.5 -38.5t42.5 -120.5v-230q0 -14 0.5 -25.5t1.5 -22.5q23 -2 43 -3.5t34 -1.5v-50q-20 -2 -59.5 -4t-81.5 -2 q-2 10 -4 27t-2 40h-2q-21 -30 -58.5 -51.5t-84.5 -21.5zM191 50q42 0 74 18t54 49v111h-21q-39 0 -71.5 -5.5t-56 -18.5t-37 -34t-13.5 -51q0 -19 7 -32t17.5 -21.5t23 -12t23.5 -3.5zM65 666h109l92 -126h-66z" />
<glyph unicode="&#xe1;" horiz-adv-x="490" d="M179 -12q-60 0 -98.5 35t-38.5 94q0 48 23.5 79.5t61 50t82.5 26.5t89 8h21v50q0 54 -23 77t-73 23q-33 0 -64 -12.5t-63 -41.5l-37 49q70 66 169 66q79 0 121.5 -38.5t42.5 -120.5v-230q0 -14 0.5 -25.5t1.5 -22.5q23 -2 43 -3.5t34 -1.5v-50q-20 -2 -59.5 -4t-81.5 -2 q-2 10 -4 27t-2 40h-2q-21 -30 -58.5 -51.5t-84.5 -21.5zM191 50q42 0 74 18t54 49v111h-21q-39 0 -71.5 -5.5t-56 -18.5t-37 -34t-13.5 -51q0 -19 7 -32t17.5 -21.5t23 -12t23.5 -3.5zM286 666h109l-135 -126h-66z" />
<glyph unicode="&#xe2;" horiz-adv-x="490" d="M179 -12q-60 0 -98.5 35t-38.5 94q0 48 23.5 79.5t61 50t82.5 26.5t89 8h21v50q0 54 -23 77t-73 23q-33 0 -64 -12.5t-63 -41.5l-37 49q70 66 169 66q79 0 121.5 -38.5t42.5 -120.5v-230q0 -14 0.5 -25.5t1.5 -22.5q23 -2 43 -3.5t34 -1.5v-50q-20 -2 -59.5 -4t-81.5 -2 q-2 10 -4 27t-2 40h-2q-21 -30 -58.5 -51.5t-84.5 -21.5zM191 50q42 0 74 18t54 49v111h-21q-39 0 -71.5 -5.5t-56 -18.5t-37 -34t-13.5 -51q0 -19 7 -32t17.5 -21.5t23 -12t23.5 -3.5zM203 694h54l121 -153h-69l-81 85l-79 -85h-69z" />
<glyph unicode="&#xe3;" horiz-adv-x="490" d="M179 -12q-60 0 -98.5 35t-38.5 94q0 48 23.5 79.5t61 50t82.5 26.5t89 8h21v50q0 54 -23 77t-73 23q-33 0 -64 -12.5t-63 -41.5l-37 49q70 66 169 66q79 0 121.5 -38.5t42.5 -120.5v-230q0 -14 0.5 -25.5t1.5 -22.5q23 -2 43 -3.5t34 -1.5v-50q-20 -2 -59.5 -4t-81.5 -2 q-2 10 -4 27t-2 40h-2q-21 -30 -58.5 -51.5t-84.5 -21.5zM191 50q42 0 74 18t54 49v111h-21q-39 0 -71.5 -5.5t-56 -18.5t-37 -34t-13.5 -51q0 -19 7 -32t17.5 -21.5t23 -12t23.5 -3.5zM278 543q-18 0 -31.5 6t-25 13.5t-23 13.5t-26.5 6q-17 0 -29.5 -12.5l-19.5 -19.5 l-39 37q7 9 16 19.5t20.5 19.5t26 15t31.5 6q19 0 32.5 -6t25 -13.5t23 -13.5t25.5 -6q20 0 32.5 11.5t18.5 19.5l39 -38q-8 -10 -17.5 -20.5t-21 -18.5t-25.5 -13.5t-32 -5.5z" />
<glyph unicode="&#xe4;" horiz-adv-x="490" d="M179 -12q-60 0 -98.5 35t-38.5 94q0 48 23.5 79.5t61 50t82.5 26.5t89 8h21v50q0 54 -23 77t-73 23q-33 0 -64 -12.5t-63 -41.5l-37 49q70 66 169 66q79 0 121.5 -38.5t42.5 -120.5v-230q0 -14 0.5 -25.5t1.5 -22.5q23 -2 43 -3.5t34 -1.5v-50q-20 -2 -59.5 -4t-81.5 -2 q-2 10 -4 27t-2 40h-2q-21 -30 -58.5 -51.5t-84.5 -21.5zM191 50q42 0 74 18t54 49v111h-21q-39 0 -71.5 -5.5t-56 -18.5t-37 -34t-13.5 -51q0 -19 7 -32t17.5 -21.5t23 -12t23.5 -3.5zM135 538q-22 0 -37.5 15.5t-15.5 38.5q0 22 15.5 37.5t37.5 15.5q23 0 38.5 -15.5 t15.5 -37.5q0 -23 -15.5 -38.5t-38.5 -15.5zM322 538q-22 0 -37.5 15.5t-15.5 38.5q0 22 15.5 37.5t37.5 15.5q23 0 38.5 -15.5t15.5 -37.5q0 -23 -15.5 -38.5t-38.5 -15.5z" />
<glyph unicode="&#xe5;" horiz-adv-x="490" d="M179 -12q-60 0 -98.5 35t-38.5 94q0 48 23.5 79.5t61 50t82.5 26.5t89 8h21v50q0 54 -23 77t-73 23q-33 0 -64 -12.5t-63 -41.5l-37 49q70 66 169 66q79 0 121.5 -38.5t42.5 -120.5v-230q0 -14 0.5 -25.5t1.5 -22.5q23 -2 43 -3.5t34 -1.5v-50q-20 -2 -59.5 -4t-81.5 -2 q-2 10 -4 27t-2 40h-2q-21 -30 -58.5 -51.5t-84.5 -21.5zM191 50q42 0 74 18t54 49v111h-21q-39 0 -71.5 -5.5t-56 -18.5t-37 -34t-13.5 -51q0 -19 7 -32t17.5 -21.5t23 -12t23.5 -3.5zM229 536q-19 0 -36 7.5t-30 20t-21 30t-8 37.5t8 37.5t21 30t30 20t36 7.5t36 -7.5 t30 -20t21 -30t8 -37.5t-8 -37.5t-21 -30t-30 -20t-36 -7.5zM229 576q23 0 36.5 16.5t13.5 38.5q0 23 -13.5 39t-36.5 16t-36.5 -16t-13.5 -39q0 -22 13.5 -38.5t36.5 -16.5z" />
<glyph unicode="&#xe6;" horiz-adv-x="763" d="M178 -12q-60 0 -98 35t-38 94q0 48 23.5 79.5t60.5 50t82 26.5t89 8h22v50q0 23 -4.5 41.5t-15.5 31.5t-29.5 20t-47.5 7q-24 0 -44.5 -6.5t-36 -15t-27 -17.5t-18.5 -15l-37 49q9 8 23 19.5t34.5 22t48 17.5t62.5 7q58 0 93.5 -19t54.5 -60q27 36 68 57.5t96 21.5 q85 0 133.5 -55.5t48.5 -149.5q0 -8 -0.5 -22t-1.5 -22h-325q0 -91 41.5 -142.5t120.5 -51.5q40 0 73.5 15.5t49.5 27.5l29 -55q-9 -6 -23.5 -14.5t-35 -16t-47 -13t-59.5 -5.5q-66 0 -114 26t-76 74q-15 -20 -33 -38t-39 -32t-46.5 -22t-56.5 -8zM531 434q-56 0 -91 -37 t-42 -98h246q0 27 -6 51.5t-19.5 43t-35 29.5t-52.5 11zM192 50q53 0 87.5 25.5t52.5 59.5q-8 23 -10.5 46t-4.5 47h-20q-39 0 -71.5 -5.5t-56 -18.5t-36.5 -34t-13 -51q0 -19 7 -32t18 -21.5t23.5 -12t23.5 -3.5z" />
<glyph unicode="&#xe7;" horiz-adv-x="454" d="M257 -12q-53 0 -93 19.5t-68 53t-42 77.5t-14 94q0 62 17.5 110.5t48 81.5t72 50.5t88.5 17.5q48 0 85 -12t54 -26v-129h-57q-1 5 -2.5 16t-2.5 24.5t-2 28t-1 26.5q-34 14 -78 14q-37 0 -64 -15.5t-45 -42t-26.5 -62t-8.5 -74.5q0 -38 9 -73t28 -61t46.5 -41.5 t65.5 -15.5q22 0 42.5 5t36.5 11.5t27.5 13.5t16.5 11l29 -53q-7 -6 -21.5 -14.5t-35 -16t-47.5 -13t-58 -5.5zM238 -219q-27 0 -42.5 4t-23.5 8l12 42q7 -4 20 -7.5t33 -3.5q23 0 36.5 9.5t13.5 29.5q0 26 -19.5 33.5t-43.5 7.5h-8l36 96h51l-25 -66q31 -5 50.5 -23 t19.5 -47q0 -41 -32.5 -62t-77.5 -21z" />
<glyph unicode="&#xe8;" horiz-adv-x="487" d="M267 -12q-56 0 -98 18.5t-71 51.5t-43.5 77.5t-14.5 97.5q0 59 16.5 107t46 81.5t70.5 52t90 18.5q85 0 133.5 -55.5t48.5 -149.5q0 -8 -0.5 -22t-1.5 -22h-325q0 -91 41.5 -142.5t120.5 -51.5q40 0 73.5 15.5t49.5 27.5l29 -55q-9 -6 -23.5 -14.5t-35 -16t-47 -13 t-59.5 -5.5zM368 299q0 27 -6 51.5t-19.5 43t-35 29.5t-52.5 11q-56 0 -91 -37t-42 -98h246zM91 666h109l92 -126h-66z" />
<glyph unicode="&#xe9;" horiz-adv-x="487" d="M267 -12q-56 0 -98 18.5t-71 51.5t-43.5 77.5t-14.5 97.5q0 59 16.5 107t46 81.5t70.5 52t90 18.5q85 0 133.5 -55.5t48.5 -149.5q0 -8 -0.5 -22t-1.5 -22h-325q0 -91 41.5 -142.5t120.5 -51.5q40 0 73.5 15.5t49.5 27.5l29 -55q-9 -6 -23.5 -14.5t-35 -16t-47 -13 t-59.5 -5.5zM368 299q0 27 -6 51.5t-19.5 43t-35 29.5t-52.5 11q-56 0 -91 -37t-42 -98h246zM312 666h109l-135 -126h-66z" />
<glyph unicode="&#xea;" horiz-adv-x="487" d="M267 -12q-56 0 -98 18.5t-71 51.5t-43.5 77.5t-14.5 97.5q0 59 16.5 107t46 81.5t70.5 52t90 18.5q85 0 133.5 -55.5t48.5 -149.5q0 -8 -0.5 -22t-1.5 -22h-325q0 -91 41.5 -142.5t120.5 -51.5q40 0 73.5 15.5t49.5 27.5l29 -55q-9 -6 -23.5 -14.5t-35 -16t-47 -13 t-59.5 -5.5zM368 299q0 27 -6 51.5t-19.5 43t-35 29.5t-52.5 11q-56 0 -91 -37t-42 -98h246zM228 694h54l121 -153h-69l-81 85l-79 -85h-69z" />
<glyph unicode="&#xeb;" horiz-adv-x="487" d="M267 -12q-56 0 -98 18.5t-71 51.5t-43.5 77.5t-14.5 97.5q0 59 16.5 107t46 81.5t70.5 52t90 18.5q85 0 133.5 -55.5t48.5 -149.5q0 -8 -0.5 -22t-1.5 -22h-325q0 -91 41.5 -142.5t120.5 -51.5q40 0 73.5 15.5t49.5 27.5l29 -55q-9 -6 -23.5 -14.5t-35 -16t-47 -13 t-59.5 -5.5zM368 299q0 27 -6 51.5t-19.5 43t-35 29.5t-52.5 11q-56 0 -91 -37t-42 -98h246zM160 538q-22 0 -37.5 15.5t-15.5 38.5q0 22 15.5 37.5t37.5 15.5q23 0 38.5 -15.5t15.5 -37.5q0 -23 -15.5 -38.5t-38.5 -15.5zM347 538q-22 0 -37.5 15.5t-15.5 38.5 q0 22 15.5 37.5t37.5 15.5q23 0 38.5 -15.5t15.5 -37.5q0 -23 -15.5 -38.5t-38.5 -15.5z" />
<glyph unicode="&#xec;" horiz-adv-x="292" d="M36 50q11 2 33.5 5t45.5 3v366q-24 2 -46 3t-33 1v50q20 2 64 5t93 3l-4 -79v-349q23 0 45.5 -3t33.5 -5v-50h-232v50zM-10 666h109l92 -126h-66z" />
<glyph unicode="&#xed;" horiz-adv-x="292" d="M36 50q11 2 33.5 5t45.5 3v366q-24 2 -46 3t-33 1v50q20 2 64 5t93 3l-4 -79v-349q23 0 45.5 -3t33.5 -5v-50h-232v50zM212 666h109l-135 -126h-66z" />
<glyph unicode="&#xee;" horiz-adv-x="292" d="M36 50q11 2 33.5 5t45.5 3v366q-24 2 -46 3t-33 1v50q20 2 64 5t93 3l-4 -79v-349q23 0 45.5 -3t33.5 -5v-50h-232v50zM128 694h54l121 -153h-69l-81 85l-79 -85h-69z" />
<glyph unicode="&#xef;" horiz-adv-x="292" d="M36 50q11 2 33.5 5t45.5 3v366q-24 2 -46 3t-33 1v50q20 2 64 5t93 3l-4 -79v-349q23 0 45.5 -3t33.5 -5v-50h-232v50zM60 538q-22 0 -37.5 15.5t-15.5 38.5q0 22 15.5 37.5t37.5 15.5q23 0 38.5 -15.5t15.5 -37.5q0 -23 -15.5 -38.5t-38.5 -15.5zM247 538 q-22 0 -37.5 15.5t-15.5 38.5q0 22 15.5 37.5t37.5 15.5q23 0 38.5 -15.5t15.5 -37.5q0 -23 -15.5 -38.5t-38.5 -15.5z" />
<glyph unicode="&#xf0;" horiz-adv-x="538" d="M261 -12q-47 0 -87.5 17.5t-70 50t-46.5 79t-17 104.5t16 104t45 77.5t69 48t87 16.5q51 0 89.5 -18.5t62.5 -50.5q-25 130 -112 194l-79 -67l-38 44l64 54q-66 30 -156 30l15 61q113 0 197 -43l72 61l38 -44l-59 -50q71 -55 108 -145t37 -211q0 -62 -14 -118.5 t-43 -99.5t-73.5 -68.5t-104.5 -25.5zM264 46q72 0 113.5 65t41.5 196v16q-25 45 -65.5 74.5t-101.5 29.5q-31 0 -56 -13.5t-42 -38t-26.5 -59t-9.5 -75.5q0 -91 40 -143t106 -52z" />
<glyph unicode="&#xf1;" horiz-adv-x="586" d="M36 50q11 2 33.5 5t45.5 3v366q-24 2 -46 3t-33 1v50q20 2 63 5t92 3l-4 -79h2q30 40 67.5 62.5t86.5 22.5q38 0 65 -12t44 -32t25 -47.5t8 -58.5v-284q23 0 45.5 -3t33.5 -5v-50h-231v50q11 2 33.5 5t45.5 3v274q0 45 -19.5 71.5t-66.5 26.5q-44 0 -78 -26.5t-60 -61.5 v-284q23 0 45.5 -3t33.5 -5v-50h-231v50zM339 543q-18 0 -31.5 6t-25 13.5t-23 13.5t-26.5 6q-17 0 -29.5 -12.5l-19.5 -19.5l-39 37q7 9 16 19.5t20.5 19.5t26 15t31.5 6q19 0 32.5 -6t25 -13.5t23 -13.5t25.5 -6q20 0 32.5 11.5t18.5 19.5l39 -38q-8 -10 -17.5 -20.5 t-21 -18.5t-25.5 -13.5t-32 -5.5z" />
<glyph unicode="&#xf2;" horiz-adv-x="528" d="M261 -12q-61 0 -103 21.5t-68.5 56.5t-38 79.5t-11.5 90.5q0 42 12.5 87t39 82.5t68.5 62t101 24.5q61 0 104 -21.5t70.5 -56.5t40 -79.5t12.5 -90.5q0 -42 -13 -87.5t-41 -83t-70.5 -61.5t-102.5 -24zM261 46q37 0 65 15.5t47 42t28 61.5t9 74t-9 74t-28 62t-47 43 t-65 16q-38 0 -65 -15.5t-44 -42t-25.5 -61.5t-8.5 -74t8.5 -74t25.5 -62t44 -43t65 -16zM98 666h109l92 -126h-66z" />
<glyph unicode="&#xf3;" horiz-adv-x="528" d="M261 -12q-61 0 -103 21.5t-68.5 56.5t-38 79.5t-11.5 90.5q0 42 12.5 87t39 82.5t68.5 62t101 24.5q61 0 104 -21.5t70.5 -56.5t40 -79.5t12.5 -90.5q0 -42 -13 -87.5t-41 -83t-70.5 -61.5t-102.5 -24zM261 46q37 0 65 15.5t47 42t28 61.5t9 74t-9 74t-28 62t-47 43 t-65 16q-38 0 -65 -15.5t-44 -42t-25.5 -61.5t-8.5 -74t8.5 -74t25.5 -62t44 -43t65 -16zM319 666h109l-135 -126h-66z" />
<glyph unicode="&#xf4;" horiz-adv-x="528" d="M261 -12q-61 0 -103 21.5t-68.5 56.5t-38 79.5t-11.5 90.5q0 42 12.5 87t39 82.5t68.5 62t101 24.5q61 0 104 -21.5t70.5 -56.5t40 -79.5t12.5 -90.5q0 -42 -13 -87.5t-41 -83t-70.5 -61.5t-102.5 -24zM261 46q37 0 65 15.5t47 42t28 61.5t9 74t-9 74t-28 62t-47 43 t-65 16q-38 0 -65 -15.5t-44 -42t-25.5 -61.5t-8.5 -74t8.5 -74t25.5 -62t44 -43t65 -16zM235 694h54l121 -153h-69l-81 85l-79 -85h-69z" />
<glyph unicode="&#xf5;" horiz-adv-x="528" d="M261 -12q-61 0 -103 21.5t-68.5 56.5t-38 79.5t-11.5 90.5q0 42 12.5 87t39 82.5t68.5 62t101 24.5q61 0 104 -21.5t70.5 -56.5t40 -79.5t12.5 -90.5q0 -42 -13 -87.5t-41 -83t-70.5 -61.5t-102.5 -24zM261 46q37 0 65 15.5t47 42t28 61.5t9 74t-9 74t-28 62t-47 43 t-65 16q-38 0 -65 -15.5t-44 -42t-25.5 -61.5t-8.5 -74t8.5 -74t25.5 -62t44 -43t65 -16zM310 543q-18 0 -31.5 6t-25 13.5t-23 13.5t-26.5 6q-17 0 -29.5 -12.5l-19.5 -19.5l-39 37q7 9 16 19.5t20.5 19.5t26 15t31.5 6q19 0 32.5 -6t25 -13.5t23 -13.5t25.5 -6 q20 0 32.5 11.5t18.5 19.5l39 -38q-8 -10 -17.5 -20.5t-21 -18.5t-25.5 -13.5t-32 -5.5z" />
<glyph unicode="&#xf6;" horiz-adv-x="528" d="M261 -12q-61 0 -103 21.5t-68.5 56.5t-38 79.5t-11.5 90.5q0 42 12.5 87t39 82.5t68.5 62t101 24.5q61 0 104 -21.5t70.5 -56.5t40 -79.5t12.5 -90.5q0 -42 -13 -87.5t-41 -83t-70.5 -61.5t-102.5 -24zM261 46q37 0 65 15.5t47 42t28 61.5t9 74t-9 74t-28 62t-47 43 t-65 16q-38 0 -65 -15.5t-44 -42t-25.5 -61.5t-8.5 -74t8.5 -74t25.5 -62t44 -43t65 -16zM167 538q-22 0 -37.5 15.5t-15.5 38.5q0 22 15.5 37.5t37.5 15.5q23 0 38.5 -15.5t15.5 -37.5q0 -23 -15.5 -38.5t-38.5 -15.5zM354 538q-22 0 -37.5 15.5t-15.5 38.5q0 22 15.5 37.5 t37.5 15.5q23 0 38.5 -15.5t15.5 -37.5q0 -23 -15.5 -38.5t-38.5 -15.5z" />
<glyph unicode="&#xf7;" horiz-adv-x="572" d="M284 17q-23 0 -39.5 15.5t-16.5 38.5t16.5 38.5t39.5 15.5t39 -15.5t16 -38.5t-16 -38.5t-39 -15.5zM284 354q-23 0 -39.5 16t-16.5 39q0 22 16.5 38t39.5 16t39 -16t16 -38q0 -23 -16 -39t-39 -16zM36 270h500v-60h-500v60z" />
<glyph unicode="&#xf8;" horiz-adv-x="536" d="M54 -28l52 78q-35 36 -50.5 85t-15.5 101q0 42 13 87t40.5 82.5t70 62t101.5 24.5q34 0 62.5 -7t51.5 -20l57 86l42 -29l-58 -86q39 -36 57.5 -87t18.5 -105q0 -42 -13.5 -87.5t-42 -83t-72 -61.5t-103.5 -24q-38 0 -68.5 8.5t-54.5 23.5l-49 -75zM265 46q37 0 66 15.5 t48 42t29 61.5t10 74q0 38 -10 73.5t-29 62.5l-200 -299q35 -30 86 -30zM118 241q0 -36 7.5 -68.5t22.5 -58.5l195 296q-16 11 -35.5 17.5t-42.5 6.5q-38 0 -65.5 -15.5t-45.5 -42t-27 -61.5t-9 -74z" />
<glyph unicode="&#xf9;" horiz-adv-x="571" d="M240 -12q-38 0 -65 12t-44 32t-25 47.5t-8 58.5v286q-21 2 -39.5 3t-28.5 1v50q20 2 60 5t85 3l-4 -79v-259q0 -45 19.5 -71.5t66.5 -26.5q44 0 78 26.5t60 61.5v286q-21 2 -39 3t-29 1v50q20 2 61 5t84 3l-4 -79v-315q0 -11 0.5 -20t1.5 -17q23 -2 43 -3.5t34 -1.5v-50 q-20 -2 -57.5 -4t-85.5 -2q-3 14 -5 37.5t-2 42.5h-2q-29 -39 -67 -62.5t-88 -23.5zM118 666h109l92 -126h-66z" />
<glyph unicode="&#xfa;" horiz-adv-x="571" d="M240 -12q-38 0 -65 12t-44 32t-25 47.5t-8 58.5v286q-21 2 -39.5 3t-28.5 1v50q20 2 60 5t85 3l-4 -79v-259q0 -45 19.5 -71.5t66.5 -26.5q44 0 78 26.5t60 61.5v286q-21 2 -39 3t-29 1v50q20 2 61 5t84 3l-4 -79v-315q0 -11 0.5 -20t1.5 -17q23 -2 43 -3.5t34 -1.5v-50 q-20 -2 -57.5 -4t-85.5 -2q-3 14 -5 37.5t-2 42.5h-2q-29 -39 -67 -62.5t-88 -23.5zM339 666h109l-135 -126h-66z" />
<glyph unicode="&#xfb;" horiz-adv-x="571" d="M240 -12q-38 0 -65 12t-44 32t-25 47.5t-8 58.5v286q-21 2 -39.5 3t-28.5 1v50q20 2 60 5t85 3l-4 -79v-259q0 -45 19.5 -71.5t66.5 -26.5q44 0 78 26.5t60 61.5v286q-21 2 -39 3t-29 1v50q20 2 61 5t84 3l-4 -79v-315q0 -11 0.5 -20t1.5 -17q23 -2 43 -3.5t34 -1.5v-50 q-20 -2 -57.5 -4t-85.5 -2q-3 14 -5 37.5t-2 42.5h-2q-29 -39 -67 -62.5t-88 -23.5zM255 694h54l121 -153h-69l-81 85l-79 -85h-69z" />
<glyph unicode="&#xfc;" horiz-adv-x="571" d="M240 -12q-38 0 -65 12t-44 32t-25 47.5t-8 58.5v286q-21 2 -39.5 3t-28.5 1v50q20 2 60 5t85 3l-4 -79v-259q0 -45 19.5 -71.5t66.5 -26.5q44 0 78 26.5t60 61.5v286q-21 2 -39 3t-29 1v50q20 2 61 5t84 3l-4 -79v-315q0 -11 0.5 -20t1.5 -17q23 -2 43 -3.5t34 -1.5v-50 q-20 -2 -57.5 -4t-85.5 -2q-3 14 -5 37.5t-2 42.5h-2q-29 -39 -67 -62.5t-88 -23.5zM187 538q-22 0 -37.5 15.5t-15.5 38.5q0 22 15.5 37.5t37.5 15.5q23 0 38.5 -15.5t15.5 -37.5q0 -23 -15.5 -38.5t-38.5 -15.5zM374 538q-22 0 -37.5 15.5t-15.5 38.5q0 22 15.5 37.5 t37.5 15.5q23 0 38.5 -15.5t15.5 -37.5q0 -23 -15.5 -38.5t-38.5 -15.5z" />
<glyph unicode="&#xfd;" horiz-adv-x="512" d="M79 -232q-16 0 -27 1.5t-19 3.5l10 59q5 -2 14.5 -3t22.5 -1q25 0 43.5 6.5t32.5 20t24.5 33.5t20.5 47l24 66l-160 421q-18 2 -34.5 4t-24.5 4v50h205v-50q-8 -2 -28.5 -4t-40.5 -4l101 -283q4 -11 9 -27t7 -26h2q2 10 6.5 25.5t8.5 25.5l99 285q-20 2 -39.5 4t-27.5 4 v50h198v-50q-9 -2 -26 -4t-37 -4l-178 -485q-12 -32 -25.5 -62.5t-34.5 -54t-51.5 -38t-74.5 -14.5zM318 666h109l-135 -126h-66z" />
<glyph unicode="&#xfe;" horiz-adv-x="527" d="M1 -175q11 2 33.5 5t45.5 3v828q-24 2 -46 3t-33 1v50q20 2 63.5 5t92.5 3l-4 -79v-217h2q22 27 57 46t79 19q43 0 79 -16.5t62 -48t40.5 -77.5t14.5 -106q0 -57 -16.5 -104t-45.5 -81t-68.5 -52.5t-84.5 -18.5q-39 0 -67 11t-50 31h-2v-197q23 0 45.5 -3t33.5 -5v-50 h-231v50zM267 50q34 0 60.5 14.5t44.5 40t27.5 61t9.5 76.5t-8 75.5t-24.5 59.5t-42.5 39t-62 14q-33 0 -64.5 -17t-54.5 -49v-272q23 -21 50 -31.5t64 -10.5z" />
<glyph unicode="&#xff;" horiz-adv-x="512" d="M79 -232q-16 0 -27 1.5t-19 3.5l10 59q5 -2 14.5 -3t22.5 -1q25 0 43.5 6.5t32.5 20t24.5 33.5t20.5 47l24 66l-160 421q-18 2 -34.5 4t-24.5 4v50h205v-50q-8 -2 -28.5 -4t-40.5 -4l101 -283q4 -11 9 -27t7 -26h2q2 10 6.5 25.5t8.5 25.5l99 285q-20 2 -39.5 4t-27.5 4 v50h198v-50q-9 -2 -26 -4t-37 -4l-178 -485q-12 -32 -25.5 -62.5t-34.5 -54t-51.5 -38t-74.5 -14.5zM166 538q-22 0 -37.5 15.5t-15.5 38.5q0 22 15.5 37.5t37.5 15.5q23 0 38.5 -15.5t15.5 -37.5q0 -23 -15.5 -38.5t-38.5 -15.5zM353 538q-22 0 -37.5 15.5t-15.5 38.5 q0 22 15.5 37.5t37.5 15.5q23 0 38.5 -15.5t15.5 -37.5q0 -23 -15.5 -38.5t-38.5 -15.5z" />
<glyph unicode="&#x100;" horiz-adv-x="681" d="M10 50q8 2 25.5 4t36.5 3l232 609h75l228 -608q20 -1 37.5 -3.5t26.5 -4.5v-50h-215v50q9 2 28.5 4.5t39.5 3.5l-49 139h-277l-51 -139q20 -1 39 -3.5t29 -4.5v-50h-205v50zM453 259l-73 205q-15 42 -24 67.5t-17 48.5h-2q-8 -25 -17.5 -51.5t-23.5 -64.5l-75 -205h232z M203 815h271v-61h-271v61z" />
<glyph unicode="&#x101;" horiz-adv-x="490" d="M179 -12q-60 0 -98.5 35t-38.5 94q0 48 23.5 79.5t61 50t82.5 26.5t89 8h21v50q0 54 -23 77t-73 23q-33 0 -64 -12.5t-63 -41.5l-37 49q70 66 169 66q79 0 121.5 -38.5t42.5 -120.5v-230q0 -14 0.5 -25.5t1.5 -22.5q23 -2 43 -3.5t34 -1.5v-50q-20 -2 -59.5 -4t-81.5 -2 q-2 10 -4 27t-2 40h-2q-21 -30 -58.5 -51.5t-84.5 -21.5zM191 50q42 0 74 18t54 49v111h-21q-39 0 -71.5 -5.5t-56 -18.5t-37 -34t-13.5 -51q0 -19 7 -32t17.5 -21.5t23 -12t23.5 -3.5zM94 635h271v-61h-271v61z" />
<glyph unicode="&#x102;" horiz-adv-x="681" d="M10 50q8 2 25.5 4t36.5 3l232 609h75l228 -608q20 -1 37.5 -3.5t26.5 -4.5v-50h-215v50q9 2 28.5 4.5t39.5 3.5l-49 139h-277l-51 -139q20 -1 39 -3.5t29 -4.5v-50h-205v50zM453 259l-73 205q-15 42 -24 67.5t-17 48.5h-2q-8 -25 -17.5 -51.5t-23.5 -64.5l-75 -205h232z M339 716q-26 0 -50.5 8.5t-44 25.5t-33 44t-16.5 64h65q3 -38 23.5 -61t55.5 -23t55 23t23 61h65q-3 -37 -16 -64t-32.5 -44t-44 -25.5t-50.5 -8.5z" />
<glyph unicode="&#x103;" horiz-adv-x="490" d="M179 -12q-60 0 -98.5 35t-38.5 94q0 48 23.5 79.5t61 50t82.5 26.5t89 8h21v50q0 54 -23 77t-73 23q-33 0 -64 -12.5t-63 -41.5l-37 49q70 66 169 66q79 0 121.5 -38.5t42.5 -120.5v-230q0 -14 0.5 -25.5t1.5 -22.5q23 -2 43 -3.5t34 -1.5v-50q-20 -2 -59.5 -4t-81.5 -2 q-2 10 -4 27t-2 40h-2q-21 -30 -58.5 -51.5t-84.5 -21.5zM191 50q42 0 74 18t54 49v111h-21q-39 0 -71.5 -5.5t-56 -18.5t-37 -34t-13.5 -51q0 -19 7 -32t17.5 -21.5t23 -12t23.5 -3.5zM230 536q-26 0 -50.5 8.5t-44 25.5t-33 44t-16.5 64h65q3 -38 23.5 -61t55.5 -23t55 23 t23 61h65q-3 -37 -16 -64t-32.5 -44t-44 -25.5t-50.5 -8.5z" />
<glyph unicode="&#x104;" horiz-adv-x="681" d="M10 50q8 2 25.5 4t36.5 3l232 609h75l228 -608q20 -1 37.5 -3.5t26.5 -4.5v-50h-215v50q9 2 28.5 4.5t39.5 3.5l-49 139h-277l-51 -139q20 -1 39 -3.5t29 -4.5v-50h-205v50zM453 259l-73 205q-15 42 -24 67.5t-17 48.5h-2q-8 -25 -17.5 -51.5t-23.5 -64.5l-75 -205h232z M607 -219q-48 0 -73 27t-25 65q0 20 6.5 39t16 35.5t21 30t20.5 22.5h50q-17 -22 -34.5 -51t-17.5 -68q0 -48 50 -48q22 0 43 8l11 -43q-11 -6 -28 -11.5t-40 -5.5z" />
<glyph unicode="&#x105;" horiz-adv-x="490" d="M179 -12q-60 0 -98.5 35t-38.5 94q0 48 23.5 79.5t61 50t82.5 26.5t89 8h21v50q0 54 -23 77t-73 23q-33 0 -64 -12.5t-63 -41.5l-37 49q70 66 169 66q79 0 121.5 -38.5t42.5 -120.5v-230q0 -14 0.5 -25.5t1.5 -22.5q23 -2 43 -3.5t34 -1.5v-50q-20 -2 -59.5 -4t-81.5 -2 q-2 10 -4 27t-2 40h-2q-21 -30 -58.5 -51.5t-84.5 -21.5zM191 50q42 0 74 18t54 49v111h-21q-39 0 -71.5 -5.5t-56 -18.5t-37 -34t-13.5 -51q0 -19 7 -32t17.5 -21.5t23 -12t23.5 -3.5zM407 -219q-48 0 -73 27t-25 65q0 20 6.5 39t16 35.5t21 30t20.5 22.5h50 q-17 -22 -34.5 -51t-17.5 -68q0 -48 50 -48q22 0 43 8l11 -43q-11 -6 -28 -11.5t-40 -5.5z" />
<glyph unicode="&#x106;" horiz-adv-x="656" d="M381 -12q-80 0 -142 27t-105 73.5t-65.5 108.5t-22.5 132q0 72 24.5 135.5t69 111t107 75t139.5 27.5q64 0 114.5 -12.5t87.5 -35.5v-148h-63q-1 5 -2.5 17t-2.5 27.5t-2 32t-1 29.5q-29 13 -63.5 20t-69.5 7q-59 0 -106.5 -21t-80.5 -58t-51 -88.5t-18 -112.5t17.5 -113 t51 -90t82 -59.5t110.5 -21.5q40 0 77.5 9.5t66.5 25.5q0 13 1 30.5t2 34.5t2.5 31t2.5 19h63v-146q-13 -12 -36.5 -24t-53.5 -21.5t-64 -15.5t-69 -6zM427 846h109l-135 -126h-66z" />
<glyph unicode="&#x107;" horiz-adv-x="454" d="M257 -12q-53 0 -93 19.5t-68 53t-42 77.5t-14 94q0 62 17.5 110.5t48 81.5t72 50.5t88.5 17.5q48 0 85 -12t54 -26v-129h-57q-1 5 -2.5 16t-2.5 24.5t-2 28t-1 26.5q-34 14 -78 14q-37 0 -64 -15.5t-45 -42t-26.5 -62t-8.5 -74.5q0 -38 9 -73t28 -61t46.5 -41.5 t65.5 -15.5q22 0 42.5 5t36.5 11.5t27.5 13.5t16.5 11l29 -53q-7 -6 -21.5 -14.5t-35 -16t-47.5 -13t-58 -5.5zM318 666h109l-135 -126h-66z" />
<glyph unicode="&#x108;" horiz-adv-x="656" d="M381 -12q-80 0 -142 27t-105 73.5t-65.5 108.5t-22.5 132q0 72 24.5 135.5t69 111t107 75t139.5 27.5q64 0 114.5 -12.5t87.5 -35.5v-148h-63q-1 5 -2.5 17t-2.5 27.5t-2 32t-1 29.5q-29 13 -63.5 20t-69.5 7q-59 0 -106.5 -21t-80.5 -58t-51 -88.5t-18 -112.5t17.5 -113 t51 -90t82 -59.5t110.5 -21.5q40 0 77.5 9.5t66.5 25.5q0 13 1 30.5t2 34.5t2.5 31t2.5 19h63v-146q-13 -12 -36.5 -24t-53.5 -21.5t-64 -15.5t-69 -6zM343 874h54l121 -153h-69l-81 85l-79 -85h-69z" />
<glyph unicode="&#x109;" horiz-adv-x="454" d="M257 -12q-53 0 -93 19.5t-68 53t-42 77.5t-14 94q0 62 17.5 110.5t48 81.5t72 50.5t88.5 17.5q48 0 85 -12t54 -26v-129h-57q-1 5 -2.5 16t-2.5 24.5t-2 28t-1 26.5q-34 14 -78 14q-37 0 -64 -15.5t-45 -42t-26.5 -62t-8.5 -74.5q0 -38 9 -73t28 -61t46.5 -41.5 t65.5 -15.5q22 0 42.5 5t36.5 11.5t27.5 13.5t16.5 11l29 -53q-7 -6 -21.5 -14.5t-35 -16t-47.5 -13t-58 -5.5zM234 694h54l121 -153h-69l-81 85l-79 -85h-69z" />
<glyph unicode="&#x10a;" horiz-adv-x="656" d="M381 -12q-80 0 -142 27t-105 73.5t-65.5 108.5t-22.5 132q0 72 24.5 135.5t69 111t107 75t139.5 27.5q64 0 114.5 -12.5t87.5 -35.5v-148h-63q-1 5 -2.5 17t-2.5 27.5t-2 32t-1 29.5q-29 13 -63.5 20t-69.5 7q-59 0 -106.5 -21t-80.5 -58t-51 -88.5t-18 -112.5t17.5 -113 t51 -90t82 -59.5t110.5 -21.5q40 0 77.5 9.5t66.5 25.5q0 13 1 30.5t2 34.5t2.5 31t2.5 19h63v-146q-13 -12 -36.5 -24t-53.5 -21.5t-64 -15.5t-69 -6zM369 750q-23 0 -38.5 15.5t-15.5 38.5t15.5 38.5t38.5 15.5t38.5 -15.5t15.5 -38.5t-15.5 -38.5t-38.5 -15.5z" />
<glyph unicode="&#x10b;" horiz-adv-x="454" d="M257 -12q-53 0 -93 19.5t-68 53t-42 77.5t-14 94q0 62 17.5 110.5t48 81.5t72 50.5t88.5 17.5q48 0 85 -12t54 -26v-129h-57q-1 5 -2.5 16t-2.5 24.5t-2 28t-1 26.5q-34 14 -78 14q-37 0 -64 -15.5t-45 -42t-26.5 -62t-8.5 -74.5q0 -38 9 -73t28 -61t46.5 -41.5 t65.5 -15.5q22 0 42.5 5t36.5 11.5t27.5 13.5t16.5 11l29 -53q-7 -6 -21.5 -14.5t-35 -16t-47.5 -13t-58 -5.5zM260 570q-23 0 -38.5 15.5t-15.5 38.5t15.5 38.5t38.5 15.5t38.5 -15.5t15.5 -38.5t-15.5 -38.5t-38.5 -15.5z" />
<glyph unicode="&#x10c;" horiz-adv-x="656" d="M381 -12q-80 0 -142 27t-105 73.5t-65.5 108.5t-22.5 132q0 72 24.5 135.5t69 111t107 75t139.5 27.5q64 0 114.5 -12.5t87.5 -35.5v-148h-63q-1 5 -2.5 17t-2.5 27.5t-2 32t-1 29.5q-29 13 -63.5 20t-69.5 7q-59 0 -106.5 -21t-80.5 -58t-51 -88.5t-18 -112.5t17.5 -113 t51 -90t82 -59.5t110.5 -21.5q40 0 77.5 9.5t66.5 25.5q0 13 1 30.5t2 34.5t2.5 31t2.5 19h63v-146q-13 -12 -36.5 -24t-53.5 -21.5t-64 -15.5t-69 -6zM220 872h69l81 -85l79 85h69l-123 -153h-54z" />
<glyph unicode="&#x10d;" horiz-adv-x="454" d="M257 -12q-53 0 -93 19.5t-68 53t-42 77.5t-14 94q0 62 17.5 110.5t48 81.5t72 50.5t88.5 17.5q48 0 85 -12t54 -26v-129h-57q-1 5 -2.5 16t-2.5 24.5t-2 28t-1 26.5q-34 14 -78 14q-37 0 -64 -15.5t-45 -42t-26.5 -62t-8.5 -74.5q0 -38 9 -73t28 -61t46.5 -41.5 t65.5 -15.5q22 0 42.5 5t36.5 11.5t27.5 13.5t16.5 11l29 -53q-7 -6 -21.5 -14.5t-35 -16t-47.5 -13t-58 -5.5zM111 692h69l81 -85l79 85h69l-123 -153h-54z" />
<glyph unicode="&#x10e;" horiz-adv-x="699" d="M41 50q11 2 33.5 5t45.5 3v550q-23 0 -45.5 3t-33.5 5v50h235q98 0 169.5 -22.5t117.5 -64t68 -101t22 -132.5q0 -74 -22.5 -137t-69 -109.5t-118.5 -73t-172 -26.5h-230v50zM198 60h80q145 0 219 71.5t74 209.5t-73 201.5t-225 63.5h-75v-546zM185 872h69l81 -85l79 85 h69l-123 -153h-54z" />
<glyph unicode="&#x10f;" horiz-adv-x="550" d="M236 -12q-43 0 -79 16t-62 47.5t-40.5 78t-14.5 106.5q0 57 16.5 104t45.5 81t68.5 52.5t84.5 18.5q42 0 68.5 -11t48.5 -31h2v211q-24 2 -46 3t-33 1v50q20 2 63.5 5t92.5 3l-4 -79v-552v-18.5t2 -18.5q23 -2 43 -3.5t34 -1.5v-50q-20 -2 -59.5 -4t-81.5 -2 q-2 8 -4.5 28.5t-2.5 34.5h-2q-25 -30 -61 -49.5t-79 -19.5zM255 50q33 0 64.5 17t54.5 49v272q-23 21 -50 31.5t-64 10.5q-34 0 -60.5 -14.5t-44.5 -40t-27.5 -61t-9.5 -76.5t8 -75.5t24.5 -59.5t42.5 -39t62 -14zM523 720h91l-77 -166h-56z" />
<glyph unicode="&#x110;" horiz-adv-x="709" d="M60 372h70v236q-23 0 -45.5 3t-33.5 5v50h235q98 0 169.5 -22.5t117.5 -64t68 -101t22 -132.5q0 -74 -22.5 -137t-69 -109.5t-118.5 -73t-172 -26.5h-230v50q11 2 33.5 5t45.5 3v256h-70v58zM208 372h111v-58h-111v-254h80q145 0 219 71.5t74 209.5t-73 201.5t-225 63.5 h-75v-234z" />
<glyph unicode="&#x111;" horiz-adv-x="550" d="M236 -12q-43 0 -79 16t-62 47.5t-40.5 78t-14.5 106.5q0 57 16.5 104t45.5 81t68.5 52.5t84.5 18.5q42 0 68.5 -11t48.5 -31h2v102h-141v54h141v55q-24 2 -46 3t-33 1v50q20 2 63.5 5t92.5 3l-4 -79v-36h64v-58h-64v-458v-18.5t2 -18.5q23 -2 43 -3.5t34 -1.5v-50 q-20 -2 -59.5 -4t-81.5 -2q-2 8 -4.5 28.5t-2.5 34.5h-2q-25 -30 -61 -49.5t-79 -19.5zM255 50q33 0 64.5 17t54.5 49v272q-23 21 -50 31.5t-64 10.5q-34 0 -60.5 -14.5t-44.5 -40t-27.5 -61t-9.5 -76.5t8 -75.5t24.5 -59.5t42.5 -39t62 -14z" />
<glyph unicode="&#x112;" horiz-adv-x="574" d="M41 50q11 2 33.5 5t45.5 3v550q-23 0 -45.5 3t-33.5 5v50h482v-161h-63q-1 5 -2.5 17t-2.5 26t-2 29.5t-1 28.5h-254v-236h164q2 20 4 41t4 29h55v-198h-55q-2 8 -4 28.5t-4 41.5h-164v-252h261q0 13 1 28.5t2 29.5t2.5 26t2.5 17h63v-161h-489v50zM162 815h271v-61h-271 v61z" />
<glyph unicode="&#x113;" horiz-adv-x="487" d="M267 -12q-56 0 -98 18.5t-71 51.5t-43.5 77.5t-14.5 97.5q0 59 16.5 107t46 81.5t70.5 52t90 18.5q85 0 133.5 -55.5t48.5 -149.5q0 -8 -0.5 -22t-1.5 -22h-325q0 -91 41.5 -142.5t120.5 -51.5q40 0 73.5 15.5t49.5 27.5l29 -55q-9 -6 -23.5 -14.5t-35 -16t-47 -13 t-59.5 -5.5zM368 299q0 27 -6 51.5t-19.5 43t-35 29.5t-52.5 11q-56 0 -91 -37t-42 -98h246zM119 635h271v-61h-271v61z" />
<glyph unicode="&#x114;" horiz-adv-x="574" d="M41 50q11 2 33.5 5t45.5 3v550q-23 0 -45.5 3t-33.5 5v50h482v-161h-63q-1 5 -2.5 17t-2.5 26t-2 29.5t-1 28.5h-254v-236h164q2 20 4 41t4 29h55v-198h-55q-2 8 -4 28.5t-4 41.5h-164v-252h261q0 13 1 28.5t2 29.5t2.5 26t2.5 17h63v-161h-489v50zM298 716 q-26 0 -50.5 8.5t-44 25.5t-33 44t-16.5 64h65q3 -38 23.5 -61t55.5 -23t55 23t23 61h65q-3 -37 -16 -64t-32.5 -44t-44 -25.5t-50.5 -8.5z" />
<glyph unicode="&#x115;" horiz-adv-x="487" d="M267 -12q-56 0 -98 18.5t-71 51.5t-43.5 77.5t-14.5 97.5q0 59 16.5 107t46 81.5t70.5 52t90 18.5q85 0 133.5 -55.5t48.5 -149.5q0 -8 -0.5 -22t-1.5 -22h-325q0 -91 41.5 -142.5t120.5 -51.5q40 0 73.5 15.5t49.5 27.5l29 -55q-9 -6 -23.5 -14.5t-35 -16t-47 -13 t-59.5 -5.5zM368 299q0 27 -6 51.5t-19.5 43t-35 29.5t-52.5 11q-56 0 -91 -37t-42 -98h246zM255 536q-26 0 -50.5 8.5t-44 25.5t-33 44t-16.5 64h65q3 -38 23.5 -61t55.5 -23t55 23t23 61h65q-3 -37 -16 -64t-32.5 -44t-44 -25.5t-50.5 -8.5z" />
<glyph unicode="&#x116;" horiz-adv-x="574" d="M41 50q11 2 33.5 5t45.5 3v550q-23 0 -45.5 3t-33.5 5v50h482v-161h-63q-1 5 -2.5 17t-2.5 26t-2 29.5t-1 28.5h-254v-236h164q2 20 4 41t4 29h55v-198h-55q-2 8 -4 28.5t-4 41.5h-164v-252h261q0 13 1 28.5t2 29.5t2.5 26t2.5 17h63v-161h-489v50zM297 750 q-23 0 -38.5 15.5t-15.5 38.5t15.5 38.5t38.5 15.5t38.5 -15.5t15.5 -38.5t-15.5 -38.5t-38.5 -15.5z" />
<glyph unicode="&#x117;" horiz-adv-x="487" d="M267 -12q-56 0 -98 18.5t-71 51.5t-43.5 77.5t-14.5 97.5q0 59 16.5 107t46 81.5t70.5 52t90 18.5q85 0 133.5 -55.5t48.5 -149.5q0 -8 -0.5 -22t-1.5 -22h-325q0 -91 41.5 -142.5t120.5 -51.5q40 0 73.5 15.5t49.5 27.5l29 -55q-9 -6 -23.5 -14.5t-35 -16t-47 -13 t-59.5 -5.5zM368 299q0 27 -6 51.5t-19.5 43t-35 29.5t-52.5 11q-56 0 -91 -37t-42 -98h246zM254 570q-23 0 -38.5 15.5t-15.5 38.5t15.5 38.5t38.5 15.5t38.5 -15.5t15.5 -38.5t-15.5 -38.5t-38.5 -15.5z" />
<glyph unicode="&#x118;" horiz-adv-x="574" d="M41 50q11 2 33.5 5t45.5 3v550q-23 0 -45.5 3t-33.5 5v50h482v-161h-63q-1 5 -2.5 17t-2.5 26t-2 29.5t-1 28.5h-254v-236h164q2 20 4 41t4 29h55v-198h-55q-2 8 -4 28.5t-4 41.5h-164v-252h261q0 13 1 28.5t2 29.5t2.5 26t2.5 17h63v-161h-489v50zM466 -219 q-48 0 -73 27t-25 65q0 20 6.5 39t16 35.5t21 30t20.5 22.5h50q-17 -22 -34.5 -51t-17.5 -68q0 -48 50 -48q22 0 43 8l11 -43q-11 -6 -28 -11.5t-40 -5.5z" />
<glyph unicode="&#x119;" horiz-adv-x="487" d="M346 -219q-48 0 -73 27t-25 65q0 35 18 66.5t38 51.5q-18 -3 -37 -3q-56 0 -98 18.5t-71 51.5t-43.5 77.5t-14.5 97.5q0 59 16.5 107t46 81.5t70.5 52t90 18.5q85 0 133.5 -55.5t48.5 -149.5q0 -8 -0.5 -22t-1.5 -22h-325q0 -91 41.5 -142.5t120.5 -51.5q40 0 73.5 15.5 t49.5 27.5l29 -55q-59 -32 -90.5 -69t-31.5 -87q0 -48 50 -48q22 0 43 8l11 -43q-11 -6 -28 -11.5t-40 -5.5zM368 299q0 27 -6 51.5t-19.5 43t-35 29.5t-52.5 11q-56 0 -91 -37t-42 -98h246z" />
<glyph unicode="&#x11a;" horiz-adv-x="574" d="M41 50q11 2 33.5 5t45.5 3v550q-23 0 -45.5 3t-33.5 5v50h482v-161h-63q-1 5 -2.5 17t-2.5 26t-2 29.5t-1 28.5h-254v-236h164q2 20 4 41t4 29h55v-198h-55q-2 8 -4 28.5t-4 41.5h-164v-252h261q0 13 1 28.5t2 29.5t2.5 26t2.5 17h63v-161h-489v50zM148 872h69l81 -85 l79 85h69l-123 -153h-54z" />
<glyph unicode="&#x11b;" horiz-adv-x="487" d="M267 -12q-56 0 -98 18.5t-71 51.5t-43.5 77.5t-14.5 97.5q0 59 16.5 107t46 81.5t70.5 52t90 18.5q85 0 133.5 -55.5t48.5 -149.5q0 -8 -0.5 -22t-1.5 -22h-325q0 -91 41.5 -142.5t120.5 -51.5q40 0 73.5 15.5t49.5 27.5l29 -55q-9 -6 -23.5 -14.5t-35 -16t-47 -13 t-59.5 -5.5zM368 299q0 27 -6 51.5t-19.5 43t-35 29.5t-52.5 11q-56 0 -91 -37t-42 -98h246zM105 692h69l81 -85l79 85h69l-123 -153h-54z" />
<glyph unicode="&#x11c;" horiz-adv-x="727" d="M379 -12q-80 0 -142 28t-104.5 74.5t-64.5 108t-22 129.5q0 74 25 138t70 111t108.5 74t140.5 27q73 0 129 -17t97 -46v-148h-63q-1 5 -2.5 17.5t-2.5 28t-2 32t-1 29.5q-35 20 -75 30.5t-82 10.5q-62 0 -110 -21.5t-81.5 -59t-51 -88.5t-17.5 -111q0 -62 17.5 -114 t51 -89.5t81.5 -59t110 -21.5q54 0 96 11.5t66 30.5v142q-23 0 -45.5 3t-33.5 5v50h228v-48q-11 -2 -30.5 -6t-40.5 -4v-180q-38 -29 -99.5 -48t-149.5 -19zM355 874h54l121 -153h-69l-81 85l-79 -85h-69z" />
<glyph unicode="&#x11d;" horiz-adv-x="502" d="M232 -237q-42 0 -77.5 8.5t-61 25t-39.5 42t-14 60.5q0 45 28.5 76.5t64.5 48.5v2q-21 11 -35 29.5t-14 46.5t15.5 48.5t38.5 33.5v2q-38 21 -59 55.5t-21 84.5q0 36 12.5 66t36.5 52.5t57.5 35t75.5 12.5q39 0 74 -12h156v-58h-81q18 -22 27 -44.5t9 -51.5 q0 -36 -13.5 -66.5t-38 -52.5t-58.5 -34.5t-75 -12.5q-25 0 -50 6q-16 -8 -25.5 -20.5t-9.5 -26.5q0 -23 19 -33.5t50 -12.5q39 -2 83 -3.5t81 -13t61.5 -38.5t24.5 -80q0 -39 -19 -71t-52 -55t-77 -36t-94 -13zM239 -183q35 0 64.5 8.5t50.5 23t33 35t12 44.5 q0 28 -11.5 43.5t-29.5 22t-40 8t-43 2.5q-23 2 -45.5 3t-44.5 4q-33 -19 -52 -46t-19 -58q0 -39 30 -64.5t95 -25.5zM240 216q50 0 80 30.5t30 79.5t-30 79.5t-80 30.5t-78.5 -30.5t-28.5 -79.5t28.5 -79.5t78.5 -30.5zM216 694h54l121 -153h-69l-81 85l-79 -85h-69z" />
<glyph unicode="&#x11e;" horiz-adv-x="727" d="M379 -12q-80 0 -142 28t-104.5 74.5t-64.5 108t-22 129.5q0 74 25 138t70 111t108.5 74t140.5 27q73 0 129 -17t97 -46v-148h-63q-1 5 -2.5 17.5t-2.5 28t-2 32t-1 29.5q-35 20 -75 30.5t-82 10.5q-62 0 -110 -21.5t-81.5 -59t-51 -88.5t-17.5 -111q0 -62 17.5 -114 t51 -89.5t81.5 -59t110 -21.5q54 0 96 11.5t66 30.5v142q-23 0 -45.5 3t-33.5 5v50h228v-48q-11 -2 -30.5 -6t-40.5 -4v-180q-38 -29 -99.5 -48t-149.5 -19zM382 716q-26 0 -50.5 8.5t-44 25.5t-33 44t-16.5 64h65q3 -38 23.5 -61t55.5 -23t55 23t23 61h65q-3 -37 -16 -64 t-32.5 -44t-44 -25.5t-50.5 -8.5z" />
<glyph unicode="&#x11f;" horiz-adv-x="502" d="M232 -237q-42 0 -77.5 8.5t-61 25t-39.5 42t-14 60.5q0 45 28.5 76.5t64.5 48.5v2q-21 11 -35 29.5t-14 46.5t15.5 48.5t38.5 33.5v2q-38 21 -59 55.5t-21 84.5q0 36 12.5 66t36.5 52.5t57.5 35t75.5 12.5q39 0 74 -12h156v-58h-81q18 -22 27 -44.5t9 -51.5 q0 -36 -13.5 -66.5t-38 -52.5t-58.5 -34.5t-75 -12.5q-25 0 -50 6q-16 -8 -25.5 -20.5t-9.5 -26.5q0 -23 19 -33.5t50 -12.5q39 -2 83 -3.5t81 -13t61.5 -38.5t24.5 -80q0 -39 -19 -71t-52 -55t-77 -36t-94 -13zM239 -183q35 0 64.5 8.5t50.5 23t33 35t12 44.5 q0 28 -11.5 43.5t-29.5 22t-40 8t-43 2.5q-23 2 -45.5 3t-44.5 4q-33 -19 -52 -46t-19 -58q0 -39 30 -64.5t95 -25.5zM240 216q50 0 80 30.5t30 79.5t-30 79.5t-80 30.5t-78.5 -30.5t-28.5 -79.5t28.5 -79.5t78.5 -30.5zM243 536q-26 0 -50.5 8.5t-44 25.5t-33 44t-16.5 64 h65q3 -38 23.5 -61t55.5 -23t55 23t23 61h65q-3 -37 -16 -64t-32.5 -44t-44 -25.5t-50.5 -8.5z" />
<glyph unicode="&#x120;" horiz-adv-x="727" d="M379 -12q-80 0 -142 28t-104.5 74.5t-64.5 108t-22 129.5q0 74 25 138t70 111t108.5 74t140.5 27q73 0 129 -17t97 -46v-148h-63q-1 5 -2.5 17.5t-2.5 28t-2 32t-1 29.5q-35 20 -75 30.5t-82 10.5q-62 0 -110 -21.5t-81.5 -59t-51 -88.5t-17.5 -111q0 -62 17.5 -114 t51 -89.5t81.5 -59t110 -21.5q54 0 96 11.5t66 30.5v142q-23 0 -45.5 3t-33.5 5v50h228v-48q-11 -2 -30.5 -6t-40.5 -4v-180q-38 -29 -99.5 -48t-149.5 -19zM381 750q-23 0 -38.5 15.5t-15.5 38.5t15.5 38.5t38.5 15.5t38.5 -15.5t15.5 -38.5t-15.5 -38.5t-38.5 -15.5z" />
<glyph unicode="&#x121;" horiz-adv-x="502" d="M232 -237q-42 0 -77.5 8.5t-61 25t-39.5 42t-14 60.5q0 45 28.5 76.5t64.5 48.5v2q-21 11 -35 29.5t-14 46.5t15.5 48.5t38.5 33.5v2q-38 21 -59 55.5t-21 84.5q0 36 12.5 66t36.5 52.5t57.5 35t75.5 12.5q39 0 74 -12h156v-58h-81q18 -22 27 -44.5t9 -51.5 q0 -36 -13.5 -66.5t-38 -52.5t-58.5 -34.5t-75 -12.5q-25 0 -50 6q-16 -8 -25.5 -20.5t-9.5 -26.5q0 -23 19 -33.5t50 -12.5q39 -2 83 -3.5t81 -13t61.5 -38.5t24.5 -80q0 -39 -19 -71t-52 -55t-77 -36t-94 -13zM239 -183q35 0 64.5 8.5t50.5 23t33 35t12 44.5 q0 28 -11.5 43.5t-29.5 22t-40 8t-43 2.5q-23 2 -45.5 3t-44.5 4q-33 -19 -52 -46t-19 -58q0 -39 30 -64.5t95 -25.5zM240 216q50 0 80 30.5t30 79.5t-30 79.5t-80 30.5t-78.5 -30.5t-28.5 -79.5t28.5 -79.5t78.5 -30.5zM242 570q-23 0 -38.5 15.5t-15.5 38.5t15.5 38.5 t38.5 15.5t38.5 -15.5t15.5 -38.5t-15.5 -38.5t-38.5 -15.5z" />
<glyph unicode="&#x122;" horiz-adv-x="727" d="M379 -12q-80 0 -142 28t-104.5 74.5t-64.5 108t-22 129.5q0 74 25 138t70 111t108.5 74t140.5 27q73 0 129 -17t97 -46v-148h-63q-1 5 -2.5 17.5t-2.5 28t-2 32t-1 29.5q-35 20 -75 30.5t-82 10.5q-62 0 -110 -21.5t-81.5 -59t-51 -88.5t-17.5 -111q0 -62 17.5 -114 t51 -89.5t81.5 -59t110 -21.5q54 0 96 11.5t66 30.5v142q-23 0 -45.5 3t-33.5 5v50h228v-48q-11 -2 -30.5 -6t-40.5 -4v-180q-38 -29 -99.5 -48t-149.5 -19zM376 -50q20 0 35.5 -15t15.5 -42q0 -35 -21 -66t-47 -54l-25 22l21 21t10 28q0 11 -4.5 18.5t-10.5 14t-10.5 14.5 t-4.5 20q0 17 11 28t30 11z" />
<glyph unicode="&#x123;" horiz-adv-x="502" d="M232 -237q-42 0 -77.5 8.5t-61 25t-39.5 42t-14 60.5q0 45 28.5 76.5t64.5 48.5v2q-21 11 -35 29.5t-14 46.5t15.5 48.5t38.5 33.5v2q-38 21 -59 55.5t-21 84.5q0 36 12.5 66t36.5 52.5t57.5 35t75.5 12.5q39 0 74 -12h156v-58h-81q18 -22 27 -44.5t9 -51.5 q0 -36 -13.5 -66.5t-38 -52.5t-58.5 -34.5t-75 -12.5q-25 0 -50 6q-16 -8 -25.5 -20.5t-9.5 -26.5q0 -23 19 -33.5t50 -12.5q39 -2 83 -3.5t81 -13t61.5 -38.5t24.5 -80q0 -39 -19 -71t-52 -55t-77 -36t-94 -13zM239 -183q35 0 64.5 8.5t50.5 23t33 35t12 44.5 q0 28 -11.5 43.5t-29.5 22t-40 8t-43 2.5q-23 2 -45.5 3t-44.5 4q-33 -19 -52 -46t-19 -58q0 -39 30 -64.5t95 -25.5zM240 216q50 0 80 30.5t30 79.5t-30 79.5t-80 30.5t-78.5 -30.5t-28.5 -79.5t28.5 -79.5t78.5 -30.5zM247 539q-20 0 -35.5 15t-15.5 42q0 35 21 66t47 54 l25 -22l-21 -21t-10 -28q0 -11 4.5 -18.5t10.5 -14t10.5 -14.5t4.5 -20q0 -17 -11 -28t-30 -11z" />
<glyph unicode="&#x124;" horiz-adv-x="758" d="M41 50q11 2 33.5 5t45.5 3v550q-23 0 -45.5 3t-33.5 5v50h236v-50q-11 -2 -33.5 -5t-45.5 -3v-228h362v228q-23 0 -45.5 3t-33.5 5v50h236v-50q-11 -2 -33.5 -5t-45.5 -3v-550q23 0 45.5 -3t33.5 -5v-50h-236v50q11 2 33.5 5t45.5 3v261h-362v-261q23 0 45.5 -3t33.5 -5 v-50h-236v50zM353 874h54l121 -153h-69l-81 85l-79 -85h-69z" />
<glyph unicode="&#x125;" horiz-adv-x="574" d="M24 50q11 2 33.5 5t45.5 3v603q-24 2 -46 3t-33 1v50q20 2 63.5 5t92.5 3l-4 -79v-236h2q28 38 66 61t87 23q38 0 65 -12t44 -32t25 -47.5t8 -58.5v-284q23 0 45.5 -3t33.5 -5v-50h-231v50q11 2 33.5 5t45.5 3v274q0 45 -19.5 71.5t-66.5 26.5q-44 0 -78 -26.5t-60 -61.5 v-284q23 0 45.5 -3t33.5 -5v-50h-231v50zM262 934h54l121 -153h-69l-81 85l-79 -85h-69z" />
<glyph unicode="&#x126;" horiz-adv-x="758" d="M41 50q11 2 33.5 5t45.5 3v402h-60v58h60v90q-23 0 -45.5 3t-33.5 5v50h236v-50q-11 -2 -33.5 -5t-45.5 -3v-90h362v90q-23 0 -45.5 3t-33.5 5v50h236v-50q-11 -2 -33.5 -5t-45.5 -3v-90h60v-58h-60v-402q23 0 45.5 -3t33.5 -5v-50h-236v50q11 2 33.5 5t45.5 3v237h-362 v-237q23 0 45.5 -3t33.5 -5v-50h-236v50zM560 356v104h-362v-104h362z" />
<glyph unicode="&#x127;" horiz-adv-x="574" d="M24 50q11 2 33.5 5t45.5 3v492h-64v58h64v53q-24 2 -46 3t-33 1v50q20 2 63.5 5t92.5 3l-4 -79v-38h141v-54h-141v-144h2q28 38 66 61t87 23q38 0 65 -12t44 -32t25 -47.5t8 -58.5v-284q23 0 45.5 -3t33.5 -5v-50h-231v50q11 2 33.5 5t45.5 3v274q0 45 -19.5 71.5 t-66.5 26.5q-44 0 -78 -26.5t-60 -61.5v-284q23 0 45.5 -3t33.5 -5v-50h-231v50z" />
<glyph unicode="&#x128;" horiz-adv-x="318" d="M41 50q11 2 33.5 5t45.5 3v550q-23 0 -45.5 3t-33.5 5v50h236v-50q-11 -2 -33.5 -5t-45.5 -3v-550q23 0 45.5 -3t33.5 -5v-50h-236v50zM209 723q-18 0 -31.5 6t-25 13.5t-23 13.5t-26.5 6q-17 0 -29.5 -12.5l-19.5 -19.5l-39 37q7 9 16 19.5t20.5 19.5t26 15t31.5 6 q19 0 32.5 -6t25 -13.5t23 -13.5t25.5 -6q20 0 32.5 11.5t18.5 19.5l39 -38q-8 -10 -17.5 -20.5t-21 -18.5t-25.5 -13.5t-32 -5.5z" />
<glyph unicode="&#x129;" horiz-adv-x="292" d="M36 50q11 2 33.5 5t45.5 3v366q-24 2 -46 3t-33 1v50q20 2 64 5t93 3l-4 -79v-349q23 0 45.5 -3t33.5 -5v-50h-232v50zM203 543q-18 0 -31.5 6t-25 13.5t-23 13.5t-26.5 6q-17 0 -29.5 -12.5l-19.5 -19.5l-39 37q7 9 16 19.5t20.5 19.5t26 15t31.5 6q19 0 32.5 -6 t25 -13.5t23 -13.5t25.5 -6q20 0 32.5 11.5t18.5 19.5l39 -38q-8 -10 -17.5 -20.5t-21 -18.5t-25.5 -13.5t-32 -5.5z" />
<glyph unicode="&#x12a;" horiz-adv-x="318" d="M41 50q11 2 33.5 5t45.5 3v550q-23 0 -45.5 3t-33.5 5v50h236v-50q-11 -2 -33.5 -5t-45.5 -3v-550q23 0 45.5 -3t33.5 -5v-50h-236v50zM25 815h271v-61h-271v61z" />
<glyph unicode="&#x12b;" horiz-adv-x="292" d="M36 50q11 2 33.5 5t45.5 3v366q-24 2 -46 3t-33 1v50q20 2 64 5t93 3l-4 -79v-349q23 0 45.5 -3t33.5 -5v-50h-232v50zM19 635h271v-61h-271v61z" />
<glyph unicode="&#x12c;" horiz-adv-x="318" d="M41 50q11 2 33.5 5t45.5 3v550q-23 0 -45.5 3t-33.5 5v50h236v-50q-11 -2 -33.5 -5t-45.5 -3v-550q23 0 45.5 -3t33.5 -5v-50h-236v50zM161 716q-26 0 -50.5 8.5t-44 25.5t-33 44t-16.5 64h65q3 -38 23.5 -61t55.5 -23t55 23t23 61h65q-3 -37 -16 -64t-32.5 -44 t-44 -25.5t-50.5 -8.5z" />
<glyph unicode="&#x12d;" horiz-adv-x="292" d="M36 50q11 2 33.5 5t45.5 3v366q-24 2 -46 3t-33 1v50q20 2 64 5t93 3l-4 -79v-349q23 0 45.5 -3t33.5 -5v-50h-232v50zM155 536q-26 0 -50.5 8.5t-44 25.5t-33 44t-16.5 64h65q3 -38 23.5 -61t55.5 -23t55 23t23 61h65q-3 -37 -16 -64t-32.5 -44t-44 -25.5t-50.5 -8.5z " />
<glyph unicode="&#x12e;" horiz-adv-x="318" d="M41 50q11 2 33.5 5t45.5 3v550q-23 0 -45.5 3t-33.5 5v50h236v-50q-11 -2 -33.5 -5t-45.5 -3v-550q23 0 45.5 -3t33.5 -5v-50h-236v50zM175 -219q-48 0 -73 27t-25 65q0 20 6.5 39t16 35.5t21 30t20.5 22.5h50q-17 -22 -34.5 -51t-17.5 -68q0 -48 50 -48q22 0 43 8 l11 -43q-11 -6 -28 -11.5t-40 -5.5z" />
<glyph unicode="&#x12f;" horiz-adv-x="292" d="M36 50q11 2 33.5 5t45.5 3v366q-24 2 -46 3t-33 1v50q20 2 64 5t93 3l-4 -79v-349q23 0 45.5 -3t33.5 -5v-50h-232v50zM152 570q-23 0 -38.5 15.5t-15.5 38.5t15.5 38.5t38.5 15.5t38.5 -15.5t15.5 -38.5t-15.5 -38.5t-38.5 -15.5zM168 -219q-48 0 -73 27t-25 65 q0 20 6.5 39t16 35.5t21 30t20.5 22.5h50q-17 -22 -34.5 -51t-17.5 -68q0 -48 50 -48q22 0 43 8l11 -43q-11 -6 -28 -11.5t-40 -5.5z" />
<glyph unicode="&#x130;" horiz-adv-x="318" d="M41 50q11 2 33.5 5t45.5 3v550q-23 0 -45.5 3t-33.5 5v50h236v-50q-11 -2 -33.5 -5t-45.5 -3v-550q23 0 45.5 -3t33.5 -5v-50h-236v50zM160 750q-23 0 -38.5 15.5t-15.5 38.5t15.5 38.5t38.5 15.5t38.5 -15.5t15.5 -38.5t-15.5 -38.5t-38.5 -15.5z" />
<glyph unicode="&#x131;" horiz-adv-x="292" d="M36 50q11 2 33.5 5t45.5 3v366q-24 2 -46 3t-33 1v50q20 2 64 5t93 3l-4 -79v-349q23 0 45.5 -3t33.5 -5v-50h-232v50z" />
<glyph unicode="&#x132;" horiz-adv-x="612" d="M41 50q11 2 33.5 5t45.5 3v550q-23 0 -45.5 3t-33.5 5v50h236v-50q-11 -2 -33.5 -5t-45.5 -3v-550q23 0 45.5 -3t33.5 -5v-50h-236v50zM353 -190q-21 0 -36 3.5t-21 6.5l12 64q5 -2 15 -4.5t24 -2.5q41 0 60 28.5t19 89.5v613q-23 0 -45.5 3t-33.5 5v50h236v-50 q-11 -2 -33.5 -5t-45.5 -3v-622q0 -85 -38 -130.5t-113 -45.5z" />
<glyph unicode="&#x133;" horiz-adv-x="550" d="M36 50q11 2 33.5 5t45.5 3v366q-24 2 -46 3t-33 1v50q20 2 64 5t93 3l-4 -79v-349q23 0 45.5 -3t33.5 -5v-50h-232v50zM152 570q-23 0 -38.5 15.5t-15.5 38.5t15.5 38.5t38.5 15.5t38.5 -15.5t15.5 -38.5t-15.5 -38.5t-38.5 -15.5zM331 -230q-25 0 -37 2.5t-15 4.5l11 58 q4 -2 12 -3.5t23 -1.5q40 0 55 30t15 85v479q-24 2 -46 3t-33 1v50q20 2 63.5 5t92.5 3l-4 -79v-471q0 -37 -7.5 -67.5t-24 -52.5t-42.5 -34t-63 -12zM430 570q-23 0 -38.5 15.5t-15.5 38.5t15.5 38.5t38.5 15.5t38.5 -15.5t15.5 -38.5t-15.5 -38.5t-38.5 -15.5z" />
<glyph unicode="&#x134;" horiz-adv-x="294" d="M35 -190q-21 0 -36 3.5t-21 6.5l12 64q5 -2 15 -4.5t24 -2.5q41 0 60 28.5t19 89.5v613q-23 0 -45.5 3t-33.5 5v50h236v-50q-11 -2 -33.5 -5t-45.5 -3v-622q0 -85 -38 -130.5t-113 -45.5zM122 874h54l121 -153h-69l-81 85l-79 -85h-69z" />
<glyph unicode="&#x135;" horiz-adv-x="258" d="M39 -230q-25 0 -37 2.5t-15 4.5l11 58q4 -2 12 -3.5t23 -1.5q40 0 55 30t15 85v479q-24 2 -46 3t-33 1v50q20 2 63.5 5t92.5 3l-4 -79v-471q0 -37 -7.5 -67.5t-24 -52.5t-42.5 -34t-63 -12zM115 694h54l121 -153h-69l-81 85l-79 -85h-69z" />
<glyph unicode="&#x136;" horiz-adv-x="625" d="M41 50q11 2 33.5 5t45.5 3v550q-23 0 -45.5 3t-33.5 5v50h235v-50q-11 -2 -33.5 -5t-45.5 -3v-550q23 0 45.5 -3t33.5 -5v-50h-235v50zM393 50q9 2 27.5 4.5t38.5 3.5l-254 284l232 266q-18 2 -35 4t-25 4v50h219v-50q-9 -2 -29.5 -4.5t-41.5 -3.5l-234 -258l266 -293 q20 -1 39.5 -3t28.5 -4v-50h-232v50zM323 -50q20 0 35.5 -15t15.5 -42q0 -35 -21 -66t-47 -54l-25 22l21 21t10 28q0 11 -4.5 18.5t-10.5 14t-10.5 14.5t-4.5 20q0 17 11 28t30 11z" />
<glyph unicode="&#x137;" horiz-adv-x="542" d="M24 50q11 2 33.5 5t45.5 3v603q-24 2 -46 3t-33 1v50q20 2 63.5 5t92.5 3l-4 -79v-586q23 0 42 -3t30 -5v-50h-224v50zM326 50q8 2 23 3.5t32 3.5l-195 199l167 166q-20 2 -37.5 4t-25.5 4v50h221v-50q-10 -2 -31 -4.5t-43 -2.5l-166 -160l202 -205q20 -1 39 -3.5 t28 -4.5v-50h-214v50zM283 -50q20 0 35.5 -15t15.5 -42q0 -35 -21 -66t-47 -54l-25 22l21 21t10 28q0 11 -4.5 18.5t-10.5 14t-10.5 14.5t-4.5 20q0 17 11 28t30 11z" />
<glyph unicode="&#x139;" horiz-adv-x="516" d="M41 50q11 2 33.5 5t45.5 3v550q-23 0 -45.5 3t-33.5 5v50h236v-50q-11 -2 -33.5 -5t-45.5 -3v-548h218q0 15 1 32.5t2 33t2.5 28t2.5 17.5h60v-171h-443v50zM219 846h109l-135 -126h-66z" />
<glyph unicode="&#x13a;" horiz-adv-x="279" d="M24 50q11 2 33.5 5t45.5 3v603q-24 2 -46 3t-33 1v50q20 2 63.5 5t92.5 3l-4 -79v-586q23 0 45.5 -3t33.5 -5v-50h-231v50zM198 906h109l-135 -126h-66z" />
<glyph unicode="&#x13b;" horiz-adv-x="516" d="M41 50q11 2 33.5 5t45.5 3v550q-23 0 -45.5 3t-33.5 5v50h236v-50q-11 -2 -33.5 -5t-45.5 -3v-548h218q0 15 1 32.5t2 33t2.5 28t2.5 17.5h60v-171h-443v50zM285 -50q20 0 35.5 -15t15.5 -42q0 -35 -21 -66t-47 -54l-25 22l21 21t10 28q0 11 -4.5 18.5t-10.5 14 t-10.5 14.5t-4.5 20q0 17 11 28t30 11z" />
<glyph unicode="&#x13c;" horiz-adv-x="279" d="M24 50q11 2 33.5 5t45.5 3v603q-24 2 -46 3t-33 1v50q20 2 63.5 5t92.5 3l-4 -79v-586q23 0 45.5 -3t33.5 -5v-50h-231v50zM135 -50q20 0 35.5 -15t15.5 -42q0 -35 -21 -66t-47 -54l-25 22l21 21t10 28q0 11 -4.5 18.5t-10.5 14t-10.5 14.5t-4.5 20q0 17 11 28t30 11z " />
<glyph unicode="&#x13d;" horiz-adv-x="516" d="M41 50q11 2 33.5 5t45.5 3v550q-23 0 -45.5 3t-33.5 5v50h236v-50q-11 -2 -33.5 -5t-45.5 -3v-548h218q0 15 1 32.5t2 33t2.5 28t2.5 17.5h60v-171h-443v50zM359 667h91l-77 -166h-56z" />
<glyph unicode="&#x13e;" horiz-adv-x="279" d="M24 50q11 2 33.5 5t45.5 3v603q-24 2 -46 3t-33 1v50q20 2 63.5 5t92.5 3l-4 -79v-586q23 0 45.5 -3t33.5 -5v-50h-231v50zM252 720h91l-77 -166h-56z" />
<glyph unicode="&#x13f;" horiz-adv-x="516" d="M41 50q11 2 33.5 5t45.5 3v550q-23 0 -45.5 3t-33.5 5v50h236v-50q-11 -2 -33.5 -5t-45.5 -3v-548h218q0 15 1 32.5t2 33t2.5 28t2.5 17.5h60v-171h-443v50zM350 309q-23 0 -38.5 15.5t-15.5 38.5t15.5 38.5t38.5 15.5t38.5 -15.5t15.5 -38.5t-15.5 -38.5t-38.5 -15.5z " />
<glyph unicode="&#x140;" horiz-adv-x="311" d="M24 50q11 2 33.5 5t45.5 3v603q-24 2 -46 3t-33 1v50q20 2 63.5 5t92.5 3l-4 -79v-586q23 0 45.5 -3t33.5 -5v-50h-231v50zM296 247q-23 0 -38.5 15.5t-15.5 38.5t15.5 38.5t38.5 15.5t38.5 -15.5t15.5 -38.5t-15.5 -38.5t-38.5 -15.5z" />
<glyph unicode="&#x141;" horiz-adv-x="528" d="M27 265l105 83v260q-23 0 -45.5 3t-33.5 5v50h236v-50q-11 -2 -33.5 -5t-45.5 -3v-198l106 84l34 -43l-140 -110v-281h218q0 15 1 32.5t2 33t2.5 28t2.5 17.5h60v-171h-443v50q11 2 33.5 5t45.5 3v222l-73 -57z" />
<glyph unicode="&#x142;" horiz-adv-x="295" d="M44 292l67 54v315q-24 2 -46 3t-33 1v50q20 2 63.5 5t92.5 3l-4 -79v-238l67 55v-69l-67 -55v-279q23 0 45.5 -3t33.5 -5v-50h-231v50q11 2 33.5 5t45.5 3v220l-67 -54v68z" />
<glyph unicode="&#x143;" horiz-adv-x="766" d="M41 50q11 2 33.5 5t45.5 3v550q-23 0 -45.5 3t-33.5 5v50h153l335 -460q23 -30 39.5 -57t21.5 -37h2q-1 10 -2 29.5t-1 56.5v410q-23 0 -45.5 3t-33.5 5v50h227v-50q-11 -2 -33.5 -5t-45.5 -3v-608h-69l-350 482q-19 26 -33.5 51t-18.5 33h-2q2 -8 3 -30.5t1 -40.5v-437 q23 0 45.5 -3t33.5 -5v-50h-227v50zM439 846h109l-135 -126h-66z" />
<glyph unicode="&#x144;" horiz-adv-x="586" d="M36 50q11 2 33.5 5t45.5 3v366q-24 2 -46 3t-33 1v50q20 2 63 5t92 3l-4 -79h2q30 40 67.5 62.5t86.5 22.5q38 0 65 -12t44 -32t25 -47.5t8 -58.5v-284q23 0 45.5 -3t33.5 -5v-50h-231v50q11 2 33.5 5t45.5 3v274q0 45 -19.5 71.5t-66.5 26.5q-44 0 -78 -26.5t-60 -61.5 v-284q23 0 45.5 -3t33.5 -5v-50h-231v50zM348 666h109l-135 -126h-66z" />
<glyph unicode="&#x145;" horiz-adv-x="766" d="M41 50q11 2 33.5 5t45.5 3v550q-23 0 -45.5 3t-33.5 5v50h153l335 -460q23 -30 39.5 -57t21.5 -37h2q-1 10 -2 29.5t-1 56.5v410q-23 0 -45.5 3t-33.5 5v50h227v-50q-11 -2 -33.5 -5t-45.5 -3v-608h-69l-350 482q-19 26 -33.5 51t-18.5 33h-2q2 -8 3 -30.5t1 -40.5v-437 q23 0 45.5 -3t33.5 -5v-50h-227v50zM376 -50q20 0 35.5 -15t15.5 -42q0 -35 -21 -66t-47 -54l-25 22l21 21t10 28q0 11 -4.5 18.5t-10.5 14t-10.5 14.5t-4.5 20q0 17 11 28t30 11z" />
<glyph unicode="&#x146;" horiz-adv-x="586" d="M36 50q11 2 33.5 5t45.5 3v366q-24 2 -46 3t-33 1v50q20 2 63 5t92 3l-4 -79h2q30 40 67.5 62.5t86.5 22.5q38 0 65 -12t44 -32t25 -47.5t8 -58.5v-284q23 0 45.5 -3t33.5 -5v-50h-231v50q11 2 33.5 5t45.5 3v274q0 45 -19.5 71.5t-66.5 26.5q-44 0 -78 -26.5t-60 -61.5 v-284q23 0 45.5 -3t33.5 -5v-50h-231v50zM295 -50q20 0 35.5 -15t15.5 -42q0 -35 -21 -66t-47 -54l-25 22l21 21t10 28q0 11 -4.5 18.5t-10.5 14t-10.5 14.5t-4.5 20q0 17 11 28t30 11z" />
<glyph unicode="&#x147;" horiz-adv-x="766" d="M41 50q11 2 33.5 5t45.5 3v550q-23 0 -45.5 3t-33.5 5v50h153l335 -460q23 -30 39.5 -57t21.5 -37h2q-1 10 -2 29.5t-1 56.5v410q-23 0 -45.5 3t-33.5 5v50h227v-50q-11 -2 -33.5 -5t-45.5 -3v-608h-69l-350 482q-19 26 -33.5 51t-18.5 33h-2q2 -8 3 -30.5t1 -40.5v-437 q23 0 45.5 -3t33.5 -5v-50h-227v50zM232 872h69l81 -85l79 85h69l-123 -153h-54z" />
<glyph unicode="&#x148;" horiz-adv-x="586" d="M36 50q11 2 33.5 5t45.5 3v366q-24 2 -46 3t-33 1v50q20 2 63 5t92 3l-4 -79h2q30 40 67.5 62.5t86.5 22.5q38 0 65 -12t44 -32t25 -47.5t8 -58.5v-284q23 0 45.5 -3t33.5 -5v-50h-231v50q11 2 33.5 5t45.5 3v274q0 45 -19.5 71.5t-66.5 26.5q-44 0 -78 -26.5t-60 -61.5 v-284q23 0 45.5 -3t33.5 -5v-50h-231v50zM141 692h69l81 -85l79 85h69l-123 -153h-54z" />
<glyph unicode="&#x14c;" horiz-adv-x="746" d="M374 -12q-77 0 -138 28t-103 75.5t-64.5 109.5t-22.5 131t22 131.5t64 110t102.5 76t137.5 28.5t138 -28t103 -75.5t64.5 -109.5t22.5 -131t-22 -131.5t-64 -110t-102.5 -76t-137.5 -28.5zM372 51q58 0 104 22.5t77.5 60.5t48 89.5t16.5 108.5t-16 108.5t-47.5 90.5 t-77 61.5t-103.5 22.5q-59 0 -104.5 -22.5t-77 -60.5t-48 -89.5t-16.5 -108.5t16 -108.5t47.5 -90.5t76.5 -61.5t104 -22.5zM238 815h271v-61h-271v61z" />
<glyph unicode="&#x14d;" horiz-adv-x="528" d="M261 -12q-61 0 -103 21.5t-68.5 56.5t-38 79.5t-11.5 90.5q0 42 12.5 87t39 82.5t68.5 62t101 24.5q61 0 104 -21.5t70.5 -56.5t40 -79.5t12.5 -90.5q0 -42 -13 -87.5t-41 -83t-70.5 -61.5t-102.5 -24zM261 46q37 0 65 15.5t47 42t28 61.5t9 74t-9 74t-28 62t-47 43 t-65 16q-38 0 -65 -15.5t-44 -42t-25.5 -61.5t-8.5 -74t8.5 -74t25.5 -62t44 -43t65 -16zM126 635h271v-61h-271v61z" />
<glyph unicode="&#x14e;" horiz-adv-x="746" d="M374 -12q-77 0 -138 28t-103 75.5t-64.5 109.5t-22.5 131t22 131.5t64 110t102.5 76t137.5 28.5t138 -28t103 -75.5t64.5 -109.5t22.5 -131t-22 -131.5t-64 -110t-102.5 -76t-137.5 -28.5zM372 51q58 0 104 22.5t77.5 60.5t48 89.5t16.5 108.5t-16 108.5t-47.5 90.5 t-77 61.5t-103.5 22.5q-59 0 -104.5 -22.5t-77 -60.5t-48 -89.5t-16.5 -108.5t16 -108.5t47.5 -90.5t76.5 -61.5t104 -22.5zM374 716q-26 0 -50.5 8.5t-44 25.5t-33 44t-16.5 64h65q3 -38 23.5 -61t55.5 -23t55 23t23 61h65q-3 -37 -16 -64t-32.5 -44t-44 -25.5t-50.5 -8.5z " />
<glyph unicode="&#x14f;" horiz-adv-x="528" d="M261 -12q-61 0 -103 21.5t-68.5 56.5t-38 79.5t-11.5 90.5q0 42 12.5 87t39 82.5t68.5 62t101 24.5q61 0 104 -21.5t70.5 -56.5t40 -79.5t12.5 -90.5q0 -42 -13 -87.5t-41 -83t-70.5 -61.5t-102.5 -24zM261 46q37 0 65 15.5t47 42t28 61.5t9 74t-9 74t-28 62t-47 43 t-65 16q-38 0 -65 -15.5t-44 -42t-25.5 -61.5t-8.5 -74t8.5 -74t25.5 -62t44 -43t65 -16zM262 536q-26 0 -50.5 8.5t-44 25.5t-33 44t-16.5 64h65q3 -38 23.5 -61t55.5 -23t55 23t23 61h65q-3 -37 -16 -64t-32.5 -44t-44 -25.5t-50.5 -8.5z" />
<glyph unicode="&#x150;" horiz-adv-x="746" d="M374 -12q-77 0 -138 28t-103 75.5t-64.5 109.5t-22.5 131t22 131.5t64 110t102.5 76t137.5 28.5t138 -28t103 -75.5t64.5 -109.5t22.5 -131t-22 -131.5t-64 -110t-102.5 -76t-137.5 -28.5zM372 51q58 0 104 22.5t77.5 60.5t48 89.5t16.5 108.5t-16 108.5t-47.5 90.5 t-77 61.5t-103.5 22.5q-59 0 -104.5 -22.5t-77 -60.5t-48 -89.5t-16.5 -108.5t16 -108.5t47.5 -90.5t76.5 -61.5t104 -22.5zM331 846h105l-133 -126h-65zM495 846h105l-133 -126h-65z" />
<glyph unicode="&#x151;" horiz-adv-x="528" d="M261 -12q-61 0 -103 21.5t-68.5 56.5t-38 79.5t-11.5 90.5q0 42 12.5 87t39 82.5t68.5 62t101 24.5q61 0 104 -21.5t70.5 -56.5t40 -79.5t12.5 -90.5q0 -42 -13 -87.5t-41 -83t-70.5 -61.5t-102.5 -24zM261 46q37 0 65 15.5t47 42t28 61.5t9 74t-9 74t-28 62t-47 43 t-65 16q-38 0 -65 -15.5t-44 -42t-25.5 -61.5t-8.5 -74t8.5 -74t25.5 -62t44 -43t65 -16zM219 666h105l-133 -126h-65zM383 666h105l-133 -126h-65z" />
<glyph unicode="&#x152;" horiz-adv-x="911" d="M374 -12q-77 0 -138 28t-103 75.5t-64.5 109.5t-22.5 131t22 131.5t64 110t102.5 76t137.5 28.5q52 0 99 -12h389v-161h-63q-1 5 -2.5 17t-2.5 26t-2 29.5t-1 28.5h-240v-236h150q2 20 4 41t4 29h55v-198h-55q-2 8 -4 28.5t-4 41.5h-150v-252h247q0 13 1 28.5t2 29.5 t2.5 26t2.5 17h63v-161h-396q-44 -12 -97 -12zM372 53q55 0 99 18v523q-44 19 -97 19q-60 0 -105.5 -22.5t-77 -61t-47.5 -89t-16 -106.5t16 -107t46.5 -89.5t76 -61.5t105.5 -23z" />
<glyph unicode="&#x153;" horiz-adv-x="854" d="M261 -12q-61 0 -103 21.5t-68.5 56.5t-38 79.5t-11.5 90.5q0 42 12.5 87t39 82.5t68.5 62t101 24.5q71 0 116.5 -28.5t71.5 -73.5q29 48 75 75t106 27q85 0 133.5 -55.5t48.5 -149.5q0 -8 -0.5 -22t-1.5 -22h-325q0 -91 41.5 -142.5t120.5 -51.5q40 0 73.5 15.5 t49.5 27.5l29 -55q-9 -6 -23.5 -14.5t-35 -16t-47 -13t-59.5 -5.5q-69 0 -116.5 27.5t-74.5 75.5q-26 -45 -71 -74t-111 -29zM261 46q37 0 65 15.5t47 42t28 61.5t9 74t-9 74t-28 62t-47 43t-65 16q-38 0 -65 -15.5t-44 -42t-25.5 -61.5t-8.5 -74t8.5 -74t25.5 -62t44 -43 t65 -16zM622 433q-56 0 -91 -36.5t-42 -97.5h246q0 27 -6 51.5t-19.5 43t-35 29t-52.5 10.5z" />
<glyph unicode="&#x154;" horiz-adv-x="606" d="M41 50q11 2 33.5 5t45.5 3v550q-23 0 -45.5 3t-33.5 5v50h260q105 0 163 -44.5t58 -129.5q0 -40 -13.5 -71.5t-37.5 -53.5t-57.5 -34.5t-73.5 -14.5v-2q10 -7 28 -26.5t44 -59.5l84 -126q19 -28 38 -41.5t52 -13.5h8t8 1v-50q-21 -8 -53 -8q-37 0 -62 12t-49 50l-87 135 q-27 42 -45.5 66t-33 36t-27.5 15t-30 3h-17v-251q23 0 45.5 -3t33.5 -5v-50h-236v50zM298 366q75 0 109.5 31.5t34.5 89.5t-36.5 88.5t-113.5 30.5h-94v-240h100zM363 846h109l-135 -126h-66z" />
<glyph unicode="&#x155;" horiz-adv-x="378" d="M36 50q11 2 33.5 5t45.5 3v366q-24 2 -46 3t-33 1v50q20 2 63 5t92 3l-4 -89h2q7 16 18.5 32.5t27 30.5t36 23t45.5 9q22 0 33.5 -4t16.5 -6l-18 -70q-4 2 -13.5 5t-28.5 3q-25 0 -46 -12t-36 -28t-24.5 -30.5t-11.5 -20.5v-271q23 0 50.5 -3t38.5 -5v-50h-241v50z M288 666h109l-135 -126h-66z" />
<glyph unicode="&#x156;" horiz-adv-x="606" d="M41 50q11 2 33.5 5t45.5 3v550q-23 0 -45.5 3t-33.5 5v50h260q105 0 163 -44.5t58 -129.5q0 -40 -13.5 -71.5t-37.5 -53.5t-57.5 -34.5t-73.5 -14.5v-2q10 -7 28 -26.5t44 -59.5l84 -126q19 -28 38 -41.5t52 -13.5h8t8 1v-50q-21 -8 -53 -8q-37 0 -62 12t-49 50l-87 135 q-27 42 -45.5 66t-33 36t-27.5 15t-30 3h-17v-251q23 0 45.5 -3t33.5 -5v-50h-236v50zM298 366q75 0 109.5 31.5t34.5 89.5t-36.5 88.5t-113.5 30.5h-94v-240h100zM320 -50q20 0 35.5 -15t15.5 -42q0 -35 -21 -66t-47 -54l-25 22l21 21t10 28q0 11 -4.5 18.5t-10.5 14 t-10.5 14.5t-4.5 20q0 17 11 28t30 11z" />
<glyph unicode="&#x157;" horiz-adv-x="378" d="M36 50q11 2 33.5 5t45.5 3v366q-24 2 -46 3t-33 1v50q20 2 63 5t92 3l-4 -89h2q7 16 18.5 32.5t27 30.5t36 23t45.5 9q22 0 33.5 -4t16.5 -6l-18 -70q-4 2 -13.5 5t-28.5 3q-25 0 -46 -12t-36 -28t-24.5 -30.5t-11.5 -20.5v-271q23 0 50.5 -3t38.5 -5v-50h-241v50z M147 -50q20 0 35.5 -15t15.5 -42q0 -35 -21 -66t-47 -54l-25 22l21 21t10 28q0 11 -4.5 18.5t-10.5 14t-10.5 14.5t-4.5 20q0 17 11 28t30 11z" />
<glyph unicode="&#x158;" horiz-adv-x="606" d="M41 50q11 2 33.5 5t45.5 3v550q-23 0 -45.5 3t-33.5 5v50h260q105 0 163 -44.5t58 -129.5q0 -40 -13.5 -71.5t-37.5 -53.5t-57.5 -34.5t-73.5 -14.5v-2q10 -7 28 -26.5t44 -59.5l84 -126q19 -28 38 -41.5t52 -13.5h8t8 1v-50q-21 -8 -53 -8q-37 0 -62 12t-49 50l-87 135 q-27 42 -45.5 66t-33 36t-27.5 15t-30 3h-17v-251q23 0 45.5 -3t33.5 -5v-50h-236v50zM298 366q75 0 109.5 31.5t34.5 89.5t-36.5 88.5t-113.5 30.5h-94v-240h100zM156 872h69l81 -85l79 85h69l-123 -153h-54z" />
<glyph unicode="&#x159;" horiz-adv-x="378" d="M36 50q11 2 33.5 5t45.5 3v366q-24 2 -46 3t-33 1v50q20 2 63 5t92 3l-4 -89h2q7 16 18.5 32.5t27 30.5t36 23t45.5 9q22 0 33.5 -4t16.5 -6l-18 -70q-4 2 -13.5 5t-28.5 3q-25 0 -46 -12t-36 -28t-24.5 -30.5t-11.5 -20.5v-271q23 0 50.5 -3t38.5 -5v-50h-241v50z M82 692h69l81 -85l79 85h69l-123 -153h-54z" />
<glyph unicode="&#x15a;" horiz-adv-x="502" d="M238 -12q-77 0 -124.5 17t-65.5 34v151h63q1 -5 2.5 -19.5t2.5 -32t2 -35.5t1 -31q20 -9 49.5 -16t72.5 -7q31 0 56 10t43 26.5t27.5 37.5t9.5 43q0 31 -14 53.5t-36 39.5t-50.5 31t-56.5 28q-29 14 -57.5 30.5t-51 38t-36.5 51t-14 70.5t16 72.5t43 53.5t62.5 33 t75.5 11q75 0 119 -16t61 -29v-151h-63q-1 5 -2.5 19t-2.5 31t-2 34.5t-1 30.5q-20 8 -47.5 14t-62.5 6q-53 0 -86 -29.5t-33 -75.5q0 -25 10 -44t27.5 -34t40 -27t46.5 -24q33 -16 67 -33t62.5 -41t46.5 -57.5t18 -82.5q0 -39 -16 -72.5t-44.5 -57.5t-69 -37.5t-88.5 -13.5 zM315 846h109l-135 -126h-66z" />
<glyph unicode="&#x15b;" horiz-adv-x="436" d="M206 -12q-52 0 -93.5 10.5t-64.5 26.5v123h57q2 -11 4.5 -37.5t3.5 -49.5q18 -6 41.5 -10.5t50.5 -4.5q45 0 77 20t32 53q0 20 -10 34.5t-26 25t-37.5 19t-43.5 17.5q-25 9 -50 20.5t-44.5 28t-31.5 39.5t-12 57q0 63 46 97.5t120 34.5q30 0 54.5 -4.5t44 -10.5t32 -13 t18.5 -11v-123h-57q-1 5 -2.5 15t-2.5 22.5t-2 26t-1 24.5q-17 6 -38.5 11t-46.5 5q-46 0 -70 -20t-24 -51q0 -17 8.5 -30t23 -22.5t33 -17.5t39.5 -16q27 -10 54.5 -21.5t49.5 -28t36 -40.5t14 -58q0 -33 -13.5 -59t-38 -44t-58 -28t-72.5 -10zM279 666h109l-135 -126h-66z " />
<glyph unicode="&#x15c;" horiz-adv-x="502" d="M238 -12q-77 0 -124.5 17t-65.5 34v151h63q1 -5 2.5 -19.5t2.5 -32t2 -35.5t1 -31q20 -9 49.5 -16t72.5 -7q31 0 56 10t43 26.5t27.5 37.5t9.5 43q0 31 -14 53.5t-36 39.5t-50.5 31t-56.5 28q-29 14 -57.5 30.5t-51 38t-36.5 51t-14 70.5t16 72.5t43 53.5t62.5 33 t75.5 11q75 0 119 -16t61 -29v-151h-63q-1 5 -2.5 19t-2.5 31t-2 34.5t-1 30.5q-20 8 -47.5 14t-62.5 6q-53 0 -86 -29.5t-33 -75.5q0 -25 10 -44t27.5 -34t40 -27t46.5 -24q33 -16 67 -33t62.5 -41t46.5 -57.5t18 -82.5q0 -39 -16 -72.5t-44.5 -57.5t-69 -37.5t-88.5 -13.5 zM231 874h54l121 -153h-69l-81 85l-79 -85h-69z" />
<glyph unicode="&#x15d;" horiz-adv-x="436" d="M206 -12q-52 0 -93.5 10.5t-64.5 26.5v123h57q2 -11 4.5 -37.5t3.5 -49.5q18 -6 41.5 -10.5t50.5 -4.5q45 0 77 20t32 53q0 20 -10 34.5t-26 25t-37.5 19t-43.5 17.5q-25 9 -50 20.5t-44.5 28t-31.5 39.5t-12 57q0 63 46 97.5t120 34.5q30 0 54.5 -4.5t44 -10.5t32 -13 t18.5 -11v-123h-57q-1 5 -2.5 15t-2.5 22.5t-2 26t-1 24.5q-17 6 -38.5 11t-46.5 5q-46 0 -70 -20t-24 -51q0 -17 8.5 -30t23 -22.5t33 -17.5t39.5 -16q27 -10 54.5 -21.5t49.5 -28t36 -40.5t14 -58q0 -33 -13.5 -59t-38 -44t-58 -28t-72.5 -10zM196 694h54l121 -153h-69 l-81 85l-79 -85h-69z" />
<glyph unicode="&#x15e;" horiz-adv-x="502" d="M238 -12q-77 0 -124.5 17t-65.5 34v151h63q1 -5 2.5 -19.5t2.5 -32t2 -35.5t1 -31q20 -9 49.5 -16t72.5 -7q31 0 56 10t43 26.5t27.5 37.5t9.5 43q0 31 -14 53.5t-36 39.5t-50.5 31t-56.5 28q-29 14 -57.5 30.5t-51 38t-36.5 51t-14 70.5t16 72.5t43 53.5t62.5 33 t75.5 11q75 0 119 -16t61 -29v-151h-63q-1 5 -2.5 19t-2.5 31t-2 34.5t-1 30.5q-20 8 -47.5 14t-62.5 6q-53 0 -86 -29.5t-33 -75.5q0 -25 10 -44t27.5 -34t40 -27t46.5 -24q33 -16 67 -33t62.5 -41t46.5 -57.5t18 -82.5q0 -39 -16 -72.5t-44.5 -57.5t-69 -37.5t-88.5 -13.5 zM226 -219q-27 0 -42.5 4t-23.5 8l12 42q7 -4 20 -7.5t33 -3.5q23 0 36.5 9.5t13.5 29.5q0 26 -19.5 33.5t-43.5 7.5h-8l36 96h51l-25 -66q31 -5 50.5 -23t19.5 -47q0 -41 -32.5 -62t-77.5 -21z" />
<glyph unicode="&#x15f;" horiz-adv-x="436" d="M206 -12q-52 0 -93.5 10.5t-64.5 26.5v123h57q2 -11 4.5 -37.5t3.5 -49.5q18 -6 41.5 -10.5t50.5 -4.5q45 0 77 20t32 53q0 20 -10 34.5t-26 25t-37.5 19t-43.5 17.5q-25 9 -50 20.5t-44.5 28t-31.5 39.5t-12 57q0 63 46 97.5t120 34.5q30 0 54.5 -4.5t44 -10.5t32 -13 t18.5 -11v-123h-57q-1 5 -2.5 15t-2.5 22.5t-2 26t-1 24.5q-17 6 -38.5 11t-46.5 5q-46 0 -70 -20t-24 -51q0 -17 8.5 -30t23 -22.5t33 -17.5t39.5 -16q27 -10 54.5 -21.5t49.5 -28t36 -40.5t14 -58q0 -33 -13.5 -59t-38 -44t-58 -28t-72.5 -10zM188 -219q-27 0 -42.5 4 t-23.5 8l12 42q7 -4 20 -7.5t33 -3.5q23 0 36.5 9.5t13.5 29.5q0 26 -19.5 33.5t-43.5 7.5h-8l36 96h51l-25 -66q31 -5 50.5 -23t19.5 -47q0 -41 -32.5 -62t-77.5 -21z" />
<glyph unicode="&#x160;" horiz-adv-x="502" d="M238 -12q-77 0 -124.5 17t-65.5 34v151h63q1 -5 2.5 -19.5t2.5 -32t2 -35.5t1 -31q20 -9 49.5 -16t72.5 -7q31 0 56 10t43 26.5t27.5 37.5t9.5 43q0 31 -14 53.5t-36 39.5t-50.5 31t-56.5 28q-29 14 -57.5 30.5t-51 38t-36.5 51t-14 70.5t16 72.5t43 53.5t62.5 33 t75.5 11q75 0 119 -16t61 -29v-151h-63q-1 5 -2.5 19t-2.5 31t-2 34.5t-1 30.5q-20 8 -47.5 14t-62.5 6q-53 0 -86 -29.5t-33 -75.5q0 -25 10 -44t27.5 -34t40 -27t46.5 -24q33 -16 67 -33t62.5 -41t46.5 -57.5t18 -82.5q0 -39 -16 -72.5t-44.5 -57.5t-69 -37.5t-88.5 -13.5 zM108 872h69l81 -85l79 85h69l-123 -153h-54z" />
<glyph unicode="&#x161;" horiz-adv-x="436" d="M206 -12q-52 0 -93.5 10.5t-64.5 26.5v123h57q2 -11 4.5 -37.5t3.5 -49.5q18 -6 41.5 -10.5t50.5 -4.5q45 0 77 20t32 53q0 20 -10 34.5t-26 25t-37.5 19t-43.5 17.5q-25 9 -50 20.5t-44.5 28t-31.5 39.5t-12 57q0 63 46 97.5t120 34.5q30 0 54.5 -4.5t44 -10.5t32 -13 t18.5 -11v-123h-57q-1 5 -2.5 15t-2.5 22.5t-2 26t-1 24.5q-17 6 -38.5 11t-46.5 5q-46 0 -70 -20t-24 -51q0 -17 8.5 -30t23 -22.5t33 -17.5t39.5 -16q27 -10 54.5 -21.5t49.5 -28t36 -40.5t14 -58q0 -33 -13.5 -59t-38 -44t-58 -28t-72.5 -10zM73 692h69l81 -85l79 85h69 l-123 -153h-54z" />
<glyph unicode="&#x162;" horiz-adv-x="619" d="M192 50q11 2 33.5 5t45.5 3v548h-168q0 -13 -1 -30.5t-2 -34t-2.5 -29.5t-2.5 -18h-63v172h555v-172h-63q-1 5 -2.5 18t-2.5 29.5t-2 34t-1 30.5h-167v-548q23 0 45.5 -3t33.5 -5v-50h-236v50zM305 -50q20 0 35.5 -15t15.5 -42q0 -35 -21 -66t-47 -54l-25 22l21 21t10 28 q0 11 -4.5 18.5t-10.5 14t-10.5 14.5t-4.5 20q0 17 11 28t30 11z" />
<glyph unicode="&#x163;" horiz-adv-x="348" d="M227 -12q-60 0 -91.5 33.5t-31.5 93.5v307h-79v58h79v137h73v-137h121v-58h-121v-302q0 -71 61 -71q23 0 40.5 8.5t23.5 13.5l26 -53q-11 -9 -36.5 -19.5t-64.5 -10.5zM216 -50q20 0 35.5 -15t15.5 -42q0 -35 -21 -66t-47 -54l-25 22l21 21t10 28q0 11 -4.5 18.5 t-10.5 14t-10.5 14.5t-4.5 20q0 17 11 28t30 11z" />
<glyph unicode="&#x164;" horiz-adv-x="619" d="M192 50q11 2 33.5 5t45.5 3v548h-168q0 -13 -1 -30.5t-2 -34t-2.5 -29.5t-2.5 -18h-63v172h555v-172h-63q-1 5 -2.5 18t-2.5 29.5t-2 34t-1 30.5h-167v-548q23 0 45.5 -3t33.5 -5v-50h-236v50zM161 872h69l81 -85l79 85h69l-123 -153h-54z" />
<glyph unicode="&#x165;" horiz-adv-x="348" d="M227 -12q-60 0 -91.5 33.5t-31.5 93.5v307h-79v58h79v137h73v-137h121v-58h-121v-302q0 -71 61 -71q23 0 40.5 8.5t23.5 13.5l26 -53q-11 -9 -36.5 -19.5t-64.5 -10.5zM253 720h91l-77 -166h-56z" />
<glyph unicode="&#x166;" horiz-adv-x="619" d="M122 350h149v256h-168q0 -13 -1 -30.5t-2 -34t-2.5 -29.5t-2.5 -18h-63v172h555v-172h-63q-1 5 -2.5 18t-2.5 29.5t-2 34t-1 30.5h-167v-256h149v-58h-149v-234q23 0 45.5 -3t33.5 -5v-50h-236v50q11 2 33.5 5t45.5 3v234h-149v58z" />
<glyph unicode="&#x167;" horiz-adv-x="348" d="M45 285h59v137h-79v58h79v137h73v-137h121v-58h-121v-137h101v-58h-101v-107q0 -71 61 -71q23 0 40.5 8.5t23.5 13.5l26 -53q-11 -9 -36.5 -19.5t-64.5 -10.5q-60 0 -91.5 33.5t-31.5 93.5v112h-59v58z" />
<glyph unicode="&#x168;" horiz-adv-x="725" d="M368 -12q-68 0 -117 18.5t-80.5 52.5t-46 81.5t-14.5 106.5v361q-23 0 -45.5 3t-33.5 5v50h236v-50q-11 -2 -33.5 -5t-45.5 -3v-354q0 -104 44 -153t138 -49q90 0 133.5 52t43.5 136v368q-23 0 -45.5 3t-33.5 5v50h226v-50q-11 -2 -33.5 -5t-45.5 -3v-357 q0 -61 -14.5 -110t-44.5 -83t-76.5 -52t-111.5 -18zM417 723q-18 0 -31.5 6t-25 13.5t-23 13.5t-26.5 6q-17 0 -29.5 -12.5l-19.5 -19.5l-39 37q7 9 16 19.5t20.5 19.5t26 15t31.5 6q19 0 32.5 -6t25 -13.5t23 -13.5t25.5 -6q20 0 32.5 11.5t18.5 19.5l39 -38 q-8 -10 -17.5 -20.5t-21 -18.5t-25.5 -13.5t-32 -5.5z" />
<glyph unicode="&#x169;" horiz-adv-x="571" d="M240 -12q-38 0 -65 12t-44 32t-25 47.5t-8 58.5v286q-21 2 -39.5 3t-28.5 1v50q20 2 60 5t85 3l-4 -79v-259q0 -45 19.5 -71.5t66.5 -26.5q44 0 78 26.5t60 61.5v286q-21 2 -39 3t-29 1v50q20 2 61 5t84 3l-4 -79v-315q0 -11 0.5 -20t1.5 -17q23 -2 43 -3.5t34 -1.5v-50 q-20 -2 -57.5 -4t-85.5 -2q-3 14 -5 37.5t-2 42.5h-2q-29 -39 -67 -62.5t-88 -23.5zM330 543q-18 0 -31.5 6t-25 13.5t-23 13.5t-26.5 6q-17 0 -29.5 -12.5l-19.5 -19.5l-39 37q7 9 16 19.5t20.5 19.5t26 15t31.5 6q19 0 32.5 -6t25 -13.5t23 -13.5t25.5 -6q20 0 32.5 11.5 t18.5 19.5l39 -38q-8 -10 -17.5 -20.5t-21 -18.5t-25.5 -13.5t-32 -5.5z" />
<glyph unicode="&#x16a;" horiz-adv-x="725" d="M368 -12q-68 0 -117 18.5t-80.5 52.5t-46 81.5t-14.5 106.5v361q-23 0 -45.5 3t-33.5 5v50h236v-50q-11 -2 -33.5 -5t-45.5 -3v-354q0 -104 44 -153t138 -49q90 0 133.5 52t43.5 136v368q-23 0 -45.5 3t-33.5 5v50h226v-50q-11 -2 -33.5 -5t-45.5 -3v-357 q0 -61 -14.5 -110t-44.5 -83t-76.5 -52t-111.5 -18zM233 815h271v-61h-271v61z" />
<glyph unicode="&#x16b;" horiz-adv-x="571" d="M240 -12q-38 0 -65 12t-44 32t-25 47.5t-8 58.5v286q-21 2 -39.5 3t-28.5 1v50q20 2 60 5t85 3l-4 -79v-259q0 -45 19.5 -71.5t66.5 -26.5q44 0 78 26.5t60 61.5v286q-21 2 -39 3t-29 1v50q20 2 61 5t84 3l-4 -79v-315q0 -11 0.5 -20t1.5 -17q23 -2 43 -3.5t34 -1.5v-50 q-20 -2 -57.5 -4t-85.5 -2q-3 14 -5 37.5t-2 42.5h-2q-29 -39 -67 -62.5t-88 -23.5zM146 635h271v-61h-271v61z" />
<glyph unicode="&#x16c;" horiz-adv-x="725" d="M368 -12q-68 0 -117 18.5t-80.5 52.5t-46 81.5t-14.5 106.5v361q-23 0 -45.5 3t-33.5 5v50h236v-50q-11 -2 -33.5 -5t-45.5 -3v-354q0 -104 44 -153t138 -49q90 0 133.5 52t43.5 136v368q-23 0 -45.5 3t-33.5 5v50h226v-50q-11 -2 -33.5 -5t-45.5 -3v-357 q0 -61 -14.5 -110t-44.5 -83t-76.5 -52t-111.5 -18zM369 716q-26 0 -50.5 8.5t-44 25.5t-33 44t-16.5 64h65q3 -38 23.5 -61t55.5 -23t55 23t23 61h65q-3 -37 -16 -64t-32.5 -44t-44 -25.5t-50.5 -8.5z" />
<glyph unicode="&#x16d;" horiz-adv-x="571" d="M240 -12q-38 0 -65 12t-44 32t-25 47.5t-8 58.5v286q-21 2 -39.5 3t-28.5 1v50q20 2 60 5t85 3l-4 -79v-259q0 -45 19.5 -71.5t66.5 -26.5q44 0 78 26.5t60 61.5v286q-21 2 -39 3t-29 1v50q20 2 61 5t84 3l-4 -79v-315q0 -11 0.5 -20t1.5 -17q23 -2 43 -3.5t34 -1.5v-50 q-20 -2 -57.5 -4t-85.5 -2q-3 14 -5 37.5t-2 42.5h-2q-29 -39 -67 -62.5t-88 -23.5zM282 536q-26 0 -50.5 8.5t-44 25.5t-33 44t-16.5 64h65q3 -38 23.5 -61t55.5 -23t55 23t23 61h65q-3 -37 -16 -64t-32.5 -44t-44 -25.5t-50.5 -8.5z" />
<glyph unicode="&#x16e;" horiz-adv-x="725" d="M368 -12q-68 0 -117 18.5t-80.5 52.5t-46 81.5t-14.5 106.5v361q-23 0 -45.5 3t-33.5 5v50h236v-50q-11 -2 -33.5 -5t-45.5 -3v-354q0 -104 44 -153t138 -49q90 0 133.5 52t43.5 136v368q-23 0 -45.5 3t-33.5 5v50h226v-50q-11 -2 -33.5 -5t-45.5 -3v-357 q0 -61 -14.5 -110t-44.5 -83t-76.5 -52t-111.5 -18zM368 716q-19 0 -36 7.5t-30 20t-21 30t-8 37.5t8 37.5t21 30t30 20t36 7.5t36 -7.5t30 -20t21 -30t8 -37.5t-8 -37.5t-21 -30t-30 -20t-36 -7.5zM368 756q23 0 36.5 16.5t13.5 38.5q0 23 -13.5 39t-36.5 16t-36.5 -16 t-13.5 -39q0 -22 13.5 -38.5t36.5 -16.5z" />
<glyph unicode="&#x16f;" horiz-adv-x="571" d="M240 -12q-38 0 -65 12t-44 32t-25 47.5t-8 58.5v286q-21 2 -39.5 3t-28.5 1v50q20 2 60 5t85 3l-4 -79v-259q0 -45 19.5 -71.5t66.5 -26.5q44 0 78 26.5t60 61.5v286q-21 2 -39 3t-29 1v50q20 2 61 5t84 3l-4 -79v-315q0 -11 0.5 -20t1.5 -17q23 -2 43 -3.5t34 -1.5v-50 q-20 -2 -57.5 -4t-85.5 -2q-3 14 -5 37.5t-2 42.5h-2q-29 -39 -67 -62.5t-88 -23.5zM281 536q-19 0 -36 7.5t-30 20t-21 30t-8 37.5t8 37.5t21 30t30 20t36 7.5t36 -7.5t30 -20t21 -30t8 -37.5t-8 -37.5t-21 -30t-30 -20t-36 -7.5zM281 576q23 0 36.5 16.5t13.5 38.5 q0 23 -13.5 39t-36.5 16t-36.5 -16t-13.5 -39q0 -22 13.5 -38.5t36.5 -16.5z" />
<glyph unicode="&#x170;" horiz-adv-x="725" d="M368 -12q-68 0 -117 18.5t-80.5 52.5t-46 81.5t-14.5 106.5v361q-23 0 -45.5 3t-33.5 5v50h236v-50q-11 -2 -33.5 -5t-45.5 -3v-354q0 -104 44 -153t138 -49q90 0 133.5 52t43.5 136v368q-23 0 -45.5 3t-33.5 5v50h226v-50q-11 -2 -33.5 -5t-45.5 -3v-357 q0 -61 -14.5 -110t-44.5 -83t-76.5 -52t-111.5 -18zM326 846h105l-133 -126h-65zM490 846h105l-133 -126h-65z" />
<glyph unicode="&#x171;" horiz-adv-x="571" d="M240 -12q-38 0 -65 12t-44 32t-25 47.5t-8 58.5v286q-21 2 -39.5 3t-28.5 1v50q20 2 60 5t85 3l-4 -79v-259q0 -45 19.5 -71.5t66.5 -26.5q44 0 78 26.5t60 61.5v286q-21 2 -39 3t-29 1v50q20 2 61 5t84 3l-4 -79v-315q0 -11 0.5 -20t1.5 -17q23 -2 43 -3.5t34 -1.5v-50 q-20 -2 -57.5 -4t-85.5 -2q-3 14 -5 37.5t-2 42.5h-2q-29 -39 -67 -62.5t-88 -23.5zM239 666h105l-133 -126h-65zM403 666h105l-133 -126h-65z" />
<glyph unicode="&#x172;" horiz-adv-x="725" d="M409 -219q-48 0 -73 27t-25 65q0 35 16.5 65t40.5 50q-68 0 -117 18.5t-80.5 52.5t-46 81.5t-14.5 106.5v361q-23 0 -45.5 3t-33.5 5v50h236v-50q-11 -2 -33.5 -5t-45.5 -3v-354q0 -104 44 -153t138 -49q90 0 133.5 52t43.5 136v368q-23 0 -45.5 3t-33.5 5v50h226v-50 q-11 -2 -33.5 -5t-45.5 -3v-357q0 -98 -36.5 -158.5t-114.5 -92.5q-52 -21 -71.5 -52.5t-19.5 -66.5q0 -48 50 -48q22 0 43 8l11 -43q-11 -6 -28 -11.5t-40 -5.5z" />
<glyph unicode="&#x173;" horiz-adv-x="571" d="M240 -12q-38 0 -65 12t-44 32t-25 47.5t-8 58.5v286q-21 2 -39.5 3t-28.5 1v50q20 2 60 5t85 3l-4 -79v-259q0 -45 19.5 -71.5t66.5 -26.5q44 0 78 26.5t60 61.5v286q-21 2 -39 3t-29 1v50q20 2 61 5t84 3l-4 -79v-315q0 -11 0.5 -20t1.5 -17q23 -2 43 -3.5t34 -1.5v-50 q-20 -2 -57.5 -4t-85.5 -2q-3 14 -5 37.5t-2 42.5h-2q-29 -39 -67 -62.5t-88 -23.5zM483 -219q-48 0 -73 27t-25 65q0 20 6.5 39t16 35.5t21 30t20.5 22.5h50q-17 -22 -34.5 -51t-17.5 -68q0 -48 50 -48q22 0 43 8l11 -43q-11 -6 -28 -11.5t-40 -5.5z" />
<glyph unicode="&#x174;" horiz-adv-x="998" d="M88 608q-22 0 -43 3t-31 5v50h237v-50q-11 -3 -35.5 -5t-47.5 -3l110 -387q5 -18 9 -35.5t7.5 -33.5t6 -28t3.5 -19h2q2 14 9 46.5t18 69.5l125 445h86l126 -442q6 -20 10.5 -39t8 -35t5.5 -28t3 -17h2q1 5 3 17t6 28t8.5 35t10.5 39l108 384q-22 1 -46.5 3t-35.5 5v50 h231v-50q-11 -2 -32 -5t-43 -3l-181 -608h-68l-131 453q-6 21 -11.5 42.5t-9.5 39.5t-6.5 30.5t-2.5 15.5h-2q0 -2 -3 -14.5t-7.5 -31t-10.5 -40t-12 -42.5l-128 -453h-71zM473 874h54l121 -153h-69l-81 85l-79 -85h-69z" />
<glyph unicode="&#x175;" horiz-adv-x="771" d="M72 422q-19 2 -36.5 4t-25.5 4v50h200v-50q-8 -2 -26 -4t-37 -4l78 -256q5 -15 9.5 -35t6.5 -30h2q2 8 6 29t9 35l97 315h67l96 -315q5 -14 9.5 -35t6.5 -29h2q2 10 6 29.5t9 34.5l79 257q-20 2 -38 4t-26 4v50h195v-50q-9 -2 -28 -4.5t-39 -3.5l-133 -422h-57l-105 331 q-5 15 -8.5 29.5t-5.5 24.5h-2q-2 -8 -5.5 -23.5t-8.5 -29.5l-107 -332h-58zM359 694h54l121 -153h-69l-81 85l-79 -85h-69z" />
<glyph unicode="&#x176;" horiz-adv-x="611" d="M188 51q11 2 33.5 5t45.5 3v193l-187 356q-22 0 -44 3t-32 5v50h232v-50q-10 -2 -30.5 -4t-40.5 -4l78 -156q17 -34 35.5 -70t30.5 -60h1l30 60l35 70l78 156l-40 4t-30 4v50h224v-50q-11 -2 -33 -5t-44 -3l-185 -352v-197q23 0 45.5 -3t33.5 -5v-51h-236v51zM280 874h54 l121 -153h-69l-81 85l-79 -85h-69z" />
<glyph unicode="&#x177;" horiz-adv-x="512" d="M79 -232q-16 0 -27 1.5t-19 3.5l10 59q5 -2 14.5 -3t22.5 -1q25 0 43.5 6.5t32.5 20t24.5 33.5t20.5 47l24 66l-160 421q-18 2 -34.5 4t-24.5 4v50h205v-50q-8 -2 -28.5 -4t-40.5 -4l101 -283q4 -11 9 -27t7 -26h2q2 10 6.5 25.5t8.5 25.5l99 285q-20 2 -39.5 4t-27.5 4 v50h198v-50q-9 -2 -26 -4t-37 -4l-178 -485q-12 -32 -25.5 -62.5t-34.5 -54t-51.5 -38t-74.5 -14.5zM234 694h54l121 -153h-69l-81 85l-79 -85h-69z" />
<glyph unicode="&#x178;" horiz-adv-x="611" d="M188 51q11 2 33.5 5t45.5 3v193l-187 356q-22 0 -44 3t-32 5v50h232v-50q-10 -2 -30.5 -4t-40.5 -4l78 -156q17 -34 35.5 -70t30.5 -60h1l30 60l35 70l78 156l-40 4t-30 4v50h224v-50q-11 -2 -33 -5t-44 -3l-185 -352v-197q23 0 45.5 -3t33.5 -5v-51h-236v51zM212 718 q-22 0 -37.5 15.5t-15.5 38.5q0 22 15.5 37.5t37.5 15.5q23 0 38.5 -15.5t15.5 -37.5q0 -23 -15.5 -38.5t-38.5 -15.5zM399 718q-22 0 -37.5 15.5t-15.5 38.5q0 22 15.5 37.5t37.5 15.5q23 0 38.5 -15.5t15.5 -37.5q0 -23 -15.5 -38.5t-38.5 -15.5z" />
<glyph unicode="&#x179;" horiz-adv-x="570" d="M50 55l365 551h-277q0 -14 -1 -31t-2 -33.5t-2.5 -29.5t-2.5 -18h-63v172h439v-51l-370 -555h312q0 13 1 30.5t2 34t2.5 30t2.5 18.5h62v-173h-468v55zM351 846h109l-135 -126h-66z" />
<glyph unicode="&#x17a;" horiz-adv-x="459" d="M42 46l282 377h-203q0 -23 -3 -51.5t-5 -39.5h-57v148h356v-49l-283 -374h223q0 23 3 51.5t5 39.5h57v-148h-375v46zM283 666h109l-135 -126h-66z" />
<glyph unicode="&#x17b;" horiz-adv-x="570" d="M50 55l365 551h-277q0 -14 -1 -31t-2 -33.5t-2.5 -29.5t-2.5 -18h-63v172h439v-51l-370 -555h312q0 13 1 30.5t2 34t2.5 30t2.5 18.5h62v-173h-468v55zM293 750q-23 0 -38.5 15.5t-15.5 38.5t15.5 38.5t38.5 15.5t38.5 -15.5t15.5 -38.5t-15.5 -38.5t-38.5 -15.5z" />
<glyph unicode="&#x17c;" horiz-adv-x="459" d="M42 46l282 377h-203q0 -23 -3 -51.5t-5 -39.5h-57v148h356v-49l-283 -374h223q0 23 3 51.5t5 39.5h57v-148h-375v46zM226 570q-23 0 -38.5 15.5t-15.5 38.5t15.5 38.5t38.5 15.5t38.5 -15.5t15.5 -38.5t-15.5 -38.5t-38.5 -15.5z" />
<glyph unicode="&#x17d;" horiz-adv-x="570" d="M50 55l365 551h-277q0 -14 -1 -31t-2 -33.5t-2.5 -29.5t-2.5 -18h-63v172h439v-51l-370 -555h312q0 13 1 30.5t2 34t2.5 30t2.5 18.5h62v-173h-468v55zM144 872h69l81 -85l79 85h69l-123 -153h-54z" />
<glyph unicode="&#x17e;" horiz-adv-x="459" d="M42 46l282 377h-203q0 -23 -3 -51.5t-5 -39.5h-57v148h356v-49l-283 -374h223q0 23 3 51.5t5 39.5h57v-148h-375v46zM77 692h69l81 -85l79 85h69l-123 -153h-54z" />
<glyph unicode="&#x192;" horiz-adv-x="435" d="M23 -188q-35 0 -55 6t-33 14l23 55q8 -4 21 -9t36 -5q30 0 51.5 11.5t35 30.5t21 43.5t10.5 50.5l40 359h-103l8 58h102l14 129q9 85 56.5 131t132.5 46q39 0 65 -9t43 -20l-28 -55q-11 8 -34.5 15.5t-53.5 7.5q-29 0 -49 -10t-33 -28t-20.5 -43t-10.5 -55l-12 -109h112 l-10 -58h-108l-41 -368q-5 -40 -17.5 -74.5t-34 -59.5t-53.5 -39.5t-75 -14.5z" />
<glyph unicode="&#x218;" horiz-adv-x="502" d="M238 -12q-77 0 -124.5 17t-65.5 34v151h63q1 -5 2.5 -19.5t2.5 -32t2 -35.5t1 -31q20 -9 49.5 -16t72.5 -7q31 0 56 10t43 26.5t27.5 37.5t9.5 43q0 31 -14 53.5t-36 39.5t-50.5 31t-56.5 28q-29 14 -57.5 30.5t-51 38t-36.5 51t-14 70.5t16 72.5t43 53.5t62.5 33 t75.5 11q75 0 119 -16t61 -29v-151h-63q-1 5 -2.5 19t-2.5 31t-2 34.5t-1 30.5q-20 8 -47.5 14t-62.5 6q-53 0 -86 -29.5t-33 -75.5q0 -25 10 -44t27.5 -34t40 -27t46.5 -24q33 -16 67 -33t62.5 -41t46.5 -57.5t18 -82.5q0 -39 -16 -72.5t-44.5 -57.5t-69 -37.5t-88.5 -13.5 zM244 -50q20 0 35.5 -15t15.5 -42q0 -35 -21 -66t-47 -54l-25 22l21 21t10 28q0 11 -4.5 18.5t-10.5 14t-10.5 14.5t-4.5 20q0 17 11 28t30 11z" />
<glyph unicode="&#x219;" horiz-adv-x="436" d="M206 -12q-52 0 -93.5 10.5t-64.5 26.5v123h57q2 -11 4.5 -37.5t3.5 -49.5q18 -6 41.5 -10.5t50.5 -4.5q45 0 77 20t32 53q0 20 -10 34.5t-26 25t-37.5 19t-43.5 17.5q-25 9 -50 20.5t-44.5 28t-31.5 39.5t-12 57q0 63 46 97.5t120 34.5q30 0 54.5 -4.5t44 -10.5t32 -13 t18.5 -11v-123h-57q-1 5 -2.5 15t-2.5 22.5t-2 26t-1 24.5q-17 6 -38.5 11t-46.5 5q-46 0 -70 -20t-24 -51q0 -17 8.5 -30t23 -22.5t33 -17.5t39.5 -16q27 -10 54.5 -21.5t49.5 -28t36 -40.5t14 -58q0 -33 -13.5 -59t-38 -44t-58 -28t-72.5 -10zM205 -50q20 0 35.5 -15 t15.5 -42q0 -35 -21 -66t-47 -54l-25 22l21 21t10 28q0 11 -4.5 18.5t-10.5 14t-10.5 14.5t-4.5 20q0 17 11 28t30 11z" />
<glyph unicode="&#x21a;" horiz-adv-x="619" d="M192 50q11 2 33.5 5t45.5 3v548h-168q0 -13 -1 -30.5t-2 -34t-2.5 -29.5t-2.5 -18h-63v172h555v-172h-63q-1 5 -2.5 18t-2.5 29.5t-2 34t-1 30.5h-167v-548q23 0 45.5 -3t33.5 -5v-50h-236v50zM305 -50q20 0 35.5 -15t15.5 -42q0 -35 -21 -66t-47 -54l-25 22l21 21t10 28 q0 11 -4.5 18.5t-10.5 14t-10.5 14.5t-4.5 20q0 17 11 28t30 11z" />
<glyph unicode="&#x21b;" horiz-adv-x="348" d="M227 -12q-60 0 -91.5 33.5t-31.5 93.5v307h-79v58h79v137h73v-137h121v-58h-121v-302q0 -71 61 -71q23 0 40.5 8.5t23.5 13.5l26 -53q-11 -9 -36.5 -19.5t-64.5 -10.5zM216 -50q20 0 35.5 -15t15.5 -42q0 -35 -21 -66t-47 -54l-25 22l21 21t10 28q0 11 -4.5 18.5 t-10.5 14t-10.5 14.5t-4.5 20q0 17 11 28t30 11z" />
<glyph unicode="&#x237;" horiz-adv-x="258" d="M39 -230q-25 0 -37 2.5t-15 4.5l11 58q4 -2 12 -3.5t23 -1.5q40 0 55 30t15 85v479q-24 2 -46 3t-33 1v50q20 2 63.5 5t92.5 3l-4 -79v-471q0 -37 -7.5 -67.5t-24 -52.5t-42.5 -34t-63 -12z" />
<glyph unicode="&#x2c6;" horiz-adv-x="500" d="M224 694h54l121 -153h-69l-81 85l-79 -85h-69z" />
<glyph unicode="&#x2c7;" horiz-adv-x="500" d="M101 692h69l81 -85l79 85h69l-123 -153h-54z" />
<glyph unicode="&#x2d8;" horiz-adv-x="500" d="M250 536q-26 0 -50.5 8.5t-44 25.5t-33 44t-16.5 64h65q3 -38 23.5 -61t55.5 -23t55 23t23 61h65q-3 -37 -16 -64t-32.5 -44t-44 -25.5t-50.5 -8.5z" />
<glyph unicode="&#x2d9;" horiz-adv-x="500" d="M250 570q-23 0 -38.5 15.5t-15.5 38.5t15.5 38.5t38.5 15.5t38.5 -15.5t15.5 -38.5t-15.5 -38.5t-38.5 -15.5z" />
<glyph unicode="&#x2da;" horiz-adv-x="500" d="M250 536q-19 0 -36 7.5t-30 20t-21 30t-8 37.5t8 37.5t21 30t30 20t36 7.5t36 -7.5t30 -20t21 -30t8 -37.5t-8 -37.5t-21 -30t-30 -20t-36 -7.5zM250 576q23 0 36.5 16.5t13.5 38.5q0 23 -13.5 39t-36.5 16t-36.5 -16t-13.5 -39q0 -22 13.5 -38.5t36.5 -16.5z" />
<glyph unicode="&#x2db;" horiz-adv-x="500" d="M263 -219q-48 0 -73 27t-25 65q0 20 6.5 39t16 35.5t21 30t20.5 22.5h50q-17 -22 -34.5 -51t-17.5 -68q0 -48 50 -48q22 0 43 8l11 -43q-11 -6 -28 -11.5t-40 -5.5z" />
<glyph unicode="&#x2dc;" horiz-adv-x="500" d="M299 543q-18 0 -31.5 6t-25 13.5t-23 13.5t-26.5 6q-17 0 -29.5 -12.5l-19.5 -19.5l-39 37q7 9 16 19.5t20.5 19.5t26 15t31.5 6q19 0 32.5 -6t25 -13.5t23 -13.5t25.5 -6q20 0 32.5 11.5t18.5 19.5l39 -38q-8 -10 -17.5 -20.5t-21 -18.5t-25.5 -13.5t-32 -5.5z" />
<glyph unicode="&#x2dd;" horiz-adv-x="500" d="M173 666h105l-133 -126h-65zM337 666h105l-133 -126h-65z" />
<glyph unicode="&#x312;" horiz-adv-x="500" d="M255 539q-20 0 -35.5 15t-15.5 42q0 35 21 66t47 54l25 -22l-21 -21t-10 -28q0 -11 4.5 -18.5t10.5 -14t10.5 -14.5t4.5 -20q0 -17 -11 -28t-30 -11z" />
<glyph unicode="&#x315;" horiz-adv-x="500" d="M225 720h91l-77 -166h-56z" />
<glyph unicode="&#x326;" horiz-adv-x="500" d="M245 -50q20 0 35.5 -15t15.5 -42q0 -35 -21 -66t-47 -54l-25 22l21 21t10 28q0 11 -4.5 18.5t-10.5 14t-10.5 14.5t-4.5 20q0 17 11 28t30 11z" />
<glyph unicode="&#x394;" horiz-adv-x="607" d="M101 66h398l-154 393q-16 40 -28.5 75t-17.5 51h-2q-5 -17 -17.5 -51.5t-27.5 -74.5zM20 52l242 614h76l249 -614v-52h-567v52z" />
<glyph unicode="&#x3a9;" horiz-adv-x="744" d="M61 66h139q-34 22 -60 54t-44 70t-27.5 80t-9.5 86q0 74 26 133.5t69.5 101.5t100 64.5t117.5 22.5t117.5 -22.5t100 -64.5t69.5 -101.5t26 -133.5q0 -44 -9.5 -86t-27.5 -80t-44 -70t-60 -54h140v-66h-228v64q72 51 109.5 123t37.5 169q0 51 -17.5 97.5t-48 82t-73 56.5 t-92.5 21t-92.5 -21t-73.5 -56.5t-48 -82t-17 -97.5q0 -97 38 -169t110 -123v-64h-228v66z" />
<glyph unicode="&#x3bc;" horiz-adv-x="571" d="M98 424q-21 2 -39.5 3t-28.5 1v50q20 2 60 5t85 3l-4 -79v-263q0 -17 2.5 -33.5t10.5 -29t22 -20t38 -7.5q25 0 48 8t42.5 20.5t35 27.5t25.5 28v286q-21 2 -39 3t-29 1v50q20 2 61 5t84 3l-4 -79v-315q0 -11 0.5 -20t1.5 -17q23 -2 43 -3.5t34 -1.5v-50q-20 -2 -57.5 -4 t-85.5 -2q-3 14 -5 37.5t-2 42.5h-2q-9 -11 -23 -26t-34 -28.5t-45 -22.5t-56 -9q-19 0 -36.5 4.5t-30.5 12.5h-2q1 -9 1.5 -22.5t1 -28.5t0.5 -31v-29v-111h-73v641z" />
<glyph unicode="&#x3c0;" horiz-adv-x="611" d="M478 -12q-57 0 -78.5 31.5t-21.5 85.5v317h-174q0 -51 -2 -105.5t-6 -109t-9.5 -107t-12.5 -100.5h-75q16 102 25 212t9 210h-99v58h533v-58h-116v-310q0 -30 7 -45.5t29 -15.5q11 0 20 4.5t15 9.5l25 -54q-10 -8 -27.5 -15.5t-41.5 -7.5z" />
<glyph unicode="&#x401;" horiz-adv-x="523" d="M96 666h362v-66h-284v-214h252v-66h-252v-254h291v-66h-369v666zM179 718q-22 0 -37.5 15.5t-15.5 38.5q0 22 15.5 37.5t37.5 15.5q23 0 38.5 -15.5t15.5 -37.5q0 -23 -15.5 -38.5t-38.5 -15.5zM366 718q-22 0 -37.5 15.5t-15.5 38.5q0 22 15.5 37.5t37.5 15.5 q23 0 38.5 -15.5t15.5 -37.5q0 -23 -15.5 -38.5t-38.5 -15.5z" />
<glyph unicode="&#x402;" horiz-adv-x="703" d="M184 600h-164v66h461v-66h-219v-226q10 14 28 32t42.5 34t55 27t66.5 11q51 0 88 -20.5t61.5 -57t36 -88t11.5 -113.5q0 -83 -20 -154t-56 -123.5t-85 -82t-107 -29.5q-17 0 -35.5 3.5t-27.5 7.5l16 65q19 -7 52 -7q39 0 72.5 25t57.5 68.5t38 100.5t14 122 q0 101 -31 158.5t-101 57.5q-33 0 -61 -12t-50.5 -28.5t-39 -35.5t-25.5 -32v-303h-78v600z" />
<glyph unicode="&#x403;" horiz-adv-x="465" d="M96 666h349v-66h-271v-600h-78v666zM306 846h109l-135 -126h-66z" />
<glyph unicode="&#x404;" horiz-adv-x="615" d="M378 -12q-78 0 -138.5 28t-102 75.5t-63 110.5t-21.5 133q0 69 22 131.5t64 109.5t102.5 74.5t137.5 27.5q64 0 107 -13.5t80 -36.5l-39 -59q-29 20 -65.5 32t-84.5 12q-56 0 -100 -21t-75 -55.5t-47.5 -79.5t-18.5 -93h333v-66h-332q3 -48 20 -92t47.5 -78t74.5 -54 t101 -20q54 0 94 16t69 41l36 -56q-13 -12 -33 -24t-45.5 -21.5t-56.5 -15.5t-66 -6z" />
<glyph unicode="&#x405;" horiz-adv-x="515" d="M241 -12q-38 0 -70 8t-57 19.5t-43 24.5t-27 22l40 55q6 -6 19 -17t33.5 -21.5t47.5 -18t60 -7.5q32 0 58.5 9.5t45 25t28.5 36t10 42.5q0 31 -14 53.5t-36.5 40t-51 31.5t-57.5 28q-30 15 -59 31t-51.5 37.5t-36.5 50.5t-14 70q0 42 17 74t45 53.5t64 32t74 10.5 q37 0 67 -6.5t52.5 -15.5t38.5 -19t25 -17l-38 -57q-19 16 -56 33t-90 17q-25 0 -47 -6.5t-38.5 -19.5t-26.5 -32t-10 -43q0 -26 10.5 -44.5t28 -33.5t40 -26.5t47.5 -23.5q33 -16 67.5 -33t63 -41.5t47 -58.5t18.5 -84q0 -39 -16.5 -72t-46 -57t-70.5 -37t-91 -13z" />
<glyph unicode="&#x406;" horiz-adv-x="282" d="M102 666h78v-666h-78v666z" />
<glyph unicode="&#x407;" horiz-adv-x="282" d="M102 666h78v-666h-78v666zM48 718q-22 0 -37.5 15.5t-15.5 38.5q0 22 15.5 37.5t37.5 15.5q23 0 38.5 -15.5t15.5 -37.5q0 -23 -15.5 -38.5t-38.5 -15.5zM235 718q-22 0 -37.5 15.5t-15.5 38.5q0 22 15.5 37.5t37.5 15.5q23 0 38.5 -15.5t15.5 -37.5q0 -23 -15.5 -38.5 t-38.5 -15.5z" />
<glyph unicode="&#x408;" horiz-adv-x="283" d="M36 -190q-21 0 -36 3.5t-21 6.5l12 67q5 -2 15 -4.5t24 -2.5q41 0 60 28.5t19 89.5v668h78v-680q0 -85 -38 -130.5t-113 -45.5z" />
<glyph unicode="&#x409;" horiz-adv-x="953" d="M28 55q60 2 89.5 70t40.5 195l29 346h377v-269h111q50 0 93 -12t74.5 -36t49 -60t17.5 -84q0 -99 -64 -152t-181 -53h-178v600h-225l-25 -292q-6 -76 -20 -135.5t-37.5 -100t-57.5 -61.5t-81 -21zM664 66q88 0 126.5 35t38.5 101q0 28 -8.5 52t-28 41t-50.5 26.5t-75 9.5 h-103v-265h100z" />
<glyph unicode="&#x40a;" horiz-adv-x="942" d="M96 666h78v-269h301v269h78v-269h111q50 0 93 -12t74.5 -36t49 -60t17.5 -84q0 -99 -64 -152t-181 -53h-178v331h-301v-331h-78v666zM653 66q88 0 126.5 35t38.5 101q0 28 -8.5 52t-28 41t-50.5 26.5t-75 9.5h-103v-265h100z" />
<glyph unicode="&#x40b;" horiz-adv-x="719" d="M184 600h-164v66h461v-66h-219v-226q10 14 29 32t44.5 34t57 27t67.5 11q88 0 139.5 -51t51.5 -145v-282h-78v268q0 73 -37 108t-92 35q-33 0 -62 -12t-52.5 -28.5t-41 -35.5t-26.5 -32v-303h-78v600z" />
<glyph unicode="&#x40c;" horiz-adv-x="574" d="M96 666h77v-295h60l221 295h88l-248 -319q24 -18 50.5 -52.5t64.5 -88.5q22 -32 39.5 -58t32.5 -44.5t29.5 -28.5t31.5 -10h10l-2 -65h-29q-23 0 -41 9t-37 28.5t-41.5 51t-53.5 76.5q-23 32 -40 58t-32 45t-29.5 29t-31.5 10h-42v-307h-77v666zM349 846h109l-135 -126 h-66z" />
<glyph unicode="&#x40e;" horiz-adv-x="542" d="M102 -2q-24 0 -39 5l10 61q12 -3 30 -3q43 0 70.5 26t52.5 83l18 41l-200 455h75l163 -369l162 369h76l-233 -531q-33 -76 -77 -106.5t-108 -30.5zM283 716q-26 0 -50.5 8.5t-44 25.5t-33 44t-16.5 64h65q3 -38 23.5 -61t55.5 -23t55 23t23 61h65q-3 -37 -16 -64 t-32.5 -44t-44 -25.5t-50.5 -8.5z" />
<glyph unicode="&#x40f;" horiz-adv-x="687" d="M310 0h-214v666h78v-600h339v600h78v-666h-212l-7 -144h-55z" />
<glyph unicode="&#x410;" horiz-adv-x="627" d="M437 231l-84 228q-16 42 -24.5 67t-16.5 48h-2q-8 -25 -17.5 -51t-23.5 -64l-85 -228h253zM276 666h76l256 -666h-85l-61 165h-303l-61 -165h-77z" />
<glyph unicode="&#x411;" horiz-adv-x="575" d="M96 666h367v-66h-289v-203h111q50 0 93 -12t74.5 -36t49 -60t17.5 -84q0 -99 -64 -152t-181 -53h-178v666zM274 66q88 0 126.5 35t38.5 101q0 28 -8.5 52t-28 41t-50.5 26.5t-75 9.5h-103v-265h100z" />
<glyph unicode="&#x412;" horiz-adv-x="582" d="M96 666h186q46 0 86 -9t69.5 -29t46 -51.5t16.5 -76.5q0 -59 -32 -96t-87 -51v-2q31 -5 58 -18.5t47 -34.5t31.5 -49t11.5 -62q0 -51 -18 -86.5t-51 -58t-79 -32.5t-102 -10h-183v666zM277 65q89 0 130 28.5t41 91.5q0 30 -8.5 54t-28 41.5t-51 26.5t-77.5 9h-110v-251 h104zM274 380q77 0 111.5 28t34.5 87q0 56 -36.5 81t-107.5 25h-103v-221h101z" />
<glyph unicode="&#x413;" horiz-adv-x="465" d="M96 666h349v-66h-271v-600h-78v666z" />
<glyph unicode="&#x414;" horiz-adv-x="690" d="M26 66h52q21 17 36 38t25.5 50.5t17 70t11.5 95.5l29 346h377v-600h69l-22 -210h-55l-7 144h-453l-15 -144h-55zM496 66v534h-225l-25 -292q-5 -51 -12 -89.5t-17 -67.5t-22 -49.5t-26 -35.5h327z" />
<glyph unicode="&#x415;" horiz-adv-x="523" d="M96 666h362v-66h-284v-214h252v-66h-252v-254h291v-66h-369v666z" />
<glyph unicode="&#x416;" horiz-adv-x="879" d="M24 65h8q17 0 31.5 10t29.5 28.5t32 44.5t40 58q37 54 63.5 88.5t50.5 52.5l-247 319h88l221 -295h60v295h77v-295h60l221 295h88l-248 -319q24 -18 50.5 -52.5t64.5 -88.5q22 -32 39.5 -58t32.5 -44.5t29.5 -28.5t31.5 -10h10l-2 -65h-29q-23 0 -41 9t-37 28.5t-41.5 51 t-53.5 76.5q-23 32 -40 58t-32 45t-29.5 29t-31.5 10h-42v-307h-77v307h-46q-16 -1 -30 -11.5t-29 -29.5t-31.5 -44.5t-38.5 -56.5q-31 -45 -53.5 -76.5t-41.5 -51t-37.5 -28.5t-40.5 -9h-31z" />
<glyph unicode="&#x417;" horiz-adv-x="523" d="M226 -12q-62 0 -109 17t-81 45l38 56q24 -22 61.5 -37.5t92.5 -15.5q78 0 119.5 31.5t41.5 94.5q0 60 -43.5 98.5t-129.5 38.5h-65v64h56q71 0 112.5 31t41.5 90q0 50 -34 80t-100 30q-48 0 -83 -11t-62 -32l-29 54q29 23 70 39.5t106 16.5q45 0 83.5 -10.5t67 -32 t45 -54t16.5 -75.5q0 -59 -29 -99t-84 -54v-2q31 -5 57 -19.5t45 -36.5t29.5 -51t10.5 -63q0 -49 -18 -85.5t-50.5 -60.5t-77.5 -35.5t-98 -11.5z" />
<glyph unicode="&#x418;" horiz-adv-x="715" d="M96 666h72v-467q0 -37 -1.5 -58.5t-2.5 -31.5h2q9 15 24 39.5t38 58.5l314 459h77v-666h-72v496q0 24 1.5 43.5t2.5 29.5h-2q-9 -16 -23.5 -40.5t-28.5 -45.5l-329 -483h-72v666z" />
<glyph unicode="&#x419;" horiz-adv-x="715" d="M96 666h72v-467q0 -37 -1.5 -58.5t-2.5 -31.5h2q9 15 24 39.5t38 58.5l314 459h77v-666h-72v496q0 24 1.5 43.5t2.5 29.5h-2q-9 -16 -23.5 -40.5t-28.5 -45.5l-329 -483h-72v666zM361 716q-26 0 -50.5 8.5t-44 25.5t-33 44t-16.5 64h65q3 -38 23.5 -61t55.5 -23t55 23 t23 61h65q-3 -37 -16 -64t-32.5 -44t-44 -25.5t-50.5 -8.5z" />
<glyph unicode="&#x41a;" horiz-adv-x="574" d="M96 666h77v-295h60l221 295h88l-248 -319q24 -18 50.5 -52.5t64.5 -88.5q22 -32 39.5 -58t32.5 -44.5t29.5 -28.5t31.5 -10h10l-2 -65h-29q-23 0 -41 9t-37 28.5t-41.5 51t-53.5 76.5q-23 32 -40 58t-32 45t-29.5 29t-31.5 10h-42v-307h-77v666z" />
<glyph unicode="&#x41b;" horiz-adv-x="660" d="M28 55q60 2 89.5 70t40.5 195l29 346h377v-666h-78v600h-225l-25 -292q-6 -76 -20 -135.5t-37.5 -100t-57.5 -61.5t-81 -21z" />
<glyph unicode="&#x41c;" horiz-adv-x="852" d="M145 666h73l165 -453q15 -42 24 -68.5t18 -54.5h2q8 27 17.5 54.5t24.5 68.5l165 453h74l90 -666h-79l-57 436q-5 36 -6 57t-3 36h-2q-5 -17 -11.5 -38.5t-17.5 -53.5l-159 -437h-75l-160 437l-10.5 28t-7.5 22t-5.5 19t-5.5 19h-1q-2 -18 -4 -37.5t-7 -53.5l-58 -434 h-75z" />
<glyph unicode="&#x41d;" horiz-adv-x="725" d="M96 666h78v-282h377v282h78v-666h-78v318h-377v-318h-78v666z" />
<glyph unicode="&#x41e;" horiz-adv-x="760" d="M381 -12q-77 0 -138 28t-103 75.5t-64.5 109.5t-22.5 131t22 131.5t64 110t102.5 76t137.5 28.5t138 -28t103 -75.5t64.5 -109.5t22.5 -131t-22 -131.5t-64 -110t-102.5 -76t-137.5 -28.5zM379 53q60 0 105.5 22.5t77 60.5t47.5 89t16 107t-16 107t-46.5 89.5t-76 61.5 t-105.5 23t-105.5 -22.5t-77 -61t-47.5 -89t-16 -106.5t16 -107t46.5 -89.5t76 -61.5t105.5 -23z" />
<glyph unicode="&#x41f;" horiz-adv-x="695" d="M96 666h503v-666h-78v600h-347v-600h-78v666z" />
<glyph unicode="&#x420;" horiz-adv-x="542" d="M96 666h167q50 0 93 -12t74.5 -36t49 -60t17.5 -84q0 -99 -64 -152t-181 -53h-78v-269h-78v666zM252 335q88 0 126.5 35t38.5 101q0 28 -8.5 52t-28 41t-50.5 26.5t-75 9.5h-81v-265h78z" />
<glyph unicode="&#x421;" horiz-adv-x="615" d="M378 -12q-78 0 -138.5 29t-102 77t-63 110.5t-21.5 130.5q0 67 22 129.5t64 109.5t102.5 75.5t137.5 28.5q64 0 107 -13.5t80 -36.5l-39 -59q-29 20 -65.5 32t-84.5 12q-60 0 -105.5 -23t-75.5 -61t-45.5 -88t-15.5 -104q0 -55 15 -106t45.5 -90.5t76.5 -63t108 -23.5 q54 0 94 16t69 41l36 -56q-13 -12 -33 -24t-45.5 -21.5t-56.5 -15.5t-66 -6z" />
<glyph unicode="&#x422;" horiz-adv-x="545" d="M233 600h-213v66h505v-66h-213v-600h-79v600z" />
<glyph unicode="&#x423;" horiz-adv-x="542" d="M102 -2q-24 0 -39 5l10 61q12 -3 30 -3q43 0 70.5 26t52.5 83l18 41l-200 455h75l163 -369l162 369h76l-233 -531q-33 -76 -77 -106.5t-108 -30.5z" />
<glyph unicode="&#x424;" horiz-adv-x="706" d="M315 74q-63 1 -114.5 21.5t-88.5 55.5t-57.5 83t-20.5 104t20.5 104t57 84t88.5 57t115 22v61h76v-61q63 -1 114.5 -21.5t88.5 -56t57.5 -83.5t20.5 -103q0 -56 -20.5 -104.5t-57 -84t-88.5 -56.5t-115 -22v-74h-76v74zM386 136q46 1 84.5 16t66 41.5t42.5 63.5t15 81 q0 45 -15 82.5t-42.5 64.5t-66 42t-84.5 16v-407zM320 543q-46 -1 -84.5 -16t-66 -41.5t-42.5 -63.5t-15 -81q0 -45 15 -82.5t42.5 -64.5t65.5 -42t85 -16v407z" />
<glyph unicode="&#x425;" horiz-adv-x="565" d="M236 345l-200 321h89l161 -258l152 258h82l-195 -321l215 -345h-89l-176 282l-168 -282h-82z" />
<glyph unicode="&#x426;" horiz-adv-x="707" d="M576 0h-480v666h78v-600h339v600h78v-600h69l-22 -210h-55z" />
<glyph unicode="&#x427;" horiz-adv-x="631" d="M457 292q-11 -14 -29.5 -32t-44 -34t-57 -27t-67.5 -11q-88 0 -139.5 51t-51.5 145v282h78v-268q0 -37 10 -64t27 -44.5t41 -26t51 -8.5q33 0 62 12t52.5 28.5t41 35t26.5 32.5v303h78v-666h-78v292z" />
<glyph unicode="&#x428;" horiz-adv-x="1004" d="M96 666h78v-600h281v600h78v-600h281v600h78v-666h-796v666z" />
<glyph unicode="&#x429;" horiz-adv-x="1008" d="M877 0h-781v666h78v-600h281v600h78v-600h281v600h78v-600h69l-22 -210h-55z" />
<glyph unicode="&#x42a;" horiz-adv-x="651" d="M184 600h-164v66h242v-269h111q50 0 93 -12t74.5 -36t49 -60t17.5 -84q0 -99 -64 -152t-181 -53h-178v600zM362 66q88 0 126.5 35t38.5 101q0 28 -8.5 52t-28 41t-50.5 26.5t-75 9.5h-103v-265h100z" />
<glyph unicode="&#x42b;" horiz-adv-x="823" d="M96 666h78v-269h111q50 0 93 -12t74.5 -36t49 -60t17.5 -84q0 -99 -64 -152t-181 -53h-178v666zM274 66q88 0 126.5 35t38.5 101q0 28 -8.5 52t-28 41t-50.5 26.5t-75 9.5h-103v-265h100zM649 666h78v-666h-78v666z" />
<glyph unicode="&#x42c;" horiz-adv-x="563" d="M96 666h78v-269h111q50 0 93 -12t74.5 -36t49 -60t17.5 -84q0 -99 -64 -152t-181 -53h-178v666zM274 66q88 0 126.5 35t38.5 101q0 28 -8.5 52t-28 41t-50.5 26.5t-75 9.5h-103v-265h100z" />
<glyph unicode="&#x42d;" horiz-adv-x="615" d="M236 -12q-68 0 -115 16t-85 43l39 59q26 -21 67 -37t96 -16t99 20t74.5 53.5t47.5 78t19 93.5h-321v66h321q-2 49 -18.5 93.5t-47 79t-75 55t-102.5 20.5q-48 0 -84.5 -13t-65.5 -34l-36 56q29 21 75.5 39t112.5 18q78 0 138.5 -27.5t102 -74t63 -109.5t21.5 -133 q0 -69 -22 -131.5t-64 -110.5t-102.5 -76t-137.5 -28z" />
<glyph unicode="&#x42e;" horiz-adv-x="1059" d="M680 -12q-75 0 -135 26.5t-102 72t-65.5 105.5t-25.5 126h-178v-318h-78v666h78v-282h181q8 60 33 113.5t66.5 93.5t97.5 63.5t126 23.5q77 0 138 -28t103 -75.5t64.5 -109.5t22.5 -131t-22 -131.5t-64 -110t-102.5 -76t-137.5 -28.5zM678 53q60 0 105.5 22.5t77 60.5 t47.5 89t16 107t-16 107t-46.5 89.5t-76 61.5t-105.5 23t-105.5 -22.5t-77 -61t-47.5 -89t-16 -106.5t16 -107t46.5 -89.5t76 -61.5t105.5 -23z" />
<glyph unicode="&#x42f;" horiz-adv-x="585" d="M44 65h10q17 0 31.5 10t29.5 28.5t32 44.5t40 58q24 35 47 65.5t40 41.5v2q-40 2 -74 13.5t-59 33t-39.5 52.5t-14.5 73q0 85 58 132t163 47h181v-666h-78v307h-30q-17 0 -31.5 -10t-29.5 -29t-32.5 -45t-39.5 -58q-31 -45 -53.5 -76.5t-41.5 -51t-37.5 -28.5t-40.5 -9 h-29zM411 371v229h-94q-77 0 -113.5 -27.5t-36.5 -83.5t34.5 -87t109.5 -31h100z" />
<glyph unicode="&#x430;" horiz-adv-x="472" d="M181 -12q-60 0 -98.5 35t-38.5 94q0 48 23.5 79.5t61 50.5t82.5 27t89 8h21v45q0 54 -23 77t-73 23q-33 0 -63 -11.5t-62 -40.5l-39 51q70 66 169 66q79 0 121.5 -38.5t42.5 -120.5v-224q0 -36 3 -64t8 -45h-73q-2 10 -4 28.5t-3 29.5q-24 -30 -61.5 -50t-82.5 -20z M193 51q41 0 73 19t55 50v108h-21q-39 0 -71.5 -5.5t-56 -18.5t-37 -34t-13.5 -51q0 -19 7 -32t17.5 -21t23 -11.5t23.5 -3.5z" />
<glyph unicode="&#x431;" horiz-adv-x="526" d="M272 -12q-67 0 -110 30.5t-67.5 81t-33.5 115t-9 132.5q0 64 11.5 120t38.5 100t72 75.5t113 48.5l156 38l13 -71l-154 -33q-86 -19 -131 -73t-47 -153q22 35 59 60.5t97 25.5q45 0 83 -17t65 -48.5t42.5 -76.5t15.5 -102q0 -56 -17.5 -102.5t-47 -80t-68.5 -52 t-81 -18.5zM275 51q59 0 96 48.5t37 139.5q0 83 -34.5 133t-94.5 50q-30 0 -53 -7.5t-41 -21t-32 -31.5t-26 -38v-17q0 -130 41.5 -193t106.5 -63z" />
<glyph unicode="&#x432;" horiz-adv-x="488" d="M84 480h168q36 0 66.5 -6.5t53.5 -20.5t36 -37t13 -56q0 -44 -24 -70t-65 -37v-1q45 -8 77.5 -37.5t32.5 -80.5q0 -37 -14 -62.5t-39.5 -41.5t-60.5 -23t-78 -7h-166v480zM248 60q62 0 90 16.5t28 59.5q0 41 -26 63t-87 22h-96v-161h91zM244 277q54 0 78 19t24 58 q0 36 -25.5 51.5t-74.5 15.5h-89v-144h87z" />
<glyph unicode="&#x433;" horiz-adv-x="395" d="M84 480h291v-58h-218v-422h-73v480z" />
<glyph unicode="&#x434;" horiz-adv-x="551" d="M20 58h38q49 30 61 174l20 248h306v-422h66l-21 -202h-53l-7 144h-332l-15 -144h-53zM372 58v364h-169l-15 -200q-9 -114 -54 -164h238z" />
<glyph unicode="&#x435;" horiz-adv-x="490" d="M267 -12q-57 0 -99.5 20t-71 54.5t-42.5 81t-14 99.5t15.5 98.5t44 79t68.5 52.5t88 19q90 0 139.5 -58.5t49.5 -157.5q0 -8 -0.5 -16.5t-1.5 -17.5h-325q1 -38 9.5 -73t26.5 -61t46 -41.5t69 -15.5q25 0 46 5t37.5 11.5t29 14t20.5 12.5l30 -57q-9 -6 -23.5 -14.5 t-35 -16t-47 -13t-59.5 -5.5zM370 300q-1 25 -7.5 48.5t-20 41.5t-35.5 28.5t-53 10.5q-58 0 -90 -36t-42 -93h248z" />
<glyph unicode="&#x436;" horiz-adv-x="714" d="M26 61h5q20 0 41.5 24t53.5 70q26 38 47 63t41 39l-192 223h86l172 -203h40v203h74v-203h40l172 203h86l-192 -223q20 -14 41 -39t47 -63q32 -46 53.5 -70t41.5 -24h7l-2 -61h-20q-20 0 -36.5 7t-32.5 22t-34 38t-40 55q-32 45 -56 71t-45 28h-30v-221h-74v221h-30 q-21 -2 -45 -28t-56 -71q-23 -32 -40.5 -55t-33.5 -38t-32.5 -22t-36.5 -7h-22z" />
<glyph unicode="&#x437;" horiz-adv-x="427" d="M65 84q22 -17 54.5 -26.5t67.5 -9.5q62 0 90 22.5t28 65.5q0 20 -12 36t-31.5 27.5t-45 17.5t-53.5 6h-23v51h24q24 0 46 5t38.5 15.5t26.5 25t10 34.5q0 36 -25.5 57t-74.5 21q-36 0 -64 -10t-49 -25l-30 51q23 17 59.5 30.5t86.5 13.5q36 0 67 -8.5t54.5 -25t37 -41 t13.5 -57.5q0 -44 -24 -70t-65 -37v-1q45 -8 77.5 -37.5t32.5 -80.5q0 -37 -15 -64.5t-41 -45.5t-62 -27t-79 -9q-48 0 -85.5 11.5t-67.5 32.5z" />
<glyph unicode="&#x438;" horiz-adv-x="578" d="M84 480h68v-311q0 -23 -0.5 -43.5t-1.5 -29.5h1q5 11 18 33.5t30 45.5l223 305h72v-480h-70v333q0 17 1 34.5t2 25.5h-1q-5 -10 -16.5 -31t-25.5 -39l-236 -323h-64v480z" />
<glyph unicode="&#x439;" horiz-adv-x="578" d="M84 480h68v-311q0 -23 -0.5 -43.5t-1.5 -29.5h1q5 11 18 33.5t30 45.5l223 305h72v-480h-70v333q0 17 1 34.5t2 25.5h-1q-5 -10 -16.5 -31t-25.5 -39l-236 -323h-64v480zM285 536q-26 0 -50.5 8.5t-44 25.5t-33 44t-16.5 64h65q3 -38 23.5 -61t55.5 -23t55 23t23 61h65 q-3 -37 -16 -64t-32.5 -44t-44 -25.5t-50.5 -8.5z" />
<glyph unicode="&#x43a;" horiz-adv-x="478" d="M84 480h74v-203h40l172 203h86l-192 -223q20 -14 41 -39t47 -63q32 -46 53.5 -70t41.5 -24h7l-2 -61h-20q-20 0 -36.5 7t-32.5 22t-34 38t-40 55q-32 45 -56 71t-45 28h-29l-1 -221h-74v480z" />
<glyph unicode="&#x43b;" horiz-adv-x="535" d="M24 49q41 2 62.5 47t29.5 136l20 248h315v-480h-73v422h-177l-16 -200q-9 -111 -44 -170.5t-104 -59.5z" />
<glyph unicode="&#x43c;" horiz-adv-x="666" d="M113 480h72l117 -320q10 -26 18 -51.5t12 -36.5h2q4 11 12.5 37t17.5 51l118 320h72l67 -480h-76l-39 293q-3 21 -4.5 40.5t-2.5 27.5h-2q-2 -8 -8.5 -27.5t-14.5 -39.5l-107 -294h-73l-111 294q-8 20 -14 39.5t-8 27.5h-2q-1 -9 -2.5 -29t-3.5 -40l-39 -292h-69z" />
<glyph unicode="&#x43d;" horiz-adv-x="569" d="M84 480h74v-199h253v199h74v-480h-74v222h-253v-222h-74v480z" />
<glyph unicode="&#x43e;" horiz-adv-x="528" d="M262 -12q-61 0 -103 23.5t-68.5 60t-38.5 81t-12 86.5t11.5 87t37.5 81.5t67.5 60.5t102.5 24t104 -23.5t71 -60t41 -81t13 -86.5t-12.5 -87t-39.5 -81.5t-70 -60.5t-104 -24zM263 51q37 0 65 15t46 40.5t27 59.5t9 73t-9.5 73.5t-29 60.5t-48 41t-65.5 15 q-38 0 -64.5 -15t-43 -40.5t-24.5 -59.5t-8 -73t8.5 -73.5t26.5 -60.5t45 -41t65 -15z" />
<glyph unicode="&#x43f;" horiz-adv-x="551" d="M84 480h383v-480h-74v422h-235v-422h-74v480z" />
<glyph unicode="&#x440;" horiz-adv-x="529" d="M82 480h73v-52q19 23 53 43.5t86 20.5q44 0 80 -17t61.5 -49t39.5 -78.5t14 -106.5q0 -57 -15.5 -103.5t-44 -79.5t-67.5 -51.5t-85 -18.5q-51 0 -79.5 15t-42.5 27v-249h-73v699zM270 51q34 0 60.5 14t44.5 39.5t27 59.5t9 75q0 40 -8 74.5t-24 59.5t-41 39t-59 14 q-25 0 -46 -8t-36.5 -19t-26 -22t-15.5 -18v-264q17 -15 43.5 -29.5t71.5 -14.5z" />
<glyph unicode="&#x441;" horiz-adv-x="440" d="M258 -12q-53 0 -94 21t-68.5 55.5t-41.5 80t-14 95.5q0 61 18 108.5t48 79t70 48t85 16.5q30 0 53 -5t41 -12.5t31 -15.5t22 -15l-35 -55q-19 14 -45 27t-68 13q-37 0 -64 -14.5t-44 -39.5t-25.5 -59.5t-8.5 -73.5q0 -38 8.5 -73t26 -61t44.5 -41.5t65 -15.5 q22 0 41.5 4.5t34.5 11t25.5 13.5t15.5 11l30 -55q-7 -6 -19.5 -14.5t-31.5 -16t-44 -12.5t-56 -5z" />
<glyph unicode="&#x442;" horiz-adv-x="416" d="M171 422h-151v58h376v-58h-151v-422h-74v422z" />
<glyph unicode="&#x443;" horiz-adv-x="469" d="M57 -232q-19 0 -29 1.5t-17 3.5l10 61q5 -1 12 -2t25 -1q25 0 43.5 7t32.5 21t24.5 34t20.5 47l23 63l-181 477h82l137 -383h2l133 383h78l-204 -544q-12 -33 -27 -63.5t-37 -54t-53 -37t-75 -13.5z" />
<glyph unicode="&#x444;" horiz-adv-x="735" d="M332 -219v245q-14 -13 -39 -25.5t-66 -12.5q-43 0 -77.5 18.5t-59 52t-37.5 79.5t-13 101t13 101.5t37.5 80.5t59 53.5t77.5 19.5q40 0 66 -13.5t39 -26.5v266h71v-266q13 13 38.5 26.5t66.5 13.5q43 0 77.5 -18.5t59 -52t37.5 -79.5t13 -101t-13 -101.5t-37.5 -80.5 t-59 -53.5t-77.5 -19.5q-41 0 -66.5 12.5t-38.5 25.5v-245h-71zM118 243q0 -38 6.5 -72.5t21 -61t36.5 -42.5t52 -16q35 0 59.5 13t40.5 29v296q-16 16 -40.5 29t-59.5 13q-30 0 -52 -15t-36.5 -41t-21 -60t-6.5 -72zM617 239q0 38 -6.5 72.5t-21 61t-36.5 42.5t-52 16 q-35 0 -59.5 -13t-40.5 -29v-296q16 -16 40.5 -29t59.5 -13q30 0 52 15t36.5 41t21 60t6.5 72z" />
<glyph unicode="&#x445;" horiz-adv-x="462" d="M188 251l-156 229h83l116 -172l109 172h77l-150 -224l174 -256h-83l-135 199l-125 -199h-76z" />
<glyph unicode="&#x446;" horiz-adv-x="575" d="M454 0h-370v480h74v-422h237v422h74v-422h66l-21 -202h-53z" />
<glyph unicode="&#x447;" horiz-adv-x="524" d="M367 223q-8 -11 -22 -26t-33.5 -28t-45.5 -22t-57 -9q-39 0 -66.5 12t-45 33t-25.5 48.5t-8 58.5v190h73v-176q0 -45 19.5 -72.5t69.5 -27.5q28 0 52 12t42.5 27.5t30.5 30.5l16 20v186h73v-480h-73v223z" />
<glyph unicode="&#x448;" horiz-adv-x="796" d="M84 480h74v-422h203v422h74v-422h203v422h74v-480h-628v480z" />
<glyph unicode="&#x449;" horiz-adv-x="818" d="M697 0h-613v480h74v-422h203v422h74v-422h203v422h74v-422h66l-21 -202h-53z" />
<glyph unicode="&#x44a;" horiz-adv-x="530" d="M147 422h-127v58h201v-184h100q39 0 72.5 -8.5t58 -26t38.5 -44.5t14 -64q0 -76 -50.5 -114.5t-140.5 -38.5h-166v422zM313 59q60 0 88 22t28 69q0 43 -26 65.5t-88 22.5h-94v-179h92z" />
<glyph unicode="&#x44b;" horiz-adv-x="703" d="M84 480h74v-184h100q39 0 72.5 -8.5t58 -26t38.5 -44.5t14 -64q0 -76 -50.5 -114.5t-140.5 -38.5h-166v480zM250 59q60 0 88 22t28 69q0 43 -26 65.5t-88 22.5h-94v-179h92zM545 480h74v-480h-74v480z" />
<glyph unicode="&#x44c;" horiz-adv-x="467" d="M84 480h74v-184h100q39 0 72.5 -8.5t58 -26t38.5 -44.5t14 -64q0 -76 -50.5 -114.5t-140.5 -38.5h-166v480zM250 59q60 0 88 22t28 69q0 43 -26 65.5t-88 22.5h-94v-179h92z" />
<glyph unicode="&#x44d;" horiz-adv-x="477" d="M185 -7q-48 0 -86 11t-68 33l37 56q21 -18 52.5 -28t66.5 -10q38 0 68.5 12t52.5 33t34 50t14 62h-272v58h271q-2 33 -14 62t-34 50.5t-52.5 33.5t-69.5 12q-36 0 -63.5 -9.5t-48.5 -24.5l-32 54q22 16 59.5 29t86.5 13q61 0 107.5 -20t78 -53.5t48 -78.5t16.5 -96 t-16.5 -96.5t-49 -79.5t-79.5 -53.5t-107 -19.5z" />
<glyph unicode="&#x44e;" horiz-adv-x="785" d="M519 -12q-58 0 -99 21t-67.5 55t-40 75.5t-15.5 82.5h-139v-222h-74v480h74v-199h142q5 38 19 76t40 68t64.5 48.5t92.5 18.5q61 0 104 -23.5t71 -60t41 -81t13 -86.5t-12.5 -87t-39.5 -81.5t-70 -60.5t-104 -24zM520 51q37 0 65 15t46 40.5t27 59.5t9 73t-9.5 73.5 t-29 60.5t-48 41t-65.5 15q-38 0 -64.5 -15t-43 -40.5t-24.5 -59.5t-8 -73t8.5 -73.5t26.5 -60.5t45 -41t65 -15z" />
<glyph unicode="&#x44f;" horiz-adv-x="490" d="M30 61h6q20 0 41.5 20t53.5 66q17 24 34.5 45t36.5 28v1q-26 1 -50 9t-43 23.5t-30.5 38.5t-11.5 55q0 65 45.5 99t128.5 34h165v-480h-73v213h-35q-22 0 -46.5 -26t-56.5 -73q-23 -32 -40.5 -54t-33.5 -35.5t-32.5 -19t-36.5 -5.5h-22v61zM333 269v152h-85 q-54 0 -79 -17.5t-25 -57.5q0 -38 23.5 -57.5t75.5 -19.5h90z" />
<glyph unicode="&#x451;" horiz-adv-x="490" d="M267 -12q-57 0 -99.5 20t-71 54.5t-42.5 81t-14 99.5t15.5 98.5t44 79t68.5 52.5t88 19q90 0 139.5 -58.5t49.5 -157.5q0 -8 -0.5 -16.5t-1.5 -17.5h-325q1 -38 9.5 -73t26.5 -61t46 -41.5t69 -15.5q25 0 46 5t37.5 11.5t29 14t20.5 12.5l30 -57q-9 -6 -23.5 -14.5 t-35 -16t-47 -13t-59.5 -5.5zM370 300q-1 25 -7.5 48.5t-20 41.5t-35.5 28.5t-53 10.5q-58 0 -90 -36t-42 -93h248zM160 538q-22 0 -37.5 15.5t-15.5 38.5q0 22 15.5 37.5t37.5 15.5q23 0 38.5 -15.5t15.5 -37.5q0 -23 -15.5 -38.5t-38.5 -15.5zM347 538q-22 0 -37.5 15.5 t-15.5 38.5q0 22 15.5 37.5t37.5 15.5q23 0 38.5 -15.5t15.5 -37.5q0 -23 -15.5 -38.5t-38.5 -15.5z" />
<glyph unicode="&#x452;" horiz-adv-x="524" d="M269 -78q52 30 87 111t35 207q0 38 -6.5 71.5t-21.5 59t-39.5 40.5t-60.5 15q-30 0 -59.5 -14.5t-46.5 -32.5v-379h-73v576h-43v58h43v86h73v-86h163v-58h-163v-134q21 22 52.5 36t66.5 14q88 0 139 -65t51 -185q0 -72 -14 -133.5t-37 -109.5t-54 -81t-65 -48z" />
<glyph unicode="&#x453;" horiz-adv-x="395" d="M84 480h291v-58h-218v-422h-73v480zM290 666h109l-135 -126h-66z" />
<glyph unicode="&#x454;" horiz-adv-x="475" d="M290 -8q-61 0 -107.5 20t-78 53.5t-48 78.5t-16.5 96t16.5 96.5t49 79.5t79.5 53.5t107 19.5q48 0 81.5 -10t62.5 -27l-37 -56q-20 14 -47 22.5t-62 8.5q-39 0 -69.5 -12t-52 -33t-33.5 -50t-14 -62h263v-58h-263q3 -34 15 -63t34 -50t52.5 -33t69.5 -12q41 0 70 11.5 t50 28.5l32 -54q-20 -17 -60 -32.5t-94 -15.5z" />
<glyph unicode="&#x455;" horiz-adv-x="408" d="M193 -13q-52 0 -90.5 15t-61.5 31l32 56q14 -10 44.5 -24.5t74.5 -14.5q45 0 71.5 18t26.5 51q0 16 -6.5 28.5t-20 23t-33.5 20.5t-46 21q-28 12 -52 25t-42 30t-28 39.5t-10 53.5q0 28 10 52t29.5 42t48 28t64.5 10q30 0 53.5 -5.5t41.5 -13t29.5 -15.5t17.5 -12 l-36 -53q-13 10 -39.5 23t-67.5 13q-38 0 -59 -17.5t-21 -48.5q0 -34 26 -51.5t66 -34.5q29 -12 56 -25.5t47.5 -30.5t33 -39.5t12.5 -52.5q0 -66 -46 -104t-125 -38z" />
<glyph unicode="&#x456;" horiz-adv-x="250" d="M125 570q-23 0 -38.5 15.5t-15.5 38.5t15.5 38.5t38.5 15.5t38.5 -15.5t15.5 -38.5t-15.5 -38.5t-38.5 -15.5zM88 480h74v-480h-74v480z" />
<glyph unicode="&#x457;" horiz-adv-x="250" d="M88 480h74v-480h-74v480zM31 538q-22 0 -37.5 15.5t-15.5 38.5q0 22 15.5 37.5t37.5 15.5q23 0 38.5 -15.5t15.5 -37.5q0 -23 -15.5 -38.5t-38.5 -15.5zM218 538q-22 0 -37.5 15.5t-15.5 38.5q0 22 15.5 37.5t37.5 15.5q23 0 38.5 -15.5t15.5 -37.5q0 -23 -15.5 -38.5 t-38.5 -15.5z" />
<glyph unicode="&#x458;" horiz-adv-x="239" d="M20 -230q-25 0 -37 2.5t-15 4.5l12 61q4 -2 11.5 -3.5t22.5 -1.5q40 0 55 30.5t15 85.5v531h73v-544q0 -37 -7.5 -67.5t-24 -52.5t-42.5 -34t-63 -12zM119 570q-23 0 -38.5 15.5t-15.5 38.5t15.5 38.5t38.5 15.5t38.5 -15.5t15.5 -38.5t-15.5 -38.5t-38.5 -15.5z" />
<glyph unicode="&#x459;" horiz-adv-x="761" d="M24 49q41 2 62.5 47t29.5 136l20 248h316v-184h100q39 0 72.5 -8.5t58 -26t38.5 -44.5t14 -64q0 -76 -50.5 -114.5t-140.5 -38.5h-166v422h-180l-16 -200q-9 -111 -42.5 -170.5t-102.5 -59.5zM544 59q60 0 88 22t28 69q0 43 -26 65.5t-88 22.5h-94v-179h92z" />
<glyph unicode="&#x45a;" horiz-adv-x="808" d="M84 480h74v-184h267v184h74v-184h100q39 0 72.5 -8.5t58 -26t38.5 -44.5t14 -64q0 -76 -50.5 -114.5t-140.5 -38.5h-166v238h-267v-238h-74v480zM591 59q60 0 88 22t28 69q0 43 -26 65.5t-88 22.5h-94v-179h92z" />
<glyph unicode="&#x45b;" horiz-adv-x="527" d="M79 576h-43v58h43v86h73v-86h163v-58h-163v-165q8 10 21.5 24t33 26.5t44.5 21.5t57 9q38 0 64.5 -12t43.5 -32t25 -47.5t8 -58.5v-342h-73v328q0 45 -18.5 71.5t-66.5 26.5q-28 0 -51.5 -12t-42 -27t-30 -29.5t-15.5 -19.5v-338h-73v576z" />
<glyph unicode="&#x45c;" horiz-adv-x="478" d="M84 480h74v-203h40l172 203h86l-192 -223q20 -14 41 -39t47 -63q32 -46 53.5 -70t41.5 -24h7l-2 -61h-20q-20 0 -36.5 7t-32.5 22t-34 38t-40 55q-32 45 -56 71t-45 28h-29l-1 -221h-74v480zM277 666h109l-135 -126h-66z" />
<glyph unicode="&#x45e;" horiz-adv-x="469" d="M57 -232q-19 0 -29 1.5t-17 3.5l10 61q5 -1 12 -2t25 -1q25 0 43.5 7t32.5 21t24.5 34t20.5 47l23 63l-181 477h82l137 -383h2l133 383h78l-204 -544q-12 -33 -27 -63.5t-37 -54t-53 -37t-75 -13.5zM243 536q-26 0 -50.5 8.5t-44 25.5t-33 44t-16.5 64h65q3 -38 23.5 -61 t55.5 -23t55 23t23 61h65q-3 -37 -16 -64t-32.5 -44t-44 -25.5t-50.5 -8.5z" />
<glyph unicode="&#x45f;" horiz-adv-x="559" d="M246 0h-162v480h74v-422h243v422h74v-480h-162l-7 -144h-53z" />
<glyph unicode="&#x490;" horiz-adv-x="465" d="M96 666h275l14 144h55l5 -210h-271v-600h-78v666z" />
<glyph unicode="&#x491;" horiz-adv-x="395" d="M84 480h218l11 144h53l10 -202h-219v-422h-73v480z" />
<glyph unicode="&#x1e80;" horiz-adv-x="998" d="M88 608q-22 0 -43 3t-31 5v50h237v-50q-11 -3 -35.5 -5t-47.5 -3l110 -387q5 -18 9 -35.5t7.5 -33.5t6 -28t3.5 -19h2q2 14 9 46.5t18 69.5l125 445h86l126 -442q6 -20 10.5 -39t8 -35t5.5 -28t3 -17h2q1 5 3 17t6 28t8.5 35t10.5 39l108 384q-22 1 -46.5 3t-35.5 5v50 h231v-50q-11 -2 -32 -5t-43 -3l-181 -608h-68l-131 453q-6 21 -11.5 42.5t-9.5 39.5t-6.5 30.5t-2.5 15.5h-2q0 -2 -3 -14.5t-7.5 -31t-10.5 -40t-12 -42.5l-128 -453h-71zM335 846h109l92 -126h-66z" />
<glyph unicode="&#x1e81;" horiz-adv-x="771" d="M72 422q-19 2 -36.5 4t-25.5 4v50h200v-50q-8 -2 -26 -4t-37 -4l78 -256q5 -15 9.5 -35t6.5 -30h2q2 8 6 29t9 35l97 315h67l96 -315q5 -14 9.5 -35t6.5 -29h2q2 10 6 29.5t9 34.5l79 257q-20 2 -38 4t-26 4v50h195v-50q-9 -2 -28 -4.5t-39 -3.5l-133 -422h-57l-105 331 q-5 15 -8.5 29.5t-5.5 24.5h-2q-2 -8 -5.5 -23.5t-8.5 -29.5l-107 -332h-58zM221 666h109l92 -126h-66z" />
<glyph unicode="&#x1e82;" horiz-adv-x="998" d="M88 608q-22 0 -43 3t-31 5v50h237v-50q-11 -3 -35.5 -5t-47.5 -3l110 -387q5 -18 9 -35.5t7.5 -33.5t6 -28t3.5 -19h2q2 14 9 46.5t18 69.5l125 445h86l126 -442q6 -20 10.5 -39t8 -35t5.5 -28t3 -17h2q1 5 3 17t6 28t8.5 35t10.5 39l108 384q-22 1 -46.5 3t-35.5 5v50 h231v-50q-11 -2 -32 -5t-43 -3l-181 -608h-68l-131 453q-6 21 -11.5 42.5t-9.5 39.5t-6.5 30.5t-2.5 15.5h-2q0 -2 -3 -14.5t-7.5 -31t-10.5 -40t-12 -42.5l-128 -453h-71zM557 846h109l-135 -126h-66z" />
<glyph unicode="&#x1e83;" horiz-adv-x="771" d="M72 422q-19 2 -36.5 4t-25.5 4v50h200v-50q-8 -2 -26 -4t-37 -4l78 -256q5 -15 9.5 -35t6.5 -30h2q2 8 6 29t9 35l97 315h67l96 -315q5 -14 9.5 -35t6.5 -29h2q2 10 6 29.5t9 34.5l79 257q-20 2 -38 4t-26 4v50h195v-50q-9 -2 -28 -4.5t-39 -3.5l-133 -422h-57l-105 331 q-5 15 -8.5 29.5t-5.5 24.5h-2q-2 -8 -5.5 -23.5t-8.5 -29.5l-107 -332h-58zM443 666h109l-135 -126h-66z" />
<glyph unicode="&#x1e84;" horiz-adv-x="998" d="M88 608q-22 0 -43 3t-31 5v50h237v-50q-11 -3 -35.5 -5t-47.5 -3l110 -387q5 -18 9 -35.5t7.5 -33.5t6 -28t3.5 -19h2q2 14 9 46.5t18 69.5l125 445h86l126 -442q6 -20 10.5 -39t8 -35t5.5 -28t3 -17h2q1 5 3 17t6 28t8.5 35t10.5 39l108 384q-22 1 -46.5 3t-35.5 5v50 h231v-50q-11 -2 -32 -5t-43 -3l-181 -608h-68l-131 453q-6 21 -11.5 42.5t-9.5 39.5t-6.5 30.5t-2.5 15.5h-2q0 -2 -3 -14.5t-7.5 -31t-10.5 -40t-12 -42.5l-128 -453h-71zM405 718q-22 0 -37.5 15.5t-15.5 38.5q0 22 15.5 37.5t37.5 15.5q23 0 38.5 -15.5t15.5 -37.5 q0 -23 -15.5 -38.5t-38.5 -15.5zM592 718q-22 0 -37.5 15.5t-15.5 38.5q0 22 15.5 37.5t37.5 15.5q23 0 38.5 -15.5t15.5 -37.5q0 -23 -15.5 -38.5t-38.5 -15.5z" />
<glyph unicode="&#x1e85;" horiz-adv-x="771" d="M72 422q-19 2 -36.5 4t-25.5 4v50h200v-50q-8 -2 -26 -4t-37 -4l78 -256q5 -15 9.5 -35t6.5 -30h2q2 8 6 29t9 35l97 315h67l96 -315q5 -14 9.5 -35t6.5 -29h2q2 10 6 29.5t9 34.5l79 257q-20 2 -38 4t-26 4v50h195v-50q-9 -2 -28 -4.5t-39 -3.5l-133 -422h-57l-105 331 q-5 15 -8.5 29.5t-5.5 24.5h-2q-2 -8 -5.5 -23.5t-8.5 -29.5l-107 -332h-58zM291 538q-22 0 -37.5 15.5t-15.5 38.5q0 22 15.5 37.5t37.5 15.5q23 0 38.5 -15.5t15.5 -37.5q0 -23 -15.5 -38.5t-38.5 -15.5zM478 538q-22 0 -37.5 15.5t-15.5 38.5q0 22 15.5 37.5t37.5 15.5 q23 0 38.5 -15.5t15.5 -37.5q0 -23 -15.5 -38.5t-38.5 -15.5z" />
<glyph unicode="&#x1ef2;" horiz-adv-x="611" d="M188 51q11 2 33.5 5t45.5 3v193l-187 356q-22 0 -44 3t-32 5v50h232v-50q-10 -2 -30.5 -4t-40.5 -4l78 -156q17 -34 35.5 -70t30.5 -60h1l30 60l35 70l78 156l-40 4t-30 4v50h224v-50q-11 -2 -33 -5t-44 -3l-185 -352v-197q23 0 45.5 -3t33.5 -5v-51h-236v51zM143 846 h109l92 -126h-66z" />
<glyph unicode="&#x1ef3;" horiz-adv-x="512" d="M79 -232q-16 0 -27 1.5t-19 3.5l10 59q5 -2 14.5 -3t22.5 -1q25 0 43.5 6.5t32.5 20t24.5 33.5t20.5 47l24 66l-160 421q-18 2 -34.5 4t-24.5 4v50h205v-50q-8 -2 -28.5 -4t-40.5 -4l101 -283q4 -11 9 -27t7 -26h2q2 10 6.5 25.5t8.5 25.5l99 285q-20 2 -39.5 4t-27.5 4 v50h198v-50q-9 -2 -26 -4t-37 -4l-178 -485q-12 -32 -25.5 -62.5t-34.5 -54t-51.5 -38t-74.5 -14.5zM97 666h109l92 -126h-66z" />
<glyph unicode="&#x2013;" d="M54 317h417v-61h-417v61z" />
<glyph unicode="&#x2014;" horiz-adv-x="832" d="M54 317h724v-61h-724v61z" />
<glyph unicode="&#x2015;" horiz-adv-x="832" d="M54 317h724v-61h-724v61z" />
<glyph unicode="&#x2018;" horiz-adv-x="221" d="M107 434q-23 0 -42 17t-19 49q0 28 12 56t29 52t37 44t36 32l29 -26q-19 -18 -37 -42t-18 -50q0 -12 4 -20.5t9.5 -17t9.5 -17.5t4 -23q0 -23 -15.5 -38.5t-38.5 -15.5z" />
<glyph unicode="&#x2019;" horiz-adv-x="221" d="M114 678q23 0 42 -17t19 -49q0 -29 -12 -56.5t-29 -51.5t-37 -44t-36 -32l-29 26q19 18 37 42t18 50q0 12 -4 20.5t-9.5 17t-9.5 17.5t-4 23q0 23 15.5 38.5t38.5 15.5z" />
<glyph unicode="&#x201a;" horiz-adv-x="221" d="M114 111q23 0 42 -17t19 -49q0 -29 -12 -56.5t-29 -51.5t-37 -44t-36 -32l-29 26q19 18 37 42t18 50q0 12 -4 20.5t-9.5 17t-9.5 17.5t-4 23q0 23 15.5 38.5t38.5 15.5z" />
<glyph unicode="&#x201c;" horiz-adv-x="394" d="M107 434q-23 0 -42 17t-19 49q0 28 12 56t29 52t37 44t36 32l29 -26q-19 -18 -37 -42t-18 -50q0 -12 4 -20.5t9.5 -17t9.5 -17.5t4 -23q0 -23 -15.5 -38.5t-38.5 -15.5zM280 434q-23 0 -42 17t-19 49q0 28 12 56t29 52t37 44t36 32l29 -26q-19 -18 -37 -42t-18 -50 q0 -12 4 -20.5t9.5 -17t9.5 -17.5t4 -23q0 -23 -15.5 -38.5t-38.5 -15.5z" />
<glyph unicode="&#x201d;" horiz-adv-x="394" d="M114 678q23 0 42 -17t19 -49q0 -29 -12 -56.5t-29 -51.5t-37 -44t-36 -32l-29 26q19 18 37 42t18 50q0 12 -4 20.5t-9.5 17t-9.5 17.5t-4 23q0 23 15.5 38.5t38.5 15.5zM287 678q23 0 42 -17t19 -49q0 -29 -12 -56.5t-29 -51.5t-37 -44t-36 -32l-29 26q19 18 37 42t18 50 q0 12 -4 20.5t-9.5 17t-9.5 17.5t-4 23q0 23 15.5 38.5t38.5 15.5z" />
<glyph unicode="&#x201e;" horiz-adv-x="394" d="M114 111q23 0 42 -17t19 -49q0 -29 -12 -56.5t-29 -51.5t-37 -44t-36 -32l-29 26q19 18 37 42t18 50q0 12 -4 20.5t-9.5 17t-9.5 17.5t-4 23q0 23 15.5 38.5t38.5 15.5zM287 111q23 0 42 -17t19 -49q0 -29 -12 -56.5t-29 -51.5t-37 -44t-36 -32l-29 26q19 18 37 42t18 50 q0 12 -4 20.5t-9.5 17t-9.5 17.5t-4 23q0 23 15.5 38.5t38.5 15.5z" />
<glyph unicode="&#x2020;" horiz-adv-x="543" d="M228 276l16 142l-82 -8h-110v70h110l82 -8l-13 111v137h81v-137l-13 -111l82 8h110v-70h-110l-82 8l15 -142l-18 -446h-49z" />
<glyph unicode="&#x2021;" horiz-adv-x="543" d="M231 -31l13 111l-82 -8h-110v70h110l82 -8l-16 142l16 142l-82 -8h-110v70h110l82 -8l-13 111v137h81v-137l-13 -111l82 8h110v-70h-110l-82 8l15 -142l-15 -142l82 8h110v-70h-110l-82 8l13 -111v-137h-81v137z" />
<glyph unicode="&#x2022;" horiz-adv-x="378" d="M189 162q-26 0 -48.5 9.5t-39.5 26.5t-27 39.5t-10 48.5t10 48.5t27 39.5t39.5 27t48.5 10t48.5 -10t39.5 -27t27 -39.5t10 -48.5t-10 -48.5t-27 -39.5t-39.5 -26.5t-48.5 -9.5z" />
<glyph unicode="&#x2026;" horiz-adv-x="646" d="M113 -9q-26 0 -43.5 17.5t-17.5 43.5t17.5 43t43.5 17t43.5 -17t17.5 -43t-17.5 -43.5t-43.5 -17.5zM323 -9q-26 0 -43.5 17.5t-17.5 43.5t17.5 43t43.5 17t43.5 -17t17.5 -43t-17.5 -43.5t-43.5 -17.5zM533 -9q-26 0 -43.5 17.5t-17.5 43.5t17.5 43t43.5 17t43.5 -17 t17.5 -43t-17.5 -43.5t-43.5 -17.5z" />
<glyph unicode="&#x2030;" horiz-adv-x="1088" d="M906 -12q-38 0 -64.5 12.5t-43.5 33t-25 45t-8 48.5t8.5 49t25.5 45t44 33t65 13q37 0 64 -12.5t43.5 -32.5t24.5 -44.5t8 -48.5t-8 -49t-25.5 -45.5t-44.5 -33.5t-64 -13zM908 33q42 0 60.5 28t18.5 66t-19.5 66.5t-61.5 28.5t-61 -27.5t-19 -65.5t20.5 -67t61.5 -29z M181 213q-38 0 -64.5 12.5t-43.5 33t-25 45t-8 48.5t8.5 49t25.5 45t44 33t65 13q37 0 64 -12.5t43.5 -32.5t24.5 -44.5t8 -48.5t-8 -49t-25.5 -45.5t-44.5 -33.5t-64 -13zM183 258q42 0 60.5 28t18.5 66t-19.5 66.5t-61.5 28.5t-61 -27.5t-19 -65.5t20.5 -67t61.5 -29z M576 -12q-38 0 -64.5 12.5t-43.5 33t-25 45t-8 48.5t8.5 49t25.5 45t44 33t65 13q37 0 64 -12.5t43.5 -32.5t24.5 -44.5t8 -48.5t-8 -49t-25.5 -45.5t-44.5 -33.5t-64 -13zM578 33q42 0 60.5 28t18.5 66t-19.5 66.5t-61.5 28.5t-61 -27.5t-19 -65.5t20.5 -67t61.5 -29z M494 480h63l-287 -480h-63z" />
<glyph unicode="&#x2039;" horiz-adv-x="298" d="M44 245l133 190h77l-132 -190l132 -189h-77z" />
<glyph unicode="&#x203a;" horiz-adv-x="298" d="M176 245l-132 190h76l134 -190l-134 -189h-76z" />
<glyph unicode="&#x2044;" horiz-adv-x="98" d="M227 666h61l-417 -666h-61z" />
<glyph unicode="&#x20ac;" horiz-adv-x="607" d="M30 420h75q11 63 37.5 111.5t64 81t85 49t100.5 16.5q63 0 100 -12.5t61 -27.5l-34 -59q-16 11 -47.5 23.5t-81.5 12.5q-36 0 -69.5 -12.5t-60.5 -37.5t-46.5 -61t-27.5 -84h179v-55h-185q-1 -8 -1 -14v-14q0 -28 3 -53h183v-55h-173q10 -45 30.5 -78.5t47.5 -55.5 t59 -32.5t65 -10.5q45 0 78.5 12.5t52.5 26.5l36 -54q-23 -15 -62.5 -32t-106.5 -17q-49 0 -94.5 15t-83 45.5t-65 75.5t-40.5 105h-79v55h70q-1 12 -1.5 24.5t-0.5 26.5v15t1 15h-69v55z" />
<glyph unicode="&#x2116;" horiz-adv-x="1088" d="M96 666h77l314 -451q23 -34 38 -58.5t24 -39.5h2q-1 10 -2.5 31.5t-1.5 58.5v459h72v-666h-72l-329 475q-15 21 -29 45.5t-23 40.5h-2q1 -10 2.5 -29.5t1.5 -43.5v-488h-72v666zM875 360q-41 0 -71 14.5t-49.5 37t-29 50t-9.5 53.5t9.5 54t29.5 50.5t50.5 37t71.5 14.5 t71 -14t49.5 -36.5t28.5 -49.5t9 -54q0 -26 -9.5 -54t-29 -51t-50 -37.5t-71.5 -14.5zM877 413q46 0 68.5 30t22.5 72t-24 72.5t-69 30.5q-46 0 -69 -29.5t-23 -71.5t24.5 -73t69.5 -31z" />
<glyph unicode="&#x2117;" horiz-adv-x="865" d="M432 -14q-77 0 -144.5 29.5t-118 80t-80 118.5t-29.5 145t29.5 145t80 118.5t118 80t144.5 29.5t145 -29.5t118.5 -80t80 -118.5t29.5 -145t-29.5 -145t-80 -118.5t-118.5 -80t-145 -29.5zM432 36q68 0 126 24t100.5 67t66.5 102.5t24 129.5t-24 129t-66.5 102 t-100.5 67.5t-126 24.5t-126 -24.5t-100 -67.5t-66 -102t-24 -129t24 -129.5t66 -102.5t100 -67t126 -24zM274 178q9 2 27.5 4t36.5 2v356q-18 0 -36.5 2t-27.5 4v42h211q34 0 60 -11.5t43.5 -30.5t26.5 -43.5t9 -49.5q0 -26 -9.5 -50t-29.5 -43t-52 -30t-77 -11h-53v-135 q18 0 36.5 -2t26.5 -4v-42h-192v42zM452 370q50 0 76 19.5t26 61.5q0 40 -19.5 60.5t-64.5 20.5h-67v-162h49z" />
<glyph unicode="&#x2122;" horiz-adv-x="751" d="M292 409q5 1 16.5 2t23.5 2l23 215q-13 0 -25 1.5t-17 2.5v34h106l67 -171q7 -17 10.5 -29t8.5 -27h2q5 15 8.5 27.5t10.5 29.5l67 170h107v-34q-5 -1 -17 -2.5t-25 -1.5l24 -215q11 -1 21.5 -2t15.5 -2v-34h-122v34q5 0 13.5 1t18.5 2l-12 128q-2 14 -2.5 30t-1.5 33h-2 q-3 -14 -8 -33t-13 -37l-64 -158h-46l-59 150q-8 22 -13.5 41.5t-10.5 36.5h-2q-1 -16 -1.5 -31.5t-2.5 -33.5l-11 -126q11 -1 20 -2t14 -1v-34h-122v34zM76 409q7 1 22 2.5t29 1.5v208h-51q0 -14 -1.5 -29.5t-2.5 -21.5h-40v96h244v-96h-40q-1 6 -2.5 21.5t-1.5 29.5h-51 v-208q14 0 29 -1.5t21 -2.5v-34h-155v34z" />
<glyph unicode="&#x2126;" horiz-adv-x="744" d="M61 66h139q-34 22 -60 54t-44 70t-27.5 80t-9.5 86q0 74 26 133.5t69.5 101.5t100 64.5t117.5 22.5t117.5 -22.5t100 -64.5t69.5 -101.5t26 -133.5q0 -44 -9.5 -86t-27.5 -80t-44 -70t-60 -54h140v-66h-228v64q72 51 109.5 123t37.5 169q0 51 -17.5 97.5t-48 82t-73 56.5 t-92.5 21t-92.5 -21t-73.5 -56.5t-48 -82t-17 -97.5q0 -97 38 -169t110 -123v-64h-228v66z" />
<glyph unicode="&#x2202;" horiz-adv-x="568" d="M244 -12q-42 0 -79 15t-64.5 41.5t-43.5 62.5t-16 78q0 48 16 90.5t44.5 74.5t69 50.5t89.5 18.5q25 0 52.5 -4.5t53 -11.5t46.5 -16.5t34 -19.5q-4 73 -26 125t-59.5 85t-89.5 48.5t-117 15.5l21 61h4q87 0 152 -26.5t107.5 -74t64 -112t21.5 -139.5q0 -81 -22 -147.5 t-60 -114t-89 -74t-109 -26.5zM247 51q41 0 75.5 22t61 58t42.5 82t20 94q-13 10 -34.5 19t-47 16t-52 11t-50.5 4q-33 0 -59.5 -12.5t-45.5 -35t-29 -53t-10 -67.5q0 -31 10.5 -56.5t28 -43.5t41 -28t49.5 -10z" />
<glyph unicode="&#x2206;" horiz-adv-x="607" d="M101 66h398l-154 393q-16 40 -28.5 75t-17.5 51h-2q-5 -17 -17.5 -51.5t-27.5 -74.5zM20 52l242 614h76l249 -614v-52h-567v52z" />
<glyph unicode="&#x220f;" horiz-adv-x="786" d="M153 639h-109v61h698v-61h-109v-863h-75v863h-330v-863h-75v863z" />
<glyph unicode="&#x2211;" horiz-adv-x="609" d="M48 -91l278 431l-262 381v56h482v-66h-399l256 -368l-272 -424h430v-66h-513v56z" />
<glyph unicode="&#x2212;" horiz-adv-x="541" d="M86 308h369v-63h-369v63z" />
<glyph unicode="&#x221a;" horiz-adv-x="571" d="M50 480h76l145 -389h2l198 629h75l-239 -720h-70z" />
<glyph unicode="&#x221e;" horiz-adv-x="882" d="M211 109q-39 0 -71 12t-54 32t-34 47t-12 57q0 32 13.5 60.5t37 49.5t55.5 33.5t69 12.5q49 0 102 -27t127 -85q76 59 129 85.5t98 26.5q39 0 70.5 -12t54 -32t34.5 -47t12 -57q0 -32 -13 -60t-36.5 -49.5t-56 -34t-70.5 -12.5q-21 0 -44.5 6t-51 19t-60 34t-71.5 52 q-43 -33 -75 -54t-58 -34t-48.5 -18t-46.5 -5zM217 168q28 0 68.5 20.5t105.5 70.5q-33 26 -59.5 44t-47.5 29t-38 16t-33 5q-22 0 -41 -7.5t-33.5 -20t-23 -29t-8.5 -34.5q0 -42 32 -68t78 -26zM670 168q21 0 40.5 7.5t34 20t23 29.5t8.5 35q0 42 -32.5 67.5t-78.5 25.5 q-30 0 -70 -21.5t-103 -69.5q35 -27 62 -45t48 -29t37.5 -15.5t30.5 -4.5z" />
<glyph unicode="&#x222b;" horiz-adv-x="339" d="M28 -235q-8 0 -18 2t-21 4.5t-21.5 5.5t-17.5 6l23 61q12 -5 31 -9t33 -4q30 0 50 11.5t32.5 31.5t17.5 46.5t5 55.5v575q0 39 11.5 73.5t34.5 60t57.5 40.5t81.5 15q20 0 41 -6t36 -13l-27 -60q-11 5 -27.5 9t-31.5 4q-28 0 -48 -12t-32.5 -31.5t-18.5 -45.5t-6 -54 v-577q0 -39 -11 -73.5t-34 -60t-58 -40.5t-82 -15z" />
<glyph unicode="&#x2248;" horiz-adv-x="599" d="M393 120q-34 0 -58.5 9t-46.5 20t-43.5 20t-49.5 9q-27 0 -51.5 -11t-44.5 -29l-29 50q26 23 60 39t71 16q34 0 58.5 -9t45.5 -20t43 -20t51 -9q25 0 53 11.5t50 29.5l27 -52q-27 -26 -63.5 -40t-72.5 -14zM393 273q-34 0 -58.5 9t-46.5 20t-43.5 20t-49.5 9 q-26 0 -50 -10.5t-46 -29.5l-29 50q23 21 57 38t74 17q34 0 58.5 -9t45.5 -20t43 -20t51 -9q25 0 53 11.5t50 29.5l27 -52q-27 -26 -63.5 -40t-72.5 -14z" />
<glyph unicode="&#x2260;" horiz-adv-x="571" d="M115 30l76 126h-156v57h191l65 107h-256v57h291l80 131l51 -29l-65 -102h144v-57h-179l-65 -107h244v-57h-279l-92 -153z" />
<glyph unicode="&#x2264;" horiz-adv-x="577" d="M72 224v51l433 205v-67l-356 -164l356 -164v-66zM72 -50h433v-64h-433v64z" />
<glyph unicode="&#x2265;" horiz-adv-x="577" d="M72 85l356 164l-356 164v67l433 -205v-51l-433 -205v66zM72 -50h433v-64h-433v64z" />
<glyph unicode="&#x25ca;" horiz-adv-x="616" d="M34 323l252 349h40l256 -330l-250 -347h-42zM313 73l185 265l-194 251l-186 -264z" />
<glyph unicode="&#x25fc;" horiz-adv-x="480" d="M0 480h480v-480h-480v480z" />
<glyph unicode="&#xfb00;" horiz-adv-x="632" d="M41 50q11 2 33.5 5t45.5 3v364h-80v58h80v71q0 83 45.5 132t129.5 49q35 0 54.5 -5t25.5 -8l-18 -60q-5 2 -22 7t-42 5q-48 0 -74 -31t-26 -91v-69h226v71q0 83 45.5 132t129.5 49q35 0 54.5 -5t25.5 -8l-18 -60q-5 2 -22 7t-42 5q-48 0 -74 -31t-26 -91v-69h122v-58 h-122v-364q23 0 50.5 -3t38.5 -5v-50h-241v50q11 2 33.5 5t45.5 3v364h-226v-364q23 0 50.5 -3t38.5 -5v-50h-241v50z" />
<glyph unicode="&#xfb03;" horiz-adv-x="895" d="M41 50q11 2 33.5 5t45.5 3v364h-80v58h80v71q0 83 45.5 132t129.5 49q35 0 54.5 -5t25.5 -8l-18 -60q-5 2 -22 7t-42 5q-48 0 -74 -31t-26 -91v-69h226v68q0 83 49 133.5t144 50.5q62 0 98.5 -16t59.5 -31l-34 -50q-17 12 -50 24t-77 12q-60 0 -88.5 -32t-28.5 -95v-64 h177l127 6l-4 -79v-349q23 0 45.5 -3t33.5 -5v-50h-232v50q11 2 33.5 5t45.5 3v364h-226v-364q23 0 50.5 -3t38.5 -5v-50h-241v50q11 2 33.5 5t45.5 3v364h-226v-364q23 0 50.5 -3t38.5 -5v-50h-241v50z" />
<glyph unicode="&#xfb04;" horiz-adv-x="896" d="M41 50q11 2 33.5 5t45.5 3v364h-80v58h80v71q0 83 45.5 132t129.5 49q35 0 54.5 -5t25.5 -8l-18 -60q-5 2 -22 7t-42 5q-48 0 -74 -31t-26 -91v-69h226v71q0 88 53 134.5t141 46.5q30 0 54.5 -3t44.5 -7l86 4l-5 -79v-589q23 0 45.5 -3t33.5 -5v-50h-231v50q11 2 33.5 5 t45.5 3v600q-11 4 -43.5 8.5t-67.5 4.5q-62 0 -89.5 -33.5t-27.5 -93.5v-64h122v-58h-122v-364q23 -1 50.5 -3.5t38.5 -4.5v-50h-241v50q11 2 33.5 5t45.5 3v364h-226v-364q23 0 50.5 -3t38.5 -5v-50h-241v50z" />
<glyph horiz-adv-x="570" d="M283 -12q-63 0 -109 23t-76 59.5t-44 81t-14 87.5t14.5 87.5t44.5 81.5t76.5 60.5t109.5 23.5t109.5 -23t76.5 -59t44.5 -81t14.5 -88t-15 -88t-45.5 -81.5t-77 -60t-109.5 -23.5zM285 48q42 0 73 15t52 41.5t31.5 61t10.5 73.5t-11 74t-32 61.5t-52.5 42t-73.5 15.5 t-73 -15t-51.5 -41.5t-30.5 -61t-10 -73.5t10.5 -74t31.5 -61.5t52 -42t73 -15.5z" />
<glyph horiz-adv-x="395" d="M49 50q27 5 57.5 6.5t63.5 1.5v358l-112 -39l-14 58l139 45h60v-422q33 0 62 -1.5t56 -6.5v-50h-312v50z" />
<glyph horiz-adv-x="482" d="M32 46q18 13 45.5 33.5t59 46t63.5 54.5t57.5 58t41.5 57.5t16 53.5q0 35 -22.5 58t-71.5 23q-30 0 -65.5 -14.5t-61.5 -43.5l-40 45q32 35 78 55t96 20q72 0 118.5 -33t46.5 -103q0 -28 -13 -56t-34 -56t-47.5 -54.5t-54 -50t-53.5 -43.5t-46 -35v-2q9 1 22.5 2t32.5 1 h240v-62h-408v46z" />
<glyph horiz-adv-x="428" d="M132 -188q-36 0 -54 1t-29 3l11 62q7 -2 22.5 -3.5t38.5 -1.5q37 0 71 9.5t59.5 27.5t41 44t15.5 60q0 38 -14 64.5t-39.5 43t-61 24t-78.5 7.5v53q28 0 58.5 10t56 28t42 43.5t16.5 57.5q0 38 -24.5 61.5t-70.5 23.5q-33 0 -62 -13t-57 -39l-37 46q29 30 71 49t88 19 q41 0 72.5 -12t53 -31.5t32.5 -45t11 -52.5q0 -30 -12.5 -56.5t-32 -47.5t-43 -35t-46.5 -20v-1q31 -5 59 -18.5t49.5 -35.5t34 -51t12.5 -63q0 -50 -21 -89.5t-56 -66.5t-81 -41t-96 -14z" />
<glyph horiz-adv-x="560" d="M341 0h-311v48l324 432h60v-418h111v-62h-111v-177h-73v177zM113 62h228v300h-2z" />
<glyph horiz-adv-x="430" d="M110 -188q-18 0 -34 2t-26 4l12 59q5 -1 17.5 -2.5t37.5 -1.5q37 0 71.5 10.5t61 31t42.5 51t16 70.5q0 41 -13.5 69.5t-37.5 46.5t-56.5 26t-70.5 8h-26t-30 -2l20 296h280v-59h-213l-11 -177q61 0 105.5 -16.5t73.5 -44.5t42.5 -65t13.5 -78q0 -47 -18 -88t-53.5 -72.5 t-86.5 -49.5t-117 -18z" />
<glyph horiz-adv-x="528" d="M275 -12q-59 0 -100.5 25t-68 65.5t-38.5 90.5t-12 100q0 90 26 165t76 129.5t122 84.5t165 30l15 -61q-78 0 -140 -22.5t-104 -67.5q-65 -68 -77 -184q26 23 64 37.5t80 14.5q46 0 82.5 -14.5t62 -40.5t39 -62.5t13.5 -79.5q0 -42 -14 -80.5t-40.5 -67t-64.5 -45.5 t-86 -17zM279 48q31 0 54 12.5t38.5 32.5t23.5 45t8 50q0 68 -31.5 107.5t-97.5 39.5q-50 0 -83 -16.5t-56 -34.5l-1 -25q-2 -46 6.5 -85t26.5 -67t46 -43.5t66 -15.5z" />
<glyph horiz-adv-x="497" d="M77 -167l306 585h-279q0 -12 -1 -29t-2.5 -33.5t-3.5 -30t-3 -18.5h-57v173h420v-52l-317 -626z" />
<glyph horiz-adv-x="512" d="M255 -12q-51 0 -88.5 15t-62 39.5t-36.5 56t-12 63.5q0 51 35 100t103 88q-67 41 -93.5 80.5t-26.5 84.5q0 36 15 66t40 51.5t57.5 33.5t67.5 12q46 0 81 -13t58.5 -34.5t35.5 -50.5t12 -61q0 -48 -33 -86t-99 -76q76 -42 111.5 -89t35.5 -101q0 -41 -15 -74t-41.5 -56 t-63.5 -36t-81 -13zM258 48q30 0 52.5 10t38 26.5t23.5 38t8 45.5q0 36 -30.5 73.5t-106.5 78.5q-60 -38 -86 -74t-26 -79q0 -25 9 -46.5t25.5 -37.5t40 -25.5t52.5 -9.5zM259 388q57 33 82 64.5t25 61.5q0 21 -7 40t-20.5 33.5t-33.5 23t-46 8.5q-49 0 -79 -30t-30 -74 q0 -32 23.5 -61.5t85.5 -65.5z" />
<glyph horiz-adv-x="528" d="M57 -126q75 0 138.5 19t109.5 64q32 32 54 76t30 104q-26 -23 -64 -37.5t-80 -14.5q-46 0 -82.5 14.5t-62 40.5t-39 62t-13.5 80q0 42 14 80.5t40.5 67t64.5 45.5t86 17q59 0 100.5 -25t68 -65.5t38.5 -90.5t12 -100q0 -90 -28 -163.5t-79.5 -125.5t-125.5 -80.5 t-167 -28.5zM254 147q50 0 83 15.5t56 33.5l1 25q2 46 -6.5 84.5t-26.5 66t-46.5 42.5t-65.5 15q-31 0 -54 -12t-38.5 -31.5t-23.5 -44t-8 -49.5q0 -68 31.5 -106.5t97.5 -38.5z" />
<glyph d="M260 -12q-59 0 -101 23t-69 59.5t-39.5 81t-12.5 87.5t13 87.5t40.5 81.5t69.5 60.5t101 23.5q58 0 100.5 -23t70.5 -59t41 -81t13 -88t-13.5 -88t-41.5 -81.5t-71 -60t-101 -23.5zM262 51q36 0 63 14.5t46 40t28.5 60t9.5 73.5t-10 73.5t-29 60.5t-46.5 41t-63.5 15 t-63 -15t-45 -40.5t-27 -59.5t-9 -73t9.5 -73.5t28 -60.5t45.5 -41t63 -15z" />
<glyph d="M88 50q13 2 32 4t40 3t43 1.5t42 0.5v353l-151 -53l-15 61l179 60h60v-421q20 0 42 -0.5t42.5 -1.5t38.5 -3t32 -4v-50h-385v50z" />
<glyph d="M53 46q18 13 45.5 33.5t59 46t63.5 54.5t57.5 58t41.5 57.5t16 53.5q0 35 -22.5 58t-71.5 23q-30 0 -65.5 -14.5t-61.5 -43.5l-40 45q32 35 78 55t96 20q72 0 118.5 -33t46.5 -103q0 -28 -13 -56t-34 -56t-47.5 -54.5t-54 -50t-53.5 -43.5t-46 -35v-2q9 1 22.5 2t32.5 1 h240v-62h-408v46z" />
<glyph d="M172 -188q-28 0 -55.5 3t-41.5 7l13 61q14 -3 39 -5.5t51 -2.5q34 0 68 10t61 28t44 44t17 58q0 38 -18 64t-48 42.5t-69 23.5t-82 7v55q28 0 62 10t64 28t50.5 43t20.5 57q0 38 -30.5 60.5t-76.5 22.5q-44 0 -81 -15.5t-65 -41.5l-37 45q29 30 78 53t108 23 q83 0 132 -38t49 -102q0 -33 -14.5 -60t-36.5 -47.5t-49 -34t-51 -18.5v-1q31 -4 61.5 -17t55 -34t40 -50.5t15.5 -66.5q0 -55 -25 -95t-65 -65.5t-88.5 -38t-95.5 -12.5z" />
<glyph d="M318 0h-297v48l310 432h60v-418h95v-62h-95v-177h-73v177zM104 62h214v302h-1z" />
<glyph d="M162 -188q-27 0 -53 3t-38 6l13 61q10 -2 34.5 -4.5t49.5 -2.5q37 0 71.5 10t61 30.5t42.5 50.5t16 70q0 41 -16.5 69.5t-44 46.5t-63.5 26t-74 8q-26 0 -41.5 -0.5t-24.5 -1.5l20 296h310v-62h-243l-11 -172q61 0 110 -14t83.5 -41t53 -65t18.5 -86q0 -47 -18 -88 t-53 -72.5t-86 -49.5t-117 -18z" />
<glyph d="M269 -12q-58 0 -99 25t-66.5 65.5t-37.5 90.5t-12 100q0 90 25 165t74 129.5t120 84.5t164 30l15 -61q-137 0 -219 -69.5t-96 -204.5q26 23 62 37.5t78 14.5q45 0 81 -14.5t61 -40.5t38 -62.5t13 -79.5q0 -42 -14 -80.5t-40 -67t-63 -45.5t-84 -17zM273 51q30 0 52.5 12 t37.5 31.5t22.5 44t7.5 49.5q0 68 -31 106.5t-94 38.5q-50 0 -81 -15.5t-54 -33.5v-25q0 -46 8 -84.5t25.5 -66t44 -42.5t62.5 -15z" />
<glyph d="M87 -167l304 582h-278q0 -11 -1 -28t-2 -33.5t-2.5 -30.5t-2.5 -19h-53v176h420v-52l-324 -626z" />
<glyph d="M261 -12q-51 0 -88 15.5t-60.5 40t-35 55.5t-11.5 63q0 51 33 100t101 88q-67 41 -91.5 80.5t-24.5 84.5q0 35 14.5 65t38.5 51.5t56 34t67 12.5q46 0 80.5 -13t57 -35t34 -51t11.5 -60q0 -48 -30 -86.5t-96 -76.5q75 -42 108 -88.5t33 -100.5q0 -40 -14.5 -73 t-40.5 -56.5t-62 -36.5t-80 -13zM264 52q30 0 52 9.5t36.5 25.5t22 37t7.5 44q0 18 -6 36t-21 37t-40.5 38t-63.5 40q-60 -38 -85 -74t-25 -78q0 -48 32.5 -81.5t90.5 -33.5zM265 388q57 33 80 64.5t23 61.5q0 20 -6.5 38t-19 32t-32 22.5t-45.5 8.5q-49 0 -77 -29t-28 -71 q0 -16 4.5 -31t16.5 -30.5t32.5 -31.5t51.5 -34z" />
<glyph d="M58 -126q64 0 120 16t99 48t71 81.5t35 116.5q-37 -27 -70 -38.5t-70 -11.5q-45 0 -80 15t-60 42t-38 63.5t-13 79.5q0 42 15.5 79.5t42.5 65.5t64.5 44.5t82.5 16.5q60 0 100 -26t64 -66.5t34.5 -90.5t10.5 -99q0 -91 -26.5 -164.5t-77 -125t-124 -79t-166.5 -27.5z M253 148q38 0 72 11.5t63 34.5v25q0 45 -8 83.5t-24.5 66.5t-42 44t-60.5 16q-24 0 -46.5 -10t-39.5 -28.5t-27 -44.5t-10 -58q0 -60 30 -100t93 -40z" />
<glyph horiz-adv-x="598" d="M299 -12q-68 0 -115.5 31t-77.5 80t-44 110.5t-14 123.5t13 124t43 111t77.5 79.5t116.5 30.5q68 0 116 -31t78 -80t44 -111t14 -123q0 -62 -14 -123.5t-44 -110.5t-78 -80t-115 -31zM298 51q45 0 77.5 22t53.5 60t31 89.5t10 110.5t-10 110.5t-31 89.5t-53.5 60 t-76.5 22q-45 0 -77.5 -22t-53.5 -60t-31 -89.5t-10 -110.5t10 -110.5t31 -89.5t53.5 -60t76.5 -22z" />
<glyph horiz-adv-x="397" d="M34 56q27 5 65 7t71 2v532l-131 -43l-16 62l160 50h62v-601q33 0 70 -2t64 -7v-56h-345v56z" />
<glyph horiz-adv-x="496" d="M36 43l62.5 62.5t69 72t67 77.5t57.5 80.5t40 80t15 76.5q0 62 -34 91.5t-82 29.5q-53 0 -88 -20t-61 -46l-39 48q32 33 79 58t112 25q42 0 77.5 -12t62 -34.5t41 -55t14.5 -73.5q0 -38 -12.5 -77t-34 -77.5t-50 -76t-60.5 -73.5t-65 -70t-64 -65v-2q14 2 35 3t41 1h166 q1 13 2 27t2 26.5t2 22t2 13.5h62v-155h-419v43z" />
<glyph horiz-adv-x="464" d="M141 -12q-42 0 -66 3t-32 5l11 65q8 -2 29 -5t56 -3q92 0 140 37.5t48 103.5q0 38 -16 64.5t-44.5 42.5t-68 23.5t-85.5 7.5v54q37 0 72 9.5t62 27.5t43.5 43.5t16.5 57.5q0 42 -28 64.5t-80 22.5q-48 0 -79 -13.5t-58 -34.5l-36 49q13 12 31 23.5t40 21t49 15.5t58 6 q45 0 79.5 -11.5t57 -31.5t34 -47.5t11.5 -59.5t-12 -57.5t-32 -46t-46.5 -34.5t-54.5 -22v-1q33 -3 63 -17t53 -36t36.5 -52t13.5 -64q0 -51 -20 -90.5t-56 -66t-84.5 -40t-105.5 -13.5z" />
<glyph horiz-adv-x="527" d="M335 151h-310v61l304 454h77v-448h96v-67h-96v-151h-71v151zM103 214q13 2 37.5 3t47.5 1h145v340h-2z" />
<glyph horiz-adv-x="443" d="M103 -12q-24 0 -39.5 1.5t-23.5 3.5l10 65q5 -1 21 -3t36 -2q44 0 83 10t68 29.5t45.5 49t16.5 69.5q0 41 -14.5 69t-41 45t-63 24t-79.5 7q-17 0 -32 -0.5t-23 -1.5l19 312h295v-66h-226l-11 -179q123 -2 189.5 -56.5t66.5 -148.5q0 -55 -21.5 -97.5t-61 -71.5t-94 -44 t-120.5 -15z" />
<glyph horiz-adv-x="522" d="M270 -12q-59 0 -101 25.5t-69 66t-39.5 90.5t-12.5 100q0 93 26.5 168.5t76.5 129t122 82t164 28.5l14 -59q-74 0 -133 -19t-101 -59q-35 -33 -57 -81t-30 -114q26 28 65.5 43t79.5 15q46 0 84 -15t65 -42t41.5 -64.5t14.5 -81.5t-14.5 -83t-41.5 -68t-66 -45.5 t-88 -16.5zM276 51q33 0 57 13t39 33.5t22.5 46.5t7.5 52q0 72 -34 109t-100 37q-48 0 -81 -14.5t-62 -42.5v-15q0 -101 38 -160t113 -59z" />
<glyph horiz-adv-x="446" d="M85 0l235 600h-239q0 -11 -1 -28t-2 -33.5t-2.5 -30.5t-2.5 -19h-53v177h381v-54l-246 -636z" />
<glyph horiz-adv-x="488" d="M242 -12q-52 0 -90 14.5t-62.5 38.5t-36 55.5t-11.5 65.5t13.5 63t34.5 52.5t45.5 41.5t46.5 31q-23 15 -44.5 31t-38.5 35.5t-27.5 44t-10.5 56.5q0 35 14.5 64.5t40 51t59.5 33.5t73 12q85 0 133.5 -43t48.5 -114q0 -32 -12.5 -57t-32 -45t-43 -35t-45.5 -28 q23 -12 49 -30t48.5 -41t37 -52.5t14.5 -65.5q0 -39 -14.5 -72t-41.5 -56.5t-64.5 -37t-83.5 -13.5zM244 53q58 0 90 32.5t32 82.5q0 28 -13 50.5t-33 41.5t-43.5 33.5t-44.5 26.5q-17 -12 -36.5 -26t-36 -33t-27.5 -42t-11 -53q0 -51 31 -82t92 -31zM246 387q19 11 38 24 t34.5 28.5t25.5 34.5t10 42q0 42 -27 70t-78 28t-81 -27.5t-30 -69.5q0 -25 10 -44.5t26 -35t35 -28t37 -22.5z" />
<glyph horiz-adv-x="522" d="M79 41q76 0 136.5 23t102.5 71q59 68 74 185q-26 -28 -65.5 -43t-79.5 -15q-47 0 -84.5 15t-64.5 42t-41.5 64.5t-14.5 81.5t14.5 83t41.5 68t66 45.5t88 16.5q59 0 101 -24.5t69 -64.5t39.5 -90.5t12.5 -102.5q0 -93 -24 -169.5t-72 -131t-119.5 -84t-165.5 -29.5z M254 324q48 0 81 14.5t62 42.5v15q0 101 -37.5 160t-111.5 59q-33 0 -57.5 -13t-40 -33.5t-23 -46.5t-7.5 -52q0 -72 34 -109t100 -37z" />
<glyph horiz-adv-x="569" d="M152 218h-129l9 56h128l21 135h-130l9 56h129l31 201h56l-30 -201h120l31 201h56l-30 -201h123l-9 -56h-123l-20 -135h124l-9 -56h-124l-33 -218h-56l33 218h-121l-33 -218h-56zM217 274h120l21 135h-121z" />
<glyph horiz-adv-x="543" d="M237 -12q-68 3 -110 18.5t-59 32.5v151h63q1 -5 2.5 -19t2.5 -31t2 -34.5t1 -30.5q19 -8 49 -15t72 -7q31 0 56 9.5t43 25t27.5 36t9.5 42.5q0 30 -13 52.5t-34.5 40t-49 32t-56.5 28.5q-30 15 -58 31.5t-49.5 38t-34.5 50.5t-13 69q0 36 13 65t34.5 50t51 34t62.5 18 v109h58v-107q63 -3 99 -17.5t51 -25.5v-151h-63q-1 5 -2.5 18t-2.5 29.5t-2 33.5t-1 30q-19 8 -45 13.5t-60 5.5q-50 0 -83 -27.5t-33 -73.5q0 -25 9.5 -43.5t26 -33.5t38 -27t46.5 -24q33 -16 67 -33.5t61 -42t44.5 -58.5t17.5 -83q0 -36 -13 -66t-36.5 -53t-57 -38 t-73.5 -20v-108h-58v106z" />
<glyph horiz-adv-x="850" d="M213 342q-46 0 -79 15.5t-54 39.5t-30.5 53.5t-9.5 58.5q0 28 9.5 57.5t30.5 54t53.5 40t77.5 15.5q46 0 79 -15.5t54 -39.5t30.5 -53.5t9.5 -57.5q0 -29 -9.5 -59t-30.5 -54t-53.5 -39.5t-77.5 -15.5zM213 389q24 0 44 9.5t34 26t21.5 38.5t7.5 46t-7.5 46t-21.5 38.5 t-34 26t-45 9.5t-45 -9.5t-34 -26t-21.5 -38t-7.5 -45.5t7.5 -46t22 -38.5t34.5 -26.5t45 -10zM639 -7q-46 0 -79 15.5t-54 39.5t-30.5 53.5t-9.5 58.5q0 28 9.5 57.5t30.5 54t53.5 40t77.5 15.5q46 0 79 -15.5t54 -39.5t30.5 -53.5t9.5 -57.5q0 -29 -9.5 -59t-30.5 -54 t-53.5 -39.5t-77.5 -15.5zM639 40q24 0 44 9.5t34 26t21.5 38.5t7.5 46t-7.5 46t-21.5 38.5t-34 26t-45 9.5t-45 -9.5t-34 -26t-21.5 -38t-7.5 -45.5t7.5 -46t22 -38.5t34.5 -26.5t45 -10zM602 666h61l-417 -666h-61z" />
<glyph horiz-adv-x="309" d="M236 -120q-87 94 -134 211t-47 246q0 63 13 124t36.5 117.5t57 107t74.5 91.5h70q-32 -32 -63 -76.5t-56 -100t-40.5 -121.5t-15.5 -141q0 -140 46 -252t129 -206h-70v0z" />
<glyph horiz-adv-x="309" d="M4 -120q31 32 62.5 76.5t56.5 100t40.5 121.5t15.5 141q0 140 -46 252t-129 206h70q87 -94 134 -211t47 -246q0 -64 -13 -125t-36.5 -117.5t-57 -106.5t-74.5 -91h-70v0z" />
<glyph horiz-adv-x="309" d="M54 395h201v-64h-201v64z" />
<glyph horiz-adv-x="309" d="M54 395h201v-64h-201v64z" />
<glyph horiz-adv-x="402" d="M274 720h67l-236 -881h-66z" />
<glyph horiz-adv-x="386" d="M42 363l255 263l47 -48l-213 -216l213 -215l-47 -48z" />
<glyph horiz-adv-x="517" d="M44 310h429v-62h-429v62zM44 474h429v-62h-429v62z" />
<glyph horiz-adv-x="386" d="M42 147l213 215l-213 216l47 48l255 -263l-255 -264z" />
<glyph horiz-adv-x="306" d="M80 772h201v-54h-130v-773h130v-54h-201v881z" />
<glyph horiz-adv-x="306" d="M25 -55h130v773h-130v54h201v-881h-201v54z" />
<glyph horiz-adv-x="358" d="M247 -109q-20 0 -39.5 6.5t-34.5 19.5t-24.5 33.5t-9.5 48.5v201q0 49 -29.5 78.5t-81.5 30.5v56q51 1 81 29.5t30 79.5v191q0 28 9.5 48.5t24.5 33.5t34 19t39 6h87v-57h-66q-35 0 -46 -21.5t-11 -57.5v-175q0 -55 -28 -82.5t-72 -38.5v-2q44 -13 72 -42.5t28 -85.5 v-187q0 -37 10.5 -56t45.5 -19h67v-57h-86v0z" />
<glyph horiz-adv-x="358" d="M25 -52h66q35 0 46 21.5t11 57.5v186q0 55 28 82.5t72 38.5v2q-44 13 -72 42.5t-28 85.5v176q0 37 -10.5 56t-45.5 19h-67v57h86q20 0 39.5 -6.5t34.5 -19.5t24.5 -33.5t9.5 -48.5v-190q0 -49 29.5 -78.5t81.5 -30.5v-56q-51 -1 -81 -29.5t-30 -79.5v-202 q0 -28 -9.5 -48.5t-24.5 -33.5t-34 -19t-39 -6h-87v57z" />
<glyph horiz-adv-x="275" d="M138 561q-23 0 -40 16.5t-17 39.5q0 24 17 40.5t40 16.5t40 -16.5t17 -40.5q0 -23 -17 -39.5t-40 -16.5zM109 467h58l16 -467h-90z" />
<glyph horiz-adv-x="400" d="M260 561q-23 0 -40 16.5t-17 39.5q0 24 17 40.5t40 16.5t40 -16.5t17 -40.5q0 -23 -17 -39.5t-40 -16.5zM247 -12q-95 0 -146 43.5t-51 126.5q0 32 10 57.5t25.5 46t35.5 36.5t41 30q38 25 57.5 45.5t19.5 51.5q0 11 -2 24t-5 24h51q5 -12 9 -30.5t4 -38.5 q0 -39 -18.5 -68t-63.5 -56q-40 -24 -67 -52.5t-27 -70.5q0 -52 32.5 -78.5t92.5 -26.5q19 0 44 5.5t44 15.5l27 -58q-27 -14 -56 -20.5t-57 -6.5z" />
<glyph horiz-adv-x="298" d="M44 350l133 190h77l-132 -190l132 -189h-77z" />
<glyph horiz-adv-x="298" d="M176 350l-132 190h76l134 -190l-134 -189h-76z" />
<glyph horiz-adv-x="476" d="M44 350l133 190h77l-132 -190l132 -189h-77zM222 350l133 190h77l-132 -190l132 -189h-77z" />
<glyph horiz-adv-x="476" d="M176 350l-132 190h76l134 -190l-134 -189h-76zM354 350l-132 190h76l134 -190l-134 -189h-76z" />
<glyph d="M54 393h417v-61h-417v61z" />
<glyph horiz-adv-x="832" d="M54 393h724v-61h-724v61z" />
<glyph horiz-adv-x="1257" d="M1046 -7q-46 0 -79 15.5t-54 39.5t-30.5 53.5t-9.5 58.5q0 28 9.5 57.5t30.5 54t53.5 40t77.5 15.5q46 0 79 -15.5t54 -39.5t30.5 -53.5t9.5 -57.5q0 -29 -9.5 -59t-30.5 -54t-53.5 -39.5t-77.5 -15.5zM1046 43q24 0 44 9.5t34 25t21.5 37t7.5 45.5q0 49 -29 83t-79 34 q-25 0 -45 -9t-34 -25t-21.5 -37t-7.5 -45q0 -49 29 -83.5t80 -34.5zM213 342q-46 0 -79 15.5t-54 39.5t-30.5 53.5t-9.5 58.5q0 28 9.5 57.5t30.5 54t53.5 40t77.5 15.5q46 0 79 -15.5t54 -39.5t30.5 -53.5t9.5 -57.5q0 -29 -9.5 -59t-30.5 -54t-53.5 -39.5t-77.5 -15.5z M213 389q24 0 44 9.5t34 26t21.5 38.5t7.5 46t-7.5 46t-21.5 38.5t-34 26t-45 9.5t-45 -9.5t-34 -26t-21.5 -38t-7.5 -45.5t7.5 -46t22 -38.5t34.5 -26.5t45 -10zM639 -7q-46 0 -79 15.5t-54 39.5t-30.5 53.5t-9.5 58.5q0 28 9.5 57.5t30.5 54t53.5 40t77.5 15.5 q46 0 79 -15.5t54 -39.5t30.5 -53.5t9.5 -57.5q0 -29 -9.5 -59t-30.5 -54t-53.5 -39.5t-77.5 -15.5zM639 40q24 0 44 9.5t34 26t21.5 38.5t7.5 46t-7.5 46t-21.5 38.5t-34 26t-45 9.5t-45 -9.5t-34 -26t-21.5 -38t-7.5 -45.5t7.5 -46t22 -38.5t34.5 -26.5t45 -10zM602 666 h61l-417 -666h-61z" />
<glyph horiz-adv-x="292" d="M36 50q11 2 33.5 5t45.5 3v366q-24 2 -46 3t-33 1v50q20 2 64 5t93 3l-4 -79v-349q23 0 45.5 -3t33.5 -5v-50h-232v50zM152 570q-23 0 -38.5 15.5t-15.5 38.5t15.5 38.5t38.5 15.5t38.5 -15.5t15.5 -38.5t-15.5 -38.5t-38.5 -15.5z" />
<glyph horiz-adv-x="584" d="M6 50q9 2 28.5 4.5t39.5 3.5l183 454h67l186 -454q20 -1 39 -3.5t29 -4.5v-50h-207v50q8 2 26 4.5t38 3.5l-40 102h-213l-40 -102q20 -1 38.5 -3.5t27.5 -4.5v-50h-202v50zM203 215h170l-53 134q-13 33 -20.5 57t-11.5 35h-2l-11.5 -34.5t-20.5 -57.5z" />
<glyph horiz-adv-x="516" d="M41 50q11 2 33.5 5t45.5 3v396q-23 0 -45.5 3t-33.5 5v50h229q38 0 70.5 -7t56.5 -22t38 -39.5t14 -59.5q0 -46 -25.5 -74.5t-69.5 -39.5v-1q49 -8 83.5 -40t34.5 -86q0 -39 -14.5 -66t-41.5 -44.5t-64.5 -25t-83.5 -7.5h-227v50zM194 59h72q67 0 98 18.5t31 66.5 q0 45 -28 69.5t-96 24.5h-77v-179zM194 294h68q59 0 85 21t26 64q0 40 -27.5 57.5t-81.5 17.5h-70v-160z" />
<glyph horiz-adv-x="523" d="M309 -9q-65 0 -115 21t-84 56t-51 82t-17 99q0 56 18.5 105.5t53 87t84.5 59t114 21.5q52 0 90.5 -12.5t68.5 -31.5v-135h-58q-1 5 -2.5 16t-2.5 25t-2 29t-1 28q-20 9 -44 15t-51 6q-45 0 -80 -16t-59.5 -44t-37 -65.5t-12.5 -80.5q0 -44 13 -81.5t37 -65t59.5 -43 t80.5 -15.5q29 0 53.5 5.5t44.5 15.5q0 13 1 28t2 29t2.5 25.5t2.5 16.5h58v-128q-21 -18 -65 -35t-101 -17z" />
<glyph horiz-adv-x="603" d="M41 50q11 2 33.5 5t45.5 3v396q-23 0 -45.5 3t-33.5 5v50h214q79 0 136.5 -17.5t94.5 -50t55 -78.5t18 -103t-18 -105t-55.5 -83t-96 -55t-138.5 -20h-210v50zM195 59h62q110 0 167 49t57 152q0 104 -55.5 148.5t-172.5 44.5h-58v-394z" />
<glyph horiz-adv-x="493" d="M41 50q11 2 33.5 5t45.5 3v396q-23 0 -45.5 3t-33.5 5v50h403v-139h-58q-2 9 -4.5 33t-3.5 48h-183v-166h109q3 38 8 56h50v-166h-50q-2 8 -4 22.5t-4 32.5h-109v-175h189q1 23 3.5 45t4.5 31h57v-134h-408v50z" />
<glyph horiz-adv-x="475" d="M41 50q11 2 33.5 5t45.5 3v396q-23 0 -45.5 3t-33.5 5v50h402v-139h-58q-2 9 -4.5 33t-3.5 48h-182v-179h112q3 38 8 56h50v-166h-50q-2 8 -4 22.5t-4 32.5h-112v-162q23 0 50.5 -3t38.5 -5v-50h-243v50z" />
<glyph horiz-adv-x="607" d="M317 -9q-66 0 -117 20.5t-86.5 56t-53.5 82t-18 99.5q0 56 19.5 106t55.5 87t88 58.5t118 21.5q68 0 110 -15t64 -32v-132h-58q-1 5 -2.5 16t-2.5 24.5t-2 28t-1 27.5q-22 10 -49 16.5t-61 6.5q-51 0 -88.5 -16t-62 -44t-37 -65.5t-12.5 -80.5q0 -42 12.5 -79.5t37 -65 t61.5 -44t86 -16.5q29 0 50 3t35.5 7t23.5 8.5t14 7.5v99q-23 0 -45.5 3t-33.5 5v50h221v-50q-10 -2 -29.5 -4.5t-39.5 -3.5v-133q-4 -4 -17 -12.5t-36.5 -17.5t-59 -15.5t-84.5 -6.5z" />
<glyph horiz-adv-x="682" d="M41 50q11 2 33.5 5t45.5 3v396q-23 0 -45.5 3t-33.5 5v50h233v-50q-11 -2 -33.5 -5t-45.5 -3v-161h292v161q-23 0 -45.5 3t-33.5 5v50h233v-50q-11 -2 -33.5 -5t-45.5 -3v-396q23 0 45.5 -3t33.5 -5v-50h-233v50q11 2 33.5 5t45.5 3v177h-292v-177q23 0 45.5 -3t33.5 -5 v-50h-233v50z" />
<glyph horiz-adv-x="315" d="M41 50q11 2 33.5 5t45.5 3v396q-23 0 -45.5 3t-33.5 5v50h233v-50q-11 -2 -33.5 -5t-45.5 -3v-396q23 0 45.5 -3t33.5 -5v-50h-233v50z" />
<glyph horiz-adv-x="291" d="M55 -149q-21 0 -34.5 2.5t-19.5 5.5l11 61q5 -2 13.5 -4.5t19.5 -2.5q32 0 47.5 21t15.5 66v454q-23 0 -45.5 3t-33.5 5v50h233v-50q-11 -2 -33.5 -5t-45.5 -3v-462q0 -69 -32.5 -105t-95.5 -36z" />
<glyph horiz-adv-x="559" d="M41 50q11 2 33.5 5t45.5 3v396q-23 0 -45.5 3t-33.5 5v50h225v-50q-11 -2 -29.5 -5t-41.5 -3v-396q23 0 41.5 -3t29.5 -5v-50h-225v50zM342 50q8 2 24 4t34 3l-196 207l178 191q-17 1 -30.5 3t-21.5 4v50h207v-50q-10 -2 -31.5 -5t-42.5 -3l-177 -183l207 -213 q20 -1 37.5 -3.5t26.5 -4.5v-50h-215v50z" />
<glyph horiz-adv-x="460" d="M41 50q11 2 33.5 5t45.5 3v396q-23 0 -45.5 3t-33.5 5v50h233v-50q-11 -2 -33.5 -5t-45.5 -3v-396h168q0 26 3 55t5 40h57v-153h-387v50z" />
<glyph horiz-adv-x="787" d="M30 50q9 2 29 4.5t41 3.5l57 396q-23 0 -45 3t-33 5v50h154l127 -345q13 -35 20 -56l13 -39h2q6 20 12.5 40.5t19.5 54.5l127 345h155v-50q-11 -2 -33 -5t-45 -3l56 -396q20 -1 40 -3.5t30 -4.5v-50h-214v50q10 2 30.5 4.5t41.5 3.5l-35 266q-4 27 -5.5 45t-2.5 27h-2 q-2 -8 -8 -27t-16 -45l-119 -324h-75l-120 323q-11 27 -16 44t-9 28h-2q-1 -8 -2 -28t-5 -46l-35 -263q21 -1 41 -3.5t30 -4.5v-50h-204v50z" />
<glyph horiz-adv-x="663" d="M41 50q11 2 33.5 5t45.5 3v396q-23 0 -45.5 3t-33.5 5v50h149l251 -330q22 -29 33 -50t18 -33h2q-1 14 -2 31t-1 46v278q-23 0 -45.5 3t-33.5 5v50h222v-50q-11 -2 -33.5 -5t-45.5 -3v-454h-64l-265 349q-17 23 -27 42t-17 32h-1q1 -13 2 -27t1 -37v-301q23 0 45.5 -3 t33.5 -5v-50h-222v50z" />
<glyph horiz-adv-x="618" d="M310 -9q-63 0 -113 21.5t-84.5 58t-52.5 84t-18 100.5t18 101.5t52 85t84 58.5t113 22t112.5 -21.5t84 -58t52.5 -84.5t18 -100q0 -53 -18 -101t-52 -85t-83.5 -59t-112.5 -22zM309 51q46 0 81 16.5t59 44.5t36 65t12 78t-12 78.5t-35 66t-58.5 45.5t-81.5 17 t-81.5 -16.5t-59.5 -45t-36 -65.5t-12 -77q0 -41 12 -78.5t35.5 -66t58.5 -45.5t82 -17z" />
<glyph horiz-adv-x="497" d="M41 50q11 2 33.5 5t45.5 3v396q-23 0 -45.5 3t-33.5 5v50h229q42 0 77.5 -8.5t60.5 -26.5t39 -46t14 -67q0 -82 -53.5 -123.5t-148.5 -41.5h-64v-141q23 0 50.5 -3t38.5 -5v-50h-243v50zM195 256h64q66 0 96.5 25.5t30.5 76.5q0 47 -28.5 72.5t-96.5 25.5h-66v-200z" />
<glyph horiz-adv-x="618" d="M501 -128q-28 0 -54 6t-51.5 19.5t-51 36.5t-52.5 58q-59 3 -105.5 25.5t-78.5 58.5t-49 82t-17 97q0 53 18 101.5t52 85t84 58.5t113 22t112.5 -21.5t84 -58t52.5 -84.5t18 -100q0 -45 -13.5 -87.5t-39 -77.5t-63.5 -60t-86 -35q29 -34 58 -50.5t71 -16.5q23 0 40.5 8 t24.5 13l27 -52q-13 -11 -37 -19.5t-57 -8.5zM309 51q46 0 81 16.5t59 44.5t36 65t12 78t-12 78.5t-35 66t-58.5 45.5t-81.5 17t-81.5 -16.5t-59.5 -45t-36 -65.5t-12 -77q0 -41 12 -78.5t35.5 -66t58.5 -45.5t82 -17z" />
<glyph horiz-adv-x="538" d="M41 50q11 2 33.5 5t45.5 3v396q-23 0 -45.5 3t-33.5 5v50h241q88 0 135 -32t47 -101q0 -32 -11.5 -56.5t-31.5 -42t-46.5 -27.5t-56.5 -14v-2q8 -5 21.5 -20t37.5 -47l51 -68q24 -32 47 -42.5t44 -10.5h8t7 1v-50q-8 -3 -21.5 -5.5t-29.5 -2.5q-32 0 -57 15.5t-47 45.5 l-68 94q-21 28 -34.5 44.5t-24 25t-20 10.5t-21.5 2h-16v-171q23 0 45.5 -3t33.5 -5v-50h-233v50zM278 284q57 0 83 22t26 64q0 43 -27.5 63.5t-86.5 20.5h-78v-170h83z" />
<glyph horiz-adv-x="437" d="M206 -9q-63 0 -105.5 14t-57.5 28v131h59q1 -5 2.5 -16t2.5 -24.5t2 -28.5t1 -28q17 -7 41 -12t56 -5q48 0 80.5 21t32.5 60q0 22 -10.5 37.5t-27.5 27t-39 20t-46 16.5q-26 9 -51.5 20.5t-46 29.5t-33 43.5t-12.5 61.5q0 33 14.5 58t38 42t54 26t62.5 9q62 0 102.5 -13 t55.5 -24v-131h-58q-1 4 -2.5 15t-2.5 24.5t-2 28t-1 27.5q-18 6 -41 10t-49 4q-39 0 -68.5 -18.5t-29.5 -54.5q0 -20 8.5 -34t23 -25t34 -19.5t40.5 -16.5q27 -11 55.5 -23t51.5 -30t37.5 -43.5t14.5 -63.5q0 -33 -14 -59.5t-38.5 -45.5t-59 -29t-74.5 -10z" />
<glyph horiz-adv-x="526" d="M146 50q11 2 33.5 5t45.5 3v396h-127q0 -13 -1 -28.5t-2 -29.5t-2.5 -26t-2.5 -17h-58v159h462v-159h-58q-1 5 -2.5 17t-2.5 26t-2 29.5t-1 28.5h-127v-396q23 0 45.5 -3t33.5 -5v-50h-234v50z" />
<glyph horiz-adv-x="635" d="M323 -9q-56 0 -96 15.5t-66 44t-38.5 67.5t-12.5 87v249q-23 0 -45.5 3t-33.5 5v50h234v-50q-11 -2 -33.5 -5t-45.5 -3v-241q0 -86 33.5 -123t106.5 -37q70 0 102.5 39t32.5 111v251q-23 0 -45.5 3t-33.5 5v50h222v-50q-11 -2 -33.5 -5t-45.5 -3v-243q0 -100 -48 -160 t-154 -60z" />
<glyph horiz-adv-x="555" d="M72 454q-20 1 -38 3.5t-26 4.5v50h212v-50q-9 -2 -27.5 -4.5t-41.5 -3.5l101 -289q10 -29 17.5 -50t13.5 -38h2q6 17 13.5 38t17.5 50l96 289q-23 1 -42 3.5t-27 4.5v50h204v-50q-9 -2 -27 -4.5t-38 -3.5l-162 -454h-77z" />
<glyph horiz-adv-x="822" d="M78 454q-20 1 -37.5 3.5t-26.5 4.5v50h210v-50q-11 -3 -32 -5t-41 -3l82 -268q10 -32 13 -51t7 -39h2q5 20 9 39.5t14 51.5l96 325h72l98 -323q10 -32 14.5 -55.5t7.5 -37.5h2q3 14 8 37t14 55l79 266q-20 1 -40 3t-31 5v50h210v-50q-10 -2 -30 -4.5t-41 -3.5l-143 -454 h-63l-96 315q-9 30 -16.5 59t-10.5 42h-2q-3 -12 -10.5 -41.5t-16.5 -59.5l-94 -315h-69z" />
<glyph horiz-adv-x="532" d="M12 50q9 2 28 4.5t39 3.5l146 201l-136 195q-20 1 -37.5 3.5t-26.5 4.5v50h192v-50q-8 -2 -19.5 -3.5t-25.5 -2.5l102 -146l102 145q-16 2 -30 3.5t-22 3.5v50h192v-50q-10 -2 -29 -4.5t-39 -3.5l-140 -193l142 -203q21 -1 40.5 -3.5t29.5 -4.5v-50h-203v50q8 2 21.5 3.5 t28.5 2.5l-107 153l-108 -153q15 -1 29 -2.5t23 -3.5v-50h-192v50z" />
<glyph horiz-adv-x="515" d="M144 50q11 2 33.5 5t45.5 3v136l-147 260q-22 0 -42 3t-30 5v50h211v-50q-8 -2 -24.5 -4t-35.5 -4l107 -194h2l105 194q-18 2 -34.5 4t-24.5 4v50h201v-50q-10 -2 -30.5 -5t-42.5 -3l-140 -253v-143q23 0 45.5 -3t33.5 -5v-50h-233v50z" />
<glyph horiz-adv-x="496" d="M50 51l293 403h-215q0 -13 -1 -28.5t-2 -29.5t-2.5 -26t-2.5 -17h-58v159h373v-49l-297 -405h240q0 13 1 28.5t2 29.5t2.5 26t2.5 17h58v-159h-394v51z" />
<glyph horiz-adv-x="611" d="M224 -9q-44 0 -78 10.5t-57.5 29.5t-36 44t-12.5 55q0 27 9.5 49t26 40t38.5 32.5t46 25.5q-32 29 -52 58t-20 64q0 27 12 49.5t32.5 39t49 25.5t61.5 9q64 0 99 -28.5t35 -76.5q0 -45 -30 -78.5t-88 -62.5l160 -137q20 24 33.5 51t21.5 54q-20 2 -37.5 4t-25.5 4v50h188 v-50q-9 -2 -26 -4t-37 -4q-8 -35 -27 -71.5t-48 -69.5l53 -45q23 0 47 -3t35 -5v-50h-113l-69 58q-38 -30 -86 -48.5t-104 -18.5zM227 46q42 0 78.5 13t66.5 35l-174 149q-38 -18 -60.5 -45t-22.5 -61q0 -38 29.5 -64.5t82.5 -26.5zM237 470q-33 0 -55.5 -17t-22.5 -48 q0 -29 16 -50.5t47 -47.5q46 23 66.5 47.5t20.5 54.5q0 26 -20 43.5t-52 17.5z" />
<glyph horiz-adv-x="270" d="M135 -7q-23 0 -39 16t-16 39t16 38.5t39 15.5t39 -15.5t16 -38.5t-16 -39t-39 -16zM93 512h86l-14 -345h-57z" />
<glyph horiz-adv-x="270" d="M135 410q-23 0 -39 15.5t-16 38.5t16 39t39 16t39 -16t16 -39t-16 -38.5t-39 -15.5zM105 345h57l15 -345h-86z" />
<glyph horiz-adv-x="355" d="M151 522q80 0 119.5 -34.5t39.5 -91.5q0 -29 -9.5 -50.5t-23.5 -38t-30 -28t-30 -19.5q-26 -15 -41.5 -28.5t-15.5 -37.5q0 -6 0.5 -13.5t2.5 -13.5h-49q-2 5 -5 16.5t-3 27.5q0 25 13.5 48t47.5 42q16 9 30.5 17t25 18t16.5 24t6 34q0 34 -29.5 48.5t-68.5 14.5 q-24 0 -44 -5.5t-31 -10.5l-22 57q16 8 41 16t60 8zM140 -7q-23 0 -39 16t-16 39t16 38.5t39 15.5t39 -15.5t16 -38.5t-16 -39t-39 -16z" />
<glyph horiz-adv-x="355" d="M215 411q-23 0 -39 15.5t-16 38.5t16 39t39 16t39 -16t16 -39t-16 -38.5t-39 -15.5zM204 -9q-80 0 -119.5 34.5t-39.5 91.5q0 28 9.5 50t23.5 38.5t30 28t30 19.5q26 15 41.5 28.5t15.5 37.5q0 6 -0.5 13.5t-2.5 13.5h49q2 -5 5 -16.5t3 -27.5q0 -25 -13.5 -48t-47.5 -42 q-16 -9 -30.5 -17t-25 -18t-16.5 -24t-6 -34q0 -17 8 -29.5t21.5 -20t31 -11t37.5 -3.5q24 0 44 6t31 11l22 -57q-16 -8 -41 -16t-60 -8z" />
<glyph horiz-adv-x="596" d="M12 50q9 2 28.5 4.5t39.5 3.5l183 454h67l186 -454q20 -1 39 -3.5t29 -4.5v-50h-207v50q8 2 26 4.5t38 3.5l-40 102h-213l-40 -102q20 -1 38.5 -3.5t27.5 -4.5v-50h-202v50zM209 215h170l-53 134q-13 33 -20.5 57t-11.5 35h-2l-11.5 -34.5t-20.5 -57.5zM357 686h109 l-135 -126h-66z" />
<glyph horiz-adv-x="596" d="M12 50q9 2 28.5 4.5t39.5 3.5l183 454h67l186 -454q20 -1 39 -3.5t29 -4.5v-50h-207v50q8 2 26 4.5t38 3.5l-40 102h-213l-40 -102q20 -1 38.5 -3.5t27.5 -4.5v-50h-202v50zM209 215h170l-53 134q-13 33 -20.5 57t-11.5 35h-2l-11.5 -34.5t-20.5 -57.5zM136 686h109 l92 -126h-66z" />
<glyph horiz-adv-x="596" d="M12 50q9 2 28.5 4.5t39.5 3.5l183 454h67l186 -454q20 -1 39 -3.5t29 -4.5v-50h-207v50q8 2 26 4.5t38 3.5l-40 102h-213l-40 -102q20 -1 38.5 -3.5t27.5 -4.5v-50h-202v50zM209 215h170l-53 134q-13 33 -20.5 57t-11.5 35h-2l-11.5 -34.5t-20.5 -57.5zM273 714h54 l121 -153h-69l-81 85l-79 -85h-69z" />
<glyph horiz-adv-x="596" d="M12 50q9 2 28.5 4.5t39.5 3.5l183 454h67l186 -454q20 -1 39 -3.5t29 -4.5v-50h-207v50q8 2 26 4.5t38 3.5l-40 102h-213l-40 -102q20 -1 38.5 -3.5t27.5 -4.5v-50h-202v50zM209 215h170l-53 134q-13 33 -20.5 57t-11.5 35h-2l-11.5 -34.5t-20.5 -57.5zM205 558 q-22 0 -37.5 15.5t-15.5 38.5q0 22 15.5 37.5t37.5 15.5q23 0 38.5 -15.5t15.5 -37.5q0 -23 -15.5 -38.5t-38.5 -15.5zM392 558q-22 0 -37.5 15.5t-15.5 38.5q0 22 15.5 37.5t37.5 15.5q23 0 38.5 -15.5t15.5 -37.5q0 -23 -15.5 -38.5t-38.5 -15.5z" />
<glyph horiz-adv-x="596" d="M12 50q9 2 28.5 4.5t39.5 3.5l183 454h67l186 -454q20 -1 39 -3.5t29 -4.5v-50h-207v50q8 2 26 4.5t38 3.5l-40 102h-213l-40 -102q20 -1 38.5 -3.5t27.5 -4.5v-50h-202v50zM209 215h170l-53 134q-13 33 -20.5 57t-11.5 35h-2l-11.5 -34.5t-20.5 -57.5zM348 563 q-18 0 -31.5 6t-25 13.5t-23 13.5t-26.5 6q-17 0 -29.5 -12.5l-19.5 -19.5l-39 37q7 9 16 19.5t20.5 19.5t26 15t31.5 6q19 0 32.5 -6t25 -13.5t23 -13.5t25.5 -6q20 0 32.5 11.5t18.5 19.5l39 -38q-8 -10 -17.5 -20.5t-21 -18.5t-25.5 -13.5t-32 -5.5z" />
<glyph horiz-adv-x="596" d="M12 50q9 2 28.5 4.5t39.5 3.5l183 454h67l186 -454q20 -1 39 -3.5t29 -4.5v-50h-207v50q8 2 26 4.5t38 3.5l-40 102h-213l-40 -102q20 -1 38.5 -3.5t27.5 -4.5v-50h-202v50zM209 215h170l-53 134q-13 33 -20.5 57t-11.5 35h-2l-11.5 -34.5t-20.5 -57.5zM299 556 q-19 0 -36 7.5t-30 20t-21 30t-8 37.5t8 37.5t21 30t30 20t36 7.5t36 -7.5t30 -20t21 -30t8 -37.5t-8 -37.5t-21 -30t-30 -20t-36 -7.5zM299 596q23 0 36.5 16.5t13.5 38.5q0 23 -13.5 39t-36.5 16t-36.5 -16t-13.5 -39q0 -22 13.5 -38.5t36.5 -16.5z" />
<glyph horiz-adv-x="584" d="M6 50q9 2 28.5 4.5t39.5 3.5l183 454h67l186 -454q20 -1 39 -3.5t29 -4.5v-50h-207v50q8 2 26 4.5t38 3.5l-40 102h-213l-40 -102q20 -1 38.5 -3.5t27.5 -4.5v-50h-202v50zM203 215h170l-53 134q-13 33 -20.5 57t-11.5 35h-2l-11.5 -34.5t-20.5 -57.5zM294 556 q-26 0 -50.5 8.5t-44 25.5t-33 44t-16.5 64h65q3 -38 23.5 -61t55.5 -23t55 23t23 61h65q-3 -37 -16 -64t-32.5 -44t-44 -25.5t-50.5 -8.5z" />
<glyph horiz-adv-x="584" d="M6 50q9 2 28.5 4.5t39.5 3.5l183 454h67l186 -454q20 -1 39 -3.5t29 -4.5v-50h-207v50q8 2 26 4.5t38 3.5l-40 102h-213l-40 -102q20 -1 38.5 -3.5t27.5 -4.5v-50h-202v50zM203 215h170l-53 134q-13 33 -20.5 57t-11.5 35h-2l-11.5 -34.5t-20.5 -57.5zM158 655h271v-61 h-271v61z" />
<glyph horiz-adv-x="584" d="M6 50q9 2 28.5 4.5t39.5 3.5l183 454h67l186 -454q20 -1 39 -3.5t29 -4.5v-50h-207v50q8 2 26 4.5t38 3.5l-40 102h-213l-40 -102q20 -1 38.5 -3.5t27.5 -4.5v-50h-202v50zM203 215h170l-53 134q-13 33 -20.5 57t-11.5 35h-2l-11.5 -34.5t-20.5 -57.5zM514 -219 q-48 0 -73 27t-25 65q0 20 6.5 39t16 35.5t21 30t20.5 22.5h50q-17 -22 -34.5 -51t-17.5 -68q0 -48 50 -48q22 0 43 8l11 -43q-11 -6 -28 -11.5t-40 -5.5z" />
<glyph horiz-adv-x="747" d="M0 46q9 2 28 4.5t39 3.5l243 404q-21 0 -42 3t-31 5v46h461v-140h-53q-2 9 -4.5 32t-3.5 46h-185v-157h121q2 18 4 32.5t4 22.5h52v-172h-52q-5 16 -8 56h-121v-170h191q1 23 3.5 44.5t4.5 30.5h52v-137h-405v46q11 2 33.5 5t45.5 3v86h-178l-52 -88q15 -2 27.5 -3.5 t18.5 -2.5v-46h-193v46zM377 201v241h-2q-18 -31 -42 -71.5t-53 -91.5l-45 -78h142z" />
<glyph horiz-adv-x="515" d="M308 -9q-65 0 -115 21t-84 56t-51 82t-17 99q0 56 18.5 105.5t53 87t84.5 59t114 21.5q52 0 90.5 -12.5t68.5 -31.5v-135h-58q-1 5 -2.5 16t-2.5 25t-2 29t-1 28q-20 9 -44 15t-51 6q-45 0 -80 -16t-59.5 -44t-37 -65.5t-12.5 -80.5q0 -44 13 -81.5t37 -65t59.5 -43 t80.5 -15.5q29 0 53.5 5.5t44.5 15.5q0 13 1 28t2 29t2.5 25.5t2.5 16.5h58v-128q-21 -18 -65 -35t-101 -17zM260 -219q-27 0 -42.5 4t-23.5 8l12 42q7 -4 20 -7.5t33 -3.5q23 0 36.5 9.5t13.5 29.5q0 26 -19.5 33.5t-43.5 7.5h-8l36 96h51l-25 -66q31 -5 50.5 -23t19.5 -47 q0 -41 -32.5 -62t-77.5 -21z" />
</font>
</defs>
</svg>
