<?xml version="1.0" standalone="no"?>
<!DOCTYPE svg PUBLIC "-//W3C//DTD SVG 1.1//EN" "http://www.w3.org/Graphics/SVG/1.1/DTD/svg11.dtd" >
<svg xmlns="http://www.w3.org/2000/svg" xmlns:xlink="http://www.w3.org/1999/xlink" version="1.1">
<metadata></metadata>
<defs>
<font id="jzdjoslflzgkgmugregular" horiz-adv-x="556" >
<font-face units-per-em="1000" ascent="789" descent="-211" />
<missing-glyph horiz-adv-x="226" />
<glyph unicode="fi" horiz-adv-x="635" d="M29 84q11 3 32.5 6t40.5 3v295h-73v99h73v49q0 91 58.5 143.5t168.5 52.5q39 0 68 -4.5t51 -11t38 -14.5t28 -15l-47 -93q-17 10 -48 21t-77 11q-58 0 -83 -25.5t-25 -74.5v-39h157l164 6l-5 -79v-321q17 0 37 -3t31 -6v-84h-270v84q11 3 29.5 6t37.5 3v303h-181v-303 q18 0 40.5 -3t33.5 -6v-84h-279v84z" />
<glyph unicode="fl" horiz-adv-x="651" d="M29 84q11 3 32.5 6t40.5 3v295h-73v99h73v50q0 91 52.5 141.5t147.5 50.5q38 0 70 -4t51 -9l148 7l-6 -80v-550q17 0 37.5 -3t30.5 -6v-84h-269v84q11 3 30 6t38 3v521q-13 5 -37 9.5t-56 4.5q-56 0 -80.5 -26t-24.5 -74v-41h117v-99h-117v-295q9 0 21.5 -1l25 -2 t23.5 -3t16 -3v-84h-291v84z" />
<glyph unicode="fb" horiz-adv-x="908" d="M29 84q11 3 32.5 6t40.5 3v295h-73v99h73v50q0 91 51 141.5t145 50.5q38 0 66 -4t48 -9l147 7l-6 -80v-195h2q17 19 47.5 35t69.5 16q46 0 84 -15t65.5 -45.5t42.5 -77t15 -109.5t-20 -112t-56 -82.5t-85.5 -51.5t-107.5 -18q-66 0 -113.5 12t-76.5 27v590q-12 5 -34 8 t-51 3q-55 0 -78 -26t-23 -74v-41h117v-99h-117v-295q9 0 21.5 -1l25 -2t23.5 -3t16 -3v-84h-291v84zM616 87q56 0 89 42.5t33 117.5q0 69 -24.5 109.5t-79.5 40.5q-26 0 -48 -12t-33 -24v-264q11 -4 26.5 -7t36.5 -3z" />
<glyph unicode="fh" horiz-adv-x="947" d="M29 84q11 3 32.5 6t40.5 3v295h-73v99h73v50q0 91 52.5 141.5t147.5 50.5q38 0 70 -4t51 -9l148 7l-6 -80v-219h2q22 29 57.5 52t91.5 23q40 0 68 -12t45.5 -33t25.5 -50t8 -63v-248q17 0 37.5 -3t30.5 -6v-84h-201v318q0 37 -15.5 55.5t-50.5 18.5q-33 0 -58.5 -20 t-40.5 -41v-238q18 -1 37 -4t28 -5v-84h-266v84q11 3 30 6t38 3v521q-13 5 -37 9.5t-56 4.5q-56 0 -80.5 -26t-24.5 -74v-41h117v-99h-117v-295q9 0 21.5 -1l25 -2t23.5 -3t16 -3v-84h-291v84z" />
<glyph unicode="fj" horiz-adv-x="603" d="M29 84q11 3 32.5 6t40.5 3v295h-73v99h73v49q0 91 58.5 143.5t168.5 52.5q39 0 68 -4.5t51 -11t38 -14.5t28 -15l-48 -93q-17 10 -47.5 21t-76.5 11q-58 0 -83 -25.5t-25 -74.5v-39h146l164 6l-6 -79v-448q0 -91 -38.5 -145t-128.5 -54q-38 0 -58.5 4t-29.5 8l22 99 q5 -2 14.5 -4.5t24.5 -2.5q35 0 47.5 23.5t12.5 79.5v422h-170v-303q9 0 21.5 -1l25 -2t23 -3t15.5 -3v-84h-290v84z" />
<glyph unicode="fk" horiz-adv-x="907" d="M29 84q11 3 32.5 6t40.5 3v295h-73v99h73v50q0 91 52.5 141.5t147.5 50.5q38 0 70 -4t51 -9l148 7l-6 -80v-550q17 0 32.5 -2.5t26.5 -6.5v-84h-260v84q11 3 30 6t38 3v521q-13 5 -37 9.5t-56 4.5q-56 0 -80.5 -26t-24.5 -74v-41h117v-99h-117v-295q9 0 21.5 -1l25 -2 t23.5 -3t16 -3v-84h-291v84zM566 249l126 150q-13 1 -26 3t-18 4v81h247v-84q-8 -3 -26.5 -5t-39.5 -4l-120 -131l135 -171q20 -2 34.5 -4t22.5 -4v-84h-152z" />
<glyph unicode="ffb" horiz-adv-x="1226" d="M29 84q11 3 32.5 6t40.5 3v295h-73v99h73v50q0 88 48 141.5t139 53.5q42 0 70 -6.5t40 -13.5l-34 -96q-8 3 -21.5 6.5t-33.5 3.5q-76 0 -76 -95v-44h181v50q0 91 52.5 141.5t147.5 50.5q38 0 66.5 -4t47.5 -9l148 7l-6 -80v-195h2q17 19 47.5 35t69.5 16q46 0 84 -15 t65.5 -45.5t42.5 -77t15 -109.5t-20 -112t-56 -82.5t-85 -51.5t-107 -18q-66 0 -114 12t-77 27v590q-12 5 -34.5 8t-51.5 3q-56 0 -80.5 -26t-24.5 -74v-41h117v-99h-117v-295q9 0 21.5 -1l25 -2t23.5 -3t16 -3v-84h-285v84q11 3 29.5 6t37.5 3v303h-181v-303q18 0 40.5 -3 t33.5 -6v-84h-279v84zM934 87q57 0 90 42.5t33 117.5q0 69 -25 109.5t-79 40.5q-26 0 -48.5 -12t-33.5 -24v-264q11 -4 26.5 -7t36.5 -3z" />
<glyph unicode="ffh" horiz-adv-x="1260" d="M29 84q11 3 32.5 6t40.5 3v295h-73v99h73v50q0 88 48 141.5t139 53.5q42 0 70 -6.5t40 -13.5l-34 -96q-8 3 -21.5 6.5t-33.5 3.5q-76 0 -76 -95v-44h181v50q0 91 52.5 141.5t147.5 50.5q38 0 70 -4t51 -9l148 7l-6 -80v-219h2q22 29 57.5 52t91.5 23q40 0 68 -12 t45.5 -33t25.5 -50t8 -63v-248q17 0 37.5 -3t30.5 -6v-84h-201v318q0 37 -15.5 55.5t-50.5 18.5q-33 0 -58.5 -20t-40.5 -41v-238q18 -1 37 -4t28 -5v-84h-266v84q11 3 30 6t38 3v521q-13 5 -37 9.5t-56 4.5q-56 0 -80.5 -26t-24.5 -74v-41h117v-99h-117v-295q9 0 21.5 -1 l25 -2t23.5 -3t16 -3v-84h-285v84q11 3 29.5 6t37.5 3v303h-181v-303q18 0 40.5 -3t33.5 -6v-84h-279v84z" />
<glyph unicode="ffj" horiz-adv-x="916" d="M29 84q11 3 32.5 6t40.5 3v295h-73v99h73v50q0 88 48 141.5t139 53.5q42 0 70 -6.5t40 -13.5l-34 -96q-8 3 -21.5 6.5t-33.5 3.5q-76 0 -76 -95v-44h181v49q0 91 58.5 143.5t168.5 52.5q39 0 68 -4.5t51 -11t38 -14.5t28 -15l-47 -93q-17 10 -48 21t-77 11 q-58 0 -83 -25.5t-25 -74.5v-39h146l164 6l-6 -79v-448q0 -91 -38.5 -145t-128.5 -54q-38 0 -58.5 4t-29.5 8l22 99q5 -2 14.5 -4.5t24.5 -2.5q35 0 47.5 23.5t12.5 79.5v422h-170v-303q9 0 21.5 -1l25 -2t23.5 -3t16 -3v-84h-285v84q11 3 29.5 6t37.5 3v303h-181v-303 q18 0 40.5 -3t33.5 -6v-84h-279v84z" />
<glyph unicode="ffk" horiz-adv-x="1220" d="M29 84q11 3 32.5 6t40.5 3v295h-73v99h73v50q0 88 48 141.5t139 53.5q42 0 70 -6.5t40 -13.5l-34 -96q-8 3 -21.5 6.5t-33.5 3.5q-76 0 -76 -95v-44h181v50q0 91 52.5 141.5t147.5 50.5q38 0 70 -4t51 -9l148 7l-6 -80v-550q17 0 32.5 -2.5t26.5 -6.5v-84h-260v84 q11 3 30 6t38 3v521q-13 5 -37 9.5t-56 4.5q-56 0 -80.5 -26t-24.5 -74v-41h117v-99h-117v-295q9 0 21.5 -1l25 -2t23.5 -3t16 -3v-84h-285v84q11 3 29.5 6t37.5 3v303h-181v-303q18 0 40.5 -3t33.5 -6v-84h-279v84zM879 249l126 150q-13 1 -26 3t-18 4v81h247v-84 q-8 -3 -26.5 -5t-39.5 -4l-120 -131l135 -171q20 -2 34.5 -4t22.5 -4v-84h-152z" />
<glyph unicode="&#xd;" horiz-adv-x="226" />
<glyph unicode=" "  horiz-adv-x="226" />
<glyph unicode="&#x09;" horiz-adv-x="226" />
<glyph unicode="&#xa0;" horiz-adv-x="226" />
<glyph unicode="!" horiz-adv-x="303" d="M152 -10q-37 0 -61 24.5t-24 58.5q0 33 24 57t61 24q36 0 60 -24t24 -57q0 -34 -24 -58.5t-60 -24.5zM74 666h156l-25 -441h-107z" />
<glyph unicode="&#x22;" horiz-adv-x="392" d="M38 666h135l-22 -244h-91zM218 666h135l-22 -244h-91z" />
<glyph unicode="#" horiz-adv-x="526" d="M113 213h-89l16 96h88l12 84h-88l15 96h87l19 121h92l-19 -121h80l19 121h92l-19 -121h83l-16 -96h-81l-12 -84h82l-16 -96h-81l-18 -125h-92l18 125h-80l-19 -125h-92zM217 306h85l13 89h-85z" />
<glyph unicode="$" horiz-adv-x="502" d="M199 -10q-48 3 -86 12.5t-58 21.5v132h93q0 -2 1 -10t2 -18t2 -19t1 -14q18 -6 39 -9.5t44 -3.5q41 0 63.5 13t22.5 36q0 14 -8 24t-22 17t-32.5 12.5t-38.5 11.5q-27 7 -56 17t-52 27t-38 44t-15 69q0 60 36 95.5t102 46.5v109h101v-106q48 -5 83 -15t49 -18v-130h-94 q-2 8 -4 26t-3 35q-17 5 -34.5 8t-37.5 3q-40 0 -59.5 -12.5t-19.5 -35.5q0 -26 28 -38t66 -22q29 -8 59.5 -17.5t56 -26t41.5 -42.5t16 -67q0 -64 -40 -102.5t-107 -49.5v-121h-101v117z" />
<glyph unicode="%" horiz-adv-x="883" d="M201 187q-43 0 -75 13t-53 34.5t-31.5 49.5t-10.5 58t11 58.5t32.5 50t53.5 35t75 13.5t75 -12.5t53 -33.5t31.5 -48.5t10.5 -58.5q0 -30 -11 -59t-32.5 -51t-53.5 -35.5t-75 -13.5zM203 265q34 0 45.5 23.5t11.5 53.5t-13.5 55t-44.5 25q-32 0 -45 -22.5t-13 -53.5 q0 -30 13.5 -55.5t45.5 -25.5zM681 -12q-43 0 -75 12.5t-53 34t-31.5 49.5t-10.5 59q0 30 11 58.5t32.5 50t53.5 35t75 13.5q42 0 74 -12.5t53 -33.5t31.5 -49t10.5 -59q0 -30 -11 -58.5t-32.5 -50.5t-53.5 -35.5t-74 -13.5zM683 65q33 0 44.5 24t11.5 54t-13.5 55t-44.5 25 q-32 0 -45 -23t-13 -54q0 -15 3.5 -29.5t10.5 -26t18.5 -18.5t27.5 -7zM534 487h110l-292 -487h-111z" />
<glyph unicode="&#x26;" horiz-adv-x="772" d="M287 -12q-61 0 -108 13.5t-78.5 38t-48 58.5t-16.5 75q0 63 44 109t110 76q-38 35 -61.5 70.5t-23.5 80.5q0 38 15 69.5t43 53.5t67 34t86 12q89 0 138.5 -39t49.5 -105q0 -59 -40 -100t-101 -73l167 -148q32 44 44 95q-19 1 -38 3.5t-29 5.5v84h246v-85q-8 -2 -29 -4.5 t-43 -3.5q-8 -40 -26.5 -81t-47.5 -78l64 -57q23 -1 48 -3.5t33 -4.5v-84h-154l-76 67q-46 -36 -104.5 -57.5t-130.5 -21.5zM309 592q-33 0 -55 -21.5t-22 -54.5q0 -26 15 -46.5t45 -48.5l8 -7q39 23 60.5 49.5t21.5 60.5q0 30 -20.5 49t-52.5 19zM307 87q41 0 76 11.5 t64 32.5l-193 171q-29 -17 -52.5 -44.5t-23.5 -66.5q0 -47 33.5 -75.5t95.5 -28.5z" />
<glyph unicode="'" horiz-adv-x="211" d="M38 666h135l-22 -244h-91z" />
<glyph unicode="(" horiz-adv-x="347" d="M220 -168q-31 33 -62.5 78t-57.5 101t-42.5 124t-16.5 147q0 76 16.5 143t42.5 122.5t57.5 99t62.5 73.5h126q-25 -27 -53.5 -68.5t-52.5 -96.5t-40 -122.5t-16 -147.5q0 -77 13 -143t35 -122t51.5 -102.5t62.5 -85.5h-126v0z" />
<glyph unicode=")" horiz-adv-x="349" d="M1 -168q29 33 58 76t52.5 97.5t38.5 121.5t15 147q0 78 -14.5 144.5t-38 122.5t-53 100.5t-58.5 78.5h128q31 -33 63 -77.5t58 -100t42 -122t16 -142.5q0 -79 -16.5 -147t-43 -124.5t-58 -100t-61.5 -74.5h-128v0z" />
<glyph unicode="*" horiz-adv-x="493" d="M85 346l87 103l-129 37l34 95l121 -47l-7 132h110l-7 -132l121 47l35 -95l-130 -37l87 -103l-87 -61l-74 114l-73 -114z" />
<glyph unicode="+" horiz-adv-x="560" d="M224 212h-183v102h183v180h114v-180h181v-102h-181v-186h-114v186z" />
<glyph unicode="," horiz-adv-x="286" d="M38 -119q22 23 39 45t17 50q0 16 -5.5 27t-12.5 22t-12.5 23.5t-5.5 31.5q0 35 23.5 57t58.5 22q39 0 63 -26.5t24 -69.5q0 -31 -11.5 -62.5t-31 -60.5t-44.5 -56t-51 -49z" />
<glyph unicode="-" horiz-adv-x="330" d="M51 336h228v-108h-228v108z" />
<glyph unicode="." horiz-adv-x="286" d="M143 -10q-37 0 -62.5 25t-25.5 61t25.5 60.5t62.5 24.5t63 -24.5t26 -60.5t-26 -61t-63 -25z" />
<glyph unicode="/" horiz-adv-x="433" d="M272 720h125l-237 -881h-124z" />
<glyph unicode="0" d="M278 -12q-66 0 -112 29.5t-75.5 78t-42.5 110.5t-13 127t12.5 127t41 110.5t75 78t113.5 29.5q66 0 112 -29.5t75.5 -78t43 -110.5t13.5 -127t-13.5 -127t-43 -110.5t-75.5 -78t-111 -29.5zM277 94q28 0 47 17t31 48t17.5 75.5t5.5 98.5t-5.5 98.5t-17.5 75.5t-31 48 t-46 17q-28 0 -47.5 -17t-31.5 -48t-17 -75.5t-5 -98.5t5 -98.5t17 -75.5t31 -48t47 -17z" />
<glyph unicode="1" d="M77 92q12 2 31.5 4t41 3t42.5 1.5t38 0.5v450l-141 -45l-28 105l199 55h104v-565q14 0 34.5 -0.5t41.5 -1.5t40.5 -3t31.5 -4v-92h-435v92z" />
<glyph unicode="2" d="M32 72q49 43 102 92t97.5 100.5t73 104t28.5 103.5q0 50 -26.5 74t-65.5 24q-43 0 -78 -18.5t-61 -43.5l-63 84q34 33 86 59.5t131 26.5q54 0 95 -14t69 -39.5t42.5 -60.5t14.5 -76q0 -53 -22 -103t-58 -98t-82 -94t-93 -89v-2q14 3 33.5 4t39.5 1h110q1 20 3.5 42.5 t5.5 32.5h100v-182h-482v72z" />
<glyph unicode="3" d="M194 -12q-50 0 -87.5 6.5t-56.5 12.5l23 105q15 -5 48.5 -11t70.5 -6q66 0 107.5 27t41.5 78q0 29 -14.5 48.5t-40.5 31.5t-62.5 17.5t-80.5 5.5v92q37 1 70 8.5t57.5 21t38.5 32.5t14 43q0 35 -27.5 52.5t-69.5 17.5q-20 0 -39.5 -4.5t-36.5 -11.5t-31 -15.5t-24 -17.5 l-53 86q13 12 33.5 24.5t47 23t59 17t70.5 6.5q99 0 154.5 -41.5t55.5 -110.5q0 -32 -13 -58t-33.5 -45.5t-46.5 -33t-52 -20.5v-2q30 -3 59.5 -15.5t53.5 -33.5t39 -50.5t15 -66.5q0 -49 -21.5 -88.5t-60 -67t-91.5 -42.5t-117 -15z" />
<glyph unicode="4" d="M315 130h-302v90l310 446h125v-432h82v-104h-82v-130h-133v130zM147 232q11 1 29 1.5t40 0.5h102v258h-2z" />
<glyph unicode="5" d="M182 -12q-42 0 -76.5 4.5t-47.5 8.5l21 107q5 -2 16 -4t25.5 -4t30.5 -3.5t31 -1.5q33 0 62 7t51 21.5t35 37t13 53.5q0 32 -13.5 53.5t-37 34.5t-56 18.5t-70.5 5.5q-24 0 -48 -1.5t-33 -3.5l20 345h358v-107h-238l-8 -130q56 -1 105 -13.5t85 -38t57 -64t21 -91.5 q0 -57 -22 -100.5t-62 -73t-96 -45t-123 -15.5z" />
<glyph unicode="6" d="M284 -12q-65 0 -111.5 24.5t-76.5 65t-44 93.5t-14 110q0 89 28 162.5t80.5 125.5t129 80.5t173.5 28.5l28 -108q-54 0 -102 -10.5t-86.5 -33.5t-65.5 -61t-38 -93q23 20 55 31t71 11q43 0 80.5 -14t65.5 -41t44 -65.5t16 -86.5q0 -50 -18 -90.5t-49 -69t-74 -44 t-92 -15.5zM286 90q45 0 67.5 32t22.5 78q0 57 -25.5 85t-69.5 28q-35 0 -59.5 -10.5t-45.5 -29.5v-7q0 -89 31 -132.5t79 -43.5z" />
<glyph unicode="7" d="M89 15l261 540h-199q0 -10 -0.5 -22t-1.5 -23t-2.5 -20.5t-2.5 -13.5h-103v190h462v-73l-297 -619z" />
<glyph unicode="8" d="M277 -12q-115 0 -177 49t-62 129q0 31 11.5 57.5t31 48.5t43.5 39t50 31q-24 14 -45 29.5t-36.5 35t-25 43t-9.5 52.5q0 39 17.5 71.5t47.5 56t70 36t86 12.5q49 0 89.5 -11t70 -32t45.5 -52.5t16 -71.5q0 -27 -10.5 -50t-28.5 -42t-40.5 -35t-46.5 -29q26 -13 51.5 -30 t45.5 -39.5t32.5 -50.5t12.5 -63q0 -44 -18 -78t-49.5 -57.5t-75.5 -36t-96 -12.5zM277 88q45 0 72.5 23.5t27.5 59.5q0 19 -9.5 36t-25 31t-36 26.5t-41.5 24.5q-16 -11 -32.5 -23t-29.5 -26t-21 -31t-8 -38q0 -38 28 -60.5t75 -22.5zM282 406q16 10 31 21t27 23t19 26 t7 29q0 32 -23 53t-61 21q-39 0 -63.5 -20.5t-24.5 -50.5q0 -17 7.5 -31.5t20 -27t28.5 -23.5t32 -20z" />
<glyph unicode="9" d="M85 90q52 0 99 11.5t84.5 36t63.5 63t37 94.5q-24 -20 -55 -31.5t-70 -11.5q-44 0 -81 14t-65 41t-43.5 65.5t-15.5 86.5q0 50 18 90.5t49 69t73 44t91 15.5q66 0 112.5 -24t76 -64.5t43 -93.5t13.5 -111q0 -90 -25.5 -164.5t-75.5 -127.5t-125.5 -82t-175.5 -29z M274 353q35 0 58.5 10.5t44.5 29.5v7q0 86 -29 131t-78 45q-45 0 -67 -32t-22 -78q0 -57 24 -85t69 -28z" />
<glyph unicode=":" horiz-adv-x="286" d="M143 -10q-37 0 -62.5 25t-25.5 62q0 36 25.5 60.5t62.5 24.5t63 -24.5t26 -60.5q0 -37 -26 -62t-63 -25zM143 322q-37 0 -62.5 25t-25.5 62q0 36 25.5 60.5t62.5 24.5t63 -24.5t26 -60.5q0 -37 -26 -62t-63 -25z" />
<glyph unicode=";" horiz-adv-x="286" d="M143 322q-37 0 -62.5 25t-25.5 62q0 36 25.5 60.5t62.5 24.5t63 -24.5t26 -60.5q0 -37 -26 -62t-63 -25zM38 -119q22 23 39 45t17 50q0 16 -5.5 27t-12.5 22t-12.5 23.5t-5.5 31.5q0 35 23.5 57t58.5 22q39 0 63 -26.5t24 -69.5q0 -31 -11.5 -62.5t-31 -60.5t-44.5 -56 t-51 -49z" />
<glyph unicode="&#x3c;" horiz-adv-x="391" d="M31 248l255 232l69 -70l-173 -157l177 -156l-71 -77z" />
<glyph unicode="=" horiz-adv-x="478" d="M39 221h400v-102h-400v102zM39 408h400v-102h-400v102z" />
<glyph unicode="&#x3e;" horiz-adv-x="391" d="M36 91l173 157l-177 156l71 76l258 -227l-256 -233z" />
<glyph unicode="?" horiz-adv-x="416" d="M181 678q52 0 91.5 -12.5t65.5 -35t39 -54.5t13 -70q0 -28 -7 -50.5t-19 -41t-28 -33.5t-34 -28q-18 -12 -34 -22t-29 -20.5t-20.5 -23t-7.5 -28.5q0 -9 2 -18.5t4 -17.5h-96q-5 11 -10 27.5t-5 35.5q0 44 20 68.5t55 47.5q32 21 52 42t20 53q0 35 -24.5 52t-68.5 17 q-27 0 -50 -6.5t-39 -14.5l-46 98q26 14 63.5 24.5t92.5 10.5zM167 -10q-37 0 -61 24.5t-24 58.5q0 33 24 57t61 24t60.5 -24t23.5 -57q0 -34 -23.5 -58.5t-60.5 -24.5z" />
<glyph unicode="@" horiz-adv-x="822" d="M397 -98q-82 0 -147 25t-110.5 70t-69.5 108t-24 138q0 74 28 144t78.5 124.5t120 87.5t153.5 33q87 0 153 -25t110.5 -68t66.5 -99t22 -117q0 -53 -14.5 -97.5t-41.5 -77t-64.5 -50.5t-82.5 -18q-54 0 -79 24t-29 62h-2q-20 -35 -53.5 -59.5t-79.5 -24.5q-48 0 -75 35 t-27 84q0 54 14.5 102t42 85t67.5 58.5t90 21.5q45 0 84 -9t65 -18l-29 -167q-4 -21 -6.5 -37.5t-2.5 -27.5q0 -20 9.5 -34.5t27.5 -14.5q20 0 37.5 11t31 31.5t21.5 48.5t8 62q0 57 -18.5 101.5t-53 75t-83.5 46.5t-110 16q-56 0 -106.5 -23t-89 -64.5t-61.5 -98 t-23 -122.5q0 -121 66.5 -191t196.5 -70q44 0 83 9t63 20l32 -72q-29 -13 -80.5 -25.5t-108.5 -12.5zM373 172q21 0 38 15t30 39.5t23 57.5t17 69l6 28q-7 3 -20.5 5.5t-26.5 2.5q-24 0 -42.5 -14t-31 -37.5t-19.5 -53.5t-7 -63q0 -20 7.5 -34.5t25.5 -14.5z" />
<glyph unicode="A" horiz-adv-x="721" d="M10 84q9 2 26 4.5t33 3.5l232 574h124l225 -574q17 -1 35 -3.5t26 -4.5v-84h-266v84q8 2 23.5 4.5t32.5 3.5l-30 85h-244l-32 -85q17 -1 33 -3.5t24 -4.5v-84h-242v84zM437 267l-47 132q-15 41 -24.5 72t-14.5 50h-2q-5 -18 -15.5 -50.5t-25.5 -71.5l-48 -132h177z" />
<glyph unicode="B" horiz-adv-x="630" d="M26 84q12 3 36 6t43 3v480q-19 0 -43 3t-36 6v84h310q46 0 88 -8t73.5 -27.5t50 -51t18.5 -78.5q0 -66 -34.5 -102.5t-88.5 -50.5v-2q30 -5 57 -17t47.5 -31.5t33 -47.5t12.5 -64q0 -51 -19.5 -86t-54 -57.5t-82 -32.5t-104.5 -10h-307v84zM245 101h82q63 0 93 22.5 t30 73.5q0 48 -28 73t-90 25h-87v-194zM245 388h73q57 0 83 23t26 68q0 87 -106 87h-76v-178z" />
<glyph unicode="C" horiz-adv-x="669" d="M388 -12q-85 0 -151 25.5t-111 71t-68.5 107.5t-23.5 134q0 75 25.5 139.5t73 111.5t114 74t148.5 27q67 0 119 -13.5t90 -37.5v-173h-103q-3 14 -6 44t-4 60q-21 8 -46 12t-51 4q-48 0 -86.5 -17.5t-66.5 -49t-43 -75.5t-15 -97q0 -56 15 -100.5t43 -76t68 -48.5t89 -17 q29 0 56.5 5.5t50.5 14.5q0 16 1 33t2.5 32.5t3 28.5t3.5 21h102v-173q-14 -13 -37.5 -25t-54.5 -21.5t-66 -15t-71 -5.5z" />
<glyph unicode="D" horiz-adv-x="721" d="M26 84q12 3 36 6t43 3v480q-19 0 -43 3t-36 6v84h281q98 0 170 -23t119 -65t69.5 -101.5t22.5 -132.5q0 -72 -23 -135t-70.5 -109.5t-120.5 -73t-172 -26.5h-276v84zM247 104h66q113 0 169.5 61.5t56.5 173.5q0 113 -56 168t-175 55h-61v-458z" />
<glyph unicode="E" horiz-adv-x="603" d="M26 84q12 3 36 6t43 3v480q-19 0 -43 3t-36 6v84h532v-188h-102q-3 11 -5.5 36t-4.5 48h-201v-176h92q2 20 4 36.5t5 27.5h86v-224h-86q-3 10 -5 26.5t-4 36.5h-92v-185h209q0 11 1 24t2.5 25t3 21t2.5 14h102v-188h-539v84z" />
<glyph unicode="F" horiz-adv-x="574" d="M26 84q12 3 36 6t43 3v480q-19 0 -43 3t-36 6v84h524v-197h-103q-2 5 -3 16t-2.5 24t-2.5 27t-1 26h-191v-194h95q2 20 4 36.5t5 26.5h85v-223h-85q-3 10 -5 26.5t-4 36.5h-95v-178q10 0 23.5 -1t26 -2t23 -3t16.5 -3v-84h-310v84z" />
<glyph unicode="G" horiz-adv-x="738" d="M388 -12q-88 0 -154.5 26.5t-110.5 72.5t-66.5 107.5t-22.5 130.5q0 76 26 140.5t74 111.5t116 74t152 27q77 0 133.5 -15t95.5 -42v-170h-103q-2 6 -3 17.5t-2.5 25t-2.5 28t-1 27.5q-55 25 -119 25q-52 0 -92.5 -18.5t-68 -50.5t-42 -75.5t-14.5 -94.5 q0 -54 14.5 -98.5t42.5 -76.5t67.5 -50t90.5 -18q37 0 67 7t47 18v114q-21 1 -46.5 4t-38.5 6v84h289v-83q-10 -3 -29 -6.5t-37 -4.5v-180q-35 -23 -99 -43t-163 -20z" />
<glyph unicode="H" horiz-adv-x="797" d="M26 84q12 3 36 6t43 3v480q-19 0 -43 3t-36 6v84h294v-84q-5 -2 -14 -3.5t-19 -3t-20.5 -2t-19.5 -0.5v-176h304v176q-18 0 -40.5 3t-32.5 6v84h292v-84q-13 -3 -36 -6t-42 -3v-480q9 0 20.5 -1t22.5 -2t20.5 -3t15.5 -3v-84h-293v84q11 3 33 6t40 3v201h-304v-201 q9 0 19.5 -1t20.5 -2t19 -3t14 -3v-84h-294v84z" />
<glyph unicode="I" horiz-adv-x="353" d="M26 84q12 3 36 6t43 3v480q-19 0 -43 3t-36 6v84h299v-84q-12 -3 -35.5 -6t-42.5 -3v-480q19 0 43.5 -3t36.5 -6v-84h-301v84z" />
<glyph unicode="J" horiz-adv-x="329" d="M45 -204q-36 0 -59.5 5t-38.5 11l20 104q6 -2 19.5 -5.5t27.5 -3.5q42 0 60.5 23.5t18.5 78.5v564q-20 0 -41 2.5t-35 6.5v84h294v-84q-12 -3 -34 -6t-42 -3v-575q0 -100 -51 -151t-139 -51z" />
<glyph unicode="K" horiz-adv-x="694" d="M402 84q8 2 21.5 4.5t29.5 4.5l-207 242v-241q19 -1 38 -4t28 -6v-84h-286v84q12 3 36 6t43 3v480q-19 0 -43 3t-36 6v84h285v-84q-8 -3 -27.5 -6t-37.5 -4v-230l198 232q-16 2 -30 4t-21 4v84h273v-84q-8 -3 -31 -5.5t-43 -3.5l-197 -217l229 -263q17 -1 36 -4t28 -5 v-84h-286v84z" />
<glyph unicode="L" horiz-adv-x="555" d="M26 84q12 3 36 6t43 3v480q-19 0 -43 3t-36 6v84h300v-84q-12 -3 -35.5 -6t-43.5 -3v-467h173q0 13 1 28.5t2.5 29.5t2.5 25.5t3 17.5h101v-207h-504v84z" />
<glyph unicode="M" horiz-adv-x="957" d="M14 84q9 3 26.5 6t37.5 4l78 480q-20 0 -41.5 3t-32.5 6v83h239l121 -393q12 -39 20 -68.5t16 -62.5h2q7 32 15.5 62.5t20.5 68.5l122 393h237v-83q-10 -3 -32 -6t-42 -3l78 -481q18 -1 36.5 -4t27.5 -5v-84h-270v84q8 2 27.5 4.5t37.5 4.5l-36 257l-5 30t-5 36.5t-4 35 t-3 25.5h-2q-2 -9 -5.5 -25.5t-8.5 -35.5t-10.5 -38.5t-10.5 -35.5l-111 -342h-142l-118 362q-10 31 -17.5 63t-12.5 54h-2q-2 -22 -5 -51t-8 -61l-36 -274q18 -1 38 -4t28 -5v-84h-248v84z" />
<glyph unicode="N" horiz-adv-x="792" d="M26 84q12 3 36 6t43 3v480q-19 0 -43 3t-36 6v84h212l267 -354q13 -18 25.5 -35.5t23 -33.5t17.5 -27.5t10 -17.5h2q-2 11 -3 42t-1 69v264q-20 0 -42.5 3t-33.5 6v84h272v-84q-12 -3 -34.5 -6t-41.5 -3v-573h-120l-286 378q-12 16 -24 33t-21.5 32t-16 26t-8.5 15h-2 q1 -9 2 -37t1 -57v-297q20 0 43 -3t36 -6v-84h-277v84z" />
<glyph unicode="O" horiz-adv-x="754" d="M380 -12q-84 0 -148.5 27t-108.5 73t-66.5 107.5t-22.5 130.5t22 132.5t65.5 112t107.5 78t148 29.5t148 -26.5t107.5 -72t65.5 -107t22 -130.5t-21.5 -132.5t-64.5 -113t-106.5 -79t-147.5 -29.5zM377 92q50 0 86.5 19t60.5 52t36 76.5t12 92.5t-11.5 93t-35 77 t-60 52.5t-85.5 19.5q-50 0 -87 -19t-61.5 -51.5t-36.5 -75.5t-12 -92t12 -93.5t36 -78t60.5 -53t85.5 -19.5z" />
<glyph unicode="P" horiz-adv-x="601" d="M26 84q12 3 36 6t43 3v480q-19 0 -43 3t-36 6v84h296q54 0 101 -12t81.5 -37.5t54 -64.5t19.5 -92q0 -57 -19.5 -99t-55 -69.5t-85.5 -41t-112 -13.5h-59v-144q19 0 44.5 -3t38.5 -6v-84h-304v84zM247 339h58q67 0 97.5 28.5t30.5 86.5q0 54 -29.5 82.5t-94.5 28.5h-62 v-226z" />
<glyph unicode="Q" horiz-adv-x="753" d="M599 -175q-39 0 -74.5 8t-70 27.5t-70 52t-73.5 82.5q-67 9 -118.5 38.5t-87 74t-53.5 100.5t-18 118q0 69 22 132.5t65.5 112t107.5 78t148 29.5t148 -26.5t107.5 -72t65.5 -107t22 -130.5q0 -59 -16 -114.5t-47.5 -101.5t-78.5 -79.5t-108 -48.5q27 -37 57.5 -54 t76.5 -17q29 0 50 9t32 18l44 -90q-16 -12 -49.5 -25.5t-81.5 -13.5zM377 92q50 0 86.5 19t60.5 52t36 76.5t12 92.5t-11.5 93t-35 77t-60 52.5t-85.5 19.5q-50 0 -87 -19t-61.5 -51.5t-36.5 -75.5t-12 -92t12 -93.5t36 -78t60.5 -53t85.5 -19.5z" />
<glyph unicode="R" horiz-adv-x="662" d="M26 84q12 3 36 6t43 3v480q-19 0 -43 3t-36 6v84h308q119 0 183 -47t64 -141q0 -39 -12.5 -69.5t-33.5 -52t-49 -35t-59 -18.5v-2q20 -11 39.5 -32.5t42.5 -58.5l47 -71q17 -26 37 -40.5t55 -14.5h9v-84q-11 -4 -30 -7t-43 -3q-27 0 -48 4t-37.5 13t-30 23.5t-26.5 36.5 l-74 123q-17 28 -30 45t-24.5 26t-23.5 12t-27 3h-16v-183q20 -1 38.5 -4t29.5 -5v-84h-289v84zM327 369q55 0 82 25.5t27 73.5q0 50 -27.5 74t-87.5 24h-74v-197h80z" />
<glyph unicode="S" horiz-adv-x="537" d="M258 -12q-39 0 -73.5 4.5t-63 11.5t-49 15.5t-31.5 17.5v163h103q2 -13 4 -41.5t3 -51.5q20 -6 45 -10t57 -4q54 0 82.5 24.5t28.5 58.5q0 22 -10.5 38.5t-28.5 29.5t-43 23t-54 20q-39 13 -72 29t-57 39.5t-37.5 56.5t-13.5 80q0 43 17 77.5t47 58.5t72 37t92 13 q78 0 130.5 -15.5t72.5 -30.5v-163h-102q-1 6 -2.5 17t-2.5 24t-1.5 26.5t-0.5 24.5q-20 6 -43 10t-50 4q-45 0 -70.5 -21t-25.5 -54q0 -20 8 -34.5t23 -26t37 -21t50 -19.5q39 -15 75.5 -31.5t64 -40.5t44 -57t16.5 -81q0 -45 -17 -82.5t-48 -63.5t-76 -40.5t-100 -14.5z " />
<glyph unicode="T" horiz-adv-x="659" d="M179 84q12 3 35.5 6t43.5 3v469h-123q0 -13 -1 -28t-2 -29t-2.5 -25.5t-2.5 -16.5h-103v203h611v-203h-103q-1 5 -2.5 16.5t-3 25.5t-2.5 29t-1 28h-124v-469q9 0 20.5 -1t22.5 -2t20.5 -3t15.5 -3v-84h-299v84z" />
<glyph unicode="U" horiz-adv-x="731" d="M370 -12q-144 0 -211.5 70t-67.5 199v316q-20 0 -39.5 3t-30.5 6v84h284v-84q-11 -3 -32 -6t-41 -3v-312q0 -85 34.5 -125t113.5 -40q75 0 108 41.5t33 115.5v320q-20 0 -41 3t-31 6v84h260v-84q-11 -3 -30 -6t-39 -3v-303q0 -137 -65 -209.5t-205 -72.5z" />
<glyph unicode="V" horiz-adv-x="691" d="M72 573q-19 1 -37.5 4t-26.5 5v84h283v-84q-9 -2 -29.5 -4.5t-40.5 -4.5l102 -306q6 -17 11.5 -34.5t10 -32.5t7.5 -26t5 -17h2q1 5 4.5 16.5t8 26.5t9.5 32t11 35l101 306q-21 2 -42 4.5t-29 4.5v84h261v-84q-8 -3 -26 -5.5t-37 -3.5l-212 -573h-122z" />
<glyph unicode="W" horiz-adv-x="988" d="M76 573q-19 2 -36.5 4.5t-25.5 4.5v84h269v-84q-8 -3 -27 -5t-39 -3l69 -265q10 -40 16 -71t10 -51h2q4 19 10.5 53t16.5 74l93 352h132l93 -350q11 -42 17.5 -76.5t9.5 -51.5h3q3 16 9.5 51t16.5 73l68 262q-19 1 -38 3.5t-27 4.5v84h256v-84q-8 -2 -26.5 -5t-37.5 -4 l-162 -573h-127l-97 371q-11 42 -18 77t-9 47h-2q-2 -11 -10.5 -47t-19.5 -77l-103 -371h-126z" />
<glyph unicode="X" horiz-adv-x="676" d="M12 84q8 2 28 5t40 4l177 244l-169 236q-19 2 -37 4.5t-26 4.5v84h268v-84q-6 -2 -19 -3.5t-27 -2.5l101 -151l96 150q-14 1 -29 3t-20 4v84h260v-84q-8 -3 -27.5 -5.5t-38.5 -3.5l-164 -226l177 -254q19 -2 36.5 -4.5t25.5 -4.5v-84h-273v84q6 2 19 3.5t28 2.5l-108 165 l-106 -164q14 -1 29 -3t21 -4v-84h-262v84z" />
<glyph unicode="Y" horiz-adv-x="660" d="M183 85q12 3 35.5 6t43.5 3v135l-190 344q-19 1 -38 4t-27 5v84h275v-84q-7 -2 -22 -4t-32 -4l50 -99q17 -35 33.5 -71.5t27.5 -60.5h1q11 24 28 60t36 72l49 99q-17 2 -32.5 4t-22.5 4v84h255v-84q-8 -3 -28 -5.5t-39 -3.5l-183 -330v-149q19 0 43.5 -3.5t36.5 -5.5v-85 h-300v85z" />
<glyph unicode="Z" horiz-adv-x="588" d="M34 92l337 470h-212q0 -13 -1 -28.5t-2 -29.5t-2.5 -26t-2.5 -17h-103v205h493v-90l-339 -472h239q0 12 1 27.5t2.5 29.5t2.5 26t3 17h102v-204h-518v92z" />
<glyph unicode="[" horiz-adv-x="341" d="M65 720h250v-94h-123v-693h123v-94h-250v881z" />
<glyph unicode="\" horiz-adv-x="433" d="M36 720h125l236 -881h-124z" />
<glyph unicode="]" horiz-adv-x="341" d="M26 -67h123v693h-123v94h250v-881h-250v94z" />
<glyph unicode="^" horiz-adv-x="573" d="M240 666h93l201 -378h-122l-125 243l-125 -243h-123z" />
<glyph unicode="_" horiz-adv-x="433" d="M-1 -81h435v-103h-435v103z" />
<glyph unicode="`" horiz-adv-x="500" d="M127 676h171l83 -135h-114z" />
<glyph unicode="a" horiz-adv-x="513" d="M172 -12q-31 0 -58 9t-47 26.5t-31.5 43t-11.5 58.5q0 47 21.5 79.5t57.5 53t83.5 29.5t98.5 9h17v34q0 35 -18 51.5t-63 16.5q-39 0 -71.5 -15t-54.5 -32l-55 78q29 27 78 48.5t118 21.5q101 0 149.5 -41.5t48.5 -138.5v-181v-26t1 -23q20 -2 37 -3t28 -1v-85 q-24 -2 -72 -4t-111 -2q-3 9 -5 26t-3 34h-2q-17 -24 -51.5 -45t-83.5 -21zM212 82q32 0 53.5 12.5t36.5 30.5v92h-17q-60 0 -96.5 -17.5t-36.5 -62.5q0 -29 18.5 -42t41.5 -13z" />
<glyph unicode="b" horiz-adv-x="554" d="M257 -12q-66 0 -114 12t-76 27v599q-22 2 -40.5 3.5t-32.5 1.5v84q26 3 82.5 5.5t128.5 2.5l-6 -80v-195h2q17 19 47.5 35t69.5 16q46 0 84 -15t65.5 -45.5t42.5 -77t15 -109.5t-20 -112t-56 -82.5t-85 -51.5t-107 -18zM262 87q57 0 90 42.5t33 117.5q0 69 -25 109.5 t-79 40.5q-26 0 -48.5 -12t-33.5 -24v-264q11 -4 26.5 -7t36.5 -3z" />
<glyph unicode="c" horiz-adv-x="475" d="M280 -12q-60 0 -107 17.5t-79.5 50t-49.5 78t-17 101.5q0 63 19.5 112t54 83t82.5 51.5t104 17.5q55 0 93 -12t55 -24v-154h-92q-1 5 -2.5 15t-2.5 22t-2 24.5t-1 24.5q-18 7 -43 7q-60 0 -92.5 -44t-32.5 -114q0 -34 8.5 -62.5t25 -49.5t40.5 -32.5t56 -11.5 q42 0 69 11.5t38 18.5l40 -86q-8 -6 -22.5 -13.5t-34.5 -14t-47 -11.5t-60 -5z" />
<glyph unicode="d" horiz-adv-x="578" d="M226 -12q-91 0 -144 64.5t-53 185.5q0 58 16.5 106t46 82.5t69.5 53.5t87 19q40 0 66 -10.5t43 -24.5h2v162q-21 2 -40 3.5t-32 1.5v84q26 3 82 5.5t128 2.5l-5 -80v-510v-22t2 -22q20 -2 38 -3t29 -1v-85q-24 -2 -73.5 -4t-110.5 -2q-2 4 -3.5 12t-3 17t-2.5 17.5 t-1 14.5h-2q-24 -29 -57.5 -48t-81.5 -19zM270 90q30 0 52.5 14.5t36.5 33.5v230q-15 14 -35 22t-48 8q-51 0 -78.5 -42t-27.5 -115q0 -69 24.5 -110t75.5 -41z" />
<glyph unicode="e" horiz-adv-x="513" d="M278 -12q-121 0 -186 66.5t-65 181.5q0 62 18 111t50.5 82.5t78 51.5t101.5 18q51 0 89.5 -16t64.5 -45.5t39 -70.5t13 -91q0 -11 -1 -29.5t-2 -30.5h-310q3 -61 36 -96.5t94 -35.5q45 0 75 11.5t48 22.5l42 -82q-12 -7 -29 -15.5t-39.5 -15.5t-51.5 -12t-65 -5zM350 301 q-1 46 -19.5 77.5t-63.5 31.5t-70 -29t-30 -80h183z" />
<glyph unicode="f" horiz-adv-x="363" d="M29 84q11 3 32.5 6t40.5 3v295h-73v99h73v50q0 88 49 141.5t142 53.5q54 0 81.5 -9t36.5 -14l-29 -96q-7 3 -24 8t-44 5q-80 0 -80 -95v-44h117v-99h-117v-295q9 0 21.5 -1l25 -2t23.5 -3t16 -3v-84h-291v84z" />
<glyph unicode="g" horiz-adv-x="534" d="M233 -239q-103 0 -158 34t-55 98q0 22 8 40t21 32.5t30 25.5t35 19v2q-20 12 -34 30t-14 47q0 32 19.5 54.5t42.5 35.5v2q-39 21 -64.5 56.5t-25.5 89.5q0 76 55.5 124t156.5 48q48 0 86 -12h177v-87h-70q21 -35 21 -73q0 -78 -54 -125.5t-154 -47.5q-14 0 -27.5 1.5 t-27.5 3.5q-9 -5 -15 -14t-6 -18q0 -21 24.5 -28.5t78.5 -9.5q38 -2 78.5 -5.5t74.5 -17t55.5 -41.5t21.5 -78q0 -41 -20 -75t-57 -59t-88.5 -38.5t-114.5 -13.5zM249 -154q61 0 97 22.5t36 56.5q0 19 -9 30t-25.5 16t-39.5 7t-50 4q-17 1 -33.5 2.5t-31.5 3.5 q-20 -13 -32 -32.5t-12 -40.5q0 -32 24.5 -50.5t75.5 -18.5zM250 237q39 0 62 23.5t23 66.5q0 42 -23 65.5t-62 23.5q-38 0 -60.5 -23.5t-22.5 -65.5q0 -43 22.5 -66.5t60.5 -23.5z" />
<glyph unicode="h" horiz-adv-x="601" d="M17 84q11 3 30.5 6t38.5 3v533q-22 2 -40.5 3.5t-32.5 1.5v84q26 3 82.5 5.5t128.5 2.5l-5 -80v-219h2q22 29 57.5 52t91.5 23q40 0 68 -12t45.5 -33t25.5 -50t8 -63v-248q17 0 37.5 -3t30.5 -6v-84h-201v318q0 37 -15.5 55.5t-50.5 18.5q-33 0 -58.5 -20t-40.5 -41v-238 q18 -1 37 -4t28 -5v-84h-267v84z" />
<glyph unicode="i" horiz-adv-x="318" d="M25 84q11 3 32.5 6t40.5 3v304q-22 2 -41 3t-32 1v84q26 3 82.5 5.5t129.5 2.5l-5 -79v-321q17 0 37.5 -3t30.5 -6v-84h-275v84zM165 554q-35 0 -58.5 24t-23.5 56t23.5 55t58.5 23t58 -23t23 -55t-23 -56t-58 -24z" />
<glyph unicode="j" horiz-adv-x="284" d="M52 -232q-37 0 -58 4.5t-29 7.5l21 99q5 -2 14.5 -4t24.5 -2q35 0 48 23t13 79v422q-22 2 -40 3t-31 1v84q26 3 81 5.5t129 2.5l-5 -79v-447q0 -91 -39 -145t-129 -54zM152 554q-35 0 -58 23.5t-23 55.5t23 55.5t58 23.5t58 -23.5t23 -55.5t-23 -55.5t-58 -23.5z" />
<glyph unicode="k" horiz-adv-x="561" d="M17 84q11 3 30.5 6t38.5 3v533q-22 2 -40.5 3.5t-32.5 1.5v84q26 3 82.5 5.5t128.5 2.5l-5 -80v-550q17 0 32.5 -2.5t26.5 -6.5v-84h-261v84zM220 249l126 150q-13 1 -26 3t-18 4v81h247v-84q-8 -3 -26.5 -5t-39.5 -4l-120 -131l135 -171q20 -2 34.5 -4t22.5 -4v-84h-152 z" />
<glyph unicode="l" horiz-adv-x="304" d="M17 84q11 3 30.5 6t38.5 3v533q-22 2 -40.5 3.5t-32.5 1.5v84q26 3 82.5 5.5t128.5 2.5l-5 -80v-550q17 0 37 -3t31 -6v-84h-270v84z" />
<glyph unicode="m" horiz-adv-x="879" d="M25 84q11 3 32.5 6t40.5 3v304q-22 2 -41 3t-32 1v84q26 3 81.5 5.5t124.5 2.5l-4 -73h2q9 12 22 26t30.5 26t40.5 19.5t52 7.5q52 0 82.5 -21.5t43.5 -58.5h2q25 32 61 56t92 24q39 0 65.5 -12t43 -33t23.5 -50t7 -63v-248q17 0 37.5 -3t30.5 -6v-84h-201v317 q0 36 -13 55t-45 19q-31 0 -54 -18t-37 -36v-244q19 -1 37 -3.5t27 -5.5v-84h-197v317q0 37 -13.5 55.5t-43.5 18.5q-15 0 -29 -6t-25.5 -15t-21 -19.5t-15.5 -19.5v-238q19 -1 37 -3.5t26 -5.5v-84h-269v84z" />
<glyph unicode="n" horiz-adv-x="613" d="M25 84q11 3 32.5 6t40.5 3v304q-22 2 -41 3t-32 1v84q26 3 81.5 5.5t124.5 2.5l-4 -73h2q24 33 61 56t92 23q40 0 68 -12t45.5 -33t25.5 -50t8 -63v-248q17 0 37.5 -3t30.5 -6v-84h-201v318q0 37 -15.5 55.5t-50.5 18.5q-33 0 -58.5 -20t-40.5 -41v-238q19 -1 37.5 -3.5 t27.5 -5.5v-84h-271v84z" />
<glyph unicode="o" horiz-adv-x="543" d="M270 -12q-64 0 -110 21.5t-75.5 56.5t-43.5 80.5t-14 93.5q0 47 14.5 93.5t44 83t75.5 59.5t109 23q64 0 110.5 -21t76.5 -56t44.5 -80.5t14.5 -94.5q0 -46 -14.5 -92.5t-45 -83.5t-77 -60t-109.5 -23zM272 86q28 0 48 11.5t32 32.5t17.5 49.5t5.5 62.5t-6 63.5t-18.5 51 t-33 33.5t-48.5 12q-29 0 -48.5 -11.5t-31.5 -32.5t-17 -49.5t-5 -62.5t5.5 -63.5t18.5 -51t32.5 -33.5t48.5 -12z" />
<glyph unicode="p" horiz-adv-x="578" d="M13 -143q11 4 32.5 7t40.5 3v530q-22 2 -40 3t-31 1v84q26 3 80.5 5.5t123.5 2.5l-4 -57h2q22 26 54 44.5t80 18.5q92 0 145 -64t53 -185q0 -59 -16.5 -107t-46 -82.5t-69.5 -53.5t-87 -19q-41 0 -66.5 11t-42.5 25h-2v-157q17 0 39.5 -3.5t32.5 -6.5v-84h-278v84z M302 90q51 0 78.5 41.5t27.5 113.5q0 71 -24.5 111t-75.5 40q-29 0 -52 -14t-37 -34v-229q32 -29 83 -29z" />
<glyph unicode="q" horiz-adv-x="551" d="M282 -142q11 3 32.5 6t40.5 3v172h-2q-19 -20 -48.5 -35.5t-68.5 -15.5q-46 0 -84 15t-65.5 45.5t-42.5 77t-15 109.5t20.5 112t56.5 83t85 51.5t106 17.5q73 0 119.5 -12t71.5 -24v-596q17 0 39.5 -3t32.5 -6v-85h-278v85zM273 90q27 0 49 12t33 25v263q-11 5 -26 8 t-37 3q-57 0 -89.5 -43t-32.5 -118q0 -69 24.5 -109.5t78.5 -40.5z" />
<glyph unicode="r" horiz-adv-x="422" d="M25 84q11 3 32.5 6t40.5 3v304q-22 2 -41 3t-32 1v84q26 3 82 5.5t125 2.5l-5 -84h2q7 15 19 31t28 29t35.5 21.5t42.5 8.5q27 0 42.5 -4t23.5 -9l-31 -115q-6 4 -19 8t-33 4q-21 0 -38.5 -8t-31 -19t-23 -23t-13.5 -20v-220q9 0 21 -1l24 -2t22 -3l15 -3v-84h-288v84z " />
<glyph unicode="s" horiz-adv-x="471" d="M223 -12q-59 0 -109 11t-74 25v132h94q0 -2 1 -10t2 -18t1.5 -19t0.5 -14q19 -5 40 -9t44 -4q41 0 63.5 13t22.5 36q0 15 -8.5 24.5t-23.5 17t-34.5 13t-40.5 11.5q-27 7 -55 17t-50.5 27.5t-36.5 44t-14 67.5q0 71 51.5 108.5t143.5 37.5q31 0 59.5 -3.5t51.5 -8.5 t40 -11t25 -11v-130h-94q-2 8 -3.5 26t-2.5 35q-17 4 -35.5 7t-37.5 3q-79 0 -79 -47q0 -14 9 -23.5t24.5 -16.5t36 -12.5t42.5 -11.5q28 -8 55.5 -18t50 -26.5t36.5 -41.5t14 -63t-15 -67.5t-43 -49.5t-66.5 -30.5t-85.5 -10.5z" />
<glyph unicode="t" horiz-adv-x="385" d="M247 -12q-86 0 -120.5 41t-34.5 111v248h-75v99h75v141h132v-141h120v-99h-120v-227q0 -36 13 -51.5t40 -15.5q22 0 38 6.5t24 11.5l30 -96q-15 -9 -45.5 -18.5t-76.5 -9.5z" />
<glyph unicode="u" horiz-adv-x="598" d="M227 -12q-40 0 -68 12t-45.5 33.5t-25.5 50.5t-8 62v251q-20 2 -35.5 3t-27.5 1v84q26 3 79 5.5t122 2.5l-5 -79v-245q0 -37 15 -55.5t50 -18.5q17 0 32 5.5t27.5 14.5t22.5 20t18 21v241q-20 2 -37 3t-30 1v84q26 3 81 5.5t124 2.5l-5 -79v-281q0 -13 0.5 -23.5 t1.5 -20.5q20 -2 37.5 -3t28.5 -1v-85q-24 -2 -72.5 -4t-113.5 -2q-3 12 -6 36t-3 40h-2q-26 -33 -62 -57.5t-93 -24.5z" />
<glyph unicode="v" d="M58 395q-36 3 -52 8v84h240v-84q-8 -2 -22.5 -4t-29.5 -4l63 -177q8 -20 16 -44t11 -42h2q3 18 11 42t16 44l63 177q-17 2 -32.5 4t-22.5 4v84h229v-84q-9 -2 -24 -4.5t-32 -4.5l-154 -394h-130z" />
<glyph unicode="w" horiz-adv-x="806" d="M64 395q-17 2 -31.5 4t-22.5 4v84h245v-84q-8 -2 -24 -4t-33 -4l37 -126q5 -23 13 -52.5t10 -52.5h3q4 22 11.5 52t14.5 54l64 217h131l61 -217q6 -22 14 -51t12 -55h3q3 26 9 54.5t11 50.5l37 126q-18 2 -34 4t-24 4v84h225v-84q-9 -2 -24 -4.5t-33 -3.5l-114 -395h-116 l-72 226q-9 28 -19.5 61.5t-13.5 52.5h-3q-2 -9 -5.5 -23t-8.5 -29.5t-10 -31.5t-9 -29l-73 -227h-114z" />
<glyph unicode="x" horiz-adv-x="538" d="M11 84q10 3 26.5 6t33.5 3l117 150l-107 151q-17 1 -36 3.5t-28 5.5v84h150l112 -164l59 80q-27 5 -40 10v74h225v-84q-11 -3 -29.5 -6t-35.5 -3l-106 -141l116 -160q17 -1 33 -3.5t27 -5.5v-84h-147l-118 174l-68 -90q14 -2 24 -5t16 -5v-74h-224v84z" />
<glyph unicode="y" d="M94 -234q-30 0 -49 3t-27 6l19 104q5 -2 16 -4t31 -2q26 0 44 6t30.5 16.5t21 26t15.5 35.5l15 42l-152 396q-36 3 -52 8v84h240v-84q-8 -2 -22.5 -4t-29.5 -4l63 -176q8 -20 16 -44.5t11 -43.5h2q4 19 12 43t16 44l62 177q-17 2 -32.5 4t-22.5 4v84h229v-84 q-9 -2 -24 -4.5t-32 -4.5l-174 -445q-17 -42 -35.5 -76t-44 -58t-61 -36.5t-85.5 -12.5z" />
<glyph unicode="z" horiz-adv-x="497" d="M31 72l266 325h-151q-1 -20 -3.5 -42t-4.5 -32h-99v164h422v-77l-264 -320h163q1 20 3.5 42t4.5 32h99v-164h-436v72z" />
<glyph unicode="{" horiz-adv-x="406" d="M259 -161q-22 0 -43 7.5t-38 23t-27.5 38.5t-10.5 55v173q0 47 -27.5 73t-86.5 27v98q114 1 114 100v163q0 32 10 55t27 38t38.5 22.5t44.5 7.5h119v-96h-62q-31 0 -40.5 -18t-9.5 -50v-149q0 -54 -26 -81t-65 -38v-2q40 -13 65.5 -41.5t25.5 -84.5v-159q0 -35 9 -50.5 t41 -15.5h62v-96h-120v0z" />
<glyph unicode="|" horiz-adv-x="286" d="M85 750h117v-1000h-117v1000z" />
<glyph unicode="}" horiz-adv-x="406" d="M26 -65h62q32 0 41.5 18t9.5 50v160q0 54 25.5 81t65.5 38v2q-41 13 -66 41.5t-25 84.5v148q0 35 -9 50.5t-41 15.5h-63v96h121q22 0 43 -7.5t38 -23t27.5 -39t10.5 -54.5v-162q0 -47 27 -73t87 -27v-98q-59 -1 -86.5 -26t-27.5 -74v-174q0 -32 -10.5 -55t-27 -38 t-38.5 -22.5t-44 -7.5h-120v96z" />
<glyph unicode="~" horiz-adv-x="585" d="M390 165q-37 0 -62.5 9t-46.5 20t-42.5 20t-51.5 9q-33 0 -54 -14t-35 -27l-60 79q10 10 25 22.5t34.5 23t43.5 18t52 7.5q34 0 57.5 -9t45 -20t44.5 -20t56 -9q29 0 53 13.5t38 27.5l60 -78q-11 -12 -26.5 -24.5t-35.5 -23t-44 -17.5t-51 -7z" />
<glyph unicode="&#xa1;" horiz-adv-x="303" d="M152 336q-37 0 -61 24t-24 57q0 34 24 58t61 24q36 0 60 -24t24 -58q0 -33 -24 -57t-60 -24zM98 264h107l25 -440h-156z" />
<glyph unicode="&#xa2;" horiz-adv-x="517" d="M227 -4q-87 18 -134 81.5t-47 157.5q0 103 50 168t131 86v110h106v-101q44 -3 75 -13.5t46 -21.5v-154h-91q-1 5 -2.5 15t-2.5 22t-2 24.5t-1 24.5q-18 7 -44 7q-60 0 -92 -44t-32 -114q0 -34 8.5 -62.5t25 -49.5t40.5 -32.5t55 -11.5q42 0 69.5 11.5t38.5 18.5l40 -86 q-14 -10 -47 -23.5t-84 -18.5v-113h-106v119z" />
<glyph unicode="&#xa3;" horiz-adv-x="585" d="M58 81q25 13 43 32.5t29 42t16 47.5t5 49q0 14 -3 34h-92v93h75q-5 23 -8 49.5t-3 55.5q0 44 16 79.5t45.5 61t72 39.5t96.5 14t100 -12.5t68 -26.5v-162h-103q-3 12 -5.5 38.5t-3.5 52.5q-12 3 -24.5 5t-26.5 2q-45 0 -71.5 -24.5t-26.5 -72.5q0 -25 3 -50.5t8 -48.5 h152v-93h-135q1 -7 1.5 -16.5t0.5 -14.5q0 -55 -20 -93.5t-41 -56.5h199q1 28 3.5 57t5.5 41h101v-203h-477v81z" />
<glyph unicode="&#xa4;" horiz-adv-x="591" d="M48 69l79 99q-18 26 -27 56.5t-9 62.5q0 33 10 64.5t30 57.5l-80 101l96 74l78 -105q17 6 36 9.5t40 3.5q38 0 69 -11l77 103l96 -74l-75 -95q23 -26 33.5 -60t10.5 -68q0 -35 -10.5 -67.5t-31.5 -59.5l72 -91l-96 -74l-72 97q-35 -11 -73 -11q-45 0 -81 15l-75 -101z M301 195q42 0 64.5 26.5t22.5 65.5q0 40 -23.5 66t-63.5 26q-39 0 -63 -26.5t-24 -65.5t23 -65.5t64 -26.5z" />
<glyph unicode="&#xa5;" horiz-adv-x="680" d="M106 338h110l-134 235q-19 1 -38 4t-27 5v84h270v-84q-7 -2 -22.5 -4t-32.5 -4l52 -99q18 -35 35.5 -71.5t27.5 -60.5h4q11 24 28.5 59.5t37.5 72.5l50 99q-17 2 -32.5 4t-22.5 4v84h251v-84q-8 -3 -28 -5.5t-39 -3.5l-135 -235h122v-67h-161l-12 -22v-39h173v-67h-173 v-49q9 0 20.5 -1t22.5 -2.5t20.5 -3t15.5 -2.5v-85h-293v85q12 3 35.5 6t43.5 3v49h-169v67h169v25l-21 36h-148v67z" />
<glyph unicode="&#xa6;" horiz-adv-x="286" d="M85 128h117v-378h-117v378zM85 750h117v-368h-117v368z" />
<glyph unicode="&#xa7;" horiz-adv-x="465" d="M193 -152q-52 0 -85.5 11.5t-50.5 22.5l41 93q12 -8 31 -17.5t48 -9.5q37 0 56 20.5t19 49.5q0 21 -16 41.5t-39.5 42t-51 45.5t-51 52t-39.5 61t-16 72q0 48 24 81.5t53 52.5q-14 21 -24 46t-10 55q0 39 14.5 69.5t39 51.5t57.5 32.5t69 11.5q57 0 89.5 -12.5 t50.5 -25.5l-48 -84q-11 8 -29 17t-48 9q-31 0 -46 -19.5t-15 -44.5q0 -22 15.5 -43.5t38.5 -44t50.5 -47.5t50.5 -53.5t38.5 -62t15.5 -73.5q0 -24 -6.5 -44t-17 -36.5t-23.5 -29.5t-26 -23q15 -20 24.5 -44.5t9.5 -51.5q0 -44 -16 -76.5t-42.5 -53.5t-61.5 -31t-73 -10z M277 191q10 10 15.5 22.5t5.5 29.5t-12 36.5t-29 39.5t-37.5 39t-36.5 35q-9 -8 -13.5 -20t-4.5 -32q0 -17 11.5 -36.5t28.5 -39.5t36.5 -39t35.5 -35z" />
<glyph unicode="&#xa8;" horiz-adv-x="500" d="M150 548q-30 0 -50 20t-20 49q0 27 20 47.5t50 20.5q32 0 52 -20.5t20 -47.5q0 -29 -20 -49t-52 -20zM349 548q-31 0 -51 20t-20 49q0 27 20 47.5t51 20.5t51 -20.5t20 -47.5q0 -29 -20 -49t-51 -20z" />
<glyph unicode="&#xa9;" horiz-adv-x="836" d="M417 -14q-77 0 -144.5 29.5t-118 80t-80 118.5t-29.5 145t29.5 145t80 118.5t118 80t144.5 29.5t145 -29.5t118.5 -80t80 -118.5t29.5 -145t-29.5 -145t-80 -118.5t-118.5 -80t-145 -29.5zM417 60q63 0 116.5 21.5t92 61t60.5 94.5t22 122q0 66 -22 121t-60.5 94.5 t-92 61.5t-116.5 22t-116 -22t-91.5 -61.5t-60.5 -94.5t-22 -121q0 -67 22 -122t60.5 -94.5t91.5 -61t116 -21.5zM424 135q-47 0 -87.5 17t-70 47t-46 71t-16.5 89t17 89t47 71t70.5 47t87.5 17q28 0 51 -5t41 -13t32 -17.5t24 -18.5v-128h-74q-2 10 -4.5 31.5t-4.5 41.5 q-11 7 -26.5 11t-35.5 4q-27 0 -48 -10.5t-36 -28t-23 -40.5t-8 -49q0 -29 9 -53.5t24.5 -42.5t37 -28t47.5 -10q38 0 62.5 16t38.5 28l50 -72q-10 -9 -24.5 -20t-34 -21t-44.5 -16.5t-56 -6.5z" />
<glyph unicode="&#xaa;" horiz-adv-x="406" d="M140 312q-47 0 -78 26.5t-31 73.5q0 36 16.5 59.5t43 37.5t60 19.5t66.5 5.5h12v18q0 23 -11 35t-43 12q-31 0 -54.5 -12t-35.5 -21l-44 62q8 7 21.5 16t31.5 16.5t41 12.5t51 5q76 0 111 -30.5t35 -99.5v-124v-18t1 -16q13 -2 24.5 -2.5t19.5 -0.5v-65q-21 -2 -57 -3.5 t-78 -1.5q-2 6 -4 18t-3 20h-1q-13 -14 -36 -28.5t-58 -14.5zM171 385q23 0 36.5 9t21.5 17v61h-11q-17 0 -33 -2t-28.5 -8t-20 -16t-7.5 -25q0 -17 11 -26.5t31 -9.5z" />
<glyph unicode="&#xab;" horiz-adv-x="543" d="M31 245l120 193h139l-119 -193l119 -192h-139zM253 245l120 193h139l-119 -193l119 -192h-139z" />
<glyph unicode="&#xac;" horiz-adv-x="624" d="M470 215h-430v103h537v-288h-107v185z" />
<glyph unicode="&#xad;" horiz-adv-x="330" d="M51 336h228v-108h-228v108z" />
<glyph unicode="&#xae;" horiz-adv-x="836" d="M417 -14q-77 0 -144.5 29.5t-118 80t-80 118.5t-29.5 145t29.5 145t80 118.5t118 80t144.5 29.5t145 -29.5t118.5 -80t80 -118.5t29.5 -145t-29.5 -145t-80 -118.5t-118.5 -80t-145 -29.5zM417 60q63 0 116.5 21.5t92 61t60.5 94.5t22 122q0 66 -22 121t-60.5 94.5 t-92 61.5t-116.5 22t-116 -22t-91.5 -61.5t-60.5 -94.5t-22 -121q0 -67 22 -122t60.5 -94.5t91.5 -61t116 -21.5zM231 212q7 2 20 4t27 3v289q-14 1 -27 3t-20 4v57h195q73 0 111.5 -33t38.5 -89q0 -50 -27.5 -76.5t-68.5 -35.5q11 -7 21 -19.5t21 -30.5l22 -33 q11 -18 23.5 -28.5t36.5 -10.5h7v-56q-7 -2 -20 -4.5t-29 -2.5q-19 0 -32 2.5t-23 9t-18 16.5t-17 25l-50 81q-14 23 -24 31t-27 8v-108q12 -1 24 -2.5t18 -3.5v-57h-182v57zM409 386q30 0 51 13.5t21 45.5q0 26 -14.5 42.5t-50.5 16.5h-45v-118h38z" />
<glyph unicode="&#xaf;" horiz-adv-x="500" d="M108 657h283v-95h-283v95z" />
<glyph unicode="&#xb0;" horiz-adv-x="348" d="M174 397q-29 0 -55 11t-45.5 30t-31 44.5t-11.5 54.5q0 30 11.5 55.5t31 44.5t45.5 30t55 11t55 -11t45.5 -30t31 -44.5t11.5 -55.5q0 -29 -11 -54.5t-30.5 -44.5t-45.5 -30t-56 -11zM174 472q27 0 44 18.5t17 46.5q0 29 -17 47.5t-44 18.5t-44.5 -18.5t-17.5 -47.5 q0 -28 17.5 -46.5t44.5 -18.5z" />
<glyph unicode="&#xb1;" horiz-adv-x="569" d="M229 212h-184v102h184v180h113v-180h182v-102h-182v-186h-113v186zM59 -49h453v-103h-453v103z" />
<glyph unicode="&#xb2;" horiz-adv-x="356" d="M38 385q29 22 57 44t49.5 43.5t35 42.5t13.5 41t-11.5 29t-28.5 9q-21 0 -40.5 -9t-34.5 -23l-49 64q23 20 56.5 33.5t81.5 13.5q69 0 102.5 -30t33.5 -75q0 -24 -11 -45.5t-28 -41t-39.5 -38t-44.5 -35.5q21 3 49 3h89v-80h-280v54z" />
<glyph unicode="&#xb3;" horiz-adv-x="335" d="M117 325q-28 0 -51 3.5t-34 8.5l19 74q10 -4 28 -7.5t35 -3.5q29 0 48.5 8.5t19.5 25.5q0 19 -23.5 28t-67.5 10v59q40 1 61.5 12t21.5 28q0 12 -10.5 19t-27.5 7q-18 0 -37 -7t-29 -13l-36 62q18 12 51.5 23t74.5 11q57 0 88.5 -21t31.5 -58q0 -17 -6.5 -30t-17 -22 t-23.5 -15.5t-26 -9.5v-1q14 -2 29 -7t28 -15t21 -24.5t8 -34.5q0 -52 -46 -81t-130 -29z" />
<glyph unicode="&#xb4;" horiz-adv-x="500" d="M228 676h172l-140 -135h-115z" />
<glyph unicode="&#xb5;" horiz-adv-x="606" d="M87 397q-20 2 -37.5 3t-30.5 1v84q26 3 81 5.5t125 2.5l-5 -79v-244q0 -32 12 -51.5t47 -19.5q37 0 64.5 19.5t41.5 37.5v241q-20 2 -37 3t-31 1v84q26 3 81.5 5.5t124.5 2.5l-5 -79v-281v-23.5t1 -20.5q20 -2 37 -3t28 -1v-85q-24 -2 -71.5 -4t-112.5 -2q-3 12 -6 36 t-4 40h-2q-10 -14 -23.5 -28t-31 -25.5t-39 -19t-46.5 -7.5q-22 0 -36 8h-2q2 -11 4.5 -36.5t2.5 -63.5v-116h-130v615z" />
<glyph unicode="&#xb6;" horiz-adv-x="669" d="M245 252q-42 0 -79.5 14.5t-65.5 41.5t-44 65t-16 85t16 85.5t43.5 65.5t65 42t80.5 15h385v-104h-75v-739h-116v739h-77v-739h-117v429z" />
<glyph unicode="&#xb7;" horiz-adv-x="286" d="M143 204q-37 0 -62.5 25t-25.5 61t25.5 60.5t62.5 24.5t63 -24.5t26 -60.5t-26 -61t-63 -25z" />
<glyph unicode="&#xb8;" horiz-adv-x="500" d="M229 -230q-32 0 -52 5t-30 10l17 60q8 -4 21 -7.5t30 -3.5q22 0 35 8.5t13 25.5q0 23 -18.5 30.5t-41.5 7.5h-11l36 97h76l-21 -58q31 -7 51 -28t20 -54q0 -42 -34.5 -67.5t-90.5 -25.5z" />
<glyph unicode="&#xb9;" horiz-adv-x="325" d="M36 395q12 4 36 5.5t46 2.5v176l-67 -17l-22 79l115 25h77v-262q20 -1 43 -3t37 -6v-64h-265v64z" />
<glyph unicode="&#xba;" horiz-adv-x="418" d="M208 312q-45 0 -78.5 15t-55.5 40.5t-33 58.5t-11 68t10.5 68.5t32.5 59t55.5 41t79.5 15.5q45 0 78.5 -15t56 -40t34 -58t11.5 -68t-11 -68.5t-33.5 -59.5t-56 -41.5t-79.5 -15.5zM210 387q38 0 52.5 29.5t14.5 77.5t-16.5 79t-54.5 31t-51.5 -29.5t-13.5 -77.5 t15.5 -79t53.5 -31z" />
<glyph unicode="&#xbb;" horiz-adv-x="543" d="M150 246l-119 192h139l120 -192l-120 -193h-139zM372 246l-119 192h139l120 -192l-120 -193h-139z" />
<glyph unicode="&#xbc;" horiz-adv-x="791" d="M36 395q12 4 36 5.5t46 2.5v176l-67 -17l-22 79l115 25h77v-262q20 -1 43 -3t37 -6v-64h-265v64zM550 666h106l-409 -666h-105zM616 62h-169v59l176 214h95v-199h53v-74h-53v-62h-102v62zM541 134q7 1 18.5 1.5t24.5 0.5h35v93h-1z" />
<glyph unicode="&#xbd;" horiz-adv-x="817" d="M36 395q12 4 36 5.5t46 2.5v176l-67 -17l-22 79l115 25h77v-262q20 -1 43 -3t37 -6v-64h-265v64zM556 666h106l-409 -666h-106zM499 54q29 22 57 44t49.5 43.5t35 42t13.5 41.5q0 19 -11.5 28.5t-28.5 9.5q-21 0 -40.5 -9.5t-35.5 -23.5l-48 64q23 20 56.5 33.5 t81.5 13.5q68 0 102 -29.5t34 -75.5q0 -23 -11 -44.5t-28 -41t-39.5 -38t-44.5 -35.5q10 2 22.5 2h25.5h90v-79h-280v54z" />
<glyph unicode="&#xbe;" horiz-adv-x="793" d="M117 325q-28 0 -51 3.5t-34 8.5l19 74q10 -4 28 -7.5t35 -3.5q29 0 48.5 8.5t19.5 25.5q0 19 -23.5 28t-67.5 10v59q40 1 61.5 12t21.5 28q0 12 -10.5 19t-27.5 7q-18 0 -37 -7t-29 -13l-36 62q18 12 51.5 23t74.5 11q57 0 88.5 -21t31.5 -58q0 -17 -6.5 -30t-17 -22 t-23.5 -15.5t-26 -9.5v-1q14 -2 29 -7t28 -15t21 -24.5t8 -34.5q0 -52 -46 -81t-130 -29zM553 666h105l-408 -666h-106zM619 62h-170v59l176 214h96v-199h53v-74h-53v-62h-102v62zM544 134q7 1 18 1.5t25 0.5h35v93h-1z" />
<glyph unicode="&#xbf;" horiz-adv-x="416" d="M249 336q-37 0 -60.5 24t-23.5 57q0 34 23.5 58t60.5 24t61 -24t24 -58q0 -33 -24 -57t-61 -24zM235 -188q-105 0 -156.5 47.5t-51.5 124.5q0 56 26 91.5t61 60.5q18 13 34 23t29 20.5t20.5 22t7.5 28.5q0 9 -1.5 19t-3.5 18h95q5 -11 10 -28t5 -35q0 -44 -20 -69 t-55 -48q-32 -21 -52 -41.5t-20 -52.5q0 -35 24.5 -52.5t68.5 -17.5q27 0 50 6.5t39 14.5l46 -98q-26 -14 -63.5 -24t-92.5 -10z" />
<glyph unicode="&#xc0;" horiz-adv-x="721" d="M10 84q9 2 26 4.5t33 3.5l232 574h124l225 -574q17 -1 35 -3.5t26 -4.5v-84h-266v84q8 2 23.5 4.5t32.5 3.5l-30 85h-244l-32 -85q17 -1 33 -3.5t24 -4.5v-84h-242v84zM437 267l-47 132q-15 41 -24.5 72t-14.5 50h-2q-5 -18 -15.5 -50.5t-25.5 -71.5l-48 -132h177z M167 852h171l83 -135h-114z" />
<glyph unicode="&#xc1;" horiz-adv-x="721" d="M10 84q9 2 26 4.5t33 3.5l232 574h124l225 -574q17 -1 35 -3.5t26 -4.5v-84h-266v84q8 2 23.5 4.5t32.5 3.5l-30 85h-244l-32 -85q17 -1 33 -3.5t24 -4.5v-84h-242v84zM437 267l-47 132q-15 41 -24.5 72t-14.5 50h-2q-5 -18 -15.5 -50.5t-25.5 -71.5l-48 -132h177z M370 852h172l-140 -135h-115z" />
<glyph unicode="&#xc2;" horiz-adv-x="721" d="M10 84q9 2 26 4.5t33 3.5l232 574h124l225 -574q17 -1 35 -3.5t26 -4.5v-84h-266v84q8 2 23.5 4.5t32.5 3.5l-30 85h-244l-32 -85q17 -1 33 -3.5t24 -4.5v-84h-242v84zM437 267l-47 132q-15 41 -24.5 72t-14.5 50h-2q-5 -18 -15.5 -50.5t-25.5 -71.5l-48 -132h177z M303 877h102l125 -159h-113l-64 66l-64 -66h-113z" />
<glyph unicode="&#xc3;" horiz-adv-x="721" d="M10 84q9 2 26 4.5t33 3.5l232 574h124l225 -574q17 -1 35 -3.5t26 -4.5v-84h-266v84q8 2 23.5 4.5t32.5 3.5l-30 85h-244l-32 -85q17 -1 33 -3.5t24 -4.5v-84h-242v84zM437 267l-47 132q-15 41 -24.5 72t-14.5 50h-2q-5 -18 -15.5 -50.5t-25.5 -71.5l-48 -132h177z M412 722q-23 0 -38 5.5t-28 12t-25 12t-27 5.5q-18 0 -32 -11t-22 -19l-61 53q7 12 18 25.5t25.5 24.5t32 18t37.5 7q23 0 38.5 -5.5t28 -12t24.5 -12t27 -5.5q21 0 35 11.5t21 19.5l61 -53q-8 -13 -19 -26.5t-25.5 -24.5t-32 -18t-38.5 -7z" />
<glyph unicode="&#xc4;" horiz-adv-x="721" d="M10 84q9 2 26 4.5t33 3.5l232 574h124l225 -574q17 -1 35 -3.5t26 -4.5v-84h-266v84q8 2 23.5 4.5t32.5 3.5l-30 85h-244l-32 -85q17 -1 33 -3.5t24 -4.5v-84h-242v84zM437 267l-47 132q-15 41 -24.5 72t-14.5 50h-2q-5 -18 -15.5 -50.5t-25.5 -71.5l-48 -132h177z M253 724q-30 0 -50 20t-20 49q0 27 20 47.5t50 20.5q32 0 52 -20.5t20 -47.5q0 -29 -20 -49t-52 -20zM452 724q-31 0 -51 20t-20 49q0 27 20 47.5t51 20.5t51 -20.5t20 -47.5q0 -29 -20 -49t-51 -20z" />
<glyph unicode="&#xc5;" horiz-adv-x="721" d="M10 84q9 2 26 4.5t33 3.5l232 574h124l225 -574q17 -1 35 -3.5t26 -4.5v-84h-266v84q8 2 23.5 4.5t32.5 3.5l-30 85h-244l-32 -85q17 -1 33 -3.5t24 -4.5v-84h-242v84zM437 267l-47 132q-15 41 -24.5 72t-14.5 50h-2q-5 -18 -15.5 -50.5t-25.5 -71.5l-48 -132h177z M353 711q-21 0 -41 8t-35.5 22.5t-24.5 34t-9 42.5q0 22 9 41.5t24.5 34t35.5 22.5t41 8t41 -8t35.5 -22.5t24.5 -34t9 -41.5q0 -23 -9 -42.5t-24.5 -34t-35.5 -22.5t-41 -8zM353 767q22 0 34 15.5t12 35.5t-12 35t-34 15t-34 -15t-12 -35t12 -35.5t34 -15.5z" />
<glyph unicode="&#xc6;" horiz-adv-x="907" d="M4 84q8 2 21 4.5t30 3.5l263 481q-9 0 -20.5 1t-22.5 2t-20.5 2.5t-14.5 3.5v84h623v-188h-103q-2 11 -5 36t-4 48h-175v-175h86q2 21 4.5 38.5t4.5 28.5h90v-230h-90q-2 11 -4.5 28t-4.5 38h-86v-186h183q0 11 1 24t2 25t2.5 21t2.5 14h103v-188h-513v84q13 3 36.5 6 t42.5 3v96h-189l-51 -98q15 -1 31 -3t23 -4v-84h-246v84zM436 292v267h-2q-9 -20 -21.5 -44.5t-25.5 -49.5t-24.5 -47.5t-20.5 -39.5l-44 -86h138z" />
<glyph unicode="&#xc7;" horiz-adv-x="665" d="M388 -12q-85 0 -151 25.5t-111 71t-68.5 107.5t-23.5 134q0 75 25.5 139.5t73 111.5t114 74t148.5 27q67 0 119 -13.5t90 -37.5v-173h-103q-3 14 -6 44t-4 60q-21 8 -46 12t-51 4q-48 0 -86.5 -17.5t-66.5 -49t-43 -75.5t-15 -97q0 -56 15 -100.5t43 -76t68 -48.5t89 -17 q29 0 56.5 5.5t50.5 14.5q0 16 1 33t2.5 32.5t3 28.5t3.5 21h102v-173q-14 -13 -37.5 -25t-54.5 -21.5t-66 -15t-71 -5.5zM346 -230q-32 0 -52 5t-30 10l17 60q8 -4 21 -7.5t30 -3.5q22 0 35 8.5t13 25.5q0 23 -18.5 30.5t-41.5 7.5h-11l36 97h76l-21 -58q31 -7 51 -28 t20 -54q0 -42 -34.5 -67.5t-90.5 -25.5z" />
<glyph unicode="&#xc8;" horiz-adv-x="603" d="M26 84q12 3 36 6t43 3v480q-19 0 -43 3t-36 6v84h532v-188h-102q-3 11 -5.5 36t-4.5 48h-201v-176h92q2 20 4 36.5t5 27.5h86v-224h-86q-3 10 -5 26.5t-4 36.5h-92v-185h209q0 11 1 24t2.5 25t3 21t2.5 14h102v-188h-539v84zM112 852h171l83 -135h-114z" />
<glyph unicode="&#xc9;" horiz-adv-x="603" d="M314 852h172l-140 -135h-115zM26 84q12 3 36 6t43 3v480q-19 0 -43 3t-36 6v84h532v-188h-102q-3 11 -5.5 36t-4.5 48h-201v-176h92q2 20 4 36.5t5 27.5h86v-224h-86q-3 10 -5 26.5t-4 36.5h-92v-185h209q0 11 1 24t2.5 25t3 21t2.5 14h102v-188h-539v84z" />
<glyph unicode="&#xca;" horiz-adv-x="603" d="M247 877h102l125 -159h-113l-64 66l-64 -66h-113zM26 84q12 3 36 6t43 3v480q-19 0 -43 3t-36 6v84h532v-188h-102q-3 11 -5.5 36t-4.5 48h-201v-176h92q2 20 4 36.5t5 27.5h86v-224h-86q-3 10 -5 26.5t-4 36.5h-92v-185h209q0 11 1 24t2.5 25t3 21t2.5 14h102v-188h-539 v84z" />
<glyph unicode="&#xcb;" horiz-adv-x="603" d="M197 724q-30 0 -50 20t-20 49q0 27 20 47.5t50 20.5q32 0 52 -20.5t20 -47.5q0 -29 -20 -49t-52 -20zM396 724q-31 0 -51 20t-20 49q0 27 20 47.5t51 20.5t51 -20.5t20 -47.5q0 -29 -20 -49t-51 -20zM26 84q12 3 36 6t43 3v480q-19 0 -43 3t-36 6v84h532v-188h-102 q-3 11 -5.5 36t-4.5 48h-201v-176h92q2 20 4 36.5t5 27.5h86v-224h-86q-3 10 -5 26.5t-4 36.5h-92v-185h209q0 11 1 24t2.5 25t3 21t2.5 14h102v-188h-539v84z" />
<glyph unicode="&#xcc;" horiz-adv-x="353" d="M26 84q12 3 36 6t43 3v480q-19 0 -43 3t-36 6v84h299v-84q-12 -3 -35.5 -6t-42.5 -3v-480q19 0 43.5 -3t36.5 -6v-84h-301v84zM-9 852h171l83 -135h-114z" />
<glyph unicode="&#xcd;" horiz-adv-x="353" d="M26 84q12 3 36 6t43 3v480q-19 0 -43 3t-36 6v84h299v-84q-12 -3 -35.5 -6t-42.5 -3v-480q19 0 43.5 -3t36.5 -6v-84h-301v84zM195 852h172l-140 -135h-115z" />
<glyph unicode="&#xce;" horiz-adv-x="353" d="M26 84q12 3 36 6t43 3v480q-19 0 -43 3t-36 6v84h299v-84q-12 -3 -35.5 -6t-42.5 -3v-480q19 0 43.5 -3t36.5 -6v-84h-301v84zM128 877h102l125 -159h-113l-64 66l-64 -66h-113z" />
<glyph unicode="&#xcf;" horiz-adv-x="353" d="M26 84q12 3 36 6t43 3v480q-19 0 -43 3t-36 6v84h299v-84q-12 -3 -35.5 -6t-42.5 -3v-480q19 0 43.5 -3t36.5 -6v-84h-301v84zM78 724q-30 0 -50 20t-20 49q0 27 20 47.5t50 20.5q32 0 52 -20.5t20 -47.5q0 -29 -20 -49t-52 -20zM277 724q-31 0 -51 20t-20 49 q0 27 20 47.5t51 20.5t51 -20.5t20 -47.5q0 -29 -20 -49t-51 -20z" />
<glyph unicode="&#xd0;" horiz-adv-x="731" d="M50 388h65v185q-19 0 -43 3t-36 6v84h281q98 0 170 -23t119 -65t69.5 -101.5t22.5 -132.5q0 -72 -23 -135t-70.5 -109.5t-120.5 -73t-172 -26.5h-276v84q12 3 36 6t43 3v196h-65v99zM257 388h104v-99h-104v-185h66q113 0 169.5 61.5t56.5 173.5q0 113 -56 168t-175 55 h-61v-174z" />
<glyph unicode="&#xd1;" horiz-adv-x="792" d="M26 84q12 3 36 6t43 3v480q-19 0 -43 3t-36 6v84h212l267 -354q13 -18 25.5 -35.5t23 -33.5t17.5 -27.5t10 -17.5h2q-2 11 -3 42t-1 69v264q-20 0 -42.5 3t-33.5 6v84h272v-84q-12 -3 -34.5 -6t-41.5 -3v-573h-120l-286 378q-12 16 -24 33t-21.5 32t-16 26t-8.5 15h-2 q1 -9 2 -37t1 -57v-297q20 0 43 -3t36 -6v-84h-277v84zM460 722q-23 0 -38 5.5t-28 12t-25 12t-27 5.5q-18 0 -32 -11t-22 -19l-61 53q7 12 18 25.5t25.5 24.5t32 18t37.5 7q23 0 38.5 -5.5t28 -12t24.5 -12t27 -5.5q21 0 35 11.5t21 19.5l61 -53q-8 -13 -19 -26.5 t-25.5 -24.5t-32 -18t-38.5 -7z" />
<glyph unicode="&#xd2;" horiz-adv-x="754" d="M380 -12q-84 0 -148.5 27t-108.5 73t-66.5 107.5t-22.5 130.5t22 132.5t65.5 112t107.5 78t148 29.5t148 -26.5t107.5 -72t65.5 -107t22 -130.5t-21.5 -132.5t-64.5 -113t-106.5 -79t-147.5 -29.5zM377 92q50 0 86.5 19t60.5 52t36 76.5t12 92.5t-11.5 93t-35 77 t-60 52.5t-85.5 19.5q-50 0 -87 -19t-61.5 -51.5t-36.5 -75.5t-12 -92t12 -93.5t36 -78t60.5 -53t85.5 -19.5zM190 852h171l83 -135h-114z" />
<glyph unicode="&#xd3;" horiz-adv-x="754" d="M393 852h172l-140 -135h-115zM380 -12q-84 0 -148.5 27t-108.5 73t-66.5 107.5t-22.5 130.5t22 132.5t65.5 112t107.5 78t148 29.5t148 -26.5t107.5 -72t65.5 -107t22 -130.5t-21.5 -132.5t-64.5 -113t-106.5 -79t-147.5 -29.5zM377 92q50 0 86.5 19t60.5 52t36 76.5 t12 92.5t-11.5 93t-35 77t-60 52.5t-85.5 19.5q-50 0 -87 -19t-61.5 -51.5t-36.5 -75.5t-12 -92t12 -93.5t36 -78t60.5 -53t85.5 -19.5z" />
<glyph unicode="&#xd4;" horiz-adv-x="754" d="M326 877h102l125 -159h-113l-64 66l-64 -66h-113zM380 -12q-84 0 -148.5 27t-108.5 73t-66.5 107.5t-22.5 130.5t22 132.5t65.5 112t107.5 78t148 29.5t148 -26.5t107.5 -72t65.5 -107t22 -130.5t-21.5 -132.5t-64.5 -113t-106.5 -79t-147.5 -29.5zM377 92q50 0 86.5 19 t60.5 52t36 76.5t12 92.5t-11.5 93t-35 77t-60 52.5t-85.5 19.5q-50 0 -87 -19t-61.5 -51.5t-36.5 -75.5t-12 -92t12 -93.5t36 -78t60.5 -53t85.5 -19.5z" />
<glyph unicode="&#xd5;" horiz-adv-x="754" d="M380 -12q-84 0 -148.5 27t-108.5 73t-66.5 107.5t-22.5 130.5t22 132.5t65.5 112t107.5 78t148 29.5t148 -26.5t107.5 -72t65.5 -107t22 -130.5t-21.5 -132.5t-64.5 -113t-106.5 -79t-147.5 -29.5zM377 92q50 0 86.5 19t60.5 52t36 76.5t12 92.5t-11.5 93t-35 77 t-60 52.5t-85.5 19.5q-50 0 -87 -19t-61.5 -51.5t-36.5 -75.5t-12 -92t12 -93.5t36 -78t60.5 -53t85.5 -19.5zM435 722q-23 0 -38 5.5t-28 12t-25 12t-27 5.5q-18 0 -32 -11t-22 -19l-61 53q7 12 18 25.5t25.5 24.5t32 18t37.5 7q23 0 38.5 -5.5t28 -12t24.5 -12t27 -5.5 q21 0 35 11.5t21 19.5l61 -53q-8 -13 -19 -26.5t-25.5 -24.5t-32 -18t-38.5 -7z" />
<glyph unicode="&#xd6;" horiz-adv-x="754" d="M276 724q-30 0 -50 20t-20 49q0 27 20 47.5t50 20.5q32 0 52 -20.5t20 -47.5q0 -29 -20 -49t-52 -20zM475 724q-31 0 -51 20t-20 49q0 27 20 47.5t51 20.5t51 -20.5t20 -47.5q0 -29 -20 -49t-51 -20zM380 -12q-84 0 -148.5 27t-108.5 73t-66.5 107.5t-22.5 130.5 t22 132.5t65.5 112t107.5 78t148 29.5t148 -26.5t107.5 -72t65.5 -107t22 -130.5t-21.5 -132.5t-64.5 -113t-106.5 -79t-147.5 -29.5zM377 92q50 0 86.5 19t60.5 52t36 76.5t12 92.5t-11.5 93t-35 77t-60 52.5t-85.5 19.5q-50 0 -87 -19t-61.5 -51.5t-36.5 -75.5t-12 -92 t12 -93.5t36 -78t60.5 -53t85.5 -19.5z" />
<glyph unicode="&#xd7;" horiz-adv-x="511" d="M253 188l-120 -119l-77 76l120 120l-121 121l78 78l122 -120l118 119l77 -77l-119 -119l125 -125l-79 -78z" />
<glyph unicode="&#xd8;" horiz-adv-x="754" d="M79 -19l63 89q-54 47 -81 113t-27 143q0 69 22 132.5t65.5 112t107.5 78t148 29.5q50 0 92.5 -10t77.5 -29l63 89l71 -50l-61 -86q49 -47 74.5 -111t25.5 -139q0 -69 -21.5 -132.5t-64.5 -113t-106.5 -79t-147.5 -29.5q-94 0 -165 34l-65 -92zM183 336q0 -44 10.5 -82.5 t32.5 -68.5l253 360q-20 14 -45 21.5t-54 7.5q-50 0 -87 -19t-61.5 -51.5t-36.5 -75.5t-12 -92zM377 92q50 0 86.5 19t60.5 52t36 76.5t12 92.5q0 41 -9 78t-26 66l-254 -360q20 -11 43.5 -17.5t50.5 -6.5z" />
<glyph unicode="&#xd9;" horiz-adv-x="731" d="M370 -12q-144 0 -211.5 70t-67.5 199v316q-20 0 -39.5 3t-30.5 6v84h284v-84q-11 -3 -32 -6t-41 -3v-312q0 -85 34.5 -125t113.5 -40q75 0 108 41.5t33 115.5v320q-20 0 -41 3t-31 6v84h260v-84q-11 -3 -30 -6t-39 -3v-303q0 -137 -65 -209.5t-205 -72.5zM185 852h171 l83 -135h-114z" />
<glyph unicode="&#xda;" horiz-adv-x="731" d="M389 852h172l-140 -135h-115zM370 -12q-144 0 -211.5 70t-67.5 199v316q-20 0 -39.5 3t-30.5 6v84h284v-84q-11 -3 -32 -6t-41 -3v-312q0 -85 34.5 -125t113.5 -40q75 0 108 41.5t33 115.5v320q-20 0 -41 3t-31 6v84h260v-84q-11 -3 -30 -6t-39 -3v-303 q0 -137 -65 -209.5t-205 -72.5z" />
<glyph unicode="&#xdb;" horiz-adv-x="731" d="M322 877h102l125 -159h-113l-64 66l-64 -66h-113zM370 -12q-144 0 -211.5 70t-67.5 199v316q-20 0 -39.5 3t-30.5 6v84h284v-84q-11 -3 -32 -6t-41 -3v-312q0 -85 34.5 -125t113.5 -40q75 0 108 41.5t33 115.5v320q-20 0 -41 3t-31 6v84h260v-84q-11 -3 -30 -6t-39 -3 v-303q0 -137 -65 -209.5t-205 -72.5z" />
<glyph unicode="&#xdc;" horiz-adv-x="731" d="M272 724q-30 0 -50 20t-20 49q0 27 20 47.5t50 20.5q32 0 52 -20.5t20 -47.5q0 -29 -20 -49t-52 -20zM471 724q-31 0 -51 20t-20 49q0 27 20 47.5t51 20.5t51 -20.5t20 -47.5q0 -29 -20 -49t-51 -20zM370 -12q-144 0 -211.5 70t-67.5 199v316q-20 0 -39.5 3t-30.5 6v84 h284v-84q-11 -3 -32 -6t-41 -3v-312q0 -85 34.5 -125t113.5 -40q75 0 108 41.5t33 115.5v320q-20 0 -41 3t-31 6v84h260v-84q-11 -3 -30 -6t-39 -3v-303q0 -137 -65 -209.5t-205 -72.5z" />
<glyph unicode="&#xdd;" horiz-adv-x="660" d="M183 85q12 3 35.5 6t43.5 3v135l-190 344q-19 1 -38 4t-27 5v84h275v-84q-7 -2 -22 -4t-32 -4l50 -99q17 -35 33.5 -71.5t27.5 -60.5h1q11 24 28 60t36 72l49 99q-17 2 -32.5 4t-22.5 4v84h255v-84q-8 -3 -28 -5.5t-39 -3.5l-183 -330v-149q19 0 43.5 -3.5t36.5 -5.5v-85 h-300v85zM350 852h172l-140 -135h-115z" />
<glyph unicode="&#xde;" horiz-adv-x="604" d="M26 84q12 3 36 6t43 3v480q-19 0 -43 3t-36 6v84h221v-92h77q54 0 101 -11.5t81 -36t53.5 -62.5t19.5 -91t-19 -92.5t-54.5 -65.5t-85.5 -39t-112 -13h-61v-70q19 0 44.5 -3t38.5 -6v-84h-304v84zM247 265h63q67 0 97 26t30 79q0 49 -29 75t-95 26h-66v-206z" />
<glyph unicode="&#xdf;" horiz-adv-x="626" d="M426 -12q-57 0 -89.5 10.5t-51.5 21.5l36 92q14 -8 38.5 -18t53.5 -10q31 0 49 13.5t18 39.5q0 15 -8.5 27t-22 22.5t-30.5 19.5t-33 18t-31.5 19.5t-28 25t-20.5 33.5t-8 44q0 37 20.5 63t49.5 49q21 17 36.5 38.5t15.5 53.5q0 39 -21 62t-65 23q-47 0 -73 -31t-26 -101 v-503h-206v84q11 3 32.5 6t40.5 3v295h-73v99h73v10q0 62 18.5 106.5t51 73t75.5 42t92 13.5q104 0 160 -46.5t56 -119.5q0 -31 -9 -54t-22.5 -40.5t-30 -30t-31.5 -23.5q-22 -15 -34 -26t-12 -28q0 -20 16.5 -33t45.5 -29q20 -11 42.5 -24.5t41 -32t31 -43t12.5 -58.5 q0 -71 -47 -113.5t-132 -42.5z" />
<glyph unicode="&#xe0;" horiz-adv-x="513" d="M172 -12q-31 0 -58 9t-47 26.5t-31.5 43t-11.5 58.5q0 47 21.5 79.5t57.5 53t83.5 29.5t98.5 9h17v34q0 35 -18 51.5t-63 16.5q-39 0 -71.5 -15t-54.5 -32l-55 78q29 27 78 48.5t118 21.5q101 0 149.5 -41.5t48.5 -138.5v-181v-26t1 -23q20 -2 37 -3t28 -1v-85 q-24 -2 -72 -4t-111 -2q-3 9 -5 26t-3 34h-2q-17 -24 -51.5 -45t-83.5 -21zM212 82q32 0 53.5 12.5t36.5 30.5v92h-17q-60 0 -96.5 -17.5t-36.5 -62.5q0 -29 18.5 -42t41.5 -13zM55 676h171l83 -135h-114z" />
<glyph unicode="&#xe1;" horiz-adv-x="513" d="M172 -12q-31 0 -58 9t-47 26.5t-31.5 43t-11.5 58.5q0 47 21.5 79.5t57.5 53t83.5 29.5t98.5 9h17v34q0 35 -18 51.5t-63 16.5q-39 0 -71.5 -15t-54.5 -32l-55 78q29 27 78 48.5t118 21.5q101 0 149.5 -41.5t48.5 -138.5v-181v-26t1 -23q20 -2 37 -3t28 -1v-85 q-24 -2 -72 -4t-111 -2q-3 9 -5 26t-3 34h-2q-17 -24 -51.5 -45t-83.5 -21zM212 82q32 0 53.5 12.5t36.5 30.5v92h-17q-60 0 -96.5 -17.5t-36.5 -62.5q0 -29 18.5 -42t41.5 -13zM257 676h172l-140 -135h-115z" />
<glyph unicode="&#xe2;" horiz-adv-x="513" d="M172 -12q-31 0 -58 9t-47 26.5t-31.5 43t-11.5 58.5q0 47 21.5 79.5t57.5 53t83.5 29.5t98.5 9h17v34q0 35 -18 51.5t-63 16.5q-39 0 -71.5 -15t-54.5 -32l-55 78q29 27 78 48.5t118 21.5q101 0 149.5 -41.5t48.5 -138.5v-181v-26t1 -23q20 -2 37 -3t28 -1v-85 q-24 -2 -72 -4t-111 -2q-3 9 -5 26t-3 34h-2q-17 -24 -51.5 -45t-83.5 -21zM212 82q32 0 53.5 12.5t36.5 30.5v92h-17q-60 0 -96.5 -17.5t-36.5 -62.5q0 -29 18.5 -42t41.5 -13zM192 701h102l125 -159h-113l-64 66l-64 -66h-113z" />
<glyph unicode="&#xe3;" horiz-adv-x="513" d="M172 -12q-31 0 -58 9t-47 26.5t-31.5 43t-11.5 58.5q0 47 21.5 79.5t57.5 53t83.5 29.5t98.5 9h17v34q0 35 -18 51.5t-63 16.5q-39 0 -71.5 -15t-54.5 -32l-55 78q29 27 78 48.5t118 21.5q101 0 149.5 -41.5t48.5 -138.5v-181v-26t1 -23q20 -2 37 -3t28 -1v-85 q-24 -2 -72 -4t-111 -2q-3 9 -5 26t-3 34h-2q-17 -24 -51.5 -45t-83.5 -21zM212 82q32 0 53.5 12.5t36.5 30.5v92h-17q-60 0 -96.5 -17.5t-36.5 -62.5q0 -29 18.5 -42t41.5 -13zM301 546q-23 0 -38 5.5t-28 12t-25 12t-27 5.5q-18 0 -32 -11t-22 -19l-61 53q7 12 18 25.5 t25.5 24.5t32 18t37.5 7q23 0 38.5 -5.5t28 -12t24.5 -12t27 -5.5q21 0 35 11.5t21 19.5l61 -53q-8 -13 -19 -26.5t-25.5 -24.5t-32 -18t-38.5 -7z" />
<glyph unicode="&#xe4;" horiz-adv-x="513" d="M172 -12q-31 0 -58 9t-47 26.5t-31.5 43t-11.5 58.5q0 47 21.5 79.5t57.5 53t83.5 29.5t98.5 9h17v34q0 35 -18 51.5t-63 16.5q-39 0 -71.5 -15t-54.5 -32l-55 78q29 27 78 48.5t118 21.5q101 0 149.5 -41.5t48.5 -138.5v-181v-26t1 -23q20 -2 37 -3t28 -1v-85 q-24 -2 -72 -4t-111 -2q-3 9 -5 26t-3 34h-2q-17 -24 -51.5 -45t-83.5 -21zM212 82q32 0 53.5 12.5t36.5 30.5v92h-17q-60 0 -96.5 -17.5t-36.5 -62.5q0 -29 18.5 -42t41.5 -13zM142 548q-30 0 -50 20t-20 49q0 27 20 47.5t50 20.5q32 0 52 -20.5t20 -47.5q0 -29 -20 -49 t-52 -20zM341 548q-31 0 -51 20t-20 49q0 27 20 47.5t51 20.5t51 -20.5t20 -47.5q0 -29 -20 -49t-51 -20z" />
<glyph unicode="&#xe5;" horiz-adv-x="513" d="M172 -12q-31 0 -58 9t-47 26.5t-31.5 43t-11.5 58.5q0 47 21.5 79.5t57.5 53t83.5 29.5t98.5 9h17v34q0 35 -18 51.5t-63 16.5q-39 0 -71.5 -15t-54.5 -32l-55 78q29 27 78 48.5t118 21.5q101 0 149.5 -41.5t48.5 -138.5v-181v-26t1 -23q20 -2 37 -3t28 -1v-85 q-24 -2 -72 -4t-111 -2q-3 9 -5 26t-3 34h-2q-17 -24 -51.5 -45t-83.5 -21zM212 82q32 0 53.5 12.5t36.5 30.5v92h-17q-60 0 -96.5 -17.5t-36.5 -62.5q0 -29 18.5 -42t41.5 -13zM242 535q-21 0 -41 8t-35.5 22.5t-24.5 34t-9 42.5q0 22 9 41.5t24.5 34t35.5 22.5t41 8t41 -8 t35.5 -22.5t24.5 -34t9 -41.5q0 -23 -9 -42.5t-24.5 -34t-35.5 -22.5t-41 -8zM242 591q22 0 34 15.5t12 35.5t-12 35t-34 15t-34 -15t-12 -35t12 -35.5t34 -15.5z" />
<glyph unicode="&#xe6;" horiz-adv-x="781" d="M170 -12q-31 0 -57.5 9t-46 26.5t-31 43t-11.5 58.5q0 47 21.5 79.5t57.5 53t83 29.5t98 9h18v34q0 31 -17 49.5t-64 18.5q-23 0 -43 -5.5t-36.5 -13t-28 -15.5t-18.5 -13l-55 78q11 10 28.5 22t41.5 22.5t55.5 18t70.5 7.5q108 0 152 -57q29 26 69 41.5t85 15.5 q51 0 90 -16t65 -45.5t39.5 -70.5t13.5 -91q0 -11 -1 -29.5t-3 -30.5h-309q2 -61 35.5 -96.5t94.5 -35.5q45 0 75 11.5t48 22.5l42 -82q-12 -7 -29 -15.5t-39.5 -15.5t-51.5 -12t-65 -5q-64 0 -114 22.5t-82 64.5q-14 -17 -32 -32.5t-40.5 -27.5t-49.5 -19.5t-59 -7.5z M535 410q-45 0 -69.5 -29t-29.5 -80h182q0 46 -18.5 77.5t-64.5 31.5zM212 82q38 0 63 18t39 40q-6 17 -9.5 37.5t-5.5 39.5h-15q-60 0 -96 -17.5t-36 -62.5q0 -29 18.5 -42t41.5 -13z" />
<glyph unicode="&#xe7;" horiz-adv-x="475" d="M280 -12q-60 0 -107 17.5t-79.5 50t-49.5 78t-17 101.5q0 63 19.5 112t54 83t82.5 51.5t104 17.5q55 0 93 -12t55 -24v-154h-92q-1 5 -2.5 15t-2.5 22t-2 24.5t-1 24.5q-18 7 -43 7q-60 0 -92.5 -44t-32.5 -114q0 -34 8.5 -62.5t25 -49.5t40.5 -32.5t56 -11.5 q42 0 69 11.5t38 18.5l40 -86q-8 -6 -22.5 -13.5t-34.5 -14t-47 -11.5t-60 -5zM249 -230q-32 0 -52 5t-30 10l17 60q8 -4 21 -7.5t30 -3.5q22 0 35 8.5t13 25.5q0 23 -18.5 30.5t-41.5 7.5h-11l36 97h76l-21 -58q31 -7 51 -28t20 -54q0 -42 -34.5 -67.5t-90.5 -25.5z" />
<glyph unicode="&#xe8;" horiz-adv-x="513" d="M278 -12q-121 0 -186 66.5t-65 181.5q0 62 18 111t50.5 82.5t78 51.5t101.5 18q51 0 89.5 -16t64.5 -45.5t39 -70.5t13 -91q0 -11 -1 -29.5t-2 -30.5h-310q3 -61 36 -96.5t94 -35.5q45 0 75 11.5t48 22.5l42 -82q-12 -7 -29 -15.5t-39.5 -15.5t-51.5 -12t-65 -5zM350 301 q-1 46 -19.5 77.5t-63.5 31.5t-70 -29t-30 -80h183zM82 676h171l83 -135h-114z" />
<glyph unicode="&#xe9;" horiz-adv-x="513" d="M283 676h172l-140 -135h-115zM278 -12q-121 0 -186 66.5t-65 181.5q0 62 18 111t50.5 82.5t78 51.5t101.5 18q51 0 89.5 -16t64.5 -45.5t39 -70.5t13 -91q0 -11 -1 -29.5t-2 -30.5h-310q3 -61 36 -96.5t94 -35.5q45 0 75 11.5t48 22.5l42 -82q-12 -7 -29 -15.5 t-39.5 -15.5t-51.5 -12t-65 -5zM350 301q-1 46 -19.5 77.5t-63.5 31.5t-70 -29t-30 -80h183z" />
<glyph unicode="&#xea;" horiz-adv-x="513" d="M216 701h102l125 -159h-113l-64 66l-64 -66h-113zM278 -12q-121 0 -186 66.5t-65 181.5q0 62 18 111t50.5 82.5t78 51.5t101.5 18q51 0 89.5 -16t64.5 -45.5t39 -70.5t13 -91q0 -11 -1 -29.5t-2 -30.5h-310q3 -61 36 -96.5t94 -35.5q45 0 75 11.5t48 22.5l42 -82 q-12 -7 -29 -15.5t-39.5 -15.5t-51.5 -12t-65 -5zM350 301q-1 46 -19.5 77.5t-63.5 31.5t-70 -29t-30 -80h183z" />
<glyph unicode="&#xeb;" horiz-adv-x="513" d="M166 548q-30 0 -50 20t-20 49q0 27 20 47.5t50 20.5q32 0 52 -20.5t20 -47.5q0 -29 -20 -49t-52 -20zM365 548q-31 0 -51 20t-20 49q0 27 20 47.5t51 20.5t51 -20.5t20 -47.5q0 -29 -20 -49t-51 -20zM278 -12q-121 0 -186 66.5t-65 181.5q0 62 18 111t50.5 82.5t78 51.5 t101.5 18q51 0 89.5 -16t64.5 -45.5t39 -70.5t13 -91q0 -11 -1 -29.5t-2 -30.5h-310q3 -61 36 -96.5t94 -35.5q45 0 75 11.5t48 22.5l42 -82q-12 -7 -29 -15.5t-39.5 -15.5t-51.5 -12t-65 -5zM350 301q-1 46 -19.5 77.5t-63.5 31.5t-70 -29t-30 -80h183z" />
<glyph unicode="&#xec;" horiz-adv-x="318" d="M25 84q11 3 32.5 6t40.5 3v304q-22 2 -41 3t-32 1v84q26 3 82.5 5.5t129.5 2.5l-5 -79v-321q9 0 19.5 -1l21 -2t19 -3t13.5 -3v-84h-280v84zM-20 676h171l83 -135h-114z" />
<glyph unicode="&#xed;" horiz-adv-x="318" d="M183 676h172l-140 -135h-115zM25 84q11 3 32.5 6t40.5 3v304q-22 2 -41 3t-32 1v84q26 3 82.5 5.5t129.5 2.5l-5 -79v-321q9 0 19.5 -1l21 -2t19 -3t13.5 -3v-84h-280v84z" />
<glyph unicode="&#xee;" horiz-adv-x="318" d="M116 701h102l125 -159h-113l-64 66l-64 -66h-113zM25 84q11 3 32.5 6t40.5 3v304q-22 2 -41 3t-32 1v84q26 3 82.5 5.5t129.5 2.5l-5 -79v-321q9 0 19.5 -1l21 -2t19 -3t13.5 -3v-84h-280v84z" />
<glyph unicode="&#xef;" horiz-adv-x="318" d="M66 548q-30 0 -50 20t-20 49q0 27 20 47.5t50 20.5q32 0 52 -20.5t20 -47.5q0 -29 -20 -49t-52 -20zM265 548q-31 0 -51 20t-20 49q0 27 20 47.5t51 20.5t51 -20.5t20 -47.5q0 -29 -20 -49t-51 -20zM25 84q11 3 32.5 6t40.5 3v304q-22 2 -41 3t-32 1v84q26 3 82.5 5.5 t129.5 2.5l-5 -79v-321q9 0 19.5 -1l21 -2t19 -3t13.5 -3v-84h-280v84z" />
<glyph unicode="&#xf0;" horiz-adv-x="555" d="M271 -12q-52 0 -96.5 16.5t-77.5 49t-51.5 79t-18.5 106.5t17.5 106t48 78t71 48.5t86.5 16.5q35 0 62 -10t45 -27q-24 84 -85 127l-66 -60l-53 54l44 39q-56 18 -126 18l28 103q107 0 192 -34l69 62l52 -55l-50 -45q78 -54 118.5 -144.5t40.5 -215.5q0 -67 -15.5 -124 t-46.5 -99t-78 -65.5t-110 -23.5zM272 86q53 0 81 50.5t28 162.5v17t-1 17q-16 25 -43 41.5t-69 16.5q-51 0 -76 -41.5t-25 -108.5q0 -71 27 -113t78 -42z" />
<glyph unicode="&#xf1;" horiz-adv-x="613" d="M25 84q11 3 32.5 6t40.5 3v304q-22 2 -41 3t-32 1v84q26 3 81.5 5.5t124.5 2.5l-4 -73h2q24 33 61 56t92 23q40 0 68 -12t45.5 -33t25.5 -50t8 -63v-248q17 0 37.5 -3t30.5 -6v-84h-201v318q0 37 -15.5 55.5t-50.5 18.5q-33 0 -58.5 -20t-40.5 -41v-238q19 -1 37.5 -3.5 t27.5 -5.5v-84h-271v84zM365 546q-23 0 -38 5.5t-28 12t-25 12t-27 5.5q-18 0 -32 -11t-22 -19l-61 53q7 12 18 25.5t25.5 24.5t32 18t37.5 7q23 0 38.5 -5.5t28 -12t24.5 -12t27 -5.5q21 0 35 11.5t21 19.5l61 -53q-8 -13 -19 -26.5t-25.5 -24.5t-32 -18t-38.5 -7z" />
<glyph unicode="&#xf2;" horiz-adv-x="543" d="M270 -12q-64 0 -110 21.5t-75.5 56.5t-43.5 80.5t-14 93.5q0 47 14.5 93.5t44 83t75.5 59.5t109 23q64 0 110.5 -21t76.5 -56t44.5 -80.5t14.5 -94.5q0 -46 -14.5 -92.5t-45 -83.5t-77 -60t-109.5 -23zM272 86q28 0 48 11.5t32 32.5t17.5 49.5t5.5 62.5t-6 63.5t-18.5 51 t-33 33.5t-48.5 12q-29 0 -48.5 -11.5t-31.5 -32.5t-17 -49.5t-5 -62.5t5.5 -63.5t18.5 -51t32.5 -33.5t48.5 -12zM85 676h171l83 -135h-114z" />
<glyph unicode="&#xf3;" horiz-adv-x="543" d="M286 676h172l-140 -135h-115zM270 -12q-64 0 -110 21.5t-75.5 56.5t-43.5 80.5t-14 93.5q0 47 14.5 93.5t44 83t75.5 59.5t109 23q64 0 110.5 -21t76.5 -56t44.5 -80.5t14.5 -94.5q0 -46 -14.5 -92.5t-45 -83.5t-77 -60t-109.5 -23zM272 86q28 0 48 11.5t32 32.5 t17.5 49.5t5.5 62.5t-6 63.5t-18.5 51t-33 33.5t-48.5 12q-29 0 -48.5 -11.5t-31.5 -32.5t-17 -49.5t-5 -62.5t5.5 -63.5t18.5 -51t32.5 -33.5t48.5 -12z" />
<glyph unicode="&#xf4;" horiz-adv-x="543" d="M219 701h102l125 -159h-113l-64 66l-64 -66h-113zM270 -12q-64 0 -110 21.5t-75.5 56.5t-43.5 80.5t-14 93.5q0 47 14.5 93.5t44 83t75.5 59.5t109 23q64 0 110.5 -21t76.5 -56t44.5 -80.5t14.5 -94.5q0 -46 -14.5 -92.5t-45 -83.5t-77 -60t-109.5 -23zM272 86 q28 0 48 11.5t32 32.5t17.5 49.5t5.5 62.5t-6 63.5t-18.5 51t-33 33.5t-48.5 12q-29 0 -48.5 -11.5t-31.5 -32.5t-17 -49.5t-5 -62.5t5.5 -63.5t18.5 -51t32.5 -33.5t48.5 -12z" />
<glyph unicode="&#xf5;" horiz-adv-x="543" d="M270 -12q-64 0 -110 21.5t-75.5 56.5t-43.5 80.5t-14 93.5q0 47 14.5 93.5t44 83t75.5 59.5t109 23q64 0 110.5 -21t76.5 -56t44.5 -80.5t14.5 -94.5q0 -46 -14.5 -92.5t-45 -83.5t-77 -60t-109.5 -23zM272 86q28 0 48 11.5t32 32.5t17.5 49.5t5.5 62.5t-6 63.5t-18.5 51 t-33 33.5t-48.5 12q-29 0 -48.5 -11.5t-31.5 -32.5t-17 -49.5t-5 -62.5t5.5 -63.5t18.5 -51t32.5 -33.5t48.5 -12zM328 546q-23 0 -38 5.5t-28 12t-25 12t-27 5.5q-18 0 -32 -11t-22 -19l-61 53q7 12 18 25.5t25.5 24.5t32 18t37.5 7q23 0 38.5 -5.5t28 -12t24.5 -12 t27 -5.5q21 0 35 11.5t21 19.5l61 -53q-8 -13 -19 -26.5t-25.5 -24.5t-32 -18t-38.5 -7z" />
<glyph unicode="&#xf6;" horiz-adv-x="543" d="M169 548q-30 0 -50 20t-20 49q0 27 20 47.5t50 20.5q32 0 52 -20.5t20 -47.5q0 -29 -20 -49t-52 -20zM368 548q-31 0 -51 20t-20 49q0 27 20 47.5t51 20.5t51 -20.5t20 -47.5q0 -29 -20 -49t-51 -20zM270 -12q-64 0 -110 21.5t-75.5 56.5t-43.5 80.5t-14 93.5 q0 47 14.5 93.5t44 83t75.5 59.5t109 23q64 0 110.5 -21t76.5 -56t44.5 -80.5t14.5 -94.5q0 -46 -14.5 -92.5t-45 -83.5t-77 -60t-109.5 -23zM272 86q28 0 48 11.5t32 32.5t17.5 49.5t5.5 62.5t-6 63.5t-18.5 51t-33 33.5t-48.5 12q-29 0 -48.5 -11.5t-31.5 -32.5t-17 -49.5 t-5 -62.5t5.5 -63.5t18.5 -51t32.5 -33.5t48.5 -12z" />
<glyph unicode="&#xf7;" horiz-adv-x="572" d="M284 -3q-31 0 -52 21t-21 51t21 51t52 21q30 0 51 -21t21 -51t-21 -51t-51 -21zM284 346q-31 0 -52 21t-21 51t21 51t52 21q30 0 51 -21t21 -51t-21 -51t-51 -21zM40 294h492v-100h-492v100z" />
<glyph unicode="&#xf8;" horiz-adv-x="548" d="M36 -19l54 80q-32 36 -47 82.5t-15 96.5q0 47 14.5 93.5t45 83t76.5 59.5t109 23q56 0 102 -19l59 87l74 -49l-58 -85q36 -36 53.5 -84.5t17.5 -101.5q0 -46 -15 -92.5t-45.5 -83.5t-77.5 -60t-110 -23q-32 0 -60 6t-51 17l-53 -78zM275 85q28 0 48.5 11.5t33.5 32.5 t19.5 50t6.5 63q0 21 -4.5 41t-12.5 35l-148 -216q23 -17 57 -17zM164 246q0 -18 3 -35t11 -32l141 212q-21 13 -47 13q-29 0 -49 -12t-33.5 -33t-19.5 -50t-6 -63z" />
<glyph unicode="&#xf9;" horiz-adv-x="598" d="M227 -12q-40 0 -68 12t-45.5 33.5t-25.5 50.5t-8 62v251q-20 2 -35.5 3t-27.5 1v84q26 3 79 5.5t122 2.5l-5 -79v-245q0 -37 15 -55.5t50 -18.5q17 0 32 5.5t27.5 14.5t22.5 20t18 21v241q-20 2 -37 3t-30 1v84q26 3 81 5.5t124 2.5l-5 -79v-281q0 -13 0.5 -23.5 t1.5 -20.5q20 -2 37.5 -3t28.5 -1v-85q-24 -2 -72.5 -4t-113.5 -2q-3 12 -6 36t-3 40h-2q-26 -33 -62 -57.5t-93 -24.5zM110 676h171l83 -135h-114z" />
<glyph unicode="&#xfa;" horiz-adv-x="598" d="M312 676h172l-140 -135h-115zM227 -12q-40 0 -68 12t-45.5 33.5t-25.5 50.5t-8 62v251q-20 2 -35.5 3t-27.5 1v84q26 3 79 5.5t122 2.5l-5 -79v-245q0 -37 15 -55.5t50 -18.5q17 0 32 5.5t27.5 14.5t22.5 20t18 21v241q-20 2 -37 3t-30 1v84q26 3 81 5.5t124 2.5l-5 -79 v-281q0 -13 0.5 -23.5t1.5 -20.5q20 -2 37.5 -3t28.5 -1v-85q-24 -2 -72.5 -4t-113.5 -2q-3 12 -6 36t-3 40h-2q-26 -33 -62 -57.5t-93 -24.5z" />
<glyph unicode="&#xfb;" horiz-adv-x="598" d="M245 701h102l125 -159h-113l-64 66l-64 -66h-113zM227 -12q-40 0 -68 12t-45.5 33.5t-25.5 50.5t-8 62v251q-20 2 -35.5 3t-27.5 1v84q26 3 79 5.5t122 2.5l-5 -79v-245q0 -37 15 -55.5t50 -18.5q17 0 32 5.5t27.5 14.5t22.5 20t18 21v241q-20 2 -37 3t-30 1v84 q26 3 81 5.5t124 2.5l-5 -79v-281q0 -13 0.5 -23.5t1.5 -20.5q20 -2 37.5 -3t28.5 -1v-85q-24 -2 -72.5 -4t-113.5 -2q-3 12 -6 36t-3 40h-2q-26 -33 -62 -57.5t-93 -24.5z" />
<glyph unicode="&#xfc;" horiz-adv-x="598" d="M195 548q-30 0 -50 20t-20 49q0 27 20 47.5t50 20.5q32 0 52 -20.5t20 -47.5q0 -29 -20 -49t-52 -20zM394 548q-31 0 -51 20t-20 49q0 27 20 47.5t51 20.5t51 -20.5t20 -47.5q0 -29 -20 -49t-51 -20zM227 -12q-40 0 -68 12t-45.5 33.5t-25.5 50.5t-8 62v251 q-20 2 -35.5 3t-27.5 1v84q26 3 79 5.5t122 2.5l-5 -79v-245q0 -37 15 -55.5t50 -18.5q17 0 32 5.5t27.5 14.5t22.5 20t18 21v241q-20 2 -37 3t-30 1v84q26 3 81 5.5t124 2.5l-5 -79v-281q0 -13 0.5 -23.5t1.5 -20.5q20 -2 37.5 -3t28.5 -1v-85q-24 -2 -72.5 -4t-113.5 -2 q-3 12 -6 36t-3 40h-2q-26 -33 -62 -57.5t-93 -24.5z" />
<glyph unicode="&#xfd;" d="M94 -234q-30 0 -49 3t-27 6l19 104q5 -2 16 -4t31 -2q26 0 44 6t30.5 16.5t21 26t15.5 35.5l15 42l-152 396q-36 3 -52 8v84h240v-84q-8 -2 -22.5 -4t-29.5 -4l63 -176q8 -20 16 -44.5t11 -43.5h2q4 19 12 43t16 44l62 177q-17 2 -32.5 4t-22.5 4v84h229v-84 q-9 -2 -24 -4.5t-32 -4.5l-174 -445q-17 -42 -35.5 -76t-44 -58t-61 -36.5t-85.5 -12.5zM301 676h172l-140 -135h-115z" />
<glyph unicode="&#xfe;" horiz-adv-x="559" d="M-6 -143q11 4 32.5 7t40.5 3v759q-22 2 -40.5 3.5t-32.5 1.5v84q26 3 82.5 5.5t128.5 2.5l-6 -80v-204h2q22 26 54 43t77 17q92 0 145 -64t53 -185q0 -59 -16.5 -107t-46 -82.5t-69.5 -53.5t-87 -19q-39 0 -66 10.5t-44 24.5h-2v-156q18 0 40.5 -3.5t32.5 -6.5v-84h-278 v84zM283 90q51 0 78.5 41.5t27.5 113.5q0 71 -24.5 111t-75.5 40q-29 0 -52.5 -14t-37.5 -34v-229q16 -14 37 -21.5t47 -7.5z" />
<glyph unicode="&#xff;" d="M94 -234q-30 0 -49 3t-27 6l19 104q5 -2 16 -4t31 -2q26 0 44 6t30.5 16.5t21 26t15.5 35.5l15 42l-152 396q-36 3 -52 8v84h240v-84q-8 -2 -22.5 -4t-29.5 -4l63 -176q8 -20 16 -44.5t11 -43.5h2q4 19 12 43t16 44l62 177q-17 2 -32.5 4t-22.5 4v84h229v-84 q-9 -2 -24 -4.5t-32 -4.5l-174 -445q-17 -42 -35.5 -76t-44 -58t-61 -36.5t-85.5 -12.5zM184 548q-30 0 -50 20t-20 49q0 27 20 47.5t50 20.5q32 0 52 -20.5t20 -47.5q0 -29 -20 -49t-52 -20zM383 548q-31 0 -51 20t-20 49q0 27 20 47.5t51 20.5t51 -20.5t20 -47.5 q0 -29 -20 -49t-51 -20z" />
<glyph unicode="&#x100;" horiz-adv-x="721" d="M10 84q9 2 26 4.5t33 3.5l232 574h124l225 -574q17 -1 35 -3.5t26 -4.5v-84h-266v84q8 2 23.5 4.5t32.5 3.5l-30 85h-244l-32 -85q17 -1 33 -3.5t24 -4.5v-84h-242v84zM437 267l-47 132q-15 41 -24.5 72t-14.5 50h-2q-5 -18 -15.5 -50.5t-25.5 -71.5l-48 -132h177z M212 833h283v-95h-283v95z" />
<glyph unicode="&#x101;" horiz-adv-x="513" d="M172 -12q-31 0 -58 9t-47 26.5t-31.5 43t-11.5 58.5q0 47 21.5 79.5t57.5 53t83.5 29.5t98.5 9h17v34q0 35 -18 51.5t-63 16.5q-39 0 -71.5 -15t-54.5 -32l-55 78q29 27 78 48.5t118 21.5q101 0 149.5 -41.5t48.5 -138.5v-181v-26t1 -23q20 -2 37 -3t28 -1v-85 q-24 -2 -72 -4t-111 -2q-3 9 -5 26t-3 34h-2q-17 -24 -51.5 -45t-83.5 -21zM212 82q32 0 53.5 12.5t36.5 30.5v92h-17q-60 0 -96.5 -17.5t-36.5 -62.5q0 -29 18.5 -42t41.5 -13zM101 657h283v-95h-283v95z" />
<glyph unicode="&#x102;" horiz-adv-x="721" d="M10 84q9 2 26 4.5t33 3.5l232 574h124l225 -574q17 -1 35 -3.5t26 -4.5v-84h-266v84q8 2 23.5 4.5t32.5 3.5l-30 85h-244l-32 -85q17 -1 33 -3.5t24 -4.5v-84h-242v84zM437 267l-47 132q-15 41 -24.5 72t-14.5 50h-2q-5 -18 -15.5 -50.5t-25.5 -71.5l-48 -132h177z M354 706q-31 0 -59.5 9t-52 27.5t-38.5 47t-19 67.5h109q2 -30 17 -47.5t43 -17.5q27 0 42 17.5t18 47.5h108q-3 -39 -18.5 -67.5t-38.5 -47t-51.5 -27.5t-59.5 -9z" />
<glyph unicode="&#x103;" horiz-adv-x="513" d="M172 -12q-31 0 -58 9t-47 26.5t-31.5 43t-11.5 58.5q0 47 21.5 79.5t57.5 53t83.5 29.5t98.5 9h17v34q0 35 -18 51.5t-63 16.5q-39 0 -71.5 -15t-54.5 -32l-55 78q29 27 78 48.5t118 21.5q101 0 149.5 -41.5t48.5 -138.5v-181v-26t1 -23q20 -2 37 -3t28 -1v-85 q-24 -2 -72 -4t-111 -2q-3 9 -5 26t-3 34h-2q-17 -24 -51.5 -45t-83.5 -21zM212 82q32 0 53.5 12.5t36.5 30.5v92h-17q-60 0 -96.5 -17.5t-36.5 -62.5q0 -29 18.5 -42t41.5 -13zM242 530q-31 0 -59.5 9t-52 27.5t-38.5 47t-19 67.5h109q2 -30 17 -47.5t43 -17.5 q27 0 42 17.5t18 47.5h108q-3 -39 -18.5 -67.5t-38.5 -47t-51.5 -27.5t-59.5 -9z" />
<glyph unicode="&#x104;" horiz-adv-x="721" d="M10 84q9 2 26 4.5t33 3.5l232 574h124l225 -574q17 -1 35 -3.5t26 -4.5v-84h-266v84q8 2 23.5 4.5t32.5 3.5l-30 85h-244l-32 -85q17 -1 33 -3.5t24 -4.5v-84h-242v84zM437 267l-47 132q-15 41 -24.5 72t-14.5 50h-2q-5 -18 -15.5 -50.5t-25.5 -71.5l-48 -132h177z M638 -230q-54 0 -87 26t-33 73q0 21 7 40.5t17.5 36.5t23 30.5t23.5 23.5h76q-22 -27 -38 -54t-16 -60q0 -45 48 -45q13 0 22.5 2.5t18.5 6.5l16 -62q-11 -6 -30 -12t-48 -6z" />
<glyph unicode="&#x105;" horiz-adv-x="513" d="M172 -12q-31 0 -58 9t-47 26.5t-31.5 43t-11.5 58.5q0 47 21.5 79.5t57.5 53t83.5 29.5t98.5 9h17v34q0 35 -18 51.5t-63 16.5q-39 0 -71.5 -15t-54.5 -32l-55 78q29 27 78 48.5t118 21.5q101 0 149.5 -41.5t48.5 -138.5v-181v-26t1 -23q20 -2 37 -3t28 -1v-85 q-24 -2 -72 -4t-111 -2q-3 9 -5 26t-3 34h-2q-17 -24 -51.5 -45t-83.5 -21zM212 82q32 0 53.5 12.5t36.5 30.5v92h-17q-60 0 -96.5 -17.5t-36.5 -62.5q0 -29 18.5 -42t41.5 -13zM428 -230q-54 0 -87 26t-33 73q0 21 7 40.5t17.5 36.5t23 30.5t23.5 23.5h76q-22 -27 -38 -54 t-16 -60q0 -45 48 -45q13 0 22.5 2.5t18.5 6.5l16 -62q-11 -6 -30 -12t-48 -6z" />
<glyph unicode="&#x106;" horiz-adv-x="665" d="M383 852h172l-140 -135h-115zM388 -12q-85 0 -151 25.5t-111 71t-68.5 107.5t-23.5 134q0 75 25.5 139.5t73 111.5t114 74t148.5 27q67 0 119 -13.5t90 -37.5v-173h-103q-3 14 -6 44t-4 60q-21 8 -46 12t-51 4q-48 0 -86.5 -17.5t-66.5 -49t-43 -75.5t-15 -97 q0 -56 15 -100.5t43 -76t68 -48.5t89 -17q29 0 56.5 5.5t50.5 14.5q0 16 1 33t2.5 32.5t3 28.5t3.5 21h102v-173q-14 -13 -37.5 -25t-54.5 -21.5t-66 -15t-71 -5.5z" />
<glyph unicode="&#x107;" horiz-adv-x="475" d="M288 676h172l-140 -135h-115zM280 -12q-60 0 -107 17.5t-79.5 50t-49.5 78t-17 101.5q0 63 19.5 112t54 83t82.5 51.5t104 17.5q55 0 93 -12t55 -24v-154h-92q-1 5 -2.5 15t-2.5 22t-2 24.5t-1 24.5q-18 7 -43 7q-60 0 -92.5 -44t-32.5 -114q0 -34 8.5 -62.5t25 -49.5 t40.5 -32.5t56 -11.5q42 0 69 11.5t38 18.5l40 -86q-8 -6 -22.5 -13.5t-34.5 -14t-47 -11.5t-60 -5z" />
<glyph unicode="&#x108;" horiz-adv-x="665" d="M316 877h102l125 -159h-113l-64 66l-64 -66h-113zM388 -12q-85 0 -151 25.5t-111 71t-68.5 107.5t-23.5 134q0 75 25.5 139.5t73 111.5t114 74t148.5 27q67 0 119 -13.5t90 -37.5v-173h-103q-3 14 -6 44t-4 60q-21 8 -46 12t-51 4q-48 0 -86.5 -17.5t-66.5 -49t-43 -75.5 t-15 -97q0 -56 15 -100.5t43 -76t68 -48.5t89 -17q29 0 56.5 5.5t50.5 14.5q0 16 1 33t2.5 32.5t3 28.5t3.5 21h102v-173q-14 -13 -37.5 -25t-54.5 -21.5t-66 -15t-71 -5.5z" />
<glyph unicode="&#x109;" horiz-adv-x="475" d="M221 701h102l125 -159h-113l-64 66l-64 -66h-113zM280 -12q-60 0 -107 17.5t-79.5 50t-49.5 78t-17 101.5q0 63 19.5 112t54 83t82.5 51.5t104 17.5q55 0 93 -12t55 -24v-154h-92q-1 5 -2.5 15t-2.5 22t-2 24.5t-1 24.5q-18 7 -43 7q-60 0 -92.5 -44t-32.5 -114 q0 -34 8.5 -62.5t25 -49.5t40.5 -32.5t56 -11.5q42 0 69 11.5t38 18.5l40 -86q-8 -6 -22.5 -13.5t-34.5 -14t-47 -11.5t-60 -5z" />
<glyph unicode="&#x10a;" horiz-adv-x="665" d="M388 -12q-85 0 -151 25.5t-111 71t-68.5 107.5t-23.5 134q0 75 25.5 139.5t73 111.5t114 74t148.5 27q67 0 119 -13.5t90 -37.5v-173h-103q-3 14 -6 44t-4 60q-21 8 -46 12t-51 4q-48 0 -86.5 -17.5t-66.5 -49t-43 -75.5t-15 -97q0 -56 15 -100.5t43 -76t68 -48.5t89 -17 q29 0 56.5 5.5t50.5 14.5q0 16 1 33t2.5 32.5t3 28.5t3.5 21h102v-173q-14 -13 -37.5 -25t-54.5 -21.5t-66 -15t-71 -5.5zM366 732q-32 0 -53 21t-21 51q0 29 21 50t53 21t53 -21t21 -50q0 -30 -21 -51t-53 -21z" />
<glyph unicode="&#x10b;" horiz-adv-x="475" d="M280 -12q-60 0 -107 17.5t-79.5 50t-49.5 78t-17 101.5q0 63 19.5 112t54 83t82.5 51.5t104 17.5q55 0 93 -12t55 -24v-154h-92q-1 5 -2.5 15t-2.5 22t-2 24.5t-1 24.5q-18 7 -43 7q-60 0 -92.5 -44t-32.5 -114q0 -34 8.5 -62.5t25 -49.5t40.5 -32.5t56 -11.5 q42 0 69 11.5t38 18.5l40 -86q-8 -6 -22.5 -13.5t-34.5 -14t-47 -11.5t-60 -5zM271 556q-32 0 -53 21t-21 51q0 29 21 50t53 21t53 -21t21 -50q0 -30 -21 -51t-53 -21z" />
<glyph unicode="&#x10c;" horiz-adv-x="665" d="M189 876h113l64 -66l64 66h113l-127 -159h-102zM388 -12q-85 0 -151 25.5t-111 71t-68.5 107.5t-23.5 134q0 75 25.5 139.5t73 111.5t114 74t148.5 27q67 0 119 -13.5t90 -37.5v-173h-103q-3 14 -6 44t-4 60q-21 8 -46 12t-51 4q-48 0 -86.5 -17.5t-66.5 -49t-43 -75.5 t-15 -97q0 -56 15 -100.5t43 -76t68 -48.5t89 -17q29 0 56.5 5.5t50.5 14.5q0 16 1 33t2.5 32.5t3 28.5t3.5 21h102v-173q-14 -13 -37.5 -25t-54.5 -21.5t-66 -15t-71 -5.5z" />
<glyph unicode="&#x10d;" horiz-adv-x="475" d="M94 700h113l64 -66l64 66h113l-127 -159h-102zM280 -12q-60 0 -107 17.5t-79.5 50t-49.5 78t-17 101.5q0 63 19.5 112t54 83t82.5 51.5t104 17.5q55 0 93 -12t55 -24v-154h-92q-1 5 -2.5 15t-2.5 22t-2 24.5t-1 24.5q-18 7 -43 7q-60 0 -92.5 -44t-32.5 -114 q0 -34 8.5 -62.5t25 -49.5t40.5 -32.5t56 -11.5q42 0 69 11.5t38 18.5l40 -86q-8 -6 -22.5 -13.5t-34.5 -14t-47 -11.5t-60 -5z" />
<glyph unicode="&#x10e;" horiz-adv-x="721" d="M173 876h113l64 -66l64 66h113l-127 -159h-102zM26 84q12 3 36 6t43 3v480q-19 0 -43 3t-36 6v84h281q98 0 170 -23t119 -65t69.5 -101.5t22.5 -132.5q0 -72 -23 -135t-70.5 -109.5t-120.5 -73t-172 -26.5h-276v84zM247 104h66q113 0 169.5 61.5t56.5 173.5 q0 113 -56 168t-175 55h-61v-458z" />
<glyph unicode="&#x10f;" horiz-adv-x="578" d="M556 720h137l-81 -175h-92zM226 -12q-91 0 -144 64.5t-53 185.5q0 58 16.5 106t46 82.5t69.5 53.5t87 19q40 0 66 -10.5t43 -24.5h2v162q-21 2 -40 3.5t-32 1.5v84q26 3 82 5.5t128 2.5l-5 -80v-510v-22t2 -22q20 -2 38 -3t29 -1v-85q-24 -2 -73.5 -4t-110.5 -2 q-2 4 -3.5 12t-3 17t-2.5 17.5t-1 14.5h-2q-24 -29 -57.5 -48t-81.5 -19zM270 90q30 0 52.5 14.5t36.5 33.5v230q-15 14 -35 22t-48 8q-51 0 -78.5 -42t-27.5 -115q0 -69 24.5 -110t75.5 -41z" />
<glyph unicode="&#x110;" horiz-adv-x="731" d="M50 388h65v185q-19 0 -43 3t-36 6v84h281q98 0 170 -23t119 -65t69.5 -101.5t22.5 -132.5q0 -72 -23 -135t-70.5 -109.5t-120.5 -73t-172 -26.5h-276v84q12 3 36 6t43 3v196h-65v99zM257 388h104v-99h-104v-185h66q113 0 169.5 61.5t56.5 173.5q0 113 -56 168t-175 55 h-61v-174z" />
<glyph unicode="&#x111;" horiz-adv-x="578" d="M226 -12q-91 0 -144 64.5t-53 185.5q0 58 16.5 106t46 82.5t69.5 53.5t87 19q40 0 66 -10.5t43 -24.5h2v75h-135v73h135v33q-5 1 -15.5 1.5t-21 1.5t-19 1.5t-10.5 0.5v65q26 3 81 5.5t123 2.5l-5 -80v-25h62v-85h-62v-400v-22t2 -22q20 -2 38 -3t29 -1v-85 q-24 -2 -73.5 -4t-110.5 -2q-2 4 -3.5 12t-3 17t-2.5 17.5t-1 14.5h-2q-24 -29 -57.5 -48t-81.5 -19zM270 90q30 0 52.5 14.5t36.5 33.5v230q-15 14 -35 22t-48 8q-51 0 -78.5 -42t-27.5 -115q0 -69 24.5 -110t75.5 -41z" />
<glyph unicode="&#x112;" horiz-adv-x="603" d="M26 84q12 3 36 6t43 3v480q-19 0 -43 3t-36 6v84h532v-188h-102q-3 11 -5.5 36t-4.5 48h-201v-176h92q2 20 4 36.5t5 27.5h86v-224h-86q-3 10 -5 26.5t-4 36.5h-92v-185h209q0 11 1 24t2.5 25t3 21t2.5 14h102v-188h-539v84zM156 833h283v-95h-283v95z" />
<glyph unicode="&#x113;" horiz-adv-x="513" d="M278 -12q-121 0 -186 66.5t-65 181.5q0 62 18 111t50.5 82.5t78 51.5t101.5 18q51 0 89.5 -16t64.5 -45.5t39 -70.5t13 -91q0 -11 -1 -29.5t-2 -30.5h-310q3 -61 36 -96.5t94 -35.5q45 0 75 11.5t48 22.5l42 -82q-12 -7 -29 -15.5t-39.5 -15.5t-51.5 -12t-65 -5zM350 301 q-1 46 -19.5 77.5t-63.5 31.5t-70 -29t-30 -80h183zM125 657h283v-95h-283v95z" />
<glyph unicode="&#x114;" horiz-adv-x="603" d="M26 84q12 3 36 6t43 3v480q-19 0 -43 3t-36 6v84h532v-188h-102q-3 11 -5.5 36t-4.5 48h-201v-176h92q2 20 4 36.5t5 27.5h86v-224h-86q-3 10 -5 26.5t-4 36.5h-92v-185h209q0 11 1 24t2.5 25t3 21t2.5 14h102v-188h-539v84zM298 706q-31 0 -59.5 9t-52 27.5t-38.5 47 t-19 67.5h109q2 -30 17 -47.5t43 -17.5q27 0 42 17.5t18 47.5h108q-3 -39 -18.5 -67.5t-38.5 -47t-51.5 -27.5t-59.5 -9z" />
<glyph unicode="&#x115;" horiz-adv-x="513" d="M278 -12q-121 0 -186 66.5t-65 181.5q0 62 18 111t50.5 82.5t78 51.5t101.5 18q51 0 89.5 -16t64.5 -45.5t39 -70.5t13 -91q0 -11 -1 -29.5t-2 -30.5h-310q3 -61 36 -96.5t94 -35.5q45 0 75 11.5t48 22.5l42 -82q-12 -7 -29 -15.5t-39.5 -15.5t-51.5 -12t-65 -5zM350 301 q-1 46 -19.5 77.5t-63.5 31.5t-70 -29t-30 -80h183zM267 530q-31 0 -59.5 9t-52 27.5t-38.5 47t-19 67.5h109q2 -30 17 -47.5t43 -17.5q27 0 42 17.5t18 47.5h108q-3 -39 -18.5 -67.5t-38.5 -47t-51.5 -27.5t-59.5 -9z" />
<glyph unicode="&#x116;" horiz-adv-x="603" d="M26 84q12 3 36 6t43 3v480q-19 0 -43 3t-36 6v84h532v-188h-102q-3 11 -5.5 36t-4.5 48h-201v-176h92q2 20 4 36.5t5 27.5h86v-224h-86q-3 10 -5 26.5t-4 36.5h-92v-185h209q0 11 1 24t2.5 25t3 21t2.5 14h102v-188h-539v84zM297 732q-32 0 -53 21t-21 51q0 29 21 50 t53 21t53 -21t21 -50q0 -30 -21 -51t-53 -21z" />
<glyph unicode="&#x117;" horiz-adv-x="513" d="M278 -12q-121 0 -186 66.5t-65 181.5q0 62 18 111t50.5 82.5t78 51.5t101.5 18q51 0 89.5 -16t64.5 -45.5t39 -70.5t13 -91q0 -11 -1 -29.5t-2 -30.5h-310q3 -61 36 -96.5t94 -35.5q45 0 75 11.5t48 22.5l42 -82q-12 -7 -29 -15.5t-39.5 -15.5t-51.5 -12t-65 -5zM350 301 q-1 46 -19.5 77.5t-63.5 31.5t-70 -29t-30 -80h183zM266 556q-32 0 -53 21t-21 51q0 29 21 50t53 21t53 -21t21 -50q0 -30 -21 -51t-53 -21z" />
<glyph unicode="&#x118;" horiz-adv-x="603" d="M495 -230q-54 0 -87 26t-33 73q0 21 7 40.5t17.5 36.5t23 30.5t23.5 23.5h76q-22 -27 -38 -54t-16 -60q0 -45 48 -45q13 0 22.5 2.5t18.5 6.5l16 -62q-11 -6 -30 -12t-48 -6zM26 84q12 3 36 6t43 3v480q-19 0 -43 3t-36 6v84h532v-188h-102q-3 11 -5.5 36t-4.5 48h-201 v-176h92q2 20 4 36.5t5 27.5h86v-224h-86q-3 10 -5 26.5t-4 36.5h-92v-185h209q0 11 1 24t2.5 25t3 21t2.5 14h102v-188h-539v84z" />
<glyph unicode="&#x119;" horiz-adv-x="513" d="M373 -230q-54 0 -86.5 26t-32.5 73q0 38 19.5 69.5t40.5 52.5q-17 -3 -36 -3q-121 0 -186 66.5t-65 181.5q0 62 18 111t50.5 82.5t78 51.5t101.5 18q51 0 89.5 -16t64.5 -45.5t39 -70.5t13 -91q0 -11 -1 -29.5t-2 -30.5h-310q3 -61 36 -96.5t94 -35.5q45 0 75 11.5 t48 22.5l42 -82q-57 -30 -87 -70t-30 -80q0 -45 49 -45q12 0 22 2.5t18 6.5l17 -62q-11 -6 -30 -12t-49 -6zM350 301q-1 46 -19.5 77.5t-63.5 31.5t-70 -29t-30 -80h183z" />
<glyph unicode="&#x11a;" horiz-adv-x="603" d="M120 876h113l64 -66l64 66h113l-127 -159h-102zM26 84q12 3 36 6t43 3v480q-19 0 -43 3t-36 6v84h532v-188h-102q-3 11 -5.5 36t-4.5 48h-201v-176h92q2 20 4 36.5t5 27.5h86v-224h-86q-3 10 -5 26.5t-4 36.5h-92v-185h209q0 11 1 24t2.5 25t3 21t2.5 14h102v-188h-539 v84z" />
<glyph unicode="&#x11b;" horiz-adv-x="513" d="M89 700h113l64 -66l64 66h113l-127 -159h-102zM278 -12q-121 0 -186 66.5t-65 181.5q0 62 18 111t50.5 82.5t78 51.5t101.5 18q51 0 89.5 -16t64.5 -45.5t39 -70.5t13 -91q0 -11 -1 -29.5t-2 -30.5h-310q3 -61 36 -96.5t94 -35.5q45 0 75 11.5t48 22.5l42 -82 q-12 -7 -29 -15.5t-39.5 -15.5t-51.5 -12t-65 -5zM350 301q-1 46 -19.5 77.5t-63.5 31.5t-70 -29t-30 -80h183z" />
<glyph unicode="&#x11c;" horiz-adv-x="738" d="M336 877h102l125 -159h-113l-64 66l-64 -66h-113zM388 -12q-88 0 -154.5 26.5t-110.5 72.5t-66.5 107.5t-22.5 130.5q0 76 26 140.5t74 111.5t116 74t152 27q77 0 133.5 -15t95.5 -42v-170h-103q-2 6 -3 17.5t-2.5 25t-2.5 28t-1 27.5q-55 25 -119 25q-52 0 -92.5 -18.5 t-68 -50.5t-42 -75.5t-14.5 -94.5q0 -54 14.5 -98.5t42.5 -76.5t67.5 -50t90.5 -18q37 0 67 7t47 18v114q-21 1 -46.5 4t-38.5 6v84h289v-83q-10 -3 -29 -6.5t-37 -4.5v-180q-35 -23 -99 -43t-163 -20z" />
<glyph unicode="&#x11d;" horiz-adv-x="534" d="M200 701h102l125 -159h-113l-64 66l-64 -66h-113zM233 -239q-103 0 -158 34t-55 98q0 22 8 40t21 32.5t30 25.5t35 19v2q-20 12 -34 30t-14 47q0 32 19.5 54.5t42.5 35.5v2q-39 21 -64.5 56.5t-25.5 89.5q0 76 55.5 124t156.5 48q48 0 86 -12h177v-87h-70q21 -35 21 -73 q0 -78 -54 -125.5t-154 -47.5q-14 0 -27.5 1.5t-27.5 3.5q-9 -5 -15 -14t-6 -18q0 -21 24.5 -28.5t78.5 -9.5q38 -2 78.5 -5.5t74.5 -17t55.5 -41.5t21.5 -78q0 -41 -20 -75t-57 -59t-88.5 -38.5t-114.5 -13.5zM249 -154q61 0 97 22.5t36 56.5q0 19 -9 30t-25.5 16t-39.5 7 t-50 4q-17 1 -33.5 2.5t-31.5 3.5q-20 -13 -32 -32.5t-12 -40.5q0 -32 24.5 -50.5t75.5 -18.5zM250 237q39 0 62 23.5t23 66.5q0 42 -23 65.5t-62 23.5q-38 0 -60.5 -23.5t-22.5 -65.5q0 -43 22.5 -66.5t60.5 -23.5z" />
<glyph unicode="&#x11e;" horiz-adv-x="738" d="M388 -12q-88 0 -154.5 26.5t-110.5 72.5t-66.5 107.5t-22.5 130.5q0 76 26 140.5t74 111.5t116 74t152 27q77 0 133.5 -15t95.5 -42v-170h-103q-2 6 -3 17.5t-2.5 25t-2.5 28t-1 27.5q-55 25 -119 25q-52 0 -92.5 -18.5t-68 -50.5t-42 -75.5t-14.5 -94.5 q0 -54 14.5 -98.5t42.5 -76.5t67.5 -50t90.5 -18q37 0 67 7t47 18v114q-21 1 -46.5 4t-38.5 6v84h289v-83q-10 -3 -29 -6.5t-37 -4.5v-180q-35 -23 -99 -43t-163 -20zM386 706q-31 0 -59.5 9t-52 27.5t-38.5 47t-19 67.5h109q2 -30 17 -47.5t43 -17.5q27 0 42 17.5t18 47.5 h108q-3 -39 -18.5 -67.5t-38.5 -47t-51.5 -27.5t-59.5 -9z" />
<glyph unicode="&#x11f;" horiz-adv-x="534" d="M233 -239q-103 0 -158 34t-55 98q0 22 8 40t21 32.5t30 25.5t35 19v2q-20 12 -34 30t-14 47q0 32 19.5 54.5t42.5 35.5v2q-39 21 -64.5 56.5t-25.5 89.5q0 76 55.5 124t156.5 48q48 0 86 -12h177v-87h-70q21 -35 21 -73q0 -78 -54 -125.5t-154 -47.5q-14 0 -27.5 1.5 t-27.5 3.5q-9 -5 -15 -14t-6 -18q0 -21 24.5 -28.5t78.5 -9.5q38 -2 78.5 -5.5t74.5 -17t55.5 -41.5t21.5 -78q0 -41 -20 -75t-57 -59t-88.5 -38.5t-114.5 -13.5zM249 -154q61 0 97 22.5t36 56.5q0 19 -9 30t-25.5 16t-39.5 7t-50 4q-17 1 -33.5 2.5t-31.5 3.5 q-20 -13 -32 -32.5t-12 -40.5q0 -32 24.5 -50.5t75.5 -18.5zM250 237q39 0 62 23.5t23 66.5q0 42 -23 65.5t-62 23.5q-38 0 -60.5 -23.5t-22.5 -65.5q0 -43 22.5 -66.5t60.5 -23.5zM250 530q-31 0 -59.5 9t-52 27.5t-38.5 47t-19 67.5h109q2 -30 17 -47.5t43 -17.5 q27 0 42 17.5t18 47.5h108q-3 -39 -18.5 -67.5t-38.5 -47t-51.5 -27.5t-59.5 -9z" />
<glyph unicode="&#x120;" horiz-adv-x="738" d="M388 -12q-88 0 -154.5 26.5t-110.5 72.5t-66.5 107.5t-22.5 130.5q0 76 26 140.5t74 111.5t116 74t152 27q77 0 133.5 -15t95.5 -42v-170h-103q-2 6 -3 17.5t-2.5 25t-2.5 28t-1 27.5q-55 25 -119 25q-52 0 -92.5 -18.5t-68 -50.5t-42 -75.5t-14.5 -94.5 q0 -54 14.5 -98.5t42.5 -76.5t67.5 -50t90.5 -18q37 0 67 7t47 18v114q-21 1 -46.5 4t-38.5 6v84h289v-83q-10 -3 -29 -6.5t-37 -4.5v-180q-35 -23 -99 -43t-163 -20zM386 732q-32 0 -53 21t-21 51q0 29 21 50t53 21t53 -21t21 -50q0 -30 -21 -51t-53 -21z" />
<glyph unicode="&#x121;" horiz-adv-x="534" d="M233 -239q-103 0 -158 34t-55 98q0 22 8 40t21 32.5t30 25.5t35 19v2q-20 12 -34 30t-14 47q0 32 19.5 54.5t42.5 35.5v2q-39 21 -64.5 56.5t-25.5 89.5q0 76 55.5 124t156.5 48q48 0 86 -12h177v-87h-70q21 -35 21 -73q0 -78 -54 -125.5t-154 -47.5q-14 0 -27.5 1.5 t-27.5 3.5q-9 -5 -15 -14t-6 -18q0 -21 24.5 -28.5t78.5 -9.5q38 -2 78.5 -5.5t74.5 -17t55.5 -41.5t21.5 -78q0 -41 -20 -75t-57 -59t-88.5 -38.5t-114.5 -13.5zM249 -154q61 0 97 22.5t36 56.5q0 19 -9 30t-25.5 16t-39.5 7t-50 4q-17 1 -33.5 2.5t-31.5 3.5 q-20 -13 -32 -32.5t-12 -40.5q0 -32 24.5 -50.5t75.5 -18.5zM250 237q39 0 62 23.5t23 66.5q0 42 -23 65.5t-62 23.5q-38 0 -60.5 -23.5t-22.5 -65.5q0 -43 22.5 -66.5t60.5 -23.5zM250 556q-32 0 -53 21t-21 51q0 29 21 50t53 21t53 -21t21 -50q0 -30 -21 -51t-53 -21z" />
<glyph unicode="&#x122;" horiz-adv-x="738" d="M382 -37q29 0 51.5 -19t22.5 -53q0 -20 -7.5 -38.5t-20 -35.5t-28.5 -31.5t-34 -27.5l-45 31q9 8 19 18.5t10 27.5q0 12 -5 19t-11 14.5t-11 16.5t-5 25q0 23 19 38t45 15zM388 -12q-88 0 -154.5 26.5t-110.5 72.5t-66.5 107.5t-22.5 130.5q0 76 26 140.5t74 111.5 t116 74t152 27q77 0 133.5 -15t95.5 -42v-170h-103q-2 6 -3 17.5t-2.5 25t-2.5 28t-1 27.5q-55 25 -119 25q-52 0 -92.5 -18.5t-68 -50.5t-42 -75.5t-14.5 -94.5q0 -54 14.5 -98.5t42.5 -76.5t67.5 -50t90.5 -18q37 0 67 7t47 18v114q-21 1 -46.5 4t-38.5 6v84h289v-83 q-10 -3 -29 -6.5t-37 -4.5v-180q-35 -23 -99 -43t-163 -20z" />
<glyph unicode="&#x123;" horiz-adv-x="534" d="M233 -239q-103 0 -158 34t-55 98q0 22 8 40t21 32.5t30 25.5t35 19v2q-20 12 -34 30t-14 47q0 32 19.5 54.5t42.5 35.5v2q-39 21 -64.5 56.5t-25.5 89.5q0 76 55.5 124t156.5 48q48 0 86 -12h177v-87h-70q21 -35 21 -73q0 -78 -54 -125.5t-154 -47.5q-14 0 -27.5 1.5 t-27.5 3.5q-9 -5 -15 -14t-6 -18q0 -21 24.5 -28.5t78.5 -9.5q38 -2 78.5 -5.5t74.5 -17t55.5 -41.5t21.5 -78q0 -41 -20 -75t-57 -59t-88.5 -38.5t-114.5 -13.5zM249 -154q61 0 97 22.5t36 56.5q0 19 -9 30t-25.5 16t-39.5 7t-50 4q-17 1 -33.5 2.5t-31.5 3.5 q-20 -13 -32 -32.5t-12 -40.5q0 -32 24.5 -50.5t75.5 -18.5zM250 237q39 0 62 23.5t23 66.5q0 42 -23 65.5t-62 23.5q-38 0 -60.5 -23.5t-22.5 -65.5q0 -43 22.5 -66.5t60.5 -23.5zM256 536q-29 0 -51.5 19t-22.5 53q0 20 7.5 38.5t20 35.5t29 31.5t33.5 27.5l45 -31 q-9 -8 -19 -18.5t-10 -27.5q0 -11 5 -18.5t11 -14.5t11 -16.5t5 -25.5q0 -23 -18.5 -38t-45.5 -15z" />
<glyph unicode="&#x124;" horiz-adv-x="797" d="M348 877h102l125 -159h-113l-64 66l-64 -66h-113zM26 84q12 3 36 6t43 3v480q-19 0 -43 3t-36 6v84h294v-84q-5 -2 -14 -3.5t-19 -3t-20.5 -2t-19.5 -0.5v-176h304v176q-18 0 -40.5 3t-32.5 6v84h292v-84q-13 -3 -36 -6t-42 -3v-480q9 0 20.5 -1t22.5 -2t20.5 -3t15.5 -3 v-84h-293v84q11 3 33 6t40 3v201h-304v-201q9 0 19.5 -1t20.5 -2t19 -3t14 -3v-84h-294v84z" />
<glyph unicode="&#x125;" horiz-adv-x="601" d="M17 84q11 3 30.5 6t38.5 3v533q-22 2 -40.5 3.5t-32.5 1.5v84q26 3 82.5 5.5t128.5 2.5l-5 -80v-219h2q22 29 57.5 52t91.5 23q40 0 68 -12t45.5 -33t25.5 -50t8 -63v-248q17 0 37.5 -3t30.5 -6v-84h-201v318q0 37 -15.5 55.5t-50.5 18.5q-33 0 -58.5 -20t-40.5 -41v-238 q18 -1 37 -4t28 -5v-84h-267v84zM253 934h102l125 -159h-113l-64 66l-64 -66h-113z" />
<glyph unicode="&#x126;" horiz-adv-x="802" d="M28 84q12 3 36 6t44 3v332h-64v85h64v63q-20 0 -44 3t-36 6v84h294v-84q-5 -2 -14 -3.5t-19 -3t-20.5 -2t-19.5 -0.5v-66h304v66q-18 0 -40.5 3t-32.5 6v84h292v-84q-12 -3 -35.5 -6t-42.5 -3v-63h62v-85h-62v-332q19 0 43.5 -3t36.5 -6v-84h-294v84q11 3 33 6t40 3v159 h-304v-159q9 0 19.5 -1t20.5 -2t19 -3t14 -3v-84h-294v84zM553 350v78h-304v-78h304z" />
<glyph unicode="&#x127;" horiz-adv-x="601" d="M17 84q11 3 30.5 6t38.5 3v445h-55v74h55v33q-5 1 -15.5 1.5t-21 1.5t-19 1.5t-11.5 0.5v65q26 3 81 5.5t124 2.5l-5 -80v-26h132v-78h-132v-115h2q22 29 57.5 52t91.5 23q40 0 68 -12t45.5 -33t25.5 -50t8 -63v-248q17 0 37.5 -3t30.5 -6v-84h-201v318q0 37 -15.5 55.5 t-50.5 18.5q-33 0 -58.5 -20t-40.5 -41v-238q18 -1 37 -4t28 -5v-84h-267v84z" />
<glyph unicode="&#x128;" horiz-adv-x="353" d="M26 84q12 3 36 6t43 3v480q-19 0 -43 3t-36 6v84h299v-84q-12 -3 -35.5 -6t-42.5 -3v-480q19 0 43.5 -3t36.5 -6v-84h-301v84zM237 722q-23 0 -38 5.5t-28 12t-25 12t-27 5.5q-18 0 -32 -11t-22 -19l-61 53q7 12 18 25.5t25.5 24.5t32 18t37.5 7q23 0 38.5 -5.5t28 -12 t24.5 -12t27 -5.5q21 0 35 11.5t21 19.5l61 -53q-8 -13 -19 -26.5t-25.5 -24.5t-32 -18t-38.5 -7z" />
<glyph unicode="&#x129;" horiz-adv-x="318" d="M25 84q11 3 32.5 6t40.5 3v304q-22 2 -41 3t-32 1v84q26 3 82.5 5.5t129.5 2.5l-5 -79v-321q9 0 19.5 -1l21 -2t19 -3t13.5 -3v-84h-280v84zM225 546q-23 0 -38 5.5t-28 12t-25 12t-27 5.5q-18 0 -32 -11t-22 -19l-61 53q7 12 18 25.5t25.5 24.5t32 18t37.5 7 q23 0 38.5 -5.5t28 -12t24.5 -12t27 -5.5q21 0 35 11.5t21 19.5l61 -53q-8 -13 -19 -26.5t-25.5 -24.5t-32 -18t-38.5 -7z" />
<glyph unicode="&#x12a;" horiz-adv-x="353" d="M26 84q12 3 36 6t43 3v480q-19 0 -43 3t-36 6v84h299v-84q-12 -3 -35.5 -6t-42.5 -3v-480q19 0 43.5 -3t36.5 -6v-84h-301v84zM37 833h283v-95h-283v95z" />
<glyph unicode="&#x12b;" horiz-adv-x="318" d="M25 84q11 3 32.5 6t40.5 3v304q-22 2 -41 3t-32 1v84q26 3 82.5 5.5t129.5 2.5l-5 -79v-321q9 0 19.5 -1l21 -2t19 -3t13.5 -3v-84h-280v84zM25 657h283v-95h-283v95z" />
<glyph unicode="&#x12c;" horiz-adv-x="353" d="M26 84q12 3 36 6t43 3v480q-19 0 -43 3t-36 6v84h299v-84q-12 -3 -35.5 -6t-42.5 -3v-480q19 0 43.5 -3t36.5 -6v-84h-301v84zM178 706q-31 0 -59.5 9t-52 27.5t-38.5 47t-19 67.5h109q2 -30 17 -47.5t43 -17.5q27 0 42 17.5t18 47.5h108q-3 -39 -18.5 -67.5t-38.5 -47 t-51.5 -27.5t-59.5 -9z" />
<glyph unicode="&#x12d;" horiz-adv-x="318" d="M25 84q11 3 32.5 6t40.5 3v304q-22 2 -41 3t-32 1v84q26 3 82.5 5.5t129.5 2.5l-5 -79v-321q9 0 19.5 -1l21 -2t19 -3t13.5 -3v-84h-280v84zM167 530q-31 0 -59.5 9t-52 27.5t-38.5 47t-19 67.5h109q2 -30 17 -47.5t43 -17.5q27 0 42 17.5t18 47.5h108 q-3 -39 -18.5 -67.5t-38.5 -47t-51.5 -27.5t-59.5 -9z" />
<glyph unicode="&#x12e;" horiz-adv-x="353" d="M26 84q12 3 36 6t43 3v480q-19 0 -43 3t-36 6v84h299v-84q-12 -3 -35.5 -6t-42.5 -3v-480q19 0 43.5 -3t36.5 -6v-84h-301v84zM199 -230q-54 0 -87 26t-33 73q0 21 7 40.5t17.5 36.5t23 30.5t23.5 23.5h76q-22 -27 -38 -54t-16 -60q0 -45 48 -45q13 0 22.5 2.5t18.5 6.5 l16 -62q-11 -6 -30 -12t-48 -6z" />
<glyph unicode="&#x12f;" horiz-adv-x="318" d="M25 84q11 3 32.5 6t40.5 3v304q-22 2 -41 3t-32 1v84q26 3 82.5 5.5t129.5 2.5l-5 -79v-321q17 0 37.5 -3t30.5 -6v-84h-275v84zM165 554q-35 0 -58.5 24t-23.5 56t23.5 55t58.5 23t58 -23t23 -55t-23 -56t-58 -24zM187 -230q-54 0 -87 26t-33 73q0 21 7 40.5t17.5 36.5 t23 30.5t23.5 23.5h76q-22 -27 -38 -54t-16 -60q0 -45 48 -45q13 0 22.5 2.5t18.5 6.5l16 -62q-11 -6 -30 -12t-48 -6z" />
<glyph unicode="&#x130;" horiz-adv-x="353" d="M26 84q12 3 36 6t43 3v480q-19 0 -43 3t-36 6v84h299v-84q-12 -3 -35.5 -6t-42.5 -3v-480q19 0 43.5 -3t36.5 -6v-84h-301v84zM178 732q-32 0 -53 21t-21 51q0 29 21 50t53 21t53 -21t21 -50q0 -30 -21 -51t-53 -21z" />
<glyph unicode="&#x131;" horiz-adv-x="318" d="M25 84q11 3 32.5 6t40.5 3v304q-22 2 -41 3t-32 1v84q26 3 82.5 5.5t129.5 2.5l-5 -79v-321q9 0 19.5 -1l21 -2t19 -3t13.5 -3v-84h-280v84z" />
<glyph unicode="&#x132;" horiz-adv-x="681" d="M26 84q12 3 36 6t43 3v480q-19 0 -43 3t-36 6v84h299v-84q-12 -3 -35.5 -6t-42.5 -3v-480q19 0 43.5 -3t36.5 -6v-84h-301v84zM397 -204q-36 0 -59.5 5t-38.5 11l20 104q6 -2 19.5 -5.5t27.5 -3.5q42 0 60.5 23.5t18.5 78.5v564q-20 0 -41 2.5t-35 6.5v84h294v-84 q-12 -3 -34 -6t-42 -3v-575q0 -100 -51 -151t-139 -51z" />
<glyph unicode="&#x133;" horiz-adv-x="595" d="M25 84q11 3 32.5 6t40.5 3v304q-22 2 -41 3t-32 1v84q26 3 82.5 5.5t129.5 2.5l-5 -79v-321q17 0 37.5 -3t30.5 -6v-84h-275v84zM165 554q-35 0 -58.5 24t-23.5 56t23.5 55t58.5 23t58 -23t23 -55t-23 -56t-58 -24zM363 -232q-37 0 -58 4.5t-29 7.5l21 99q5 -2 14.5 -4 t24.5 -2q35 0 48 23t13 79v422q-22 2 -40 3t-31 1v84q26 3 81 5.5t129 2.5l-5 -79v-447q0 -91 -39 -145t-129 -54zM463 554q-35 0 -58 23.5t-23 55.5t23 55.5t58 23.5t58 -23.5t23 -55.5t-23 -55.5t-58 -23.5z" />
<glyph unicode="&#x134;" horiz-adv-x="329" d="M116 877h102l125 -159h-113l-64 66l-64 -66h-113zM45 -204q-36 0 -59.5 5t-38.5 11l20 104q6 -2 19.5 -5.5t27.5 -3.5q42 0 60.5 23.5t18.5 78.5v564q-20 0 -41 2.5t-35 6.5v84h294v-84q-12 -3 -34 -6t-42 -3v-575q0 -100 -51 -151t-139 -51z" />
<glyph unicode="&#x135;" horiz-adv-x="284" d="M52 -232q-37 0 -58 4.5t-29 7.5l21 99q5 -2 14.5 -4t24.5 -2q35 0 48 23t13 79v422q-22 2 -40 3t-31 1v84q26 3 81 5.5t129 2.5l-5 -79v-447q0 -91 -39 -145t-129 -54zM104 701h102l125 -159h-113l-64 66l-64 -66h-113z" />
<glyph unicode="&#x136;" horiz-adv-x="694" d="M350 -37q29 0 51.5 -19t22.5 -53q0 -20 -7.5 -38.5t-20 -35.5t-28.5 -31.5t-34 -27.5l-45 31q9 8 19 18.5t10 27.5q0 12 -5 19t-11 14.5t-11 16.5t-5 25q0 23 19 38t45 15zM402 84q8 2 21.5 4.5t29.5 4.5l-207 242v-241q19 -1 38 -4t28 -6v-84h-286v84q12 3 36 6t43 3 v480q-19 0 -43 3t-36 6v84h285v-84q-8 -3 -27.5 -6t-37.5 -4v-230l198 232q-16 2 -30 4t-21 4v84h273v-84q-8 -3 -31 -5.5t-43 -3.5l-197 -217l229 -263q17 -1 36 -4t28 -5v-84h-286v84z" />
<glyph unicode="&#x137;" horiz-adv-x="561" d="M17 84q11 3 30.5 6t38.5 3v533q-22 2 -40.5 3.5t-32.5 1.5v84q26 3 82.5 5.5t128.5 2.5l-5 -80v-550q17 0 32.5 -2.5t26.5 -6.5v-84h-261v84zM220 249l126 150q-13 1 -26 3t-18 4v81h247v-84q-8 -3 -26.5 -5t-39.5 -4l-120 -131l135 -171q20 -2 34.5 -4t22.5 -4v-84h-152 zM304 -37q29 0 51.5 -19t22.5 -53q0 -20 -7.5 -38.5t-20 -35.5t-28.5 -31.5t-34 -27.5l-45 31q9 8 19 18.5t10 27.5q0 12 -5 19t-11 14.5t-11 16.5t-5 25q0 23 19 38t45 15z" />
<glyph unicode="&#x139;" horiz-adv-x="555" d="M195 852h172l-140 -135h-115zM26 84q12 3 36 6t43 3v480q-19 0 -43 3t-36 6v84h300v-84q-12 -3 -35.5 -6t-43.5 -3v-467h173q0 13 1 28.5t2.5 29.5t2.5 25.5t3 17.5h101v-207h-504v84z" />
<glyph unicode="&#x13a;" horiz-adv-x="304" d="M170 908h172l-140 -135h-115zM17 84q11 3 30.5 6t38.5 3v533q-22 2 -40.5 3.5t-32.5 1.5v84q26 3 82.5 5.5t128.5 2.5l-5 -80v-550q17 0 37 -3t31 -6v-84h-270v84z" />
<glyph unicode="&#x13b;" horiz-adv-x="555" d="M302 -37q29 0 51.5 -19t22.5 -53q0 -20 -7.5 -38.5t-20 -35.5t-28.5 -31.5t-34 -27.5l-45 31q9 8 19 18.5t10 27.5q0 12 -5 19t-11 14.5t-11 16.5t-5 25q0 23 19 38t45 15zM26 84q12 3 36 6t43 3v480q-19 0 -43 3t-36 6v84h300v-84q-12 -3 -35.5 -6t-43.5 -3v-467h173 q0 13 1 28.5t2.5 29.5t2.5 25.5t3 17.5h101v-207h-504v84z" />
<glyph unicode="&#x13c;" horiz-adv-x="304" d="M150 -37q29 0 51.5 -19t22.5 -53q0 -20 -7.5 -38.5t-20 -35.5t-28.5 -31.5t-34 -27.5l-45 31q9 8 19 18.5t10 27.5q0 12 -5 19t-11 14.5t-11 16.5t-5 25q0 23 19 38t45 15zM17 84q11 3 30.5 6t38.5 3v533q-22 2 -40.5 3.5t-32.5 1.5v84q26 3 82.5 5.5t128.5 2.5l-5 -80 v-550q17 0 37 -3t31 -6v-84h-270v84z" />
<glyph unicode="&#x13d;" horiz-adv-x="555" d="M391 667h137l-81 -175h-92zM26 84q12 3 36 6t43 3v480q-19 0 -43 3t-36 6v84h300v-84q-12 -3 -35.5 -6t-43.5 -3v-467h173q0 13 1 28.5t2.5 29.5t2.5 25.5t3 17.5h101v-207h-504v84z" />
<glyph unicode="&#x13e;" horiz-adv-x="304" d="M282 720h137l-81 -175h-92zM17 84q11 3 30.5 6t38.5 3v533q-22 2 -40.5 3.5t-32.5 1.5v84q26 3 82.5 5.5t128.5 2.5l-5 -80v-550q17 0 37 -3t31 -6v-84h-270v84z" />
<glyph unicode="&#x13f;" horiz-adv-x="555" d="M26 84q12 3 36 6t43 3v480q-19 0 -43 3t-36 6v84h300v-84q-12 -3 -35.5 -6t-43.5 -3v-467h173q0 13 1 28.5t2.5 29.5t2.5 25.5t3 17.5h101v-207h-504v84zM407 321q-32 0 -53 21t-21 51q0 29 21 50t53 21t53 -21t21 -50q0 -30 -21 -51t-53 -21z" />
<glyph unicode="&#x140;" horiz-adv-x="372" d="M17 84q11 3 30.5 6t38.5 3v533q-22 2 -40.5 3.5t-32.5 1.5v84q26 3 82.5 5.5t128.5 2.5l-5 -80v-550q17 0 37 -3t31 -6v-84h-270v84zM338 243q-32 0 -53 21t-21 51q0 29 21 50t53 21t53 -21t21 -50q0 -30 -21 -51t-53 -21z" />
<glyph unicode="&#x141;" horiz-adv-x="564" d="M10 269l104 70v234q-19 0 -43 3t-36 6v84h300v-84q-12 -3 -35.5 -6t-43.5 -3v-138l98 67l49 -71l-147 -99v-226h173q0 13 1 28.5t2.5 29.5t2.5 25.5t3 17.5h101v-207h-504v84q12 3 36 6t43 3v143l-56 -38z" />
<glyph unicode="&#x142;" horiz-adv-x="320" d="M28 303l66 44v279q-22 2 -40.5 3.5t-32.5 1.5v84q26 3 82.5 5.5t128.5 2.5l-5 -80v-208l65 44v-102l-65 -43v-241q17 0 37 -3t31 -6v-84h-270v84q11 3 30.5 6t38.5 3v152l-66 -43v101z" />
<glyph unicode="&#x143;" horiz-adv-x="792" d="M418 852h172l-140 -135h-115zM26 84q12 3 36 6t43 3v480q-19 0 -43 3t-36 6v84h212l267 -354q13 -18 25.5 -35.5t23 -33.5t17.5 -27.5t10 -17.5h2q-2 11 -3 42t-1 69v264q-20 0 -42.5 3t-33.5 6v84h272v-84q-12 -3 -34.5 -6t-41.5 -3v-573h-120l-286 378q-12 16 -24 33 t-21.5 32t-16 26t-8.5 15h-2q1 -9 2 -37t1 -57v-297q20 0 43 -3t36 -6v-84h-277v84z" />
<glyph unicode="&#x144;" horiz-adv-x="613" d="M25 84q11 3 32.5 6t40.5 3v304q-22 2 -41 3t-32 1v84q26 3 81.5 5.5t124.5 2.5l-4 -73h2q24 33 61 56t92 23q40 0 68 -12t45.5 -33t25.5 -50t8 -63v-248q17 0 37.5 -3t30.5 -6v-84h-201v318q0 37 -15.5 55.5t-50.5 18.5q-33 0 -58.5 -20t-40.5 -41v-238q19 -1 37.5 -3.5 t27.5 -5.5v-84h-271v84zM323 676h172l-140 -135h-115z" />
<glyph unicode="&#x145;" horiz-adv-x="792" d="M397 -37q29 0 51.5 -19t22.5 -53q0 -20 -7.5 -38.5t-20 -35.5t-28.5 -31.5t-34 -27.5l-45 31q9 8 19 18.5t10 27.5q0 12 -5 19t-11 14.5t-11 16.5t-5 25q0 23 19 38t45 15zM26 84q12 3 36 6t43 3v480q-19 0 -43 3t-36 6v84h212l267 -354q13 -18 25.5 -35.5t23 -33.5 t17.5 -27.5t10 -17.5h2q-2 11 -3 42t-1 69v264q-20 0 -42.5 3t-33.5 6v84h272v-84q-12 -3 -34.5 -6t-41.5 -3v-573h-120l-286 378q-12 16 -24 33t-21.5 32t-16 26t-8.5 15h-2q1 -9 2 -37t1 -57v-297q20 0 43 -3t36 -6v-84h-277v84z" />
<glyph unicode="&#x146;" horiz-adv-x="613" d="M25 84q11 3 32.5 6t40.5 3v304q-22 2 -41 3t-32 1v84q26 3 81.5 5.5t124.5 2.5l-4 -73h2q24 33 61 56t92 23q40 0 68 -12t45.5 -33t25.5 -50t8 -63v-248q17 0 37.5 -3t30.5 -6v-84h-201v318q0 37 -15.5 55.5t-50.5 18.5q-33 0 -58.5 -20t-40.5 -41v-238q19 -1 37.5 -3.5 t27.5 -5.5v-84h-271v84zM307 -37q29 0 51.5 -19t22.5 -53q0 -20 -7.5 -38.5t-20 -35.5t-28.5 -31.5t-34 -27.5l-45 31q9 8 19 18.5t10 27.5q0 12 -5 19t-11 14.5t-11 16.5t-5 25q0 23 19 38t45 15z" />
<glyph unicode="&#x147;" horiz-adv-x="792" d="M224 876h113l64 -66l64 66h113l-127 -159h-102zM26 84q12 3 36 6t43 3v480q-19 0 -43 3t-36 6v84h212l267 -354q13 -18 25.5 -35.5t23 -33.5t17.5 -27.5t10 -17.5h2q-2 11 -3 42t-1 69v264q-20 0 -42.5 3t-33.5 6v84h272v-84q-12 -3 -34.5 -6t-41.5 -3v-573h-120 l-286 378q-12 16 -24 33t-21.5 32t-16 26t-8.5 15h-2q1 -9 2 -37t1 -57v-297q20 0 43 -3t36 -6v-84h-277v84z" />
<glyph unicode="&#x148;" horiz-adv-x="613" d="M25 84q11 3 32.5 6t40.5 3v304q-22 2 -41 3t-32 1v84q26 3 81.5 5.5t124.5 2.5l-4 -73h2q24 33 61 56t92 23q40 0 68 -12t45.5 -33t25.5 -50t8 -63v-248q17 0 37.5 -3t30.5 -6v-84h-201v318q0 37 -15.5 55.5t-50.5 18.5q-33 0 -58.5 -20t-40.5 -41v-238q19 -1 37.5 -3.5 t27.5 -5.5v-84h-271v84zM129 700h113l64 -66l64 66h113l-127 -159h-102z" />
<glyph unicode="&#x14c;" horiz-adv-x="754" d="M235 833h283v-95h-283v95zM380 -12q-84 0 -148.5 27t-108.5 73t-66.5 107.5t-22.5 130.5t22 132.5t65.5 112t107.5 78t148 29.5t148 -26.5t107.5 -72t65.5 -107t22 -130.5t-21.5 -132.5t-64.5 -113t-106.5 -79t-147.5 -29.5zM377 92q50 0 86.5 19t60.5 52t36 76.5 t12 92.5t-11.5 93t-35 77t-60 52.5t-85.5 19.5q-50 0 -87 -19t-61.5 -51.5t-36.5 -75.5t-12 -92t12 -93.5t36 -78t60.5 -53t85.5 -19.5z" />
<glyph unicode="&#x14d;" horiz-adv-x="543" d="M128 657h283v-95h-283v95zM270 -12q-64 0 -110 21.5t-75.5 56.5t-43.5 80.5t-14 93.5q0 47 14.5 93.5t44 83t75.5 59.5t109 23q64 0 110.5 -21t76.5 -56t44.5 -80.5t14.5 -94.5q0 -46 -14.5 -92.5t-45 -83.5t-77 -60t-109.5 -23zM272 86q28 0 48 11.5t32 32.5t17.5 49.5 t5.5 62.5t-6 63.5t-18.5 51t-33 33.5t-48.5 12q-29 0 -48.5 -11.5t-31.5 -32.5t-17 -49.5t-5 -62.5t5.5 -63.5t18.5 -51t32.5 -33.5t48.5 -12z" />
<glyph unicode="&#x14e;" horiz-adv-x="754" d="M380 -12q-84 0 -148.5 27t-108.5 73t-66.5 107.5t-22.5 130.5t22 132.5t65.5 112t107.5 78t148 29.5t148 -26.5t107.5 -72t65.5 -107t22 -130.5t-21.5 -132.5t-64.5 -113t-106.5 -79t-147.5 -29.5zM377 92q50 0 86.5 19t60.5 52t36 76.5t12 92.5t-11.5 93t-35 77 t-60 52.5t-85.5 19.5q-50 0 -87 -19t-61.5 -51.5t-36.5 -75.5t-12 -92t12 -93.5t36 -78t60.5 -53t85.5 -19.5zM377 706q-31 0 -59.5 9t-52 27.5t-38.5 47t-19 67.5h109q2 -30 17 -47.5t43 -17.5q27 0 42 17.5t18 47.5h108q-3 -39 -18.5 -67.5t-38.5 -47t-51.5 -27.5 t-59.5 -9z" />
<glyph unicode="&#x14f;" horiz-adv-x="543" d="M270 -12q-64 0 -110 21.5t-75.5 56.5t-43.5 80.5t-14 93.5q0 47 14.5 93.5t44 83t75.5 59.5t109 23q64 0 110.5 -21t76.5 -56t44.5 -80.5t14.5 -94.5q0 -46 -14.5 -92.5t-45 -83.5t-77 -60t-109.5 -23zM272 86q28 0 48 11.5t32 32.5t17.5 49.5t5.5 62.5t-6 63.5t-18.5 51 t-33 33.5t-48.5 12q-29 0 -48.5 -11.5t-31.5 -32.5t-17 -49.5t-5 -62.5t5.5 -63.5t18.5 -51t32.5 -33.5t48.5 -12zM270 530q-31 0 -59.5 9t-52 27.5t-38.5 47t-19 67.5h109q2 -30 17 -47.5t43 -17.5q27 0 42 17.5t18 47.5h108q-3 -39 -18.5 -67.5t-38.5 -47t-51.5 -27.5 t-59.5 -9z" />
<glyph unicode="&#x150;" horiz-adv-x="754" d="M304 852h154l-140 -135h-106zM506 852h154l-140 -135h-106zM380 -12q-84 0 -148.5 27t-108.5 73t-66.5 107.5t-22.5 130.5t22 132.5t65.5 112t107.5 78t148 29.5t148 -26.5t107.5 -72t65.5 -107t22 -130.5t-21.5 -132.5t-64.5 -113t-106.5 -79t-147.5 -29.5zM377 92 q50 0 86.5 19t60.5 52t36 76.5t12 92.5t-11.5 93t-35 77t-60 52.5t-85.5 19.5q-50 0 -87 -19t-61.5 -51.5t-36.5 -75.5t-12 -92t12 -93.5t36 -78t60.5 -53t85.5 -19.5z" />
<glyph unicode="&#x151;" horiz-adv-x="543" d="M197 676h154l-140 -135h-106zM399 676h154l-140 -135h-106zM270 -12q-64 0 -110 21.5t-75.5 56.5t-43.5 80.5t-14 93.5q0 47 14.5 93.5t44 83t75.5 59.5t109 23q64 0 110.5 -21t76.5 -56t44.5 -80.5t14.5 -94.5q0 -46 -14.5 -92.5t-45 -83.5t-77 -60t-109.5 -23zM272 86 q28 0 48 11.5t32 32.5t17.5 49.5t5.5 62.5t-6 63.5t-18.5 51t-33 33.5t-48.5 12q-29 0 -48.5 -11.5t-31.5 -32.5t-17 -49.5t-5 -62.5t5.5 -63.5t18.5 -51t32.5 -33.5t48.5 -12z" />
<glyph unicode="&#x152;" horiz-adv-x="942" d="M380 -12q-84 0 -148.5 28.5t-108.5 76t-66.5 109.5t-22.5 130t22 130.5t65.5 110.5t107.5 76.5t148 28.5q26 0 52 -3.5t49 -8.5h420v-188h-103q-2 11 -5 36t-4 48h-175v-175h86q2 20 4.5 38t4.5 29h90v-230h-90q-2 10 -4.5 28t-4.5 38h-86v-186h183q0 11 1 24t2 25 t2.5 21t2.5 14h103v-188h-421q-22 -5 -49.5 -8.5t-54.5 -3.5zM377 97q30 0 53 5.5t42 14.5v431q-17 9 -39.5 15t-52.5 6q-50 0 -87 -19t-61.5 -51t-36.5 -74.5t-12 -88.5q0 -47 11.5 -90t35.5 -76t60.5 -53t86.5 -20z" />
<glyph unicode="&#x153;" horiz-adv-x="857" d="M270 -12q-64 0 -110 21.5t-75.5 56.5t-43.5 80.5t-14 93.5q0 47 14.5 93.5t44 83t75.5 59.5t109 23q61 0 104 -20.5t71 -53.5q31 35 75.5 54.5t98.5 19.5q51 0 89.5 -16t64.5 -45.5t39 -70.5t13 -91q0 -11 -0.5 -29.5t-2.5 -30.5h-309q2 -61 35.5 -96.5t94.5 -35.5 q45 0 75 11.5t48 22.5l41 -82q-12 -7 -28.5 -15.5t-39 -15.5t-51.5 -12t-65 -5q-60 0 -105.5 20.5t-76.5 55.5q-29 -33 -71 -54.5t-100 -21.5zM272 86q28 0 48 11.5t32 32.5t17.5 49.5t5.5 62.5t-6 63.5t-18.5 51t-33 33.5t-48.5 12q-29 0 -48.5 -11.5t-31.5 -32.5 t-17 -49.5t-5 -62.5t5.5 -63.5t18.5 -51t32.5 -33.5t48.5 -12zM611 410q-45 0 -69.5 -29t-29.5 -80h182q0 46 -19 77.5t-64 31.5z" />
<glyph unicode="&#x154;" horiz-adv-x="662" d="M343 852h172l-140 -135h-115zM26 84q12 3 36 6t43 3v480q-19 0 -43 3t-36 6v84h308q119 0 183 -47t64 -141q0 -39 -12.5 -69.5t-33.5 -52t-49 -35t-59 -18.5v-2q20 -11 39.5 -32.5t42.5 -58.5l47 -71q17 -26 37 -40.5t55 -14.5h9v-84q-11 -4 -30 -7t-43 -3q-27 0 -48 4 t-37.5 13t-30 23.5t-26.5 36.5l-74 123q-17 28 -30 45t-24.5 26t-23.5 12t-27 3h-16v-183q20 -1 38.5 -4t29.5 -5v-84h-289v84zM327 369q55 0 82 25.5t27 73.5q0 50 -27.5 74t-87.5 24h-74v-197h80z" />
<glyph unicode="&#x155;" horiz-adv-x="422" d="M265 676h172l-140 -135h-115zM25 84q11 3 32.5 6t40.5 3v304q-22 2 -41 3t-32 1v84q26 3 82 5.5t125 2.5l-5 -84h2q7 15 19 31t28 29t35.5 21.5t42.5 8.5q27 0 42.5 -4t23.5 -9l-31 -115q-6 4 -19 8t-33 4q-21 0 -38.5 -8t-31 -19t-23 -23t-13.5 -20v-220q9 0 21 -1 l24 -2t22 -3l15 -3v-84h-288v84z" />
<glyph unicode="&#x156;" horiz-adv-x="662" d="M353 -37q29 0 51.5 -19t22.5 -53q0 -20 -7.5 -38.5t-20 -35.5t-28.5 -31.5t-34 -27.5l-45 31q9 8 19 18.5t10 27.5q0 12 -5 19t-11 14.5t-11 16.5t-5 25q0 23 19 38t45 15zM26 84q12 3 36 6t43 3v480q-19 0 -43 3t-36 6v84h308q119 0 183 -47t64 -141q0 -39 -12.5 -69.5 t-33.5 -52t-49 -35t-59 -18.5v-2q20 -11 39.5 -32.5t42.5 -58.5l47 -71q17 -26 37 -40.5t55 -14.5h9v-84q-11 -4 -30 -7t-43 -3q-27 0 -48 4t-37.5 13t-30 23.5t-26.5 36.5l-74 123q-17 28 -30 45t-24.5 26t-23.5 12t-27 3h-16v-183q20 -1 38.5 -4t29.5 -5v-84h-289v84z M327 369q55 0 82 25.5t27 73.5q0 50 -27.5 74t-87.5 24h-74v-197h80z" />
<glyph unicode="&#x157;" horiz-adv-x="422" d="M162 -37q29 0 51.5 -19t22.5 -53q0 -20 -7.5 -38.5t-20 -35.5t-28.5 -31.5t-34 -27.5l-45 31q9 8 19 18.5t10 27.5q0 12 -5 19t-11 14.5t-11 16.5t-5 25q0 23 19 38t45 15zM25 84q11 3 32.5 6t40.5 3v304q-22 2 -41 3t-32 1v84q26 3 82 5.5t125 2.5l-5 -84h2q7 15 19 31 t28 29t35.5 21.5t42.5 8.5q27 0 42.5 -4t23.5 -9l-31 -115q-6 4 -19 8t-33 4q-21 0 -38.5 -8t-31 -19t-23 -23t-13.5 -20v-220q9 0 21 -1l24 -2t22 -3l15 -3v-84h-288v84z" />
<glyph unicode="&#x158;" horiz-adv-x="662" d="M149 876h113l64 -66l64 66h113l-127 -159h-102zM26 84q12 3 36 6t43 3v480q-19 0 -43 3t-36 6v84h308q119 0 183 -47t64 -141q0 -39 -12.5 -69.5t-33.5 -52t-49 -35t-59 -18.5v-2q20 -11 39.5 -32.5t42.5 -58.5l47 -71q17 -26 37 -40.5t55 -14.5h9v-84q-11 -4 -30 -7 t-43 -3q-27 0 -48 4t-37.5 13t-30 23.5t-26.5 36.5l-74 123q-17 28 -30 45t-24.5 26t-23.5 12t-27 3h-16v-183q20 -1 38.5 -4t29.5 -5v-84h-289v84zM327 369q55 0 82 25.5t27 73.5q0 50 -27.5 74t-87.5 24h-74v-197h80z" />
<glyph unicode="&#x159;" horiz-adv-x="422" d="M73 700h113l64 -66l64 66h113l-127 -159h-102zM25 84q11 3 32.5 6t40.5 3v304q-22 2 -41 3t-32 1v84q26 3 82 5.5t125 2.5l-5 -84h2q7 15 19 31t28 29t35.5 21.5t42.5 8.5q27 0 42.5 -4t23.5 -9l-31 -115q-6 4 -19 8t-33 4q-21 0 -38.5 -8t-31 -19t-23 -23t-13.5 -20 v-220q9 0 21 -1l24 -2t22 -3l15 -3v-84h-288v84z" />
<glyph unicode="&#x15a;" horiz-adv-x="537" d="M289 852h172l-140 -135h-115zM258 -12q-39 0 -73.5 4.5t-63 11.5t-49 15.5t-31.5 17.5v163h103q2 -13 4 -41.5t3 -51.5q20 -6 45 -10t57 -4q54 0 82.5 24.5t28.5 58.5q0 22 -10.5 38.5t-28.5 29.5t-43 23t-54 20q-39 13 -72 29t-57 39.5t-37.5 56.5t-13.5 80 q0 43 17 77.5t47 58.5t72 37t92 13q78 0 130.5 -15.5t72.5 -30.5v-163h-102q-1 6 -2.5 17t-2.5 24t-1.5 26.5t-0.5 24.5q-20 6 -43 10t-50 4q-45 0 -70.5 -21t-25.5 -54q0 -20 8 -34.5t23 -26t37 -21t50 -19.5q39 -15 75.5 -31.5t64 -40.5t44 -57t16.5 -81q0 -45 -17 -82.5 t-48 -63.5t-76 -40.5t-100 -14.5z" />
<glyph unicode="&#x15b;" horiz-adv-x="473" d="M250 676h172l-140 -135h-115zM223 -12q-59 0 -109 11t-74 25v132h94q0 -2 1 -10t2 -18t1.5 -19t0.5 -14q19 -5 40 -9t44 -4q41 0 63.5 13t22.5 36q0 15 -8.5 24.5t-23.5 17t-34.5 13t-40.5 11.5q-27 7 -55 17t-50.5 27.5t-36.5 44t-14 67.5q0 71 51.5 108.5t143.5 37.5 q31 0 59.5 -3.5t51.5 -8.5t40 -11t25 -11v-130h-94q-2 8 -3.5 26t-2.5 35q-17 4 -35.5 7t-37.5 3q-79 0 -79 -47q0 -14 9 -23.5t24.5 -16.5t36 -12.5t42.5 -11.5q28 -8 55.5 -18t50 -26.5t36.5 -41.5t14 -63t-15 -67.5t-43 -49.5t-66.5 -30.5t-85.5 -10.5z" />
<glyph unicode="&#x15c;" horiz-adv-x="537" d="M222 877h102l125 -159h-113l-64 66l-64 -66h-113zM258 -12q-39 0 -73.5 4.5t-63 11.5t-49 15.5t-31.5 17.5v163h103q2 -13 4 -41.5t3 -51.5q20 -6 45 -10t57 -4q54 0 82.5 24.5t28.5 58.5q0 22 -10.5 38.5t-28.5 29.5t-43 23t-54 20q-39 13 -72 29t-57 39.5t-37.5 56.5 t-13.5 80q0 43 17 77.5t47 58.5t72 37t92 13q78 0 130.5 -15.5t72.5 -30.5v-163h-102q-1 6 -2.5 17t-2.5 24t-1.5 26.5t-0.5 24.5q-20 6 -43 10t-50 4q-45 0 -70.5 -21t-25.5 -54q0 -20 8 -34.5t23 -26t37 -21t50 -19.5q39 -15 75.5 -31.5t64 -40.5t44 -57t16.5 -81 q0 -45 -17 -82.5t-48 -63.5t-76 -40.5t-100 -14.5z" />
<glyph unicode="&#x15d;" horiz-adv-x="473" d="M185 701h102l125 -159h-113l-64 66l-64 -66h-113zM223 -12q-59 0 -109 11t-74 25v132h94q0 -2 1 -10t2 -18t1.5 -19t0.5 -14q19 -5 40 -9t44 -4q41 0 63.5 13t22.5 36q0 15 -8.5 24.5t-23.5 17t-34.5 13t-40.5 11.5q-27 7 -55 17t-50.5 27.5t-36.5 44t-14 67.5 q0 71 51.5 108.5t143.5 37.5q31 0 59.5 -3.5t51.5 -8.5t40 -11t25 -11v-130h-94q-2 8 -3.5 26t-2.5 35q-17 4 -35.5 7t-37.5 3q-79 0 -79 -47q0 -14 9 -23.5t24.5 -16.5t36 -12.5t42.5 -11.5q28 -8 55.5 -18t50 -26.5t36.5 -41.5t14 -63t-15 -67.5t-43 -49.5t-66.5 -30.5 t-85.5 -10.5z" />
<glyph unicode="&#x15e;" horiz-adv-x="537" d="M258 -12q-39 0 -73.5 4.5t-63 11.5t-49 15.5t-31.5 17.5v163h103q2 -13 4 -41.5t3 -51.5q20 -6 45 -10t57 -4q54 0 82.5 24.5t28.5 58.5q0 22 -10.5 38.5t-28.5 29.5t-43 23t-54 20q-39 13 -72 29t-57 39.5t-37.5 56.5t-13.5 80q0 43 17 77.5t47 58.5t72 37t92 13 q78 0 130.5 -15.5t72.5 -30.5v-163h-102q-1 6 -2.5 17t-2.5 24t-1.5 26.5t-0.5 24.5q-20 6 -43 10t-50 4q-45 0 -70.5 -21t-25.5 -54q0 -20 8 -34.5t23 -26t37 -21t50 -19.5q39 -15 75.5 -31.5t64 -40.5t44 -57t16.5 -81q0 -45 -17 -82.5t-48 -63.5t-76 -40.5t-100 -14.5z M243 -230q-32 0 -52 5t-30 10l17 60q8 -4 21 -7.5t30 -3.5q22 0 35 8.5t13 25.5q0 23 -18.5 30.5t-41.5 7.5h-11l36 97h76l-21 -58q31 -7 51 -28t20 -54q0 -42 -34.5 -67.5t-90.5 -25.5z" />
<glyph unicode="&#x15f;" horiz-adv-x="473" d="M223 -12q-59 0 -109 11t-74 25v132h94q0 -2 1 -10t2 -18t1.5 -19t0.5 -14q19 -5 40 -9t44 -4q41 0 63.5 13t22.5 36q0 15 -8.5 24.5t-23.5 17t-34.5 13t-40.5 11.5q-27 7 -55 17t-50.5 27.5t-36.5 44t-14 67.5q0 71 51.5 108.5t143.5 37.5q31 0 59.5 -3.5t51.5 -8.5 t40 -11t25 -11v-130h-94q-2 8 -3.5 26t-2.5 35q-17 4 -35.5 7t-37.5 3q-79 0 -79 -47q0 -14 9 -23.5t24.5 -16.5t36 -12.5t42.5 -11.5q28 -8 55.5 -18t50 -26.5t36.5 -41.5t14 -63t-15 -67.5t-43 -49.5t-66.5 -30.5t-85.5 -10.5zM208 -230q-32 0 -52 5t-30 10l17 60 q8 -4 21 -7.5t30 -3.5q22 0 35 8.5t13 25.5q0 23 -18.5 30.5t-41.5 7.5h-11l36 97h76l-21 -58q31 -7 51 -28t20 -54q0 -42 -34.5 -67.5t-90.5 -25.5z" />
<glyph unicode="&#x160;" horiz-adv-x="537" d="M95 876h113l64 -66l64 66h113l-127 -159h-102zM258 -12q-39 0 -73.5 4.5t-63 11.5t-49 15.5t-31.5 17.5v163h103q2 -13 4 -41.5t3 -51.5q20 -6 45 -10t57 -4q54 0 82.5 24.5t28.5 58.5q0 22 -10.5 38.5t-28.5 29.5t-43 23t-54 20q-39 13 -72 29t-57 39.5t-37.5 56.5 t-13.5 80q0 43 17 77.5t47 58.5t72 37t92 13q78 0 130.5 -15.5t72.5 -30.5v-163h-102q-1 6 -2.5 17t-2.5 24t-1.5 26.5t-0.5 24.5q-20 6 -43 10t-50 4q-45 0 -70.5 -21t-25.5 -54q0 -20 8 -34.5t23 -26t37 -21t50 -19.5q39 -15 75.5 -31.5t64 -40.5t44 -57t16.5 -81 q0 -45 -17 -82.5t-48 -63.5t-76 -40.5t-100 -14.5z" />
<glyph unicode="&#x161;" horiz-adv-x="473" d="M58 700h113l64 -66l64 66h113l-127 -159h-102zM223 -12q-59 0 -109 11t-74 25v132h94q0 -2 1 -10t2 -18t1.5 -19t0.5 -14q19 -5 40 -9t44 -4q41 0 63.5 13t22.5 36q0 15 -8.5 24.5t-23.5 17t-34.5 13t-40.5 11.5q-27 7 -55 17t-50.5 27.5t-36.5 44t-14 67.5 q0 71 51.5 108.5t143.5 37.5q31 0 59.5 -3.5t51.5 -8.5t40 -11t25 -11v-130h-94q-2 8 -3.5 26t-2.5 35q-17 4 -35.5 7t-37.5 3q-79 0 -79 -47q0 -14 9 -23.5t24.5 -16.5t36 -12.5t42.5 -11.5q28 -8 55.5 -18t50 -26.5t36.5 -41.5t14 -63t-15 -67.5t-43 -49.5t-66.5 -30.5 t-85.5 -10.5z" />
<glyph unicode="&#x162;" horiz-adv-x="659" d="M324 -37q29 0 51.5 -19t22.5 -53q0 -20 -7.5 -38.5t-20 -35.5t-28.5 -31.5t-34 -27.5l-45 31q9 8 19 18.5t10 27.5q0 12 -5 19t-11 14.5t-11 16.5t-5 25q0 23 19 38t45 15zM179 84q12 3 35.5 6t43.5 3v469h-123q0 -13 -1 -28t-2 -29t-2.5 -25.5t-2.5 -16.5h-103v203h611 v-203h-103q-1 5 -2.5 16.5t-3 25.5t-2.5 29t-1 28h-124v-469q9 0 20.5 -1t22.5 -2t20.5 -3t15.5 -3v-84h-299v84z" />
<glyph unicode="&#x163;" horiz-adv-x="385" d="M226 -37q29 0 51.5 -19t22.5 -53q0 -20 -7.5 -38.5t-20 -35.5t-28.5 -31.5t-34 -27.5l-45 31q9 8 19 18.5t10 27.5q0 12 -5 19t-11 14.5t-11 16.5t-5 25q0 23 19 38t45 15zM247 -12q-86 0 -120.5 41t-34.5 111v248h-75v99h75v141h132v-141h120v-99h-120v-227 q0 -36 13 -51.5t40 -15.5q22 0 38 6.5t24 11.5l30 -96q-15 -9 -45.5 -18.5t-76.5 -9.5z" />
<glyph unicode="&#x164;" horiz-adv-x="659" d="M150 876h113l64 -66l64 66h113l-127 -159h-102zM179 84q12 3 35.5 6t43.5 3v469h-123q0 -13 -1 -28t-2 -29t-2.5 -25.5t-2.5 -16.5h-103v203h611v-203h-103q-1 5 -2.5 16.5t-3 25.5t-2.5 29t-1 28h-124v-469q9 0 20.5 -1t22.5 -2t20.5 -3t15.5 -3v-84h-299v84z" />
<glyph unicode="&#x165;" horiz-adv-x="385" d="M291 720h137l-81 -175h-92zM247 -12q-86 0 -120.5 41t-34.5 111v248h-75v99h75v141h132v-141h120v-99h-120v-227q0 -36 13 -51.5t40 -15.5q22 0 38 6.5t24 11.5l30 -96q-15 -9 -45.5 -18.5t-76.5 -9.5z" />
<glyph unicode="&#x166;" horiz-adv-x="659" d="M125 354h133v208h-123q0 -13 -1 -28t-2 -29t-2.5 -25.5t-2.5 -16.5h-103v203h611v-203h-103q-1 5 -2.5 16.5t-3 25.5t-2.5 29t-1 28h-124v-208h133v-93h-133v-168q9 0 20.5 -1t22.5 -2t20.5 -3t15.5 -3v-84h-299v84q12 3 35.5 6t43.5 3v168h-133v93z" />
<glyph unicode="&#x167;" horiz-adv-x="385" d="M38 301h54v87h-75v99h75v141h132v-141h120v-99h-120v-87h84v-90h-84v-50q0 -36 13 -51.5t40 -15.5q22 0 38 6.5t24 11.5l30 -96q-15 -9 -45.5 -18.5t-76.5 -9.5q-86 0 -120.5 41t-34.5 111v65h-54v96z" />
<glyph unicode="&#x168;" horiz-adv-x="731" d="M370 -12q-144 0 -211.5 70t-67.5 199v316q-20 0 -39.5 3t-30.5 6v84h284v-84q-11 -3 -32 -6t-41 -3v-312q0 -85 34.5 -125t113.5 -40q75 0 108 41.5t33 115.5v320q-20 0 -41 3t-31 6v84h260v-84q-11 -3 -30 -6t-39 -3v-303q0 -137 -65 -209.5t-205 -72.5zM431 722 q-23 0 -38 5.5t-28 12t-25 12t-27 5.5q-18 0 -32 -11t-22 -19l-61 53q7 12 18 25.5t25.5 24.5t32 18t37.5 7q23 0 38.5 -5.5t28 -12t24.5 -12t27 -5.5q21 0 35 11.5t21 19.5l61 -53q-8 -13 -19 -26.5t-25.5 -24.5t-32 -18t-38.5 -7z" />
<glyph unicode="&#x169;" horiz-adv-x="598" d="M227 -12q-40 0 -68 12t-45.5 33.5t-25.5 50.5t-8 62v251q-20 2 -35.5 3t-27.5 1v84q26 3 79 5.5t122 2.5l-5 -79v-245q0 -37 15 -55.5t50 -18.5q17 0 32 5.5t27.5 14.5t22.5 20t18 21v241q-20 2 -37 3t-30 1v84q26 3 81 5.5t124 2.5l-5 -79v-281q0 -13 0.5 -23.5 t1.5 -20.5q20 -2 37.5 -3t28.5 -1v-85q-24 -2 -72.5 -4t-113.5 -2q-3 12 -6 36t-3 40h-2q-26 -33 -62 -57.5t-93 -24.5zM354 546q-23 0 -38 5.5t-28 12t-25 12t-27 5.5q-18 0 -32 -11t-22 -19l-61 53q7 12 18 25.5t25.5 24.5t32 18t37.5 7q23 0 38.5 -5.5t28 -12t24.5 -12 t27 -5.5q21 0 35 11.5t21 19.5l61 -53q-8 -13 -19 -26.5t-25.5 -24.5t-32 -18t-38.5 -7z" />
<glyph unicode="&#x16a;" horiz-adv-x="731" d="M370 -12q-144 0 -211.5 70t-67.5 199v316q-20 0 -39.5 3t-30.5 6v84h284v-84q-11 -3 -32 -6t-41 -3v-312q0 -85 34.5 -125t113.5 -40q75 0 108 41.5t33 115.5v320q-20 0 -41 3t-31 6v84h260v-84q-11 -3 -30 -6t-39 -3v-303q0 -137 -65 -209.5t-205 -72.5zM231 833h283 v-95h-283v95z" />
<glyph unicode="&#x16b;" horiz-adv-x="598" d="M227 -12q-40 0 -68 12t-45.5 33.5t-25.5 50.5t-8 62v251q-20 2 -35.5 3t-27.5 1v84q26 3 79 5.5t122 2.5l-5 -79v-245q0 -37 15 -55.5t50 -18.5q17 0 32 5.5t27.5 14.5t22.5 20t18 21v241q-20 2 -37 3t-30 1v84q26 3 81 5.5t124 2.5l-5 -79v-281q0 -13 0.5 -23.5 t1.5 -20.5q20 -2 37.5 -3t28.5 -1v-85q-24 -2 -72.5 -4t-113.5 -2q-3 12 -6 36t-3 40h-2q-26 -33 -62 -57.5t-93 -24.5zM154 657h283v-95h-283v95z" />
<glyph unicode="&#x16c;" horiz-adv-x="731" d="M370 -12q-144 0 -211.5 70t-67.5 199v316q-20 0 -39.5 3t-30.5 6v84h284v-84q-11 -3 -32 -6t-41 -3v-312q0 -85 34.5 -125t113.5 -40q75 0 108 41.5t33 115.5v320q-20 0 -41 3t-31 6v84h260v-84q-11 -3 -30 -6t-39 -3v-303q0 -137 -65 -209.5t-205 -72.5zM372 706 q-31 0 -59.5 9t-52 27.5t-38.5 47t-19 67.5h109q2 -30 17 -47.5t43 -17.5q27 0 42 17.5t18 47.5h108q-3 -39 -18.5 -67.5t-38.5 -47t-51.5 -27.5t-59.5 -9z" />
<glyph unicode="&#x16d;" horiz-adv-x="598" d="M227 -12q-40 0 -68 12t-45.5 33.5t-25.5 50.5t-8 62v251q-20 2 -35.5 3t-27.5 1v84q26 3 79 5.5t122 2.5l-5 -79v-245q0 -37 15 -55.5t50 -18.5q17 0 32 5.5t27.5 14.5t22.5 20t18 21v241q-20 2 -37 3t-30 1v84q26 3 81 5.5t124 2.5l-5 -79v-281q0 -13 0.5 -23.5 t1.5 -20.5q20 -2 37.5 -3t28.5 -1v-85q-24 -2 -72.5 -4t-113.5 -2q-3 12 -6 36t-3 40h-2q-26 -33 -62 -57.5t-93 -24.5zM295 530q-31 0 -59.5 9t-52 27.5t-38.5 47t-19 67.5h109q2 -30 17 -47.5t43 -17.5q27 0 42 17.5t18 47.5h108q-3 -39 -18.5 -67.5t-38.5 -47 t-51.5 -27.5t-59.5 -9z" />
<glyph unicode="&#x16e;" horiz-adv-x="731" d="M372 711q-21 0 -41 8t-35.5 22.5t-24.5 34t-9 42.5q0 22 9 41.5t24.5 34t35.5 22.5t41 8t41 -8t35.5 -22.5t24.5 -34t9 -41.5q0 -23 -9 -42.5t-24.5 -34t-35.5 -22.5t-41 -8zM372 767q22 0 34 15.5t12 35.5t-12 35t-34 15t-34 -15t-12 -35t12 -35.5t34 -15.5zM370 -12 q-144 0 -211.5 70t-67.5 199v316q-20 0 -39.5 3t-30.5 6v84h284v-84q-11 -3 -32 -6t-41 -3v-312q0 -85 34.5 -125t113.5 -40q75 0 108 41.5t33 115.5v320q-20 0 -41 3t-31 6v84h260v-84q-11 -3 -30 -6t-39 -3v-303q0 -137 -65 -209.5t-205 -72.5z" />
<glyph unicode="&#x16f;" horiz-adv-x="598" d="M295 535q-21 0 -41 8t-35.5 22.5t-24.5 34t-9 42.5q0 22 9 41.5t24.5 34t35.5 22.5t41 8t41 -8t35.5 -22.5t24.5 -34t9 -41.5q0 -23 -9 -42.5t-24.5 -34t-35.5 -22.5t-41 -8zM295 591q22 0 34 15.5t12 35.5t-12 35t-34 15t-34 -15t-12 -35t12 -35.5t34 -15.5zM227 -12 q-40 0 -68 12t-45.5 33.5t-25.5 50.5t-8 62v251q-20 2 -35.5 3t-27.5 1v84q26 3 79 5.5t122 2.5l-5 -79v-245q0 -37 15 -55.5t50 -18.5q17 0 32 5.5t27.5 14.5t22.5 20t18 21v241q-20 2 -37 3t-30 1v84q26 3 81 5.5t124 2.5l-5 -79v-281q0 -13 0.5 -23.5t1.5 -20.5 q20 -2 37.5 -3t28.5 -1v-85q-24 -2 -72.5 -4t-113.5 -2q-3 12 -6 36t-3 40h-2q-26 -33 -62 -57.5t-93 -24.5z" />
<glyph unicode="&#x170;" horiz-adv-x="731" d="M370 -12q-144 0 -211.5 70t-67.5 199v316q-20 0 -39.5 3t-30.5 6v84h284v-84q-11 -3 -32 -6t-41 -3v-312q0 -85 34.5 -125t113.5 -40q75 0 108 41.5t33 115.5v320q-20 0 -41 3t-31 6v84h260v-84q-11 -3 -30 -6t-39 -3v-303q0 -137 -65 -209.5t-205 -72.5zM300 852h154 l-140 -135h-106zM502 852h154l-140 -135h-106z" />
<glyph unicode="&#x171;" horiz-adv-x="598" d="M227 -12q-40 0 -68 12t-45.5 33.5t-25.5 50.5t-8 62v251q-20 2 -35.5 3t-27.5 1v84q26 3 79 5.5t122 2.5l-5 -79v-245q0 -37 15 -55.5t50 -18.5q17 0 32 5.5t27.5 14.5t22.5 20t18 21v241q-20 2 -37 3t-30 1v84q26 3 81 5.5t124 2.5l-5 -79v-281q0 -13 0.5 -23.5 t1.5 -20.5q20 -2 37.5 -3t28.5 -1v-85q-24 -2 -72.5 -4t-113.5 -2q-3 12 -6 36t-3 40h-2q-26 -33 -62 -57.5t-93 -24.5zM222 676h154l-140 -135h-106zM424 676h154l-140 -135h-106z" />
<glyph unicode="&#x172;" horiz-adv-x="731" d="M417 -230q-54 0 -86.5 26t-32.5 73q0 37 18.5 68t46.5 51q-140 2 -206 71.5t-66 197.5v316q-20 0 -39.5 3t-30.5 6v84h284v-84q-11 -3 -32 -6t-41 -3v-312q0 -85 34.5 -125t113.5 -40q75 0 108 41.5t33 115.5v320q-20 0 -41 3t-31 6v84h260v-84q-11 -3 -30 -6t-39 -3 v-303q0 -54 -10 -95.5t-29 -73t-46 -54.5t-61 -39q-32 -16 -52 -31t-31.5 -30t-16 -29.5t-4.5 -29.5q0 -47 49 -47q12 0 22 2.5t18 6.5l17 -62q-11 -6 -30 -12t-49 -6z" />
<glyph unicode="&#x173;" horiz-adv-x="598" d="M507 -230q-54 0 -87 26t-33 73q0 21 7 40.5t17.5 36.5t23 30.5t23.5 23.5h76q-22 -27 -38 -54t-16 -60q0 -45 48 -45q13 0 22.5 2.5t18.5 6.5l16 -62q-11 -6 -30 -12t-48 -6zM227 -12q-40 0 -68 12t-45.5 33.5t-25.5 50.5t-8 62v251q-20 2 -35.5 3t-27.5 1v84 q26 3 79 5.5t122 2.5l-5 -79v-245q0 -37 15 -55.5t50 -18.5q17 0 32 5.5t27.5 14.5t22.5 20t18 21v241q-20 2 -37 3t-30 1v84q26 3 81 5.5t124 2.5l-5 -79v-281q0 -13 0.5 -23.5t1.5 -20.5q20 -2 37.5 -3t28.5 -1v-85q-24 -2 -72.5 -4t-113.5 -2q-3 12 -6 36t-3 40h-2 q-26 -33 -62 -57.5t-93 -24.5z" />
<glyph unicode="&#x174;" horiz-adv-x="988" d="M446 877h102l125 -159h-113l-64 66l-64 -66h-113zM76 573q-19 2 -36.5 4.5t-25.5 4.5v84h269v-84q-8 -3 -27 -5t-39 -3l69 -265q10 -40 16 -71t10 -51h2q4 19 10.5 53t16.5 74l93 352h132l93 -350q11 -42 17.5 -76.5t9.5 -51.5h3q3 16 9.5 51t16.5 73l68 262 q-19 1 -38 3.5t-27 4.5v84h256v-84q-8 -2 -26.5 -5t-37.5 -4l-162 -573h-127l-97 371q-11 42 -18 77t-9 47h-2q-2 -11 -10.5 -47t-19.5 -77l-103 -371h-126z" />
<glyph unicode="&#x175;" horiz-adv-x="806" d="M354 701h102l125 -159h-113l-64 66l-64 -66h-113zM64 395q-17 2 -31.5 4t-22.5 4v84h245v-84q-8 -2 -24 -4t-33 -4l37 -126q5 -23 13 -52.5t10 -52.5h3q4 22 11.5 52t14.5 54l64 217h131l61 -217q6 -22 14 -51t12 -55h3q3 26 9 54.5t11 50.5l37 126q-18 2 -34 4t-24 4v84 h225v-84q-9 -2 -24 -4.5t-33 -3.5l-114 -395h-116l-72 226q-9 28 -19.5 61.5t-13.5 52.5h-3q-2 -9 -5.5 -23t-8.5 -29.5t-10 -31.5t-9 -29l-73 -227h-114z" />
<glyph unicode="&#x176;" horiz-adv-x="660" d="M183 85q12 3 35.5 6t43.5 3v135l-190 344q-19 1 -38 4t-27 5v84h275v-84q-7 -2 -22 -4t-32 -4l50 -99q17 -35 33.5 -71.5t27.5 -60.5h1q11 24 28 60t36 72l49 99q-17 2 -32.5 4t-22.5 4v84h255v-84q-8 -3 -28 -5.5t-39 -3.5l-183 -330v-149q19 0 43.5 -3.5t36.5 -5.5v-85 h-300v85zM283 877h102l125 -159h-113l-64 66l-64 -66h-113z" />
<glyph unicode="&#x177;" d="M94 -234q-30 0 -49 3t-27 6l19 104q5 -2 16 -4t31 -2q26 0 44 6t30.5 16.5t21 26t15.5 35.5l15 42l-152 396q-36 3 -52 8v84h240v-84q-8 -2 -22.5 -4t-29.5 -4l63 -176q8 -20 16 -44.5t11 -43.5h2q4 19 12 43t16 44l62 177q-17 2 -32.5 4t-22.5 4v84h229v-84 q-9 -2 -24 -4.5t-32 -4.5l-174 -445q-17 -42 -35.5 -76t-44 -58t-61 -36.5t-85.5 -12.5zM234 701h102l125 -159h-113l-64 66l-64 -66h-113z" />
<glyph unicode="&#x178;" horiz-adv-x="660" d="M183 85q12 3 35.5 6t43.5 3v135l-190 344q-19 1 -38 4t-27 5v84h275v-84q-7 -2 -22 -4t-32 -4l50 -99q17 -35 33.5 -71.5t27.5 -60.5h1q11 24 28 60t36 72l49 99q-17 2 -32.5 4t-22.5 4v84h255v-84q-8 -3 -28 -5.5t-39 -3.5l-183 -330v-149q19 0 43.5 -3.5t36.5 -5.5v-85 h-300v85zM233 724q-30 0 -50 20t-20 49q0 27 20 47.5t50 20.5q32 0 52 -20.5t20 -47.5q0 -29 -20 -49t-52 -20zM432 724q-31 0 -51 20t-20 49q0 27 20 47.5t51 20.5t51 -20.5t20 -47.5q0 -29 -20 -49t-51 -20z" />
<glyph unicode="&#x179;" horiz-adv-x="588" d="M313 852h172l-140 -135h-115zM34 92l337 470h-212q0 -13 -1 -28.5t-2 -29.5t-2.5 -26t-2.5 -17h-103v205h493v-90l-339 -472h239q0 12 1 27.5t2.5 29.5t2.5 26t3 17h102v-204h-518v92z" />
<glyph unicode="&#x17a;" horiz-adv-x="497" d="M256 676h172l-140 -135h-115zM31 72l266 325h-151q-1 -20 -3.5 -42t-4.5 -32h-99v164h422v-77l-264 -320h163q1 20 3.5 42t4.5 32h99v-164h-436v72z" />
<glyph unicode="&#x17b;" horiz-adv-x="588" d="M34 92l337 470h-212q0 -13 -1 -28.5t-2 -29.5t-2.5 -26t-2.5 -17h-103v205h493v-90l-339 -472h239q0 12 1 27.5t2.5 29.5t2.5 26t3 17h102v-204h-518v92zM296 732q-32 0 -53 21t-21 51q0 29 21 50t53 21t53 -21t21 -50q0 -30 -21 -51t-53 -21z" />
<glyph unicode="&#x17c;" horiz-adv-x="497" d="M31 72l266 325h-151q-1 -20 -3.5 -42t-4.5 -32h-99v164h422v-77l-264 -320h163q1 20 3.5 42t4.5 32h99v-164h-436v72zM241 556q-32 0 -53 21t-21 51q0 29 21 50t53 21t53 -21t21 -50q0 -30 -21 -51t-53 -21z" />
<glyph unicode="&#x17d;" horiz-adv-x="588" d="M119 876h113l64 -66l64 66h113l-127 -159h-102zM34 92l337 470h-212q0 -13 -1 -28.5t-2 -29.5t-2.5 -26t-2.5 -17h-103v205h493v-90l-339 -472h239q0 12 1 27.5t2.5 29.5t2.5 26t3 17h102v-204h-518v92z" />
<glyph unicode="&#x17e;" horiz-adv-x="497" d="M64 700h113l64 -66l64 66h113l-127 -159h-102zM31 72l266 325h-151q-1 -20 -3.5 -42t-4.5 -32h-99v164h422v-77l-264 -320h163q1 20 3.5 42t4.5 32h99v-164h-436v72z" />
<glyph unicode="&#x192;" horiz-adv-x="474" d="M58 -188q-41 0 -67 7t-40 14l34 94q7 -4 20.5 -8.5t37.5 -4.5q45 0 65.5 26t25.5 73l35 321h-103l13 99h102l11 107q11 94 64 143t151 49q48 0 78.5 -9.5t50.5 -22.5l-42 -88q-11 6 -32 13t-50 7q-45 0 -66 -26.5t-26 -76.5l-11 -96h116l-16 -99h-111l-36 -325 q-10 -91 -58 -144t-146 -53z" />
<glyph unicode="&#x218;" horiz-adv-x="537" d="M261 -37q29 0 51.5 -19t22.5 -53q0 -20 -7.5 -38.5t-20 -35.5t-28.5 -31.5t-34 -27.5l-45 31q9 8 19 18.5t10 27.5q0 12 -5 19t-11 14.5t-11 16.5t-5 25q0 23 19 38t45 15zM258 -12q-39 0 -73.5 4.5t-63 11.5t-49 15.5t-31.5 17.5v163h103q2 -13 4 -41.5t3 -51.5 q20 -6 45 -10t57 -4q54 0 82.5 24.5t28.5 58.5q0 22 -10.5 38.5t-28.5 29.5t-43 23t-54 20q-39 13 -72 29t-57 39.5t-37.5 56.5t-13.5 80q0 43 17 77.5t47 58.5t72 37t92 13q78 0 130.5 -15.5t72.5 -30.5v-163h-102q-1 6 -2.5 17t-2.5 24t-1.5 26.5t-0.5 24.5q-20 6 -43 10 t-50 4q-45 0 -70.5 -21t-25.5 -54q0 -20 8 -34.5t23 -26t37 -21t50 -19.5q39 -15 75.5 -31.5t64 -40.5t44 -57t16.5 -81q0 -45 -17 -82.5t-48 -63.5t-76 -40.5t-100 -14.5z" />
<glyph unicode="&#x219;" horiz-adv-x="471" d="M226 -37q29 0 51.5 -19t22.5 -53q0 -20 -7.5 -38.5t-20 -35.5t-28.5 -31.5t-34 -27.5l-45 31q9 8 19 18.5t10 27.5q0 12 -5 19t-11 14.5t-11 16.5t-5 25q0 23 19 38t45 15zM223 -12q-59 0 -109 11t-74 25v132h94q0 -2 1 -10t2 -18t1.5 -19t0.5 -14q19 -5 40 -9t44 -4 q41 0 63.5 13t22.5 36q0 15 -8.5 24.5t-23.5 17t-34.5 13t-40.5 11.5q-27 7 -55 17t-50.5 27.5t-36.5 44t-14 67.5q0 71 51.5 108.5t143.5 37.5q31 0 59.5 -3.5t51.5 -8.5t40 -11t25 -11v-130h-94q-2 8 -3.5 26t-2.5 35q-17 4 -35.5 7t-37.5 3q-79 0 -79 -47q0 -14 9 -23.5 t24.5 -16.5t36 -12.5t42.5 -11.5q28 -8 55.5 -18t50 -26.5t36.5 -41.5t14 -63t-15 -67.5t-43 -49.5t-66.5 -30.5t-85.5 -10.5z" />
<glyph unicode="&#x21a;" horiz-adv-x="659" d="M324 -37q29 0 51.5 -19t22.5 -53q0 -20 -7.5 -38.5t-20 -35.5t-28.5 -31.5t-34 -27.5l-45 31q9 8 19 18.5t10 27.5q0 12 -5 19t-11 14.5t-11 16.5t-5 25q0 23 19 38t45 15zM179 84q12 3 35.5 6t43.5 3v469h-123q0 -13 -1 -28t-2 -29t-2.5 -25.5t-2.5 -16.5h-103v203h611 v-203h-103q-1 5 -2.5 16.5t-3 25.5t-2.5 29t-1 28h-124v-469q9 0 20.5 -1t22.5 -2t20.5 -3t15.5 -3v-84h-299v84z" />
<glyph unicode="&#x21b;" horiz-adv-x="385" d="M226 -37q29 0 51.5 -19t22.5 -53q0 -20 -7.5 -38.5t-20 -35.5t-28.5 -31.5t-34 -27.5l-45 31q9 8 19 18.5t10 27.5q0 12 -5 19t-11 14.5t-11 16.5t-5 25q0 23 19 38t45 15zM247 -12q-86 0 -120.5 41t-34.5 111v248h-75v99h75v141h132v-141h120v-99h-120v-227 q0 -36 13 -51.5t40 -15.5q22 0 38 6.5t24 11.5l30 -96q-15 -9 -45.5 -18.5t-76.5 -9.5z" />
<glyph unicode="&#x237;" horiz-adv-x="284" d="M52 -232q-37 0 -58 4.5t-29 7.5l21 99q5 -2 14.5 -4t24.5 -2q35 0 48 23t13 79v422q-22 2 -40 3t-31 1v84q26 3 81 5.5t129 2.5l-5 -79v-447q0 -91 -39 -145t-129 -54z" />
<glyph unicode="&#x2c6;" horiz-adv-x="500" d="M200 701h102l125 -159h-113l-64 66l-64 -66h-113z" />
<glyph unicode="&#x2c7;" horiz-adv-x="500" d="M73 700h113l64 -66l64 66h113l-127 -159h-102z" />
<glyph unicode="&#x2d8;" horiz-adv-x="500" d="M250 530q-31 0 -59.5 9t-52 27.5t-38.5 47t-19 67.5h109q2 -30 17 -47.5t43 -17.5q27 0 42 17.5t18 47.5h108q-3 -39 -18.5 -67.5t-38.5 -47t-51.5 -27.5t-59.5 -9z" />
<glyph unicode="&#x2d9;" horiz-adv-x="500" d="M250 556q-32 0 -53 21t-21 51q0 29 21 50t53 21t53 -21t21 -50q0 -30 -21 -51t-53 -21z" />
<glyph unicode="&#x2da;" horiz-adv-x="500" d="M250 535q-21 0 -41 8t-35.5 22.5t-24.5 34t-9 42.5q0 22 9 41.5t24.5 34t35.5 22.5t41 8t41 -8t35.5 -22.5t24.5 -34t9 -41.5q0 -23 -9 -42.5t-24.5 -34t-35.5 -22.5t-41 -8zM250 591q22 0 34 15.5t12 35.5t-12 35t-34 15t-34 -15t-12 -35t12 -35.5t34 -15.5z" />
<glyph unicode="&#x2db;" horiz-adv-x="500" d="M256 -230q-54 0 -87 26t-33 73q0 21 7 40.5t17.5 36.5t23 30.5t23.5 23.5h76q-22 -27 -38 -54t-16 -60q0 -45 48 -45q13 0 22.5 2.5t18.5 6.5l16 -62q-11 -6 -30 -12t-48 -6z" />
<glyph unicode="&#x2dc;" horiz-adv-x="500" d="M309 546q-23 0 -38 5.5t-28 12t-25 12t-27 5.5q-18 0 -32 -11t-22 -19l-61 53q7 12 18 25.5t25.5 24.5t32 18t37.5 7q23 0 38.5 -5.5t28 -12t24.5 -12t27 -5.5q21 0 35 11.5t21 19.5l61 -53q-8 -13 -19 -26.5t-25.5 -24.5t-32 -18t-38.5 -7z" />
<glyph unicode="&#x2dd;" horiz-adv-x="500" d="M123 676h154l-140 -135h-106zM325 676h154l-140 -135h-106z" />
<glyph unicode="&#x312;" horiz-adv-x="500" d="M254 528q-29 0 -51.5 19t-22.5 53q0 20 7.5 38.5t20 35.5t29 31.5t33.5 27.5l45 -31q-9 -8 -19 -18.5t-10 -27.5q0 -11 5 -18.5t11 -14.5t11 -16.5t5 -25.5q0 -23 -18.5 -38t-45.5 -15z" />
<glyph unicode="&#x315;" horiz-adv-x="500" d="M210 720h137l-81 -175h-92z" />
<glyph unicode="&#x326;" horiz-adv-x="500" d="M247 -37q29 0 51.5 -19t22.5 -53q0 -20 -7.5 -38.5t-20 -35.5t-28.5 -31.5t-34 -27.5l-45 31q9 8 19 18.5t10 27.5q0 12 -5 19t-11 14.5t-11 16.5t-5 25q0 23 19 38t45 15z" />
<glyph unicode="&#x394;" horiz-adv-x="658" d="M180 116h287l-107 283q-8 19 -14 37.5t-11 34t-8 27t-4 16.5h-2q-2 -5 -5 -16.5t-8 -27t-11 -34t-13 -37.5zM26 72l232 594h134l240 -594v-72h-606v72z" />
<glyph unicode="&#x3a9;" horiz-adv-x="764" d="M44 109h126q-23 16 -44 41t-36.5 57.5t-25 71.5t-9.5 83q0 71 26 129.5t71 100t104.5 64t125.5 22.5t125.5 -22.5t104.5 -64t71.5 -100t26.5 -129.5q0 -44 -9.5 -83t-25.5 -71.5t-37 -57.5t-44 -41h127v-109h-282v103q69 45 100 105.5t31 148.5q0 41 -14 78.5t-39 66 t-59.5 45.5t-75.5 17t-75.5 -17t-59.5 -45.5t-39 -66t-14 -78.5q0 -88 31.5 -148.5t100.5 -105.5v-103h-282v109z" />
<glyph unicode="&#x3bc;" horiz-adv-x="606" d="M87 397q-20 2 -37.5 3t-30.5 1v84q26 3 81 5.5t125 2.5l-5 -79v-244q0 -32 12 -51.5t47 -19.5q37 0 64.5 19.5t41.5 37.5v241q-20 2 -37 3t-31 1v84q26 3 81.5 5.5t124.5 2.5l-5 -79v-281v-23.5t1 -20.5q20 -2 37 -3t28 -1v-85q-24 -2 -71.5 -4t-112.5 -2q-3 12 -6 36 t-4 40h-2q-10 -14 -23.5 -28t-31 -25.5t-39 -19t-46.5 -7.5q-22 0 -36 8h-2q2 -11 4.5 -36.5t2.5 -63.5v-116h-130v615z" />
<glyph unicode="&#x3c0;" horiz-adv-x="650" d="M509 -12q-40 0 -66.5 10.5t-42.5 29t-23 44.5t-7 58v257h-123q0 -44 -2 -95t-5.5 -102t-8.5 -100t-11 -90h-134q7 42 12.5 92t9.5 102t6.5 101.5t2.5 91.5h-93v100h593v-100h-115v-231q0 -32 7.5 -45.5t26.5 -13.5q21 0 38 12l31 -98q-17 -10 -42 -16.5t-54 -6.5z" />
<glyph unicode="&#x401;" horiz-adv-x="550" d="M83 666h404v-116h-265v-150h236v-110h-236v-174h272v-116h-411v666zM174 721q-30 0 -50 20t-20 49q0 27 20 47.5t50 20.5q32 0 52 -20.5t20 -47.5q0 -29 -20 -49t-52 -20zM373 721q-31 0 -51 20t-20 49q0 27 20 47.5t51 20.5t51 -20.5t20 -47.5q0 -29 -20 -49t-51 -20z " />
<glyph unicode="&#x402;" horiz-adv-x="725" d="M170 550h-156v116h509v-116h-213v-193q10 14 28 29.5t42 28t53.5 21t63.5 8.5q49 0 85 -21t59 -57t34.5 -84.5t11.5 -104.5q0 -85 -22 -155t-59 -120.5t-86 -78t-104 -27.5q-23 0 -44.5 4.5t-32.5 10.5l28 112q16 -7 44 -7t52.5 19t42.5 52t28 78.5t10 99.5 q0 37 -5.5 67.5t-17.5 52.5t-30.5 34.5t-45.5 12.5q-22 0 -43 -7t-38.5 -17.5t-31.5 -23t-22 -22.5v-262h-140v550z" />
<glyph unicode="&#x403;" horiz-adv-x="491" d="M83 666h393v-114h-252v-552h-141v666zM273 852h172l-140 -135h-115z" />
<glyph unicode="&#x404;" horiz-adv-x="618" d="M385 -12q-85 0 -149 28t-107 76t-64.5 110.5t-21.5 131.5t22 131t65.5 109.5t108 75.5t148.5 28q66 0 113.5 -13.5t86.5 -39.5l-63 -103q-28 18 -60.5 28.5t-78.5 10.5q-41 0 -73.5 -13.5t-56.5 -37t-38.5 -55t-18.5 -67.5h272v-110h-271q5 -36 19.5 -67.5t38.5 -54.5 t56.5 -36.5t73.5 -13.5q54 0 89.5 15.5t61.5 35.5l58 -99q-13 -12 -34 -24t-48 -22.5t-60 -17t-69 -6.5z" />
<glyph unicode="&#x405;" horiz-adv-x="535" d="M246 -12q-41 0 -75 7t-61.5 17.5t-47 22t-31.5 21.5l60 99q7 -6 21 -15t33.5 -17.5t44 -14.5t53.5 -6q52 0 82 21.5t30 54.5q0 22 -13.5 38t-35 28.5t-49.5 24t-57 25.5q-31 15 -58.5 32.5t-48 40.5t-32.5 54t-12 72q0 43 18 77.5t49 58.5t71 36.5t85 12.5q41 0 73.5 -6 t57.5 -14.5t43 -18.5t30 -19l-57 -99q-20 14 -58 28.5t-81 14.5q-41 0 -67.5 -16t-26.5 -51q0 -20 10 -34t27.5 -25.5t41 -21.5t49.5 -22q33 -15 65 -31.5t57.5 -40t41.5 -56.5t16 -80q0 -45 -17.5 -82t-50 -62.5t-78.5 -39.5t-102 -14z" />
<glyph unicode="&#x406;" horiz-adv-x="324" d="M89 666h141v-666h-141v666z" />
<glyph unicode="&#x407;" horiz-adv-x="324" d="M89 666h141v-666h-141v666zM61 721q-30 0 -50 20t-20 49q0 27 20 47.5t50 20.5q32 0 52 -20.5t20 -47.5q0 -29 -20 -49t-52 -20zM260 721q-31 0 -51 20t-20 49q0 27 20 47.5t51 20.5t51 -20.5t20 -47.5q0 -29 -20 -49t-51 -20z" />
<glyph unicode="&#x408;" horiz-adv-x="331" d="M57 -204q-35 0 -58.5 5t-39.5 11l22 115q7 -3 20 -6t27 -3q42 0 60 22.5t18 76.5v649h142v-668q0 -100 -51 -151t-140 -51z" />
<glyph unicode="&#x409;" horiz-adv-x="985" d="M22 99q56 6 79 65.5t32 169.5l27 332h452v-237h87q54 0 100.5 -12.5t80.5 -38.5t53.5 -65.5t19.5 -92.5q0 -54 -19 -95.5t-54 -69t-85 -41.5t-112 -14h-212v550h-187l-18 -252q-6 -83 -22.5 -141t-45 -95.5t-68.5 -54.5t-93 -17zM684 107q67 0 97.5 27.5t30.5 82.5 q0 51 -29.5 77.5t-94.5 26.5h-76v-214h72z" />
<glyph unicode="&#x40a;" horiz-adv-x="1002" d="M83 666h141v-252h264v252h141v-252h87q54 0 101 -12t81 -37t53.5 -63t19.5 -90q0 -53 -19 -92.5t-54 -66t-85 -40t-112 -13.5h-213v298h-264v-298h-141v666zM702 107q67 0 97 26t30 76q0 46 -29 71.5t-95 25.5h-76v-199h73z" />
<glyph unicode="&#x40b;" horiz-adv-x="739" d="M170 550h-156v116h509v-116h-213v-193q10 14 28.5 29.5t43 28t54.5 21t63 8.5q88 0 137.5 -52t49.5 -137v-255h-140v227q0 54 -28 79.5t-70 25.5q-23 0 -44 -7t-39 -17.5t-32.5 -23t-22.5 -22.5v-262h-140v550z" />
<glyph unicode="&#x40c;" horiz-adv-x="638" d="M83 666h140v-275h47l195 275h151l-231 -309q17 -16 35.5 -41t41.5 -62q22 -37 38 -63t30 -43t28.5 -25t32.5 -8h10l-1 -115h-58q-30 0 -52.5 7t-42.5 23.5t-39.5 44t-43.5 67.5q-20 33 -35 58.5t-28 43.5t-25.5 27t-27.5 9h-25v-280h-140v666zM341 852h172l-140 -135 h-115z" />
<glyph unicode="&#x40e;" horiz-adv-x="592" d="M135 -3q-24 0 -41.5 3t-25.5 6l19 105q13 -5 39 -5q38 0 61 23t41 63l10 25l-202 449h136l135 -309l135 309h136l-225 -500q-20 -45 -41 -77t-46.5 -52.5t-57 -30t-73.5 -9.5zM308 706q-31 0 -59.5 9t-52 27.5t-38.5 47t-19 67.5h109q2 -30 17 -47.5t43 -17.5 q27 0 42 17.5t18 47.5h108q-3 -39 -18.5 -67.5t-38.5 -47t-51.5 -27.5t-59.5 -9z" />
<glyph unicode="&#x40f;" horiz-adv-x="716" d="M306 0h-223v666h140v-550h269v550h142v-666h-224l-7 -146h-89z" />
<glyph unicode="&#x410;" horiz-adv-x="680" d="M427 238l-57 159q-16 43 -23.5 73.5t-12.5 41.5h-2q-4 -12 -12.5 -43t-22.5 -72l-57 -159h187zM269 666h136l261 -666h-154l-45 125h-266l-44 -125h-142z" />
<glyph unicode="&#x411;" horiz-adv-x="608" d="M83 666h417v-116h-276v-136h87q54 0 100.5 -12t80.5 -37t53.5 -63t19.5 -90q0 -53 -19 -92.5t-54 -66t-85 -40t-112 -13.5h-212v666zM296 107q67 0 97.5 26t30.5 76q0 46 -29 71.5t-95 25.5h-76v-199h72z" />
<glyph unicode="&#x412;" horiz-adv-x="612" d="M83 666h232q46 0 88 -8t73.5 -27.5t50 -51.5t18.5 -79q0 -65 -32 -102t-86 -51v-2q30 -5 56.5 -17t46.5 -32t31.5 -47.5t11.5 -63.5q0 -51 -19.5 -86.5t-54 -57t-82.5 -31.5t-105 -10h-229v666zM306 108q61 0 92.5 20.5t31.5 68.5q0 47 -28 70.5t-90 23.5h-90v-183h84z M297 392q57 0 83 20.5t26 65.5q0 80 -106 80h-78v-166h75z" />
<glyph unicode="&#x413;" horiz-adv-x="491" d="M83 666h393v-114h-252v-552h-141v666z" />
<glyph unicode="&#x414;" horiz-adv-x="729" d="M22 116h55q13 15 23 34t17.5 45t14 60t12.5 79l49 332h425v-550h68l-19 -262h-89l-11 146h-424l-11 -146h-89zM477 116v434h-165l-34 -241q-10 -73 -26.5 -121.5t-37.5 -71.5h263z" />
<glyph unicode="&#x415;" horiz-adv-x="550" d="M83 666h404v-116h-265v-150h236v-110h-236v-174h272v-116h-411v666z" />
<glyph unicode="&#x416;" horiz-adv-x="970" d="M38 115h9q18 0 32.5 8t28.5 25t30 43t38 63q23 37 41 62t35 41l-231 309h152l195 -275h46v275h141v-275h47l195 275h151l-231 -309q17 -16 35.5 -41t41.5 -62q22 -37 38 -63t30 -43t28.5 -25t32.5 -8h10l-1 -115h-58q-30 0 -52.5 7t-42.5 23.5t-39.5 44t-43.5 67.5 q-20 33 -35 58.5t-28 43.5t-25.5 27t-27.5 9h-25v-280h-141v280h-26q-15 -1 -27 -10t-25 -26.5t-27.5 -43t-34.5 -58.5q-24 -40 -43.5 -67.5t-39.5 -44t-42.5 -23.5t-52.5 -7h-59z" />
<glyph unicode="&#x417;" horiz-adv-x="534" d="M230 -12q-71 0 -122 16t-87 42l63 102q25 -19 61 -32t88 -13q56 0 87.5 22t31.5 70q0 46 -33 71t-92 25h-75v101h59q55 0 86.5 22t31.5 66q0 38 -25.5 60t-74.5 22q-48 0 -82.5 -13.5t-58.5 -32.5l-56 98q27 23 76 43.5t123 20.5q51 0 94.5 -11t75 -33t49.5 -55t18 -76 q0 -66 -30.5 -104t-85.5 -52v-2q30 -5 56 -17.5t45.5 -33t30.5 -48.5t11 -64q0 -50 -20.5 -86.5t-56 -60.5t-84 -35.5t-104.5 -11.5z" />
<glyph unicode="&#x418;" horiz-adv-x="744" d="M83 666h131v-356q0 -38 -1.5 -68t-2.5 -36h2q5 8 23 38t47 74l237 348h142v-666h-131v385q0 32 1.5 56.5t1.5 31.5h-2q-5 -10 -21 -36t-43 -64l-255 -373h-129v666z" />
<glyph unicode="&#x419;" horiz-adv-x="744" d="M83 666h131v-356q0 -38 -1.5 -68t-2.5 -36h2q5 8 23 38t47 74l237 348h142v-666h-131v385q0 32 1.5 56.5t1.5 31.5h-2q-5 -10 -21 -36t-43 -64l-255 -373h-129v666zM373 706q-31 0 -59.5 9t-52 27.5t-38.5 47t-19 67.5h109q2 -30 17 -47.5t43 -17.5q27 0 42 17.5t18 47.5 h108q-3 -39 -18.5 -67.5t-38.5 -47t-51.5 -27.5t-59.5 -9z" />
<glyph unicode="&#x41a;" horiz-adv-x="638" d="M83 666h140v-275h47l195 275h151l-231 -309q17 -16 35.5 -41t41.5 -62q22 -37 38 -63t30 -43t28.5 -25t32.5 -8h10l-1 -115h-58q-30 0 -52.5 7t-42.5 23.5t-39.5 44t-43.5 67.5q-20 33 -35 58.5t-28 43.5t-25.5 27t-27.5 9h-25v-280h-140v666z" />
<glyph unicode="&#x41b;" horiz-adv-x="694" d="M22 99q56 6 79 65.5t32 169.5l27 332h452v-666h-141v550h-187l-18 -252q-6 -83 -22.5 -141t-45 -95.5t-68.5 -54.5t-93 -17z" />
<glyph unicode="&#x41c;" horiz-adv-x="887" d="M133 666h150l129 -411q11 -36 17.5 -63t11.5 -47h2q5 20 12 47t18 63l129 411h153l91 -666h-142l-44 344q-4 34 -5.5 60.5t-2.5 36.5h-2q-2 -11 -9.5 -37.5t-16.5 -58.5l-112 -345h-140l-113 345q-10 32 -16.5 57.5t-9.5 36.5h-1q-1 -11 -3 -37t-7 -59l-44 -343h-137z " />
<glyph unicode="&#x41d;" horiz-adv-x="745" d="M83 666h141v-262h298v262h141v-666h-141v288h-298v-288h-141v666z" />
<glyph unicode="&#x41e;" horiz-adv-x="773" d="M390 -12q-84 0 -148.5 28.5t-108.5 76t-67 109.5t-23 130t22.5 130.5t66 110.5t107.5 76.5t148 28.5t148 -28.5t107.5 -75.5t65.5 -109t22 -129q0 -68 -22 -131t-64.5 -111t-106 -77t-147.5 -29zM387 102q50 0 86.5 18.5t60.5 50t35.5 73t11.5 88.5q0 46 -11 88.5 t-34.5 74t-59.5 50.5t-86 19t-87 -18t-61.5 -49.5t-36.5 -73t-12 -87.5q0 -47 11.5 -89.5t35.5 -74.5t60.5 -51t86.5 -19z" />
<glyph unicode="&#x41f;" horiz-adv-x="724" d="M83 666h559v-666h-141v550h-277v-550h-141v666z" />
<glyph unicode="&#x420;" horiz-adv-x="591" d="M81 666h219q54 0 101 -14t81 -41.5t53.5 -68.5t19.5 -95q0 -56 -19 -98.5t-54.5 -71t-85.5 -43.5t-112 -15h-61v-219h-142v666zM286 326q67 0 97 31t30 88q0 52 -29 82.5t-95 30.5h-66v-232h63z" />
<glyph unicode="&#x421;" horiz-adv-x="618" d="M385 -12q-85 0 -149 28.5t-107 76.5t-64.5 110.5t-21.5 130.5t22 130t65.5 109.5t108 76t148.5 28.5q66 0 113.5 -13.5t86.5 -39.5l-63 -103q-28 18 -60.5 28.5t-78.5 10.5q-47 0 -83 -17.5t-60 -48t-36.5 -71t-12.5 -86.5q0 -48 12 -90t36 -73.5t60.5 -50t85.5 -18.5 q54 0 89.5 15.5t61.5 35.5l58 -99q-13 -12 -34 -24t-48 -22.5t-60 -17t-69 -6.5z" />
<glyph unicode="&#x422;" horiz-adv-x="579" d="M218 550h-204v116h550v-116h-204v-550h-142v550z" />
<glyph unicode="&#x423;" horiz-adv-x="592" d="M135 -3q-24 0 -41.5 3t-25.5 6l19 105q13 -5 39 -5q38 0 61 23t41 63l10 25l-202 449h136l135 -309l135 309h136l-225 -500q-20 -45 -41 -77t-46.5 -52.5t-57 -30t-73.5 -9.5z" />
<glyph unicode="&#x424;" horiz-adv-x="797" d="M328 70q-68 1 -123.5 22t-94.5 57t-60.5 85t-21.5 106q0 55 21.5 103.5t60.5 85t94.5 58.5t123.5 24v55h141v-55q69 -2 124 -23t94 -57t60 -84t21 -105t-20.5 -106t-59 -85.5t-94 -58t-125.5 -22.5v-70h-141v70zM460 172q39 0 70 13t53 35.5t33.5 53t11.5 66.5t-12 67 t-33.5 53.5t-52.5 35t-70 13.5v-337zM337 509q-38 -1 -69 -13.5t-52.5 -34.5t-33.5 -52.5t-12 -66.5t12 -67t34 -54t53 -36t68 -13v337z" />
<glyph unicode="&#x425;" horiz-adv-x="616" d="M230 342l-201 324h160l126 -208l118 208h142l-192 -322l214 -344h-160l-140 230l-135 -230h-143z" />
<glyph unicode="&#x426;" horiz-adv-x="745" d="M583 0h-500v666h140v-550h269v550h142v-550h68l-19 -262h-89z" />
<glyph unicode="&#x427;" horiz-adv-x="657" d="M435 260q-11 -14 -29.5 -29.5t-43.5 -28t-56 -21t-66 -8.5q-45 0 -81 14t-60.5 39t-37.5 60.5t-13 77.5v302h140v-274q0 -54 29 -80.5t74 -26.5q24 0 46.5 7t41 17.5t33 23t23.5 22.5v311h140v-666h-140v260z" />
<glyph unicode="&#x428;" horiz-adv-x="1046" d="M83 666h140v-550h226v550h141v-550h225v550h141v-666h-873v666z" />
<glyph unicode="&#x429;" horiz-adv-x="1068" d="M906 0h-823v666h140v-550h226v550h141v-550h225v550h141v-550h69l-19 -262h-89z" />
<glyph unicode="&#x42a;" horiz-adv-x="673" d="M159 550h-145v116h286v-237h87q54 0 101 -12.5t81 -38.5t53.5 -65.5t19.5 -92.5q0 -54 -19 -95.5t-54 -69t-85 -41.5t-112 -14h-213v550zM373 107q67 0 97 27.5t30 82.5q0 51 -29 77.5t-95 26.5h-76v-214h73z" />
<glyph unicode="&#x42b;" horiz-adv-x="894" d="M83 666h141v-237h87q54 0 100.5 -12.5t80.5 -38.5t53.5 -65.5t19.5 -92.5q0 -54 -19 -95.5t-54 -69t-85 -41.5t-112 -14h-212v666zM296 107q67 0 97.5 27.5t30.5 82.5q0 51 -29 77.5t-95 26.5h-76v-214h72zM670 666h141v-666h-141v666z" />
<glyph unicode="&#x42c;" horiz-adv-x="597" d="M83 666h141v-237h87q54 0 100.5 -12.5t80.5 -38.5t53.5 -65.5t19.5 -92.5q0 -54 -19 -95.5t-54 -69t-85 -41.5t-112 -14h-212v666zM296 107q67 0 97.5 27.5t30.5 82.5q0 51 -29 77.5t-95 26.5h-76v-214h72z" />
<glyph unicode="&#x42d;" horiz-adv-x="618" d="M229 -12q-70 0 -120 15t-88 42l64 103q25 -18 61 -30.5t85 -12.5q40 0 73 13.5t57 36.5t39 55t20 68h-270v110h269q-5 36 -19 67t-37.5 54.5t-56 37t-74.5 13.5q-49 0 -83.5 -14t-59.5 -33l-58 99q13 11 33 22.5t46 21.5t57.5 16t67.5 6q85 0 148.5 -28t106 -75 t63.5 -110t21 -132q0 -68 -22.5 -130.5t-66 -110t-108 -76t-148.5 -28.5z" />
<glyph unicode="&#x42e;" horiz-adv-x="1101" d="M718 -12q-77 0 -137.5 24t-104 65t-69.5 95.5t-33 115.5h-150v-288h-141v666h141v-262h154q10 56 37 106t69.5 87.5t100 59t129.5 21.5q84 0 148 -28.5t107.5 -75.5t66 -109t22.5 -129q0 -68 -22 -131t-64.5 -111t-106 -77t-147.5 -29zM714 102q51 0 87.5 18.5t60.5 50 t35.5 73t11.5 88.5q0 46 -11 88.5t-34.5 74t-59.5 50.5t-86 19q-51 0 -88 -18t-61.5 -49.5t-36.5 -73t-12 -87.5q0 -47 11.5 -89.5t35.5 -74.5t60.5 -51t86.5 -19z" />
<glyph unicode="&#x42f;" horiz-adv-x="624" d="M40 115h10q16 0 29.5 7t26.5 21t27 36t32 51q15 22 31 40.5t31 26.5v2q-31 4 -59 17t-49 35.5t-33.5 53t-12.5 69.5q0 94 64 143t182 49h223v-666h-142v278h-13q-14 -3 -25.5 -12.5t-24 -27t-27 -41.5t-33.5 -55q-24 -40 -44 -67.5t-40 -44t-42 -23.5t-52 -7h-59v115z M400 374v184h-71q-60 0 -88 -22.5t-28 -68.5q0 -44 26.5 -68.5t83.5 -24.5h77z" />
<glyph unicode="&#x430;" horiz-adv-x="502" d="M180 -12q-31 0 -58 9t-46.5 26.5t-31 43t-11.5 58.5q0 48 22.5 81t59 53.5t83.5 29.5t95 9h17v28q0 35 -17.5 51.5t-61.5 16.5q-40 0 -71 -14.5t-53 -31.5l-58 81q29 27 78.5 48.5t118.5 21.5q100 0 148 -41.5t48 -138.5v-175q0 -50 4.5 -85.5t9.5 -58.5h-131q-3 9 -5 25 t-3 27q-20 -24 -54.5 -44t-82.5 -20zM220 85q31 0 52.5 12.5t37.5 30.5v88h-17q-59 0 -95.5 -18.5t-36.5 -61.5q0 -27 18 -39t41 -12z" />
<glyph unicode="&#x431;" horiz-adv-x="552" d="M283 -12q-66 0 -112 26t-74.5 71t-41.5 105.5t-13 130.5q0 77 13.5 141t44.5 112t82 80.5t127 46.5l161 30l18 -111l-160 -27q-66 -12 -106.5 -49.5t-44.5 -107.5q21 21 52.5 36.5t76.5 15.5t84 -16.5t68.5 -48t46 -77.5t16.5 -105t-18.5 -106t-51 -79.5t-76 -50 t-92.5 -17.5zM285 89q46 0 71 39.5t25 110.5q0 67 -23 110t-73 43q-41 0 -63.5 -16.5t-39.5 -39.5q-1 -8 -1 -19v-18q0 -112 27.5 -161t76.5 -49z" />
<glyph unicode="&#x432;" horiz-adv-x="520" d="M71 487h213q36 0 69.5 -6t58.5 -20t40 -38t15 -60q0 -51 -25.5 -76t-64.5 -35v-1q22 -3 42 -11.5t35 -23t24 -34.5t9 -47q0 -38 -15.5 -63.5t-43 -41.5t-65 -23t-81.5 -7h-211v487zM278 95q42 0 61 12.5t19 41.5q0 57 -75 57h-81v-111h76zM269 290q38 0 54.5 13.5 t16.5 40.5q0 50 -69 50h-69v-104h67z" />
<glyph unicode="&#x433;" horiz-adv-x="406" d="M71 487h320v-104h-187v-383h-133v487z" />
<glyph unicode="&#x434;" horiz-adv-x="595" d="M16 104h38q38 29 51 141l31 242h364v-383h55l-19 -250h-84l-12 146h-307l-11 -146h-85zM371 104v279h-130l-18 -157q-5 -45 -15.5 -74.5t-25.5 -47.5h189z" />
<glyph unicode="&#x435;" horiz-adv-x="519" d="M285 -12q-61 0 -108.5 18.5t-80 52.5t-49.5 81.5t-17 105.5t18.5 104.5t51 79.5t76.5 51t95 18q104 0 158 -62.5t54 -177.5q0 -11 -0.5 -22.5t-1.5 -23.5h-308q5 -54 34 -90t90 -36q50 0 79.5 12.5t47.5 21.5l43 -86q-12 -7 -28 -15t-37.5 -15t-50.5 -12t-66 -5zM353 303 q0 21 -5 39t-14.5 31.5t-25.5 21.5t-39 8q-43 0 -66.5 -26t-31.5 -74h182z" />
<glyph unicode="&#x436;" horiz-adv-x="795" d="M30 97h7q9 0 17 4t17.5 14.5t21 28.5t27.5 45q34 57 62 79l-167 219h143l142 -197h31v197h133v-197h30l142 197h144l-167 -219q29 -24 62 -79q31 -54 48 -73t34 -19h8l-1 -97h-56q-24 0 -41 5.5t-32 17.5t-29 32t-32 50q-16 27 -28 45t-22 29t-20 16.5t-21 5.5h-19v-201 h-133v201h-20q-11 0 -20.5 -5.5t-19.5 -16.5t-22 -29t-28 -45q-18 -30 -32.5 -50t-29.5 -32t-32 -17.5t-41 -5.5h-56v97z" />
<glyph unicode="&#x437;" horiz-adv-x="431" d="M69 121q22 -14 53 -22.5t68 -8.5q80 0 80 59q0 15 -8.5 25.5t-22 18t-31 11t-36.5 3.5h-38v82h35q36 0 60 14t24 41q0 25 -18 40t-52 15t-62 -8t-48 -21l-43 84q27 17 66.5 30.5t89.5 13.5q37 0 72 -7.5t62 -24t43 -42t16 -61.5q0 -51 -25.5 -76t-64.5 -35v-1 q22 -3 42 -11.5t35 -23t24 -34.5t9 -47q0 -38 -16 -65t-44 -45t-66 -26.5t-82 -8.5q-53 0 -96 12t-72 34z" />
<glyph unicode="&#x438;" horiz-adv-x="601" d="M71 487h119v-226q0 -29 -2 -55t-2 -28h2q1 1 15.5 26.5t40.5 61.5l154 221h132v-487h-119v248q0 23 1 43.5t2 28.5h-2l-54 -80l-168 -240h-119v487z" />
<glyph unicode="&#x439;" horiz-adv-x="601" d="M71 487h119v-226q0 -29 -2 -55t-2 -28h2q1 1 15.5 26.5t40.5 61.5l154 221h132v-487h-119v248q0 23 1 43.5t2 28.5h-2l-54 -80l-168 -240h-119v487zM296 530q-31 0 -59.5 9t-52 27.5t-38.5 47t-19 67.5h109q2 -30 17 -47.5t43 -17.5q27 0 42 17.5t18 47.5h108 q-3 -39 -18.5 -67.5t-38.5 -47t-51.5 -27.5t-59.5 -9z" />
<glyph unicode="&#x43a;" horiz-adv-x="535" d="M71 487h133v-197h31l142 197h143l-166 -219q27 -23 61 -79q16 -27 27.5 -45t21 -28.5t17.5 -14.5t17 -4h8l-1 -97h-56q-24 0 -41 5.5t-32 17.5t-29.5 32t-32.5 50q-16 27 -27.5 45t-22 29t-20 16.5t-20.5 5.5h-19l-1 -201h-133v487z" />
<glyph unicode="&#x43b;" horiz-adv-x="570" d="M18 90q36 5 55.5 41t27.5 114l24 242h374v-487h-133v383h-131l-13 -164q-5 -61 -19.5 -104t-38 -70t-56 -39.5t-72.5 -12.5z" />
<glyph unicode="&#x43c;" horiz-adv-x="699" d="M105 487h129l90 -281q4 -12 8 -25.5t7 -25.5t5 -20.5l2 -8.5h2l2 8.5t5.5 20.5t7.5 25.5t8 25.5l95 281h129l69 -487h-135l-27 216q-3 24 -4.5 44.5t-2.5 28.5h-2q-2 -8 -7.5 -28t-12.5 -43l-68 -218h-127l-68 218q-6 20 -11.5 40.5t-7.5 30.5h-2q-1 -10 -2 -31t-4 -42 l-30 -216h-119z" />
<glyph unicode="&#x43d;" horiz-adv-x="595" d="M71 487h133v-183h187v183h133v-487h-133v197h-187v-197h-133v487z" />
<glyph unicode="&#x43e;" horiz-adv-x="550" d="M274 -12q-64 0 -110 22t-76 58t-44 81.5t-14 92.5t14 93t43.5 82.5t75.5 59t110 22.5t110.5 -22t77 -57.5t45 -81t14.5 -92.5q0 -46 -14.5 -92t-44.5 -83t-76.5 -60t-110.5 -23zM276 89q57 0 80 42t23 111q0 34 -6 63t-19.5 50t-34 33t-48.5 12t-47 -11.5t-31 -31.5 t-17 -48.5t-5 -62.5t6 -63t18.5 -50t32.5 -32.5t48 -11.5z" />
<glyph unicode="&#x43f;" horiz-adv-x="585" d="M71 487h443v-487h-133v381h-177v-381h-133v487z" />
<glyph unicode="&#x440;" horiz-adv-x="559" d="M65 487h130v-51q20 25 52.5 44t82.5 19q93 0 145.5 -66t52.5 -189q0 -58 -16 -105t-45 -80.5t-69 -52t-88 -18.5q-45 0 -72 12t-40 23v-241h-133v705zM282 91q51 0 78 40.5t27 112.5q0 69 -24 109t-73 40q-19 0 -34 -6t-27 -14t-19.5 -16.5t-11.5 -13.5v-219 q13 -11 32.5 -22t51.5 -11z" />
<glyph unicode="&#x441;" horiz-adv-x="458" d="M282 -12q-59 0 -105.5 18.5t-79 52.5t-50 80.5t-17.5 103.5q0 61 19.5 109t53.5 80.5t81 49.5t102 17q60 0 96 -14t53 -25l-43 -91q-17 11 -41 20t-61 9q-59 0 -89 -41.5t-30 -109.5q0 -34 7.5 -62.5t22.5 -49.5t38 -32.5t54 -11.5q42 0 68 11.5t37 18.5l41 -89 q-9 -6 -22 -13.5t-32 -14t-44.5 -11.5t-58.5 -5z" />
<glyph unicode="&#x442;" horiz-adv-x="451" d="M158 382h-144v105h423v-105h-145v-382h-134v382z" />
<glyph unicode="&#x443;" horiz-adv-x="517" d="M78 -234q-31 0 -49 3.5t-26 5.5l19 105q5 -2 15 -3.5t32 -1.5q51 0 74 23t37 62l18 50l-183 477h142l110 -321h3l99 321h137l-201 -539q-16 -43 -35 -77t-45 -57t-61.5 -35.5t-85.5 -12.5z" />
<glyph unicode="&#x444;" horiz-adv-x="787" d="M328 -219v235q-14 -10 -36.5 -19t-57.5 -9q-46 0 -83.5 18.5t-64 52t-41 80.5t-14.5 104t14.5 104.5t41 81t64 52.5t83.5 19q35 0 57.5 -9.5t36.5 -19.5v249h132v-249q13 10 35.5 19.5t57.5 9.5q46 0 83.5 -18.5t64 -52t41 -80.5t14.5 -104t-14.5 -104.5t-41 -81 t-64 -52.5t-83.5 -19q-35 0 -57.5 9t-35.5 19v-235h-132zM171 245q0 -69 22.5 -111.5t68.5 -42.5q27 0 44 10t29 22v242q-12 12 -29 22t-44 10q-46 0 -68.5 -41.5t-22.5 -110.5zM616 243q0 69 -22.5 111.5t-68.5 42.5q-27 0 -44 -10t-29 -22v-242q12 -12 29 -22t44 -10 q46 0 68.5 42t22.5 110z" />
<glyph unicode="&#x445;" horiz-adv-x="511" d="M182 252l-160 235h150l88 -133l78 133h137l-151 -229l172 -258h-150l-101 156l-92 -156h-137z" />
<glyph unicode="&#x446;" horiz-adv-x="609" d="M454 0h-383v487h133v-381h176v381h133v-383h56l-19 -250h-84z" />
<glyph unicode="&#x447;" horiz-adv-x="561" d="M356 192q-10 -12 -24.5 -25.5t-34 -24.5t-43.5 -18t-53 -7q-41 0 -69 12t-45.5 33.5t-25.5 50.5t-8 62v212h133v-184q0 -37 15 -56t51 -19q19 0 36.5 8t31 18.5t23 20.5t13.5 15v197h134v-487h-134v192z" />
<glyph unicode="&#x448;" horiz-adv-x="861" d="M71 487h133v-381h160v381h133v-381h159v381h134v-487h-719v487z" />
<glyph unicode="&#x449;" horiz-adv-x="886" d="M731 0h-660v487h133v-381h160v381h133v-381h159v381h134v-383h56l-19 -250h-84z" />
<glyph unicode="&#x44a;" horiz-adv-x="561" d="M129 383h-115v104h247v-158h76q43 0 80 -9.5t64 -30t42.5 -51t15.5 -72.5q0 -85 -58 -125.5t-158 -40.5h-194v383zM322 95q86 0 86 70q0 35 -20 51t-62 16h-65v-137h61z" />
<glyph unicode="&#x44b;" horiz-adv-x="773" d="M71 487h133v-158h75q43 0 80.5 -9.5t64.5 -30t42.5 -51t15.5 -72.5q0 -84 -58.5 -125t-158.5 -41h-194v487zM265 95q86 0 86 70q0 35 -20.5 51t-61.5 16h-65v-137h61zM567 487h134v-487h-134v487z" />
<glyph unicode="&#x44c;" horiz-adv-x="503" d="M71 487h133v-158h75q43 0 80.5 -9.5t64.5 -30t42.5 -51t15.5 -72.5q0 -84 -58.5 -125t-158.5 -41h-194v487zM265 95q86 0 86 70q0 35 -20.5 51t-61.5 16h-65v-137h61z" />
<glyph unicode="&#x44d;" horiz-adv-x="481" d="M179 -8q-100 0 -160 45l55 94q19 -14 44.5 -23t60.5 -9q52 0 87 27.5t40 72.5h-199v89h199q-6 45 -39 73.5t-86 28.5q-35 0 -61 -10t-44 -22l-50 93q23 17 62.5 31.5t97.5 14.5q67 0 116.5 -20.5t82.5 -55t49 -80t16 -95.5q0 -51 -17 -97.5t-51 -81t-85 -55t-118 -20.5z " />
<glyph unicode="&#x44e;" horiz-adv-x="832" d="M556 -12q-56 0 -98.5 17.5t-72 47t-46.5 67t-23 77.5h-112v-197h-133v487h133v-183h115q8 38 26 73.5t47 62.5t69.5 43t93.5 16q63 0 109.5 -22t77 -57.5t45.5 -81t15 -92.5q0 -46 -14.5 -92t-44.5 -83t-76.5 -60t-110.5 -23zM558 89q28 0 47.5 11t31.5 31.5t17.5 48.5 t5.5 62t-6 63t-19 50t-33.5 33t-48.5 12q-29 0 -48 -11.5t-30.5 -31.5t-16.5 -48.5t-5 -62.5t5.5 -63t18.5 -50t32.5 -32.5t48.5 -11.5z" />
<glyph unicode="&#x44f;" horiz-adv-x="534" d="M29 97h7q16 0 31 14t40 53q12 20 25.5 34t28.5 20v1q-18 3 -36 12.5t-32.5 24.5t-24 36t-9.5 48q0 73 52.5 110t149.5 37h202v-487h-133v186h-24q-11 0 -20.5 -4t-19 -14t-20.5 -26.5t-26 -40.5q-18 -29 -32 -48.5t-29 -31t-32 -16.5t-41 -5h-57v97zM330 275v115h-61 q-41 0 -59 -14.5t-18 -43.5q0 -57 71 -57h67z" />
<glyph unicode="&#x451;" horiz-adv-x="519" d="M285 -12q-61 0 -108.5 18.5t-80 52.5t-49.5 81.5t-17 105.5t18.5 104.5t51 79.5t76.5 51t95 18q104 0 158 -62.5t54 -177.5q0 -11 -0.5 -22.5t-1.5 -23.5h-308q5 -54 34 -90t90 -36q50 0 79.5 12.5t47.5 21.5l43 -86q-12 -7 -28 -15t-37.5 -15t-50.5 -12t-66 -5zM353 303 q0 21 -5 39t-14.5 31.5t-25.5 21.5t-39 8q-43 0 -66.5 -26t-31.5 -74h182zM170 546q-30 0 -50 20t-20 49q0 27 20 47.5t50 20.5q32 0 52 -20.5t20 -47.5q0 -29 -20 -49t-52 -20zM369 546q-31 0 -51 20t-20 49q0 27 20 47.5t51 20.5t51 -20.5t20 -47.5q0 -29 -20 -49t-51 -20 z" />
<glyph unicode="&#x452;" horiz-adv-x="561" d="M289 -68q49 38 72.5 117.5t23.5 180.5q0 69 -23.5 108t-76.5 39q-26 0 -48 -12t-33 -25v-340h-133v563h-43v99h43v58h133v-58h153v-99h-153v-131q19 20 49.5 35t68.5 15q43 0 80 -15t63.5 -46.5t41.5 -79t15 -111.5t-12 -122t-35 -107t-55.5 -87t-74.5 -61z" />
<glyph unicode="&#x453;" horiz-adv-x="406" d="M71 487h320v-104h-187v-383h-133v487zM251 676h172l-140 -135h-115z" />
<glyph unicode="&#x454;" horiz-adv-x="480" d="M296 -8q-67 0 -117 20t-83 54.5t-49.5 80t-16.5 96.5t17 97t51 80.5t84.5 55t118.5 20.5q50 0 88.5 -11t67.5 -31l-55 -93q-18 12 -41.5 20.5t-58.5 8.5q-53 0 -87.5 -27.5t-39.5 -72.5h195v-90h-196q7 -45 40 -73.5t86 -28.5q37 0 64.5 11.5t45.5 24.5l51 -94 q-23 -17 -62.5 -32.5t-102.5 -15.5z" />
<glyph unicode="&#x455;" horiz-adv-x="420" d="M199 -12q-66 0 -108 15.5t-65 30.5l45 93q7 -5 19 -12t28 -13t34.5 -10.5t38.5 -4.5q38 0 59 11t21 33q0 12 -9.5 21t-26 16.5t-39 16.5t-48.5 21q-51 24 -80 56t-29 88q0 69 49.5 109t132.5 40q63 0 101 -14.5t55 -24.5l-47 -91q-14 9 -41.5 20t-62.5 11t-51 -11.5 t-16 -31.5q0 -12 7.5 -20.5t21 -15.5t32 -13.5t39.5 -14.5q29 -12 53.5 -25.5t42 -30.5t27.5 -39.5t10 -53.5q0 -77 -51 -116.5t-142 -39.5z" />
<glyph unicode="&#x456;" horiz-adv-x="280" d="M140 550q-35 0 -58 24t-23 56t23 55t58 23t58.5 -23t23.5 -55t-23.5 -56t-58.5 -24zM73 487h134v-487h-134v487z" />
<glyph unicode="&#x457;" horiz-adv-x="280" d="M73 487h134v-487h-134v487zM36 542q-32 0 -53 21t-21 51q0 29 21 50t53 21t53 -21t21 -50q0 -30 -21 -51t-53 -21zM246 542q-32 0 -53 21t-21 51q0 29 21 50t53 21t53 -21t21 -50q0 -30 -21 -51t-53 -21z" />
<glyph unicode="&#x458;" horiz-adv-x="275" d="M37 -233q-37 0 -57.5 4t-29.5 8l23 103q5 -2 14 -4t24 -2q35 0 47.5 23.5t12.5 80.5v507h134v-521q0 -45 -9 -82t-29.5 -63t-52.5 -40t-77 -14zM137 550q-35 0 -58 24t-23 56t23 55t58 23q36 0 59 -23t23 -55t-23 -56t-59 -24z" />
<glyph unicode="&#x459;" horiz-adv-x="805" d="M18 90q36 5 55.5 41t27.5 114l24 242h380v-158h76q43 0 80 -9.5t64 -30t42.5 -51t15.5 -72.5q0 -84 -58.5 -125t-158.5 -41h-194v383h-138l-13 -164q-5 -61 -19.5 -104t-37.5 -70t-55.5 -39.5t-72.5 -12.5zM566 95q86 0 86 70q0 35 -20 51t-62 16h-65v-137h61z" />
<glyph unicode="&#x45a;" horiz-adv-x="835" d="M71 487h133v-167h197v167h133v-167h77q44 0 81 -9t64 -28.5t42.5 -49t15.5 -71.5q0 -85 -58.5 -123.5t-158.5 -38.5h-196v216h-197v-216h-133v487zM597 95q43 0 64.5 15.5t21.5 50.5q0 34 -20.5 48t-61.5 14h-67v-128h63z" />
<glyph unicode="&#x45b;" horiz-adv-x="562" d="M69 563h-43v99h43v58h133v-58h153v-99h-153v-144q9 10 22.5 22.5t32.5 23t43 18t54 7.5q40 0 68 -12t45 -33t25 -50t8 -63v-332h-133v305q0 37 -14.5 55.5t-50.5 18.5q-19 0 -35.5 -7.5t-29.5 -18t-22 -20.5t-13 -15v-318h-133v563z" />
<glyph unicode="&#x45c;" horiz-adv-x="535" d="M71 487h133v-197h31l142 197h143l-166 -219q27 -23 61 -79q16 -27 27.5 -45t21 -28.5t17.5 -14.5t17 -4h8l-1 -97h-56q-24 0 -41 5.5t-32 17.5t-29.5 32t-32.5 50q-16 27 -27.5 45t-22 29t-20 16.5t-20.5 5.5h-19l-1 -201h-133v487zM279 676h172l-140 -135h-115z" />
<glyph unicode="&#x45e;" horiz-adv-x="517" d="M78 -234q-31 0 -49 3.5t-26 5.5l19 105q5 -2 15 -3.5t32 -1.5q51 0 74 23t37 62l18 50l-183 477h142l110 -321h3l99 321h137l-201 -539q-16 -43 -35 -77t-45 -57t-61.5 -35.5t-85.5 -12.5zM268 530q-31 0 -59.5 9t-52 27.5t-38.5 47t-19 67.5h109q2 -30 17 -47.5 t43 -17.5q27 0 42 17.5t18 47.5h108q-3 -39 -18.5 -67.5t-38.5 -47t-51.5 -27.5t-59.5 -9z" />
<glyph unicode="&#x45f;" horiz-adv-x="587" d="M243 0h-172v487h133v-381h179v381h133v-487h-173l-7 -146h-85z" />
<glyph unicode="&#x490;" horiz-adv-x="491" d="M83 666h281l11 148h89l19 -262h-259v-552h-141v666z" />
<glyph unicode="&#x491;" horiz-adv-x="406" d="M71 487h216l10 146h85l23 -250h-201v-383h-133v487z" />
<glyph unicode="&#x1e80;" horiz-adv-x="988" d="M76 573q-19 2 -36.5 4.5t-25.5 4.5v84h269v-84q-8 -3 -27 -5t-39 -3l69 -265q10 -40 16 -71t10 -51h2q4 19 10.5 53t16.5 74l93 352h132l93 -350q11 -42 17.5 -76.5t9.5 -51.5h3q3 16 9.5 51t16.5 73l68 262q-19 1 -38 3.5t-27 4.5v84h256v-84q-8 -2 -26.5 -5t-37.5 -4 l-162 -573h-127l-97 371q-11 42 -18 77t-9 47h-2q-2 -11 -10.5 -47t-19.5 -77l-103 -371h-126zM310 852h171l83 -135h-114z" />
<glyph unicode="&#x1e81;" horiz-adv-x="806" d="M64 395q-17 2 -31.5 4t-22.5 4v84h245v-84q-8 -2 -24 -4t-33 -4l37 -126q5 -23 13 -52.5t10 -52.5h3q4 22 11.5 52t14.5 54l64 217h131l61 -217q6 -22 14 -51t12 -55h3q3 26 9 54.5t11 50.5l37 126q-18 2 -34 4t-24 4v84h225v-84q-9 -2 -24 -4.5t-33 -3.5l-114 -395h-116 l-72 226q-9 28 -19.5 61.5t-13.5 52.5h-3q-2 -9 -5.5 -23t-8.5 -29.5t-10 -31.5t-9 -29l-73 -227h-114zM218 676h171l83 -135h-114z" />
<glyph unicode="&#x1e82;" horiz-adv-x="988" d="M513 852h172l-140 -135h-115zM76 573q-19 2 -36.5 4.5t-25.5 4.5v84h269v-84q-8 -3 -27 -5t-39 -3l69 -265q10 -40 16 -71t10 -51h2q4 19 10.5 53t16.5 74l93 352h132l93 -350q11 -42 17.5 -76.5t9.5 -51.5h3q3 16 9.5 51t16.5 73l68 262q-19 1 -38 3.5t-27 4.5v84h256 v-84q-8 -2 -26.5 -5t-37.5 -4l-162 -573h-127l-97 371q-11 42 -18 77t-9 47h-2q-2 -11 -10.5 -47t-19.5 -77l-103 -371h-126z" />
<glyph unicode="&#x1e83;" horiz-adv-x="806" d="M421 676h172l-140 -135h-115zM64 395q-17 2 -31.5 4t-22.5 4v84h245v-84q-8 -2 -24 -4t-33 -4l37 -126q5 -23 13 -52.5t10 -52.5h3q4 22 11.5 52t14.5 54l64 217h131l61 -217q6 -22 14 -51t12 -55h3q3 26 9 54.5t11 50.5l37 126q-18 2 -34 4t-24 4v84h225v-84 q-9 -2 -24 -4.5t-33 -3.5l-114 -395h-116l-72 226q-9 28 -19.5 61.5t-13.5 52.5h-3q-2 -9 -5.5 -23t-8.5 -29.5t-10 -31.5t-9 -29l-73 -227h-114z" />
<glyph unicode="&#x1e84;" horiz-adv-x="988" d="M396 724q-30 0 -50 20t-20 49q0 27 20 47.5t50 20.5q32 0 52 -20.5t20 -47.5q0 -29 -20 -49t-52 -20zM595 724q-31 0 -51 20t-20 49q0 27 20 47.5t51 20.5t51 -20.5t20 -47.5q0 -29 -20 -49t-51 -20zM76 573q-19 2 -36.5 4.5t-25.5 4.5v84h269v-84q-8 -3 -27 -5t-39 -3 l69 -265q10 -40 16 -71t10 -51h2q4 19 10.5 53t16.5 74l93 352h132l93 -350q11 -42 17.5 -76.5t9.5 -51.5h3q3 16 9.5 51t16.5 73l68 262q-19 1 -38 3.5t-27 4.5v84h256v-84q-8 -2 -26.5 -5t-37.5 -4l-162 -573h-127l-97 371q-11 42 -18 77t-9 47h-2q-2 -11 -10.5 -47 t-19.5 -77l-103 -371h-126z" />
<glyph unicode="&#x1e85;" horiz-adv-x="806" d="M304 548q-30 0 -50 20t-20 49q0 27 20 47.5t50 20.5q32 0 52 -20.5t20 -47.5q0 -29 -20 -49t-52 -20zM503 548q-31 0 -51 20t-20 49q0 27 20 47.5t51 20.5t51 -20.5t20 -47.5q0 -29 -20 -49t-51 -20zM64 395q-17 2 -31.5 4t-22.5 4v84h245v-84q-8 -2 -24 -4t-33 -4 l37 -126q5 -23 13 -52.5t10 -52.5h3q4 22 11.5 52t14.5 54l64 217h131l61 -217q6 -22 14 -51t12 -55h3q3 26 9 54.5t11 50.5l37 126q-18 2 -34 4t-24 4v84h225v-84q-9 -2 -24 -4.5t-33 -3.5l-114 -395h-116l-72 226q-9 28 -19.5 61.5t-13.5 52.5h-3q-2 -9 -5.5 -23 t-8.5 -29.5t-10 -31.5t-9 -29l-73 -227h-114z" />
<glyph unicode="&#x1ef2;" horiz-adv-x="660" d="M183 85q12 3 35.5 6t43.5 3v135l-190 344q-19 1 -38 4t-27 5v84h275v-84q-7 -2 -22 -4t-32 -4l50 -99q17 -35 33.5 -71.5t27.5 -60.5h1q11 24 28 60t36 72l49 99q-17 2 -32.5 4t-22.5 4v84h255v-84q-8 -3 -28 -5.5t-39 -3.5l-183 -330v-149q19 0 43.5 -3.5t36.5 -5.5v-85 h-300v85zM146 852h171l83 -135h-114z" />
<glyph unicode="&#x1ef3;" d="M94 -234q-30 0 -49 3t-27 6l19 104q5 -2 16 -4t31 -2q26 0 44 6t30.5 16.5t21 26t15.5 35.5l15 42l-152 396q-36 3 -52 8v84h240v-84q-8 -2 -22.5 -4t-29.5 -4l63 -176q8 -20 16 -44.5t11 -43.5h2q4 19 12 43t16 44l62 177q-17 2 -32.5 4t-22.5 4v84h229v-84 q-9 -2 -24 -4.5t-32 -4.5l-174 -445q-17 -42 -35.5 -76t-44 -58t-61 -36.5t-85.5 -12.5zM99 676h171l83 -135h-114z" />
<glyph unicode="&#x2013;" horiz-adv-x="547" d="M46 329h455v-94h-455v94z" />
<glyph unicode="&#x2014;" horiz-adv-x="870" d="M46 329h778v-94h-778v94z" />
<glyph unicode="&#x2015;" horiz-adv-x="870" d="M46 329h778v-94h-778v94z" />
<glyph unicode="&#x2018;" horiz-adv-x="234" d="M115 382q-38 0 -60 25t-22 66q0 29 11.5 58.5t30 57.5t42.5 53.5t49 47.5l46 -42q-21 -22 -37.5 -45t-16.5 -50q0 -15 5.5 -25t11.5 -20t11.5 -22t5.5 -30q0 -32 -22.5 -53t-54.5 -21z" />
<glyph unicode="&#x2019;" horiz-adv-x="234" d="M119 678q38 0 60 -24.5t22 -66.5q0 -29 -11.5 -58t-30 -57t-42.5 -53.5t-49 -47.5l-46 42q21 21 37.5 44t16.5 51q0 15 -5.5 25t-11.5 20t-11.5 22t-5.5 30q0 32 22.5 52.5t54.5 20.5z" />
<glyph unicode="&#x201a;" horiz-adv-x="234" d="M119 153q38 0 60 -24.5t22 -66.5q0 -29 -11.5 -58t-30 -57t-42.5 -53.5t-49 -47.5l-46 42q21 21 37.5 44t16.5 51q0 15 -5.5 25t-11.5 20t-11.5 22t-5.5 30q0 32 22.5 52.5t54.5 20.5z" />
<glyph unicode="&#x201c;" horiz-adv-x="449" d="M115 382q-38 0 -60 25t-22 66q0 29 11.5 58.5t30 57.5t42.5 53.5t49 47.5l46 -42q-21 -22 -37.5 -45t-16.5 -50q0 -15 5.5 -25t11.5 -20t11.5 -22t5.5 -30q0 -32 -22.5 -53t-54.5 -21zM330 382q-38 0 -60 25t-22 66q0 29 11.5 58.5t30 57.5t42.5 53.5t49 47.5l46 -42 q-21 -22 -37.5 -45t-16.5 -50q0 -15 5.5 -25t11.5 -20t11.5 -22t5.5 -30q0 -32 -22.5 -53t-54.5 -21z" />
<glyph unicode="&#x201d;" horiz-adv-x="449" d="M119 678q38 0 60 -24.5t22 -66.5q0 -29 -11.5 -58t-30 -57t-42.5 -53.5t-49 -47.5l-46 42q21 21 37.5 44t16.5 51q0 15 -5.5 25t-11.5 20t-11.5 22t-5.5 30q0 32 22.5 52.5t54.5 20.5zM334 678q38 0 60 -24.5t22 -66.5q0 -29 -11.5 -58t-30 -57t-42.5 -53.5t-49 -47.5 l-46 42q21 21 37.5 44t16.5 51q0 15 -5.5 25t-11.5 20t-11.5 22t-5.5 30q0 32 22.5 52.5t54.5 20.5z" />
<glyph unicode="&#x201e;" horiz-adv-x="449" d="M119 153q38 0 60 -24.5t22 -66.5q0 -29 -11.5 -58t-30 -57t-42.5 -53.5t-49 -47.5l-46 42q21 21 37.5 44t16.5 51q0 15 -5.5 25t-11.5 20t-11.5 22t-5.5 30q0 32 22.5 52.5t54.5 20.5zM334 153q38 0 60 -24.5t22 -66.5q0 -29 -11.5 -58t-30 -57t-42.5 -53.5t-49 -47.5 l-46 42q21 21 37.5 44t16.5 51q0 15 -5.5 25t-11.5 20t-11.5 22t-5.5 30q0 32 22.5 52.5t54.5 20.5z" />
<glyph unicode="&#x2020;" horiz-adv-x="558" d="M202 254l20 126l-72 -9h-110v116h110l72 -9l-15 105v137h144v-137l-14 -105l71 9h110v-116h-110l-71 9l18 -126l-33 -424h-86z" />
<glyph unicode="&#x2021;" horiz-adv-x="569" d="M213 -51l14 105l-72 -9h-110v117h110l72 -10l-18 114l18 114l-72 -9h-110v116h110l72 -9l-14 105v137h143v-137l-14 -105l72 9h110v-116h-110l-72 9l17 -114l-17 -114l72 10h110v-117h-110l-72 9l14 -105v-118h-143v118z" />
<glyph unicode="&#x2022;" horiz-adv-x="487" d="M243 111q-36 0 -68.5 14t-56.5 38t-38 56t-14 68q0 37 14 69t38 56t56.5 38t68.5 14q37 0 69 -14t56 -38t38 -56t14 -69q0 -36 -14 -68t-38 -56t-56 -38t-69 -14z" />
<glyph unicode="&#x2026;" horiz-adv-x="770" d="M143 -10q-37 0 -62.5 25t-25.5 61t25.5 60.5t62.5 24.5t63 -24.5t26 -60.5t-26 -61t-63 -25zM384 -10q-37 0 -62.5 25t-25.5 61t25.5 60.5t62.5 24.5t63 -24.5t26 -60.5t-26 -61t-63 -25zM626 -10q-37 0 -62.5 25t-25.5 61t25.5 60.5t62.5 24.5t63 -24.5t26 -60.5 t-26 -61t-63 -25z" />
<glyph unicode="&#x2030;" horiz-adv-x="1259" d="M1056 -12q-43 0 -74.5 12.5t-52.5 34t-31.5 49.5t-10.5 59q0 30 10.5 58.5t32 50t53.5 35t75 13.5t75 -12.5t53 -33.5t31.5 -49t10.5 -59q0 -30 -11 -58.5t-32.5 -50.5t-53.5 -35.5t-75 -13.5zM1058 65q33 0 45 24t12 54t-13.5 55t-44.5 25q-32 0 -45.5 -23t-13.5 -54 q0 -15 3.5 -29.5t10.5 -26t18.5 -18.5t27.5 -7zM201 187q-43 0 -75 13t-53 34.5t-31.5 49.5t-10.5 58t11 58.5t32.5 50t53.5 35t75 13.5t75 -12.5t53 -33.5t31.5 -48.5t10.5 -58.5q0 -30 -11 -59t-32.5 -51t-53.5 -35.5t-75 -13.5zM203 265q34 0 45.5 23.5t11.5 53.5 t-13.5 55t-44.5 25q-32 0 -45 -22.5t-13 -53.5q0 -30 13.5 -55.5t45.5 -25.5zM681 -12q-43 0 -75 12.5t-53 34t-31.5 49.5t-10.5 59q0 30 11 58.5t32.5 50t53.5 35t75 13.5q42 0 74 -12.5t53 -33.5t31.5 -49t10.5 -59q0 -30 -11 -58.5t-32.5 -50.5t-53.5 -35.5t-74 -13.5z M683 65q33 0 44.5 24t11.5 54t-13.5 55t-44.5 25q-32 0 -45 -23t-13 -54q0 -15 3.5 -29.5t10.5 -26t18.5 -18.5t27.5 -7zM534 487h110l-292 -487h-111z" />
<glyph unicode="&#x2039;" horiz-adv-x="321" d="M31 245l120 193h139l-119 -193l119 -192h-139z" />
<glyph unicode="&#x203a;" horiz-adv-x="321" d="M150 246l-119 192h139l120 -192l-120 -193h-139z" />
<glyph unicode="&#x2044;" horiz-adv-x="137" d="M221 666h101l-408 -666h-102z" />
<glyph unicode="&#x20ac;" horiz-adv-x="614" d="M30 449h71q13 52 38 94.5t61.5 72.5t85 46t107.5 16q68 0 108.5 -12t69.5 -31l-56 -103q-18 11 -45.5 21t-74.5 10q-53 0 -92 -29t-53 -85h156v-91h-174q-1 -6 -1 -11.5v-11.5q0 -10 0.5 -17.5t1.5 -16.5h173v-90h-154q17 -55 55 -81t88 -26q47 0 77.5 13t50.5 27l54 -99 q-12 -9 -28.5 -19t-39.5 -18.5t-52.5 -14t-66.5 -5.5q-50 0 -96 13t-83.5 40t-65.5 69t-43 101h-72v90h59q-1 8 -1 16v17v24h-58v91z" />
<glyph unicode="&#x2116;" horiz-adv-x="1155" d="M83 666h142l240 -345q30 -43 47.5 -73.5t22.5 -38.5h2q-1 7 -2.5 37t-1.5 68v352h128v-666h-129l-259 370q-27 38 -42.5 64t-21.5 36h-2q1 -7 2.5 -32t1.5 -57v-381h-128v666zM930 326q-47 0 -82.5 14t-59 38t-35 55t-11.5 65q0 33 12 64.5t36 55.5t59.5 39t82.5 15 q46 0 81.5 -14t59 -37.5t35.5 -54.5t12 -65q0 -33 -12.5 -64.5t-36.5 -56t-59.5 -39.5t-81.5 -15zM932 416q37 0 50.5 24.5t13.5 57.5t-15.5 58.5t-50.5 25.5t-50 -23t-15 -58q0 -16 4 -31.5t12 -27.5t20.5 -19t30.5 -7z" />
<glyph unicode="&#x2117;" horiz-adv-x="836" d="M417 -14q-77 0 -144.5 29.5t-118 80t-80 118.5t-29.5 145t29.5 145t80 118.5t118 80t144.5 29.5t145 -29.5t118.5 -80t80 -118.5t29.5 -145t-29.5 -145t-80 -118.5t-118.5 -80t-145 -29.5zM417 60q63 0 116.5 21.5t92 61t60.5 94.5t22 122q0 66 -22 121t-60.5 94.5 t-92 61.5t-116.5 22t-116 -22t-91.5 -61.5t-60.5 -94.5t-22 -121q0 -67 22 -122t60.5 -94.5t91.5 -61t116 -21.5zM259 212q8 2 21 4t27 3v289q-14 1 -27 3t-21 4v57h199q39 0 68.5 -11t48.5 -29.5t28.5 -43t9.5 -51.5q0 -28 -9.5 -52.5t-30 -43t-52.5 -29.5t-78 -11h-43v-81 q15 -1 30 -3.5t23 -4.5v-57h-194v57zM442 368q38 0 57.5 17t19.5 49t-16.5 49.5t-54.5 17.5h-48v-133h42z" />
<glyph unicode="&#x2122;" horiz-adv-x="789" d="M316 422q5 2 14 3.5t20 2.5l26 180q-11 1 -21 2.5t-15 3.5v52h127l53 -145q7 -18 11 -34.5t6 -25.5h2q3 8 7.5 24.5t11.5 35.5l52 145h129v-52q-5 -2 -15 -3.5t-21 -2.5l27 -180q10 -1 19.5 -2.5t14.5 -3.5v-52h-140v51q3 0 9 1t13 2l-8 75q-2 12 -3.5 28.5t-1.5 25.5h-2 q-2 -8 -5.5 -25.5t-10.5 -37.5l-44 -120h-73l-40 119q-7 20 -11.5 37.5t-6.5 26.5h-2q0 -8 -1.5 -22.5t-3.5 -32.5l-8 -74q8 -1 14.5 -2t9.5 -1v-51h-133v52zM80 422q6 2 19.5 4t27.5 3v169h-37q-1 -14 -3 -28.5t-4 -22.5h-58v119h286v-119h-57q-2 8 -4 22.5t-3 28.5h-37 v-169q13 -1 26 -3t21 -4v-52h-177v52z" />
<glyph unicode="&#x2126;" horiz-adv-x="764" d="M44 109h126q-23 16 -44 41t-36.5 57.5t-25 71.5t-9.5 83q0 71 26 129.5t71 100t104.5 64t125.5 22.5t125.5 -22.5t104.5 -64t71.5 -100t26.5 -129.5q0 -44 -9.5 -83t-25.5 -71.5t-37 -57.5t-44 -41h127v-109h-282v103q69 45 100 105.5t31 148.5q0 41 -14 78.5t-39 66 t-59.5 45.5t-75.5 17t-75.5 -17t-59.5 -45.5t-39 -66t-14 -78.5q0 -88 31.5 -148.5t100.5 -105.5v-103h-282v109z" />
<glyph unicode="&#x2202;" horiz-adv-x="631" d="M268 -11q-48 0 -90 17t-72.5 46.5t-48 68t-17.5 81.5q0 54 18.5 97t50.5 73t75 46.5t92 16.5q46 0 90 -10t70 -24q-10 58 -36 95.5t-64 59.5t-85.5 30t-99.5 8l33 122q8 1 16 1h16q88 0 157.5 -24t117.5 -69.5t73.5 -112.5t25.5 -152q0 -79 -22.5 -147t-64.5 -117.5 t-101.5 -77.5t-133.5 -28zM282 105q29 0 55 13.5t46.5 37t34.5 56t20 71.5q-22 16 -63 29t-81 13q-51 0 -79 -35.5t-28 -86.5q0 -42 28 -70t67 -28z" />
<glyph unicode="&#x2206;" horiz-adv-x="658" d="M180 116h287l-107 283q-8 19 -14 37.5t-11 34t-8 27t-4 16.5h-2q-2 -5 -5 -16.5t-8 -27t-11 -34t-13 -37.5zM26 72l232 594h134l240 -594v-72h-606v72z" />
<glyph unicode="&#x220f;" horiz-adv-x="853" d="M157 581h-109v119h757v-119h-109v-805h-134v805h-271v-805h-134v805z" />
<glyph unicode="&#x2211;" horiz-adv-x="656" d="M48 -59l273 400l-257 350v88h531v-116h-376l238 -318l-256 -376h409v-115h-562v87z" />
<glyph unicode="&#x2212;" horiz-adv-x="546" d="M86 328h369v-101h-369v101z" />
<glyph unicode="&#x221a;" horiz-adv-x="582" d="M23 487h141l108 -310h2l168 543h135l-243 -720h-124z" />
<glyph unicode="&#x221e;" horiz-adv-x="926" d="M235 79q-42 0 -78 12.5t-63 36t-42.5 55.5t-15.5 71t16.5 72.5t44 58t64 38t77.5 13.5q57 0 112.5 -29t115.5 -76q61 47 116.5 76t110.5 29q41 0 77 -12.5t62.5 -36t42 -55.5t15.5 -71q0 -40 -16.5 -73.5t-44 -57.5t-64.5 -37.5t-78 -13.5q-54 0 -109.5 28.5t-116.5 76.5 q-63 -49 -117.5 -77t-108.5 -28zM239 191q25 0 58 18t72 47q-42 31 -73 49t-59 18q-15 0 -29.5 -4.5t-26 -13t-19 -20t-7.5 -26.5q0 -16 7 -28.5t19 -21.5t27 -13.5t31 -4.5zM692 191q15 0 29 5t25.5 14t18.5 21t7 26q0 16 -7.5 28t-19.5 20.5t-27 13t-31 4.5 q-26 0 -58.5 -18t-70.5 -46q43 -32 75 -50t59 -18z" />
<glyph unicode="&#x222b;" horiz-adv-x="359" d="M34 -234q-32 0 -62 11t-53 27l46 109q21 -10 42 -15.5t38 -5.5q38 0 54.5 32t16.5 84v575q0 44 14 83.5t41 69t67 47t92 17.5q35 0 63 -11t52 -28l-48 -108q-21 10 -40.5 15.5t-37.5 5.5q-37 0 -54.5 -32.5t-17.5 -83.5v-575q0 -44 -13.5 -83.5t-40.5 -69t-67 -47 t-92 -17.5z" />
<glyph unicode="&#x2248;" horiz-adv-x="635" d="M413 63q-35 0 -60.5 9t-48 20t-43 20t-44.5 9q-28 0 -51 -13t-49 -44l-54 93q28 34 69.5 56t90.5 22q35 0 60.5 -9t47.5 -20t43 -20t46 -9q27 0 56.5 15.5t52.5 41.5l50 -95q-28 -35 -72.5 -55.5t-93.5 -20.5zM403 271q-35 0 -60.5 9t-48 20t-43 20t-44.5 9 q-27 0 -50.5 -13t-49.5 -45l-54 94q26 33 67.5 55t92.5 22q35 0 60.5 -9t47.5 -20t43 -20t46 -9q26 0 56 16t53 42l50 -95q-28 -35 -72.5 -55.5t-93.5 -20.5z" />
<glyph unicode="&#x2260;" horiz-adv-x="620" d="M111 18l68 113h-140v99h200l40 65h-240v99h300l84 138l88 -50l-57 -88h127v-99h-188l-39 -65h227v-99h-288l-96 -160z" />
<glyph unicode="&#x2264;" horiz-adv-x="567" d="M55 206v92l453 201v-122l-315 -125l315 -125v-123zM55 -50h453v-103h-453v103z" />
<glyph unicode="&#x2265;" horiz-adv-x="567" d="M60 127l315 125l-315 125v122l452 -201v-92l-452 -202v123zM60 -50h452v-103h-452v103z" />
<glyph unicode="&#x25ca;" horiz-adv-x="692" d="M35 325l253 350h113l256 -330l-251 -347h-116zM350 126l150 214l-157 202l-150 -214z" />
<glyph unicode="&#x25fc;" horiz-adv-x="485" d="M0 485h485v-485h-485v485z" />
<glyph unicode="&#xfb00;" horiz-adv-x="676" d="M29 84q11 3 32.5 6t40.5 3v295h-73v99h73v50q0 88 48 141.5t139 53.5q42 0 70 -6.5t40 -13.5l-34 -96q-8 3 -21.5 6.5t-33.5 3.5q-76 0 -76 -95v-44h181v50q0 88 49 141.5t142 53.5q54 0 81.5 -9t36.5 -14l-29 -96q-7 3 -24 8t-44 5q-80 0 -80 -95v-44h117v-99h-117v-295 q9 0 21.5 -1l25 -2t23.5 -3t16 -3v-84h-285v84q11 3 29.5 6t37.5 3v303h-181v-303q18 0 40.5 -3t33.5 -6v-84h-279v84z" />
<glyph unicode="&#xfb03;" horiz-adv-x="948" d="M29 84q11 3 32.5 6t40.5 3v295h-73v99h73v50q0 88 48 141.5t139 53.5q42 0 70 -6.5t40 -13.5l-34 -96q-8 3 -21.5 6.5t-33.5 3.5q-76 0 -76 -95v-44h181v49q0 91 58.5 143.5t168.5 52.5q39 0 68 -4.5t51 -11t38 -14.5t28 -15l-48 -93q-17 10 -47.5 21t-76.5 11 q-58 0 -83 -25.5t-25 -74.5v-39h157l164 6l-5 -79v-321q17 0 37 -3t31 -6v-84h-270v84q11 3 29.5 6t37.5 3v303h-181v-303q18 0 40.5 -3t33.5 -6v-84h-273v84q11 3 29.5 6t37.5 3v303h-181v-303q18 0 40.5 -3t33.5 -6v-84h-279v84z" />
<glyph unicode="&#xfb04;" horiz-adv-x="964" d="M29 84q11 3 32.5 6t40.5 3v295h-73v99h73v50q0 88 48 141.5t139 53.5q42 0 70 -6.5t40 -13.5l-34 -96q-8 3 -21.5 6.5t-33.5 3.5q-76 0 -76 -95v-44h181v50q0 91 52.5 141.5t147.5 50.5q38 0 70 -4t51 -9l148 7l-6 -80v-550q17 0 37.5 -3t30.5 -6v-84h-269v84q11 3 30 6 t38 3v521q-13 5 -37 9.5t-56 4.5q-56 0 -80.5 -26t-24.5 -74v-41h117v-99h-117v-295q9 0 21.5 -1l25 -2t23.5 -3t16 -3v-84h-285v84q11 3 29.5 6t37.5 3v303h-181v-303q18 0 40.5 -3t33.5 -6v-84h-279v84z" />
<glyph horiz-adv-x="593" d="M296 -12q-68 0 -118 22t-82.5 58t-48 81.5t-15.5 92.5q0 46 16 92t49 83t83 59.5t118 22.5t117.5 -21.5t82 -57t48 -81t15.5 -93.5q0 -46 -16 -92t-48.5 -83t-82.5 -60t-118 -23zM298 86q61 0 91 43t30 113t-30.5 114.5t-92.5 44.5q-61 0 -91 -42.5t-30 -112.5t30.5 -115 t92.5 -45z" />
<glyph horiz-adv-x="450" d="M57 84q9 2 24 4t32 3t34.5 1.5t32.5 0.5v288l-116 -35l-24 94l170 47h102v-394q13 0 29 -0.5t31.5 -1.5t29.5 -3t23 -4v-84h-368v84z" />
<glyph horiz-adv-x="514" d="M23 68q32 21 78.5 53t89.5 68.5t73.5 74t30.5 69.5q0 30 -19 47t-57 17q-35 0 -68 -15.5t-54 -36.5l-61 78q33 32 85 54t120 22q92 0 144 -35t52 -110q0 -41 -22 -78t-56 -70t-74.5 -61t-76.5 -49v-2q19 3 37 4t38 1h195v-99h-455v68z" />
<glyph horiz-adv-x="470" d="M139 -188q-42 0 -67 2.5t-38 4.5l20 103q8 -2 29.5 -5t47.5 -3q34 0 62.5 7t49.5 20.5t32.5 34.5t11.5 48q0 29 -12.5 49t-35 32t-54 17.5t-68.5 5.5v91q26 1 53 9t49 22t36 35t14 47q0 30 -20 47.5t-60 17.5q-33 0 -60.5 -12.5t-48.5 -31.5l-59 80q29 26 77.5 46 t117.5 20q46 0 81.5 -11.5t59.5 -31.5t36.5 -47t12.5 -59t-12.5 -58t-31.5 -46t-42.5 -33t-45.5 -19v-1q28 -3 56 -15.5t50 -33t35.5 -49t13.5 -65.5q0 -50 -21.5 -90.5t-60 -69t-91.5 -43.5t-117 -15z" />
<glyph horiz-adv-x="605" d="M335 0h-315v76l336 411h112v-390h104v-97h-104v-177h-133v177zM158 97h177v220h-2z" />
<glyph horiz-adv-x="469" d="M131 -188q-37 0 -61 4t-35 6l24 101q8 -2 26.5 -5.5t46.5 -3.5q33 0 61.5 8.5t49.5 24.5t33.5 39.5t12.5 54.5q0 33 -11.5 55.5t-32.5 36.5t-49.5 20t-62.5 6q-20 0 -38.5 -1.5t-31.5 -4.5l21 334h334v-99h-217l-8 -132q113 -2 175.5 -56t62.5 -150q0 -53 -21 -97 t-60 -75.5t-94.5 -48.5t-124.5 -17z" />
<glyph horiz-adv-x="563" d="M288 -12q-66 0 -113 24.5t-76 65t-42.5 93t-13.5 109.5q0 88 29 161.5t83 126t131.5 81.5t175.5 29l27 -100q-66 0 -126 -18t-99 -53q-32 -28 -50.5 -64t-25.5 -80q23 18 56.5 31t75.5 13q45 0 83 -13t65.5 -38.5t42.5 -63t15 -85.5q0 -50 -18 -90t-49.5 -69t-75 -44.5 t-95.5 -15.5zM291 84q45 0 70 32.5t25 80.5q0 55 -26 84t-72 29q-37 0 -62.5 -11.5t-42.5 -26.5l-1 -14q-1 -35 5 -66.5t19.5 -55.5t34.5 -38t50 -14z" />
<glyph horiz-adv-x="533" d="M75 -147l284 534h-214q0 -12 -1 -26.5t-2.5 -28t-3.5 -24.5t-3 -17h-99v196h464v-72l-314 -616z" />
<glyph horiz-adv-x="553" d="M272 -12q-56 0 -99 13.5t-71.5 36.5t-43 55t-14.5 70q0 58 35 101t99 76q-60 35 -87 74.5t-27 91.5q0 38 16 69.5t45 54.5t68 35.5t86 12.5q50 0 90 -12t67.5 -33t42.5 -51t15 -66q0 -53 -34 -90t-93 -68q68 -35 105 -79.5t37 -104.5q0 -44 -17.5 -78.5t-48.5 -58.5 t-75 -36.5t-96 -12.5zM276 82q45 0 70.5 26t25.5 64q0 32 -28 60t-85 59q-43 -27 -62 -55.5t-19 -63.5q0 -39 27 -64.5t71 -25.5zM285 405q76 48 76 101q0 34 -21.5 56.5t-59.5 22.5t-59.5 -22t-21.5 -55q0 -29 20.5 -53t65.5 -50z" />
<glyph horiz-adv-x="565" d="M66 -85q66 0 128 18t104 50q34 26 53 61.5t27 81.5q-23 -20 -57.5 -32.5t-76.5 -12.5q-45 0 -82.5 13.5t-65.5 39.5t-43.5 64t-15.5 86t18 87.5t49.5 68t75 44t94.5 15.5q67 0 114 -24t77 -64.5t43.5 -93.5t13.5 -110q0 -89 -28.5 -161.5t-83.5 -123.5t-135 -79t-182 -28 zM277 178q37 0 62.5 11.5t42.5 25.5l1 14q1 36 -5 67.5t-19.5 55t-34.5 37t-50 13.5q-46 0 -71 -32.5t-25 -79.5q0 -55 26.5 -83.5t72.5 -28.5z" />
<glyph d="M277 -12q-64 0 -110 22.5t-75.5 58.5t-43.5 81.5t-14 91.5t14 91.5t44 82.5t76.5 60t110.5 23t110 -22t75.5 -58t43.5 -81.5t14 -91.5t-14.5 -92t-44.5 -83t-76 -60t-110 -23zM279 94q48 0 74.5 39t26.5 109t-27.5 110.5t-75.5 40.5t-74.5 -38.5t-26.5 -108.5t27.5 -111 t75.5 -41z" />
<glyph d="M82 90q13 2 31.5 3.5t39.5 3t41.5 2t37.5 0.5v274l-136 -43l-28 103l194 54h102v-388q15 0 34.5 -0.5t39.5 -2t38.5 -3t31.5 -3.5v-90h-426v90z" />
<glyph d="M38 68q32 21 78.5 53t89.5 68.5t73.5 74t30.5 69.5q0 30 -19 47t-57 17q-35 0 -68 -15.5t-54 -36.5l-61 78q33 32 85 54t120 22q92 0 144 -35t52 -110q0 -41 -22 -78t-56 -70t-74.5 -61t-76.5 -49v-2q19 3 37 4t38 1h195v-99h-455v68z" />
<glyph d="M183 -188q-44 0 -78.5 4.5t-53.5 9.5l22 105q16 -5 47.5 -9t65.5 -4q32 0 60.5 7t49.5 20.5t33.5 33.5t12.5 46q0 30 -17.5 50t-46 31.5t-65 16t-73.5 4.5v93q26 0 58 7.5t60 21t47 34.5t19 48q0 29 -23 45.5t-62 16.5q-40 0 -77 -14.5t-60 -34.5l-61 83q29 26 81.5 49 t130.5 23q46 0 84.5 -10.5t66 -30t43 -46.5t15.5 -61q0 -33 -13.5 -60t-34.5 -46.5t-46 -32t-48 -18.5v-1q28 -3 57.5 -15t53.5 -32.5t39 -49.5t15 -68q0 -52 -24 -92.5t-65 -68t-96 -41.5t-117 -14z" />
<glyph d="M314 0h-299v84l314 403h117v-389h86v-98h-86v-177h-132v177zM148 98h168v221h-1z" />
<glyph d="M179 -188q-40 0 -73.5 4.5t-44.5 7.5l21 106q10 -3 40 -7.5t58 -4.5q31 0 59.5 8t50.5 23.5t34.5 38.5t12.5 53q0 33 -15.5 55.5t-41 36.5t-57 20t-64.5 6q-26 0 -44 -2t-31 -4l22 334h359v-103h-239l-9 -122q55 -1 103 -15.5t83 -42t55.5 -66.5t20.5 -90 q0 -53 -21 -96.5t-60 -74.5t-94.5 -48t-124.5 -17z" />
<glyph d="M282 -12q-66 0 -112.5 24.5t-75.5 65t-42.5 93t-13.5 109.5q0 88 29 161.5t83 126t131.5 81.5t175.5 29l28 -106q-54 0 -104.5 -11.5t-90.5 -36.5t-68 -63.5t-37 -92.5q23 17 56 28t73 11q44 0 81.5 -13.5t65 -39t43 -63.5t15.5 -86q0 -49 -18 -89t-49.5 -68.5t-75 -44 t-94.5 -15.5zM286 90q44 0 68 30.5t24 75.5q0 55 -25 82.5t-70 27.5q-37 0 -62 -10.5t-43 -25.5v-12q0 -34 6 -64.5t19 -53.5t33.5 -36.5t49.5 -13.5z" />
<glyph d="M67 -147l288 525h-198q-1 -20 -3.5 -45.5t-4.5 -35.5h-103v190h466v-72l-335 -616z" />
<glyph d="M278 -12q-57 0 -100.5 13.5t-73 37t-45 56t-15.5 71.5q0 55 34 98.5t96 77.5q-57 33 -84 71t-27 88q0 39 16.5 72t45.5 56t68 36t84 13q51 0 91.5 -12t69 -33.5t43.5 -53t15 -70.5q0 -46 -31.5 -83.5t-89.5 -70.5q66 -35 101 -77.5t35 -105.5q0 -44 -17.5 -78t-48 -57.5 t-73.5 -36t-94 -12.5zM277 87q47 0 72 25t25 60q0 30 -25.5 57.5t-82.5 58.5q-44 -27 -66 -55t-22 -62q0 -36 27 -60t72 -24zM282 406q79 51 79 98q0 32 -21 54t-59 22t-60.5 -21.5t-22.5 -51.5q0 -27 20 -51t64 -50z" />
<glyph d="M55 -79q52 1 104 12t95 34t73 61t39 93q-56 -39 -130 -39q-45 0 -82.5 13.5t-65 39.5t-43 63.5t-15.5 85.5q0 49 19 89t51.5 68t76 43t93.5 15q67 0 113 -24.5t74.5 -65t41.5 -93.5t13 -109q0 -89 -28.5 -161.5t-83.5 -123.5t-134.5 -78.5t-182.5 -27.5zM268 183 q63 0 104 35v11q0 34 -5.5 64.5t-18 54t-33 37t-49.5 13.5q-41 0 -68 -28.5t-27 -79.5q0 -52 25.5 -79.5t71.5 -27.5z" />
<glyph horiz-adv-x="614" d="M307 -12q-73 0 -124.5 29.5t-83.5 78t-47 110.5t-15 127t14 127t46 110.5t83.5 78t125.5 29.5q73 0 124.5 -29.5t84 -78t47.5 -110.5t15 -127t-15 -127t-47.5 -110.5t-84 -78t-123.5 -29.5zM306 94q68 0 98 63.5t30 175.5t-29.5 175.5t-97.5 63.5t-98 -63.5t-30 -175.5 t29.5 -175.5t97.5 -63.5z" />
<glyph horiz-adv-x="470" d="M46 92q12 2 29 4t35.5 3t36.5 1.5t33 0.5v450l-120 -37l-27 104l176 48h104v-565q13 0 30 -0.5t34.5 -1.5t34.5 -3t30 -4v-92h-396v92z" />
<glyph horiz-adv-x="537" d="M19 72q49 43 102 92t97.5 100.5t73 104t28.5 103.5q0 50 -26.5 74t-65.5 24q-43 0 -78 -18.5t-61 -43.5l-63 84q34 33 86 59.5t131 26.5q54 0 95 -14t69 -39.5t42.5 -60.5t14.5 -76q0 -53 -22 -103t-58 -98t-82 -94t-93 -89v-2q14 3 33.5 4t39.5 1h110q1 20 3.5 42.5 t5.5 32.5h100v-182h-482v72z" />
<glyph horiz-adv-x="488" d="M143 -12q-46 0 -74.5 5t-39.5 8l22 106q10 -3 32 -7.5t57 -4.5q72 0 114 26.5t42 78.5q0 57 -48 79.5t-136 23.5v92q75 2 120.5 30t45.5 75q0 34 -22.5 52t-64.5 18q-38 0 -67 -12.5t-49 -28.5l-57 86q27 21 76.5 42t122.5 21q98 0 148.5 -42.5t50.5 -110.5 q0 -32 -11.5 -58t-31 -45.5t-44 -32.5t-50.5 -20v-2q29 -3 58 -15.5t51.5 -33.5t36.5 -50.5t14 -66.5q0 -51 -21 -90.5t-60 -66.5t-93.5 -41.5t-121.5 -14.5z" />
<glyph horiz-adv-x="593" d="M331 138h-308v90l315 438h125v-424h97v-104h-97v-138h-132v138zM156 239q11 2 31 2.5t45 0.5h100v249h-2z" />
<glyph horiz-adv-x="470" d="M121 -12q-39 0 -62.5 4t-33.5 7l20 107q8 -2 29 -6.5t47 -4.5q35 0 65 7t52.5 21.5t35 37t12.5 53.5q0 32 -12 53.5t-33.5 34.5t-51.5 18.5t-67 5.5q-19 0 -38.5 -1t-28.5 -3l20 344h333v-107h-212l-8 -130q111 -3 175.5 -55.5t64.5 -151.5q0 -57 -22 -100.5t-62.5 -73 t-97 -45t-125.5 -15.5z" />
<glyph horiz-adv-x="561" d="M288 -12q-66 0 -113.5 24.5t-77.5 65t-44.5 93.5t-14.5 110q0 90 29 163t83 125t131.5 80.5t174.5 28.5l28 -108q-31 0 -62 -3.5t-59.5 -11t-53.5 -19t-44 -26.5q-32 -26 -51.5 -59.5t-28.5 -78.5q24 20 57.5 31t72.5 11q45 0 83.5 -14t67 -41t44.5 -65.5t16 -86.5 q0 -50 -18 -90.5t-50 -69t-75.5 -44t-94.5 -15.5zM291 90q47 0 70.5 32t23.5 78q0 57 -26 85t-73 28q-35 0 -62 -10.5t-47 -29.5v-7q0 -89 31.5 -132.5t82.5 -43.5z" />
<glyph horiz-adv-x="485" d="M73 15l230 540h-169q0 -10 -1 -22t-2 -23t-2.5 -20.5t-2.5 -13.5h-103v190h431v-73l-261 -619z" />
<glyph horiz-adv-x="528" d="M264 -12q-113 0 -172.5 49.5t-59.5 128.5q0 31 10.5 57.5t28.5 48t41.5 39t48.5 31.5q-47 28 -78 64.5t-31 95.5q0 39 16.5 71.5t45.5 56t68 36t84 12.5q96 0 154.5 -43.5t58.5 -124.5q0 -27 -9.5 -49.5t-26 -41t-38 -34.5t-45.5 -30q26 -14 50.5 -31t43 -39t30 -50 t11.5 -63q0 -43 -17 -77t-47.5 -58t-73 -36.5t-93.5 -12.5zM263 88q46 0 69.5 24t23.5 60q0 39 -31 66.5t-73 50.5q-16 -11 -31 -22.5t-26.5 -26t-18.5 -31.5t-7 -38q0 -38 23.5 -60.5t70.5 -22.5zM268 406q32 20 54 44t22 55q0 32 -19 53t-57 21t-59 -20.5t-21 -50.5 q0 -35 24 -59t56 -43z" />
<glyph horiz-adv-x="561" d="M83 90q60 0 113 15t95 47q32 25 54 60t31 83q-24 -20 -58 -31.5t-73 -11.5q-44 0 -82.5 14t-67 41t-44.5 65.5t-16 86.5q0 50 18 90.5t50 69t75 44t93 15.5q67 0 114.5 -24t78 -64.5t44.5 -93.5t14 -111q0 -91 -26.5 -165t-78.5 -127t-129 -82t-177 -29zM275 353 q36 0 62 10.5t47 29.5v7q0 86 -31 131t-82 45q-47 0 -71 -32t-24 -78q0 -57 26.5 -85t72.5 -28z" />
<glyph horiz-adv-x="568" d="M125 186h-109l17 99h106l16 103h-107l16 98h106l28 180h90l-27 -180h98l28 180h91l-27 -180h101l-17 -98h-99l-16 -103h101l-16 -99h-100l-28 -186h-91l28 186h-99l-28 -186h-90zM228 282h103l16 109h-103z" />
<glyph horiz-adv-x="567" d="M230 -11q-65 5 -111 18.5t-64 29.5v163h102q2 -13 4 -40.5t3 -50.5q20 -6 45 -10.5t57 -4.5q53 0 81.5 24t28.5 58q0 22 -10 38.5t-27.5 29t-42 23t-53.5 21.5q-40 13 -73 29t-56.5 39.5t-36.5 56t-13 79.5q0 73 47.5 120.5t124.5 60.5v114h100v-111q60 -5 99.5 -18 t56.5 -26v-162h-102q-1 6 -2.5 16.5t-2.5 23t-1.5 26t-0.5 24.5q-20 6 -43.5 9.5t-47.5 3.5q-44 0 -69.5 -20t-25.5 -53q0 -20 7.5 -34.5t22.5 -26t37 -21t50 -19.5q39 -15 75 -32t63.5 -41t43.5 -57t16 -81q0 -78 -48 -129.5t-133 -65.5v-114h-101v110z" />
<glyph horiz-adv-x="888" d="M215 331q-46 0 -80.5 14t-57.5 38t-34.5 55t-11.5 65q0 33 11.5 64.5t34.5 55.5t57.5 39t80.5 15t81 -14t58 -37.5t34.5 -54.5t11.5 -64q0 -34 -11.5 -65.5t-35 -56t-58 -39.5t-80.5 -15zM216 411q19 0 32.5 8t22 20.5t12.5 29t4 34.5q0 36 -17.5 65t-54.5 29t-54 -26.5 t-17 -63.5q0 -18 4.5 -35.5t13.5 -31t22.5 -21.5t31.5 -8zM672 -10q-47 0 -81.5 14.5t-57 38.5t-34 55t-11.5 65q0 33 11.5 64t34.5 55.5t57.5 39.5t80.5 15t81 -14t57.5 -38t34 -55t11.5 -64q0 -34 -11.5 -65.5t-34.5 -56t-57.5 -39.5t-80.5 -15zM673 70q38 0 54.5 28.5 t16.5 64.5q0 18 -4.5 34.5t-13.5 29.5t-22.5 21t-31.5 8q-37 0 -54 -26.5t-17 -63.5q0 -18 4.5 -35.5t13.5 -31t22.5 -21.5t31.5 -8zM590 666h106l-401 -666h-106z" />
<glyph horiz-adv-x="347" d="M220 -115q-31 33 -62.5 78t-57.5 101t-42.5 124t-16.5 147q0 76 16.5 143t42.5 122.5t57.5 99t62.5 73.5h126q-25 -27 -53.5 -68.5t-52.5 -96.5t-40 -122.5t-16 -147.5q0 -77 13 -143t35 -122t51.5 -102.5t62.5 -85.5h-126v0z" />
<glyph horiz-adv-x="348" d="M1 -115q29 33 58 76t52.5 97.5t38.5 121.5t15 147q0 78 -14.5 144.5t-38 122.5t-53 100.5t-58.5 78.5h128q31 -33 63 -77.5t58 -100t42 -122t16 -142.5q0 -79 -16.5 -147t-43 -124.5t-58 -100t-61.5 -74.5h-128v0z" />
<glyph horiz-adv-x="330" d="M51 405h228v-108h-228v108z" />
<glyph horiz-adv-x="330" d="M51 405h228v-108h-228v108z" />
<glyph horiz-adv-x="433" d="M272 720h125l-237 -881h-124z" />
<glyph horiz-adv-x="402" d="M34 352l257 251l74 -75l-179 -174l181 -171l-74 -78z" />
<glyph horiz-adv-x="504" d="M43 309h418v-101h-418v101zM43 496h418v-101h-418v101z" />
<glyph horiz-adv-x="402" d="M38 176l178 174l-181 171l74 78l260 -247l-258 -251z" />
<glyph horiz-adv-x="341" d="M65 771h250v-94h-123v-693h123v-94h-250v881z" />
<glyph horiz-adv-x="341" d="M26 -16h123v693h-123v94h250v-881h-250v94z" />
<glyph horiz-adv-x="406" d="M259 -110q-22 0 -43 7.5t-38 23t-27.5 38.5t-10.5 55v173q0 47 -27.5 73t-86.5 27v98q114 1 114 100v163q0 32 10 55t27 38t38.5 22.5t44.5 7.5h119v-96h-62q-31 0 -40.5 -18t-9.5 -50v-149q0 -54 -26 -81t-65 -38v-2q40 -13 65.5 -41.5t25.5 -84.5v-159q0 -35 9 -50.5 t41 -15.5h62v-96h-120v0z" />
<glyph horiz-adv-x="406" d="M26 -14h62q32 0 41.5 18t9.5 50v160q0 54 25.5 81t65.5 38v2q-41 13 -66 41.5t-25 84.5v148q0 35 -9 50.5t-41 15.5h-63v96h121q22 0 43 -7.5t38 -23t27.5 -39t10.5 -54.5v-162q0 -47 27 -73t87 -27v-98q-59 -1 -86.5 -26t-27.5 -74v-174q0 -32 -10.5 -55t-27 -38 t-38.5 -22.5t-44 -7.5h-120v96z" />
<glyph horiz-adv-x="304" d="M152 512q-37 0 -61 24t-24 57q0 34 24 58t61 24q36 0 60 -24t24 -58q0 -33 -24 -57t-60 -24zM98 440h107l25 -440h-156z" />
<glyph horiz-adv-x="414" d="M251 512q-37 0 -60.5 24t-23.5 57q0 34 23.5 58t60.5 24t61 -24t24 -58q0 -33 -24 -57t-61 -24zM237 -12q-105 0 -156.5 47.5t-51.5 124.5q0 56 26 91.5t61 60.5q18 13 34 23t29 20.5t20.5 22t7.5 28.5q0 9 -1.5 19t-3.5 18h95q5 -11 10 -28t5 -35q0 -44 -20 -69t-55 -48 q-32 -21 -52 -41.5t-20 -52.5q0 -35 24.5 -52.5t68.5 -17.5q27 0 50 6.5t39 14.5l46 -98q-26 -14 -63.5 -24t-92.5 -10z" />
<glyph horiz-adv-x="321" d="M31 343l120 193h139l-119 -193l119 -192h-139z" />
<glyph horiz-adv-x="321" d="M150 344l-119 192h139l120 -192l-120 -193h-139z" />
<glyph horiz-adv-x="543" d="M31 343l120 193h139l-119 -193l119 -192h-139zM253 343l120 193h139l-119 -193l119 -192h-139z" />
<glyph horiz-adv-x="543" d="M150 344l-119 192h139l120 -192l-120 -193h-139zM372 344l-119 192h139l120 -192l-120 -193h-139z" />
<glyph horiz-adv-x="547" d="M46 405h455v-94h-455v94z" />
<glyph horiz-adv-x="870" d="M46 405h778v-94h-778v94z" />
<glyph horiz-adv-x="1302" d="M1086 -10q-46 0 -80.5 14.5t-57.5 38.5t-34.5 55t-11.5 65q0 33 11.5 64t35 55.5t58 39.5t80.5 15t80.5 -14t57.5 -38t34.5 -55t11.5 -64q0 -34 -11.5 -65.5t-35 -56t-58 -39.5t-80.5 -15zM1087 72q38 0 54.5 27.5t16.5 63.5q0 18 -4.5 34.5t-13.5 29t-22.5 20.5t-31.5 8 q-37 0 -54 -26t-17 -63q0 -36 17.5 -65t54.5 -29zM215 331q-46 0 -80.5 14t-57.5 38t-34.5 55t-11.5 65q0 33 11.5 64.5t34.5 55.5t57.5 39t80.5 15t81 -14t58 -37.5t34.5 -54.5t11.5 -64q0 -34 -11.5 -65.5t-35 -56t-58 -39.5t-80.5 -15zM216 411q19 0 32.5 8t22 20.5 t12.5 29t4 34.5q0 36 -17.5 65t-54.5 29t-54 -26.5t-17 -63.5q0 -18 4.5 -35.5t13.5 -31t22.5 -21.5t31.5 -8zM672 -10q-47 0 -81.5 14.5t-57 38.5t-34 55t-11.5 65q0 33 11.5 64t34.5 55.5t57.5 39.5t80.5 15t81 -14t57.5 -38t34 -55t11.5 -64q0 -34 -11.5 -65.5t-34.5 -56 t-57.5 -39.5t-80.5 -15zM673 70q38 0 54.5 28.5t16.5 64.5q0 18 -4.5 34.5t-13.5 29.5t-22.5 21t-31.5 8q-37 0 -54 -26.5t-17 -63.5q0 -18 4.5 -35.5t13.5 -31t22.5 -21.5t31.5 -8zM590 666h106l-401 -666h-106z" />
<glyph horiz-adv-x="318" d="M25 84q11 3 32.5 6t40.5 3v304q-22 2 -41 3t-32 1v84q26 3 82.5 5.5t129.5 2.5l-5 -79v-321q17 0 37.5 -3t30.5 -6v-84h-275v84zM165 554q-35 0 -58.5 24t-23.5 56t23.5 55t58.5 23t58 -23t23 -55t-23 -56t-58 -24z" />
<glyph horiz-adv-x="618" d="M8 84q9 2 24.5 5t32.5 4l175 430h137l176 -430q17 -2 32.5 -4.5t24.5 -4.5v-84h-247v84q7 2 21.5 4.5t30.5 3.5l-23 63h-181l-23 -63q16 -1 30.5 -3.5t22.5 -4.5v-84h-233v84zM240 237h121l-26 69q-6 17 -12 35t-10.5 33l-7.5 25t-4 13h-2q0 -2 -3 -12.5t-7.5 -25.5 t-10.5 -33t-12 -35z" />
<glyph d="M33 84q11 3 32 6t40 3v336q-19 0 -40 3t-32 6v85h275q39 0 74 -6.5t61.5 -22t42.5 -41t16 -63.5q0 -53 -27.5 -80t-69.5 -38v-2q24 -3 45.5 -12t38 -25t26 -38t9.5 -50q0 -40 -16 -67.5t-45 -45t-69 -25t-88 -7.5h-273v84zM237 91h65q48 0 70 15.5t22 50.5q0 34 -21 52 t-66 18h-70v-136zM237 307h54q45 0 64.5 16.5t19.5 48.5q0 60 -80 60h-58v-125z" />
<glyph horiz-adv-x="543" d="M314 -9q-71 0 -124.5 20t-89 55.5t-53.5 83t-18 102.5q0 61 20.5 112.5t58.5 89t92 58.5t121 21q54 0 97.5 -11.5t74.5 -33.5v-147h-94q-3 11 -5.5 35.5t-3.5 46.5q-14 5 -31.5 8.5t-36.5 3.5q-73 0 -112.5 -47.5t-39.5 -125.5q0 -84 39.5 -128t109.5 -44q44 0 79 12 q0 22 3 47t6 36h94v-144q-23 -17 -72 -33.5t-115 -16.5z" />
<glyph horiz-adv-x="627" d="M33 84q11 3 32 6t40 3v336q-19 0 -40 3t-32 6v85h251q161 0 237 -68.5t76 -185.5q0 -58 -19 -107t-58 -85t-99 -56.5t-141 -20.5h-247v84zM239 94h51q84 0 125.5 44.5t41.5 125.5q0 82 -41.5 123.5t-130.5 41.5h-46v-335z" />
<glyph horiz-adv-x="529" d="M33 84q11 3 32 6t40 3v336q-19 0 -40 3t-32 6v85h455v-154h-95q-2 8 -4 25.5t-4 37.5h-149v-125h61q2 16 4 28.5t5 20.5h83v-184h-83q-2 7 -4.5 20.5t-4.5 28.5h-61v-130h156q1 20 3 37.5t4 25.5h94v-154h-460v84z" />
<glyph horiz-adv-x="508" d="M37 84q11 3 30 6t38 3v336q-19 0 -40 3t-32 6v85h452v-154h-94q-2 8 -4.5 25.5t-3.5 37.5h-144v-135h67q2 15 4 28t6 21h82v-184h-82q-3 7 -5.5 20.5t-4.5 28.5h-67v-118q19 0 42.5 -3t34.5 -6v-84h-279v84z" />
<glyph horiz-adv-x="614" d="M326 -9q-73 0 -128.5 19.5t-93 54.5t-56.5 83t-19 105q0 60 20.5 111t59.5 88.5t95.5 59t128.5 21.5q68 0 112.5 -13.5t71.5 -31.5v-145h-94q-3 11 -5.5 34t-3.5 44q-18 6 -38.5 10t-45.5 4q-81 0 -120.5 -47t-39.5 -126t39.5 -126.5t118.5 -47.5q35 0 52 5t25 9v73 q-19 0 -40 3t-32 6v84h261v-84q-9 -3 -26.5 -5.5t-35.5 -3.5v-136q-11 -6 -27 -14.5t-40.5 -16t-58.5 -12.5t-80 -5z" />
<glyph horiz-adv-x="716" d="M33 84q11 3 32 6t40 3v336q-19 0 -40 3t-32 6v85h274v-85q-10 -3 -30 -5.5t-38 -3.5v-116h238v116q-19 1 -38.5 3.5t-29.5 5.5v85h274v-85q-11 -3 -32.5 -6t-40.5 -3v-336q19 0 40.5 -3t32.5 -6v-84h-274v84q10 3 29.5 6t38.5 3v127h-238v-127q18 0 38 -3t30 -6v-84h-274 v84z" />
<glyph horiz-adv-x="344" d="M33 84q11 3 32 6t40 3v336q-19 0 -40 3t-32 6v85h279v-85q-11 -3 -32.5 -6t-40.5 -3v-336q19 0 40.5 -3t32.5 -6v-84h-279v84z" />
<glyph horiz-adv-x="323" d="M61 -171q-34 0 -55.5 5t-35.5 10l19 97q6 -3 18 -6t24 -3q34 0 49 16t15 56v425q-19 0 -40.5 3t-32.5 6v85h280v-85q-11 -3 -32.5 -6t-40.5 -3v-433q0 -83 -45.5 -125t-122.5 -42z" />
<glyph horiz-adv-x="627" d="M357 84q6 2 16.5 3.5t22.5 3.5l-157 176v-175q33 -3 51 -8v-84h-257v84q11 3 32 6t40 3v336q-19 0 -40 3t-32 6v85h257v-85q-18 -5 -51 -8v-156l150 157q-12 2 -22 3.5t-16 3.5v85h253v-85q-11 -3 -31 -6t-39 -3l-153 -150l178 -186q17 0 33 -3t27 -6v-84h-262v84z" />
<glyph horiz-adv-x="481" d="M33 84q11 3 32 6t40 3v336q-19 0 -40 3t-32 6v85h279v-85q-11 -3 -32.5 -6t-40.5 -3v-336h116q1 23 3.5 49.5t5.5 38.5h94v-181h-425v84z" />
<glyph horiz-adv-x="813" d="M20 84q9 2 27 5t35 4l58 336q-19 0 -39 3t-31 6v85h215l95 -313q9 -28 15.5 -53.5t10.5 -39.5h2q4 15 10.5 40t15.5 53l99 313h213v-85q-11 -3 -31.5 -6t-39.5 -3l56 -336q17 -1 34.5 -4t27.5 -5v-84h-237v84q8 2 21.5 4t27.5 4l-24 160q-6 30 -8.5 52t-3.5 31h-3 q-2 -8 -7.5 -30.5t-14.5 -50.5l-81 -254h-132l-81 256q-8 26 -13.5 48t-7.5 33h-3q-1 -9 -4 -33t-8 -50l-25 -162q14 -2 27 -4t21 -4v-84h-217v84z" />
<glyph horiz-adv-x="694" d="M33 84q11 3 32 6t40 3v336q-19 0 -40 3t-32 6v85h200l196 -256q9 -13 18.5 -26.5t17.5 -25.5t14 -22t9 -16h2q0 8 -2 33.5t-2 56.5v162q-18 1 -37.5 4t-29.5 5v85h254v-85q-11 -3 -32.5 -6t-40.5 -3v-429h-115l-200 262q-10 13 -20.5 27.5t-19.5 28t-16 24.5t-11 18h-2 q1 -6 2 -29t1 -52v-186q19 -1 38 -3.5t28 -5.5v-84h-252v84z" />
<glyph horiz-adv-x="630" d="M317 -9q-70 0 -124 22t-90.5 59t-55 86t-18.5 103q0 52 18.5 101.5t54.5 87t89.5 60.5t123.5 23t123.5 -22t90 -58.5t55 -85.5t18.5 -103t-18 -103.5t-53.5 -87t-89 -60t-124.5 -22.5zM315 89q39 0 66.5 14.5t45 38.5t26 55t8.5 64t-8 64.5t-25.5 56t-45 39t-65.5 14.5 t-66 -14.5t-46 -38.5t-26.5 -54.5t-8.5 -63.5q0 -34 8.5 -65.5t26.5 -56t45 -39t65 -14.5z" />
<glyph horiz-adv-x="543" d="M33 84q11 3 32 6t40 3v336q-19 0 -40 3t-32 6v85h272q99 0 156.5 -37t57.5 -124q0 -92 -60 -133.5t-169 -41.5h-51v-94q19 0 42.5 -3t34.5 -6v-84h-283v84zM239 276h51q50 0 74 18.5t24 60.5q0 39 -23.5 57t-71.5 18h-54v-154z" />
<glyph horiz-adv-x="630" d="M491 -145q-33 0 -63.5 6.5t-60 23t-59 44t-60.5 70.5q-53 9 -94 33.5t-69 60t-42 78.5t-14 90q0 52 18.5 101.5t54.5 87t89.5 60.5t123.5 23t123.5 -22t90 -58.5t55 -85.5t18.5 -103q0 -46 -13 -89t-39.5 -78.5t-65.5 -61t-91 -36.5q20 -26 46 -40t58 -14q25 0 42 7.5 t25 12.5l39 -79q-13 -9 -43 -20t-69 -11zM315 89q39 0 66.5 14.5t45 38.5t26 55t8.5 64t-8 64.5t-25.5 56t-45 39t-65.5 14.5t-66 -14.5t-46 -38.5t-26.5 -54.5t-8.5 -63.5q0 -34 8.5 -65.5t26.5 -56t45 -39t65 -14.5z" />
<glyph horiz-adv-x="584" d="M33 84q11 3 32 6t40 3v336q-19 0 -40 3t-32 6v85h278q103 0 157 -37t54 -114q0 -33 -11 -56.5t-28.5 -39.5t-40 -26t-44.5 -15v-2q22 -16 57 -64l30 -40q18 -25 38.5 -35t43.5 -10h9v-84q-12 -4 -26.5 -6.5t-37.5 -2.5q-51 0 -78.5 16.5t-48.5 51.5l-59 94 q-12 18 -21.5 29t-17 17t-14.5 8t-16 2h-18v-117q16 -2 31 -4t24 -4v-84h-261v84zM308 294q81 0 81 68q0 33 -20.5 50t-66.5 17h-63v-135h69z" />
<glyph horiz-adv-x="483" d="M231 -9q-35 0 -66 4t-56 10.5t-43.5 14t-27.5 14.5v133h95q2 -9 4 -29.5t3 -40.5q18 -6 40.5 -9.5t50.5 -3.5q42 0 66.5 14.5t24.5 42.5q0 30 -29.5 44t-74.5 25q-29 7 -59.5 17t-55.5 29t-41 48t-16 73q0 37 15 66.5t42 49t64 30t81 10.5q67 0 115 -13t68 -26v-134h-94 q-2 8 -4 28.5t-4 40.5q-17 5 -38 7.5t-41 2.5q-36 0 -58 -13t-22 -39q0 -28 25 -42t70 -25q31 -8 63 -19t58 -29t43 -46.5t17 -70.5q0 -78 -58.5 -121t-156.5 -43z" />
<glyph horiz-adv-x="558" d="M139 84q11 3 32.5 6t40.5 3v336h-88q-1 -23 -3.5 -50t-5.5 -38h-92v182h512v-182h-91q-3 11 -5.5 38t-3.5 50h-89v-336q19 0 40.5 -3t32.5 -6v-84h-280v84z" />
<glyph horiz-adv-x="645" d="M329 -6q-122 0 -180 56t-58 167v212q-19 0 -40.5 3t-32.5 6v85h271v-85q-10 -2 -28.5 -5t-35.5 -4v-207q0 -70 24.5 -100t85.5 -30q57 0 81 31t24 93v213q-18 1 -36.5 4t-28.5 5v85h251v-85q-11 -3 -32 -6t-40 -3v-206q0 -115 -55 -172t-170 -57z" />
<glyph horiz-adv-x="599" d="M71 429q-17 1 -34.5 3.5t-26.5 5.5v85h249v-85q-8 -2 -20.5 -3.5t-28.5 -3.5l72 -211q10 -30 17 -53.5t10 -31.5h2q2 8 9 31.5t17 53.5l68 211q-16 2 -29 3.5t-20 3.5v85h232v-85q-9 -2 -26.5 -5t-34.5 -4l-160 -429h-129z" />
<glyph horiz-adv-x="842" d="M75 429q-17 2 -33.5 4.5t-25.5 4.5v85h235v-85q-8 -2 -23 -3.5t-29 -3.5l46 -160q8 -31 13.5 -61.5t7.5 -40.5h2q2 9 8.5 40t16.5 66l70 248h123l71 -247q5 -18 9 -35.5t7 -32.5t5 -25.5t3 -13.5h2q1 3 3 13.5t5 25.5t7 32t8 32l45 158q-17 2 -32.5 4t-23.5 4v85h231v-85 q-9 -2 -25 -4.5t-33 -3.5l-123 -430h-125l-76 264q-5 16 -9 32t-7 30t-5 24t-3 13h-2q-1 -3 -3 -13t-5.5 -24t-7.5 -30.5t-8 -31.5l-75 -264h-124z" />
<glyph horiz-adv-x="590" d="M14 84q9 2 28 5.5t38 4.5l127 166l-117 169q-19 0 -38 3t-28 6v85h239v-78q-5 -2 -13.5 -3.5t-18.5 -2.5l72 -109l74 108q-11 2 -21.5 3.5t-15.5 3.5v78h229v-85q-10 -3 -28.5 -5.5t-37.5 -3.5l-119 -164l124 -171q19 -1 38 -4.5t29 -5.5v-84h-244v78q6 2 15.5 3.5 t20.5 3.5l-75 112l-80 -112q7 0 22 -3t19 -4v-78h-239v84z" />
<glyph horiz-adv-x="568" d="M147 84q11 3 32.5 6t40.5 3v89l-150 247q-18 1 -35.5 4t-27.5 5v85h244v-85q-4 -1 -18 -3.5t-22 -2.5l80 -145h3l78 145q-11 2 -21.5 3t-15.5 3v85h226v-85q-10 -2 -28.5 -5t-36.5 -4l-143 -240v-96q19 0 40.5 -3t32.5 -6v-84h-279v84z" />
<glyph horiz-adv-x="526" d="M38 75l271 354h-157q-2 -22 -4.5 -46.5t-4.5 -35.5h-94v176h426v-75l-273 -355h180q0 23 3 47.5t5 35.5h95v-176h-447v75z" />
<glyph horiz-adv-x="632" d="M242 -9q-97 0 -151.5 40t-54.5 105q0 27 8.5 49t24 39.5t36.5 31.5t45 26q-28 26 -47 54t-19 64q0 30 14 54.5t38.5 42t57.5 27t71 9.5q78 0 118.5 -32.5t40.5 -83.5q0 -45 -34 -77.5t-84 -56.5l121 -101q18 27 30.5 61.5t14.5 70.5h139v-84q-9 -3 -27 -5.5t-36 -4.5 q-8 -24 -20.5 -48t-30.5 -47l38 -31q20 -1 44 -4t34 -6v-84h-128l-61 51q-37 -27 -82.5 -43.5t-99.5 -16.5zM258 454q-26 0 -42.5 -13.5t-16.5 -37.5q0 -21 14 -37.5t38 -36.5q30 17 46 35t16 41q0 21 -14.5 35t-40.5 14zM248 78q30 0 56.5 8.5t49.5 22.5l-144 122 q-23 -14 -37.5 -33.5t-14.5 -44.5q0 -33 24.5 -54t65.5 -21z" />
<glyph horiz-adv-x="292" d="M147 -9q-35 0 -57.5 22.5t-22.5 53.5q0 30 22.5 52t57.5 22q34 0 56 -22t22 -52q0 -31 -22 -53.5t-56 -22.5zM73 523h146l-21 -334h-102z" />
<glyph horiz-adv-x="292" d="M145 381q-34 0 -56 22.5t-22 52.5q0 31 22 53t56 22q35 0 57.5 -22t22.5 -53q0 -30 -22.5 -52.5t-57.5 -22.5zM94 334h102l22 -334h-145z" />
<glyph horiz-adv-x="367" d="M166 533q45 0 77.5 -10.5t54.5 -28t32.5 -41.5t10.5 -51q0 -24 -6.5 -43t-17 -33.5t-24.5 -25.5t-28 -21q-14 -9 -26.5 -17t-22.5 -15.5t-16 -16t-6 -20.5q0 -11 3 -21h-84q-5 7 -9.5 19t-4.5 29q0 26 12 45t38 35q26 15 45.5 29t19.5 40q0 22 -22 31.5t-52 9.5 q-25 0 -43 -5t-31 -11l-41 90q20 11 53 21.5t88 10.5zM154 -9q-35 0 -57 22.5t-22 53.5q0 30 22 52t57 22q34 0 55.5 -22t21.5 -52q0 -31 -21.5 -53.5t-55.5 -22.5z" />
<glyph horiz-adv-x="367" d="M213 382q-34 0 -55.5 22t-21.5 52q0 31 21.5 53.5t55.5 22.5q35 0 57 -22.5t22 -53.5q0 -30 -22 -52t-57 -22zM202 -10q-45 0 -78 10.5t-54.5 28t-32 41.5t-10.5 51q0 24 6.5 43t17 33.5t24 25.5t27.5 21q13 9 26 17t23 15.5t16 16t6 20.5q0 5 -0.5 10.5t-1.5 10.5h83 q5 -6 10 -18.5t5 -29.5q0 -26 -12 -45t-39 -35q-25 -15 -45 -29t-20 -40q0 -22 22 -32t52 -10q26 0 44 5.5t30 11.5l41 -90q-20 -11 -53 -21.5t-87 -10.5z" />
<glyph horiz-adv-x="623" d="M323 704h172l-140 -135h-115zM10 84q9 2 24.5 5t32.5 4l175 430h137l176 -430q17 -2 32.5 -4.5t24.5 -4.5v-84h-247v84q7 2 21.5 4.5t30.5 3.5l-23 63h-181l-23 -63q16 -1 30.5 -3.5t22.5 -4.5v-84h-233v84zM242 237h121l-26 69q-6 17 -12 35t-10.5 33l-7.5 25t-4 13h-2 q0 -2 -3 -12.5t-7.5 -25.5t-10.5 -33t-12 -35z" />
<glyph horiz-adv-x="623" d="M10 84q9 2 24.5 5t32.5 4l175 430h137l176 -430q17 -2 32.5 -4.5t24.5 -4.5v-84h-247v84q7 2 21.5 4.5t30.5 3.5l-23 63h-181l-23 -63q16 -1 30.5 -3.5t22.5 -4.5v-84h-233v84zM242 237h121l-26 69q-6 17 -12 35t-10.5 33l-7.5 25t-4 13h-2q0 -2 -3 -12.5t-7.5 -25.5 t-10.5 -33t-12 -35zM122 704h171l83 -135h-114z" />
<glyph horiz-adv-x="623" d="M256 729h102l125 -159h-113l-64 66l-64 -66h-113zM10 84q9 2 24.5 5t32.5 4l175 430h137l176 -430q17 -2 32.5 -4.5t24.5 -4.5v-84h-247v84q7 2 21.5 4.5t30.5 3.5l-23 63h-181l-23 -63q16 -1 30.5 -3.5t22.5 -4.5v-84h-233v84zM242 237h121l-26 69q-6 17 -12 35 t-10.5 33l-7.5 25t-4 13h-2q0 -2 -3 -12.5t-7.5 -25.5t-10.5 -33t-12 -35z" />
<glyph horiz-adv-x="623" d="M206 576q-30 0 -50 20t-20 49q0 27 20 47.5t50 20.5q32 0 52 -20.5t20 -47.5q0 -29 -20 -49t-52 -20zM405 576q-31 0 -51 20t-20 49q0 27 20 47.5t51 20.5t51 -20.5t20 -47.5q0 -29 -20 -49t-51 -20zM10 84q9 2 24.5 5t32.5 4l175 430h137l176 -430q17 -2 32.5 -4.5 t24.5 -4.5v-84h-247v84q7 2 21.5 4.5t30.5 3.5l-23 63h-181l-23 -63q16 -1 30.5 -3.5t22.5 -4.5v-84h-233v84zM242 237h121l-26 69q-6 17 -12 35t-10.5 33l-7.5 25t-4 13h-2q0 -2 -3 -12.5t-7.5 -25.5t-10.5 -33t-12 -35z" />
<glyph horiz-adv-x="623" d="M10 84q9 2 24.5 5t32.5 4l175 430h137l176 -430q17 -2 32.5 -4.5t24.5 -4.5v-84h-247v84q7 2 21.5 4.5t30.5 3.5l-23 63h-181l-23 -63q16 -1 30.5 -3.5t22.5 -4.5v-84h-233v84zM242 237h121l-26 69q-6 17 -12 35t-10.5 33l-7.5 25t-4 13h-2q0 -2 -3 -12.5t-7.5 -25.5 t-10.5 -33t-12 -35zM365 574q-23 0 -38 5.5t-28 12t-25 12t-27 5.5q-18 0 -32 -11t-22 -19l-61 53q7 12 18 25.5t25.5 24.5t32 18t37.5 7q23 0 38.5 -5.5t28 -12t24.5 -12t27 -5.5q21 0 35 11.5t21 19.5l61 -53q-8 -13 -19 -26.5t-25.5 -24.5t-32 -18t-38.5 -7z" />
<glyph horiz-adv-x="623" d="M306 563q-21 0 -41 8t-35.5 22.5t-24.5 34t-9 42.5q0 22 9 41.5t24.5 34t35.5 22.5t41 8t41 -8t35.5 -22.5t24.5 -34t9 -41.5q0 -23 -9 -42.5t-24.5 -34t-35.5 -22.5t-41 -8zM306 619q22 0 34 15.5t12 35.5t-12 35t-34 15t-34 -15t-12 -35t12 -35.5t34 -15.5zM10 84 q9 2 24.5 5t32.5 4l175 430h137l176 -430q17 -2 32.5 -4.5t24.5 -4.5v-84h-247v84q7 2 21.5 4.5t30.5 3.5l-23 63h-181l-23 -63q16 -1 30.5 -3.5t22.5 -4.5v-84h-233v84zM242 237h121l-26 69q-6 17 -12 35t-10.5 33l-7.5 25t-4 13h-2q0 -2 -3 -12.5t-7.5 -25.5t-10.5 -33 t-12 -35z" />
<glyph horiz-adv-x="618" d="M8 84q9 2 24.5 5t32.5 4l175 430h137l176 -430q17 -2 32.5 -4.5t24.5 -4.5v-84h-247v84q7 2 21.5 4.5t30.5 3.5l-23 63h-181l-23 -63q16 -1 30.5 -3.5t22.5 -4.5v-84h-233v84zM240 237h121l-26 69q-6 17 -12 35t-10.5 33l-7.5 25t-4 13h-2q0 -2 -3 -12.5t-7.5 -25.5 t-10.5 -33t-12 -35zM304 558q-31 0 -59.5 9t-52 27.5t-38.5 47t-19 67.5h109q2 -30 17 -47.5t43 -17.5q27 0 42 17.5t18 47.5h108q-3 -39 -18.5 -67.5t-38.5 -47t-51.5 -27.5t-59.5 -9z" />
<glyph horiz-adv-x="618" d="M8 84q9 2 24.5 5t32.5 4l175 430h137l176 -430q17 -2 32.5 -4.5t24.5 -4.5v-84h-247v84q7 2 21.5 4.5t30.5 3.5l-23 63h-181l-23 -63q16 -1 30.5 -3.5t22.5 -4.5v-84h-233v84zM240 237h121l-26 69q-6 17 -12 35t-10.5 33l-7.5 25t-4 13h-2q0 -2 -3 -12.5t-7.5 -25.5 t-10.5 -33t-12 -35zM163 685h283v-95h-283v95z" />
<glyph horiz-adv-x="618" d="M8 84q9 2 24.5 5t32.5 4l175 430h137l176 -430q17 -2 32.5 -4.5t24.5 -4.5v-84h-247v84q7 2 21.5 4.5t30.5 3.5l-23 63h-181l-23 -63q16 -1 30.5 -3.5t22.5 -4.5v-84h-233v84zM240 237h121l-26 69q-6 17 -12 35t-10.5 33l-7.5 25t-4 13h-2q0 -2 -3 -12.5t-7.5 -25.5 t-10.5 -33t-12 -35zM537 -230q-54 0 -87 26t-33 73q0 21 7 40.5t17.5 36.5t23 30.5t23.5 23.5h76q-22 -27 -38 -54t-16 -60q0 -45 48 -45q13 0 22.5 2.5t18.5 6.5l16 -62q-11 -6 -30 -12t-48 -6z" />
<glyph horiz-adv-x="790" d="M2 76q8 2 19.5 4t26.5 4l208 353q-18 1 -37.5 4t-28.5 5v77h558v-155h-92q-2 8 -4.5 25.5t-3.5 36.5h-150v-121h65q2 16 4.5 28.5t5.5 20.5h84v-186h-84q-3 6 -5 19.5t-4 29.5h-66v-128h156q2 19 4 36.5t4 25.5h91v-155h-451v76q9 2 28 5t37 4v52h-151l-30 -54 q13 -2 24 -3.5t17 -3.5v-76h-225v76zM367 235v189h-2q-13 -26 -31.5 -61.5t-41.5 -79.5l-26 -48h101z" />
<glyph horiz-adv-x="539" d="M314 -9q-71 0 -124.5 20t-89 55.5t-53.5 83t-18 102.5q0 61 20.5 112.5t58.5 89t92 58.5t121 21q54 0 97.5 -11.5t74.5 -33.5v-147h-94q-3 11 -5.5 35.5t-3.5 46.5q-14 5 -31.5 8.5t-36.5 3.5q-73 0 -112.5 -47.5t-39.5 -125.5q0 -84 39.5 -128t109.5 -44q44 0 79 12 q0 22 3 47t6 36h94v-144q-23 -17 -72 -33.5t-115 -16.5zM275 -230q-32 0 -52 5t-30 10l17 60q8 -4 21 -7.5t30 -3.5q22 0 35 8.5t13 25.5q0 23 -18.5 30.5t-41.5 7.5h-11l36 97h76l-21 -58q31 -7 51 -28t20 -54q0 -42 -34.5 -67.5t-90.5 -25.5z" />
<glyph horiz-adv-x="543" d="M314 704h172l-140 -135h-115zM314 -9q-71 0 -124.5 20t-89 55.5t-53.5 83t-18 102.5q0 61 20.5 112.5t58.5 89t92 58.5t121 21q54 0 97.5 -11.5t74.5 -33.5v-147h-94q-3 11 -5.5 35.5t-3.5 46.5q-14 5 -31.5 8.5t-36.5 3.5q-73 0 -112.5 -47.5t-39.5 -125.5 q0 -84 39.5 -128t109.5 -44q44 0 79 12q0 22 3 47t6 36h94v-144q-23 -17 -72 -33.5t-115 -16.5z" />
<glyph horiz-adv-x="543" d="M120 728h113l64 -66l64 66h113l-127 -159h-102zM314 -9q-71 0 -124.5 20t-89 55.5t-53.5 83t-18 102.5q0 61 20.5 112.5t58.5 89t92 58.5t121 21q54 0 97.5 -11.5t74.5 -33.5v-147h-94q-3 11 -5.5 35.5t-3.5 46.5q-14 5 -31.5 8.5t-36.5 3.5q-73 0 -112.5 -47.5 t-39.5 -125.5q0 -84 39.5 -128t109.5 -44q44 0 79 12q0 22 3 47t6 36h94v-144q-23 -17 -72 -33.5t-115 -16.5z" />
<glyph horiz-adv-x="543" d="M247 729h102l125 -159h-113l-64 66l-64 -66h-113zM314 -9q-71 0 -124.5 20t-89 55.5t-53.5 83t-18 102.5q0 61 20.5 112.5t58.5 89t92 58.5t121 21q54 0 97.5 -11.5t74.5 -33.5v-147h-94q-3 11 -5.5 35.5t-3.5 46.5q-14 5 -31.5 8.5t-36.5 3.5q-73 0 -112.5 -47.5 t-39.5 -125.5q0 -84 39.5 -128t109.5 -44q44 0 79 12q0 22 3 47t6 36h94v-144q-23 -17 -72 -33.5t-115 -16.5z" />
<glyph horiz-adv-x="543" d="M314 -9q-71 0 -124.5 20t-89 55.5t-53.5 83t-18 102.5q0 61 20.5 112.5t58.5 89t92 58.5t121 21q54 0 97.5 -11.5t74.5 -33.5v-147h-94q-3 11 -5.5 35.5t-3.5 46.5q-14 5 -31.5 8.5t-36.5 3.5q-73 0 -112.5 -47.5t-39.5 -125.5q0 -84 39.5 -128t109.5 -44q44 0 79 12 q0 22 3 47t6 36h94v-144q-23 -17 -72 -33.5t-115 -16.5zM297 584q-32 0 -53 21t-21 51q0 29 21 50t53 21t53 -21t21 -50q0 -30 -21 -51t-53 -21z" />
<glyph horiz-adv-x="636" d="M64 306h50v123q-19 0 -40 3t-32 6v85h251q161 0 237 -68.5t76 -185.5q0 -58 -19 -107t-58 -85t-99 -56.5t-141 -20.5h-247v84q11 3 32 6t40 3v118h-50v95zM248 306h102v-95h-102v-117h51q84 0 125.5 44.5t41.5 125.5q0 82 -41.5 123.5t-130.5 41.5h-46v-123z" />
<glyph horiz-adv-x="627" d="M33 84q11 3 32 6t40 3v336q-19 0 -40 3t-32 6v85h251q161 0 237 -68.5t76 -185.5q0 -58 -19 -107t-58 -85t-99 -56.5t-141 -20.5h-247v84zM239 94h51q84 0 125.5 44.5t41.5 125.5q0 82 -41.5 123.5t-130.5 41.5h-46v-335zM124 728h113l64 -66l64 66h113l-127 -159h-102z " />
<glyph horiz-adv-x="636" d="M64 306h50v123q-19 0 -40 3t-32 6v85h251q161 0 237 -68.5t76 -185.5q0 -58 -19 -107t-58 -85t-99 -56.5t-141 -20.5h-247v84q11 3 32 6t40 3v118h-50v95zM248 306h102v-95h-102v-117h51q84 0 125.5 44.5t41.5 125.5q0 82 -41.5 123.5t-130.5 41.5h-46v-123z" />
<glyph horiz-adv-x="536" d="M294 704h172l-140 -135h-115zM33 84q11 3 32 6t40 3v336q-19 0 -40 3t-32 6v85h455v-154h-95q-2 8 -4 25.5t-4 37.5h-149v-125h61q2 16 4 28.5t5 20.5h83v-184h-83q-2 7 -4.5 20.5t-4.5 28.5h-61v-130h156q1 20 3 37.5t4 25.5h94v-154h-460v84z" />
<glyph horiz-adv-x="536" d="M92 704h171l83 -135h-114zM33 84q11 3 32 6t40 3v336q-19 0 -40 3t-32 6v85h455v-154h-95q-2 8 -4 25.5t-4 37.5h-149v-125h61q2 16 4 28.5t5 20.5h83v-184h-83q-2 7 -4.5 20.5t-4.5 28.5h-61v-130h156q1 20 3 37.5t4 25.5h94v-154h-460v84z" />
<glyph horiz-adv-x="536" d="M227 729h102l125 -159h-113l-64 66l-64 -66h-113zM33 84q11 3 32 6t40 3v336q-19 0 -40 3t-32 6v85h455v-154h-95q-2 8 -4 25.5t-4 37.5h-149v-125h61q2 16 4 28.5t5 20.5h83v-184h-83q-2 7 -4.5 20.5t-4.5 28.5h-61v-130h156q1 20 3 37.5t4 25.5h94v-154h-460v84z" />
<glyph horiz-adv-x="536" d="M177 576q-30 0 -50 20t-20 49q0 27 20 47.5t50 20.5q32 0 52 -20.5t20 -47.5q0 -29 -20 -49t-52 -20zM376 576q-31 0 -51 20t-20 49q0 27 20 47.5t51 20.5t51 -20.5t20 -47.5q0 -29 -20 -49t-51 -20zM33 84q11 3 32 6t40 3v336q-19 0 -40 3t-32 6v85h455v-154h-95 q-2 8 -4 25.5t-4 37.5h-149v-125h61q2 16 4 28.5t5 20.5h83v-184h-83q-2 7 -4.5 20.5t-4.5 28.5h-61v-130h156q1 20 3 37.5t4 25.5h94v-154h-460v84z" />
</font>
</defs>
</svg>
