<?xml version="1.0" encoding="utf-8"?>
<!-- Generator: Adobe Illustrator 18.0.0, SVG Export Plug-In . SVG Version: 6.00 Build 0)  -->
<!DOCTYPE svg PUBLIC "-//W3C//DTD SVG 1.1//EN" "http://www.w3.org/Graphics/SVG/1.1/DTD/svg11.dtd">
<svg version="1.1"
	 id="Ebene_1" sodipodi:docname="safari-pinned-tab.svg" inkscape:version="0.91 r13725" xmlns:rdf="http://www.w3.org/1999/02/22-rdf-syntax-ns#" xmlns:svg="http://www.w3.org/2000/svg" xmlns:inkscape="http://www.inkscape.org/namespaces/inkscape" xmlns:cc="http://creativecommons.org/ns#" xmlns:sodipodi="http://sodipodi.sourceforge.net/DTD/sodipodi-0.dtd" xmlns:dc="http://purl.org/dc/elements/1.1/"
	 xmlns="http://www.w3.org/2000/svg" xmlns:xlink="http://www.w3.org/1999/xlink" x="0px" y="0px" width="758.6px" height="225.2px"
	 viewBox="0 264.5 758.6 225.2" enable-background="new 0 264.5 758.6 225.2" xml:space="preserve">
<path id="path3" inkscape:connector-curvature="0" fill="#FFFFFF" d="M673.9,319.7l16.7-6.4v38.5l34-12.2v-51.3l-51.3,18.6v12.8
	H673.9z M704.7,267.7c-28.2,0-50.7,23.1-50.7,51.3c0,28.2,23.1,51.3,50.7,51.3c28.2,0,50.7-23.1,50.7-51.3
	C755.4,290.8,732.9,267.7,704.7,267.7z M704.7,362.7c-23.7,0-43.6-19.3-43.6-43.6c0-24.4,19.3-43.6,43.6-43.6
	c23.7,0,43.6,19.3,43.6,43.6C748.3,343.4,728.4,362.7,704.7,362.7z M590.5,403.1L590.5,403.1C609.1,396,629,380,629,347.9
	c0-39.8-28.9-60.3-79.6-60.3h-86v68.7h-0.6c-10.3-41.7-45.6-68.7-109.7-68.7H231.8l-18.6,80.9c-3.9,16.7-7.1,37.9-7.1,37.9h-0.6
	c0,0-4.5-23.7-8.3-40.4l-16-78.9h-66.7l-16,78.9c-3.9,16.7-8.3,40.4-8.3,40.4h-0.6c0,0-3.2-21.2-7.1-37.9l-18.6-80.9H3.3l53.3,198.9
	h60.3l30.2-127.7h0.6l30.1,127.7h59.7l44.3-164.9h0.6v164.9h68c64.8,0,100.8-29.5,111.7-72.5h0.6v72.5h55.2v-69.9h4.5
	c6.4,0,21.8-0.6,30.8,13.5l34,56.5h59l-30.8-51.3C605.2,417.2,596.9,407.6,590.5,403.1L590.5,403.1L590.5,403.1z M356.2,441h-16.7
	V332.5h15.4c36.6,0,52.6,16,52.6,53.3C407.6,421.7,390.9,441,356.2,441L356.2,441z M548.8,373.6h-30.2v-44.3h28.2
	c18.6,0,26.3,7.7,26.3,22.5C573.2,365.2,565.4,373.6,548.8,373.6z"/>
</svg>
