<?xml version="1.0" encoding="utf-8"?>
<!-- Generator: Adobe Illustrator 18.0.0, SVG Export Plug-In . SVG Version: 6.00 Build 0)  -->
<!DOCTYPE svg PUBLIC "-//W3C//DTD SVG 1.1//EN" "http://www.w3.org/Graphics/SVG/1.1/DTD/svg11.dtd">
<svg version="1.1" id="WDR2_x5F_Logo" xmlns="http://www.w3.org/2000/svg" xmlns:xlink="http://www.w3.org/1999/xlink" x="0px"
	 y="0px" width="292.3px" height="126.3px" viewBox="0 0 292.3 126.3" enable-background="new 0 0 292.3 126.3"
	 xml:space="preserve">
<g>
	<polygon fill="#E10028" points="230.5,6.5 287.9,6.5 257.1,119.8 199.7,119.8 	"/>
	<path fill="#FFFFFF" d="M229.9,66.7c8.8-7.6,17.4-15.2,17.4-23c0-3.4-2-5.1-4.6-5.1c-3,0-6.2,1.7-8.3,3.8l-5.2-7.1
		c2.9-2.8,7.4-5.7,15-5.7c10.8,0,15.5,5.8,15.5,12.9c0,8.3-5.3,14.7-13.5,21.6c0.1,0,2.9-0.3,4.5-0.3h10.9v8.9h-31.6V66.7z"/>
	<path fill="#003C66" d="M172.4,57.2h-9.3V43.4h8.7c5.8,0,8.2,2.3,8.2,6.9C180.1,54.6,177.6,57.2,172.4,57.2 M113,78h-5.2V44.4h4.7
		c11.3,0,16.4,5,16.4,16.4C128.9,72.1,123.8,78,113,78 M193.1,76c-3.1-5.4-5.7-8.2-7.8-9.7v-0.2c5.7-2,12-6.9,12-16.9
		c0-12.4-8.9-18.8-24.6-18.8h-26.7v19.3c0,0,0,1.8,0.1,2.1l-0.1,0c-3.2-12.9-14.1-21.4-34-21.4H74.8L69,55.6
		c-1.2,5.2-2.2,11.7-2.2,11.7h-0.2c0,0-1.3-7.3-2.5-12.5l-4.9-24.4H38.6l-4.9,24.4c-1.2,5.2-2.5,12.5-2.5,12.5H31
		c0,0-1-6.6-2.2-11.7l-5.7-25.1H4.4L20.8,92h18.8l6.7-28.3C47.8,58,49,52.5,49,52.5H49h0.1c0,0,1.2,5.5,2.6,11.2L58.5,92H77
		l13.7-51.1v0h0.2c0,0-0.2,2-0.2,4.8V92h21c20.1,0,31.2-9.2,34.5-22.4l0.1,0c-0.1,0.2-0.1,2.1-0.1,2.1V92h17V70.2h1.3
		c1.9,0,6.8-0.1,9.5,4.2L184.3,92h18.3L193.1,76z"/>
</g>
</svg>
